<svg data-token-name="group_connection" width="24" height="24" viewBox="0 0 24 24" fill="none" xmlns="http://www.w3.org/2000/svg">
<path d="M11.6555 13.6545C12.5697 12.7403 12.5697 11.2581 11.6555 10.3439C10.7413 9.42965 9.25906 9.42965 8.34484 10.3439C7.43063 11.2581 7.43063 12.7403 8.34484 13.6545C9.25905 14.5688 10.7413 14.5688 11.6555 13.6545Z" stroke="currentColor" stroke-width="1.5" stroke-linecap="round" stroke-linejoin="round"/>
<path d="M19.4484 13.4895C20.2713 12.6666 20.2713 11.3325 19.4484 10.5097C18.6256 9.68687 17.2915 9.68687 16.4687 10.5097C15.6459 11.3325 15.6459 12.6666 16.4687 13.4895C17.2915 14.3123 18.6256 14.3123 19.4484 13.4895Z" stroke="currentColor" stroke-width="1.5" stroke-linecap="round" stroke-linejoin="round"/>
<path d="M7.51094 20.382C8.33377 19.5592 8.33377 18.2251 7.51094 17.4023C6.6881 16.5794 5.35402 16.5794 4.53119 17.4023C3.70835 18.2251 3.70835 19.5592 4.53119 20.382C5.35403 21.2049 6.6881 21.2049 7.51094 20.382Z" stroke="currentColor" stroke-width="1.5" stroke-linecap="round" stroke-linejoin="round"/>
<path d="M7.51094 6.59688C8.33377 5.77404 8.33377 4.43996 7.51094 3.61713C6.6881 2.79429 5.35402 2.79429 4.53119 3.61713C3.70835 4.43997 3.70835 5.77404 4.53119 6.59688C5.35403 7.41971 6.6881 7.41971 7.51094 6.59688Z" stroke="currentColor" stroke-width="1.5" stroke-linecap="round" stroke-linejoin="round"/>
<path d="M7.07031 17.0695L8.83031 14.0195" stroke="currentColor" stroke-width="1.5" stroke-linecap="round" stroke-linejoin="round"/>
<path d="M7.07031 6.92969L8.83031 9.97969" stroke="currentColor" stroke-width="1.5" stroke-linecap="round" stroke-linejoin="round"/>
<path d="M15.8498 12H12.3398" stroke="currentColor" stroke-width="1.5" stroke-linecap="round" stroke-linejoin="round"/>
</svg>
