<svg data-token-name="address" width="24" height="24" viewBox="0 0 21 20" fill="none" xmlns="http://www.w3.org/2000/svg">
<path d="M9.66667 2.5H7.16667C6.0616 2.5 5.00179 2.93899 4.22039 3.72039C3.43899 4.50179 3 5.5616 3 6.66667V13.3333C3 14.4384 3.43899 15.4982 4.22039 16.2796C5.00179 17.061 6.0616 17.5 7.16667 17.5H13.8333C14.9384 17.5 15.9982 17.061 16.7796 16.2796C17.561 15.4982 18 14.4384 18 13.3333V10" stroke="currentColor" stroke-width="1.5" stroke-linecap="round" stroke-linejoin="round"/>
<path d="M17.1451 2.52224C17.6921 3.06922 17.9993 3.81109 17.9993 4.58464C17.9993 5.95006 16.5093 7.40864 15.6585 8.12993C15.4957 8.26235 15.2922 8.33464 15.0823 8.33464C14.8724 8.33464 14.6689 8.26235 14.506 8.12993C13.656 7.40865 12.166 5.95006 12.166 4.58464C12.166 3.81109 12.4733 3.06922 13.0203 2.52224C13.5673 1.97526 14.3091 1.66797 15.0827 1.66797C15.8562 1.66797 16.5981 1.97526 17.1451 2.52224Z" stroke="currentColor" stroke-width="1.5" stroke-linecap="round" stroke-linejoin="round"/>
<path d="M3.83398 4.16797L16.334 16.668" stroke="currentColor" stroke-width="1.5" stroke-linecap="round" stroke-linejoin="round"/>
<path d="M3.83398 15.8333L9.66732 10" stroke="currentColor" stroke-width="1.5" stroke-linecap="round" stroke-linejoin="round"/>
</svg>
