<svg data-token-name="address" width="24" height="24" viewBox="0 0 24 24" fill="none" xmlns="http://www.w3.org/2000/svg">
<path d="M11 3H8C6.67392 3 5.40215 3.52678 4.46447 4.46447C3.52678 5.40215 3 6.67392 3 8V16C3 17.3261 3.52678 18.5979 4.46447 19.5355C5.40215 20.4732 6.67392 21 8 21H16C17.3261 21 18.5979 20.4732 19.5355 19.5355C20.4732 18.5979 21 17.3261 21 16V12M4 5L19 20M4 19L11 12M21 5.5C21 4.57174 20.6313 3.6815 19.9749 3.02513C19.3185 2.36875 18.4283 2 17.5 2C16.5717 2 15.6815 2.36875 15.0251 3.02513C14.3687 3.6815 14 4.57174 14 5.5C14 7.13851 15.788 8.88882 16.808 9.75436C17.0034 9.91326 17.2476 10 17.4995 10C17.7514 10 17.9956 9.91326 18.191 9.75436C19.212 8.88881 21 7.13851 21 5.5Z" stroke="currentColor" fill="none" stroke-linecap="round" stroke-linejoin="round"/>
</svg>
