<svg width="24" height="24" viewBox="0 0 24 24" fill="none" xmlns="http://www.w3.org/2000/svg">
<path fill-rule="evenodd" clip-rule="evenodd" d="M19.0711 19.0711C22.9763 15.1658 22.9763 8.83419 19.0711 4.92894C15.1658 1.02369 8.83418 1.02369 4.92894 4.92894C1.02369 8.83416 1.02369 15.1658 4.92894 19.0711C8.83416 22.9763 15.1658 22.9763 19.0711 19.0711ZM13 17.25C13 16.8358 12.4142 16.5 12 16.5C11.5858 16.5 11 16.8358 11 17.25V17.75C11 18.1642 11.5858 18.5 12 18.5C12.4142 18.5 13 18.1642 13 17.75V17.25ZM13 7C13 6.58579 12.4142 6 12 6C11.5858 6 11 6.58579 11 7V13C11 13.4142 11.5858 14 12 14C12.4142 14 13 13.4142 13 13V7Z" fill="black"/>
</svg>
