<svg data-token-name="amocrm" width="24" height="24" viewBox="0 0 24 24" fill="none" xmlns="http://www.w3.org/2000/svg">
<path d="M0 12C0 5.37258 5.37258 0 12 0C18.6274 0 24 5.37258 24 12C24 18.6274 18.6274 24 12 24C5.37258 24 0 18.6274 0 12Z" fill="#329DC7"/>
<path fill-rule="evenodd" clip-rule="evenodd" d="M14.3098 11.271C14.3098 11.012 14.1629 10.8826 13.8689 10.8826C13.6672 10.8826 13.4426 11.0768 13.1954 11.4649C12.9493 11.8526 12.7686 12.2799 12.661 12.7289V12.7524C12.6629 13.0281 12.7039 13.3025 12.7832 13.5675C12.8465 13.7557 12.8875 13.9513 12.9049 14.1499C12.9049 14.4082 12.5757 14.6675 11.918 14.9261C11.8327 14.9617 11.7422 14.9814 11.6505 14.9845C11.5598 14.9868 11.4709 14.9581 11.398 14.903C11.3256 14.8485 11.2735 14.7704 11.2504 14.6816C11.1674 14.4164 11.1299 14.1386 11.1396 13.8604C11.1396 13.5149 11.1495 13.1915 11.1691 12.8899C11.1881 12.5883 11.2075 12.3049 11.2272 12.0399C11.2436 11.8104 11.2632 11.5813 11.2852 11.3522C11.3049 11.1529 11.3141 10.9923 11.3141 10.8691C11.3141 10.6105 11.194 10.481 10.954 10.481C10.7137 10.481 10.4354 10.7638 10.118 11.329C9.80057 11.8926 9.64156 12.3384 9.64156 12.6685C9.63896 12.9777 9.68014 13.2856 9.76385 13.5826C9.82747 13.7715 9.86811 13.9667 9.88583 14.165C9.88583 14.4243 9.55663 14.6829 8.8986 14.9419C8.81359 14.9773 8.72311 14.9969 8.63138 14.9999C8.54069 15.002 8.45189 14.9732 8.37891 14.9181C8.30659 14.8636 8.25446 14.7857 8.23104 14.697C8.19828 14.5829 8.17259 14.467 8.154 14.35C7.99582 14.4562 7.82948 14.5496 7.65646 14.6292C7.36611 14.7705 7.0494 14.846 6.72793 14.8506C6.31708 14.8506 6.04234 14.489 5.90298 13.7671C5.70404 14.0984 5.43406 14.3791 5.11347 14.588C4.71681 14.8203 4.26338 14.9315 3.80689 14.9083C3.56407 14.9191 3.32164 14.8791 3.09441 14.7909C2.86807 14.7033 2.66181 14.5689 2.48849 14.3961C2.32625 14.2334 2.19896 14.038 2.11473 13.8221C2.03094 13.6075 1.99227 13.3772 2.00128 13.1462C2.00128 11.8262 2.43834 10.7856 3.31344 10.0248C3.61554 9.74463 3.96875 9.52827 4.3528 9.38812C4.68229 9.28599 5.02492 9.23499 5.3692 9.23683C5.67086 9.22676 5.9702 9.29318 6.23972 9.43072C6.34792 9.20597 6.47186 9.09292 6.6112 9.09292C6.90501 9.10261 7.18326 9.23037 7.38564 9.4485C7.48696 9.52955 7.57139 9.63056 7.63391 9.74556C7.6964 9.86057 7.73575 9.98723 7.74958 10.1181C7.60999 10.4347 7.45088 10.7419 7.27317 11.0379C7.20175 11.5352 7.17071 12.0378 7.18038 12.5404C7.18038 13.1875 7.26171 13.5112 7.42432 13.5112C7.54792 13.5112 7.77983 13.3583 8.12016 13.053C8.13266 12.4926 8.17541 11.9334 8.24841 11.3777C8.36812 10.6447 8.63712 9.94575 9.03794 9.32605C9.08069 9.23727 9.14456 9.16089 9.22367 9.10392C9.30278 9.04695 9.39461 9.01121 9.49073 9C9.74876 9 9.98516 9.20932 10.199 9.62864C10.255 9.72492 10.3019 9.82655 10.3386 9.93155C10.4881 9.71914 10.6843 9.54563 10.9114 9.42502C11.1401 9.30343 11.3931 9.23764 11.6508 9.2328C11.978 9.23077 12.2951 9.34857 12.5449 9.5649C12.668 9.6636 12.767 9.79016 12.8342 9.93463C12.9014 10.0791 12.9349 10.2375 12.9321 10.3975V10.5256C13.1328 10.2499 13.3942 10.0265 13.6951 9.87352C13.9979 9.71954 14.3316 9.63973 14.6698 9.64038C14.8424 9.62857 15.0156 9.65171 15.1794 9.70848C15.343 9.76517 15.4935 9.85406 15.622 9.97013C15.7278 10.0737 15.8114 10.1987 15.8674 10.3371C15.9234 10.4756 15.9506 10.6244 15.9472 10.7742C15.9499 11.0627 15.9266 11.3512 15.8777 11.6356C15.8348 11.8785 15.7825 12.1196 15.721 12.3582L15.5643 12.958C15.5247 13.0904 15.5013 13.2273 15.4945 13.3656C15.4945 13.4625 15.5256 13.5112 15.5872 13.5112C15.7509 13.4887 15.902 13.4105 16.0171 13.2898C16.1286 13.193 16.2375 13.093 16.3437 12.9903C16.3347 12.8926 16.3321 12.7942 16.3361 12.6957C16.3127 11.8144 16.625 10.9584 17.2069 10.3083C17.496 9.97994 17.8524 9.72094 18.2506 9.54981C18.6511 9.3774 19.0836 9.29647 19.5178 9.31264C19.8734 9.30073 20.2279 9.35729 20.5631 9.47936C21.0198 9.66587 21.2483 9.84064 21.2483 10.0037C21.2483 10.1332 20.929 10.1976 20.2903 10.1976C19.9923 10.1921 19.6964 10.2482 19.4201 10.3626C19.1453 10.4763 18.896 10.6461 18.6876 10.8618C18.475 11.0795 18.3078 11.3393 18.1965 11.6252C18.0857 11.9099 18.0335 12.2147 18.043 12.5209C18.0332 12.8423 18.143 13.1559 18.3506 13.4005C18.4614 13.5209 18.5978 13.6148 18.7496 13.6752C18.9017 13.7356 19.0649 13.7612 19.2276 13.75C19.5544 13.7622 19.8781 13.6815 20.1627 13.5169C19.8978 13.3436 19.6816 13.1025 19.5358 12.8175C19.3914 12.5344 19.3231 12.2172 19.3378 11.8983C19.3353 11.7097 19.3694 11.5224 19.4381 11.3474C19.5069 11.1724 19.6088 11.013 19.7381 10.8785C19.8708 10.7282 20.0337 10.609 20.2155 10.529C20.3983 10.4484 20.5959 10.4087 20.7949 10.4126C21.2244 10.4126 21.5323 10.5313 21.7179 10.7682C21.9217 11.0593 22.0202 11.4139 21.9965 11.7712C21.9425 12.5679 21.6969 13.3595 21.1611 13.9493L21.1614 13.9496C20.4703 14.7265 19.7306 14.9962 18.885 14.9962C18.0391 14.9962 17.3889 14.7768 16.9627 14.3324C16.8664 14.2337 16.7796 14.1262 16.7035 14.0114C16.681 14.0335 16.658 14.0556 16.6345 14.0777C16.1733 14.5564 15.5494 14.8346 14.8928 14.8543C14.3354 14.8543 14.0564 14.3458 14.0564 13.3283C14.0679 12.9721 14.1105 12.6172 14.1843 12.2683C14.2538 11.9402 14.2957 11.6065 14.3098 11.271ZM3.70819 12.7618C3.70819 13.3595 3.92884 13.6584 4.37051 13.6584C4.84265 13.6507 5.23346 13.3985 5.54298 12.9017C5.66193 12.7065 5.75197 12.4945 5.8102 12.2723C5.79739 11.52 5.87536 10.769 6.04234 10.0362C5.41843 10.1579 4.84653 10.4739 4.40493 10.9409C4.17421 11.1813 3.99332 11.4669 3.87311 11.7806C3.75344 12.0927 3.69733 12.4266 3.70819 12.7618ZM21.1746 11.739C21.1713 12.0221 21.1051 12.3009 20.9811 12.5541V12.5622C20.8811 12.4626 20.8023 12.3429 20.7497 12.2106C20.697 12.0784 20.6717 11.9364 20.6752 11.7936C20.6771 11.6923 20.701 11.5926 20.745 11.5018C20.7913 11.4012 20.8493 11.3508 20.9188 11.3508C21.0893 11.3508 21.1746 11.48 21.1746 11.739Z" fill="white"/>
</svg>
