<svg data-token-name="amper_music" width="24" height="24" viewBox="0 0 24 24" fill="none" xmlns="http://www.w3.org/2000/svg">
<path d="M0 12C0 5.37258 5.37258 0 12 0C18.6274 0 24 5.37258 24 12C24 18.6274 18.6274 24 12 24C5.37258 24 0 18.6274 0 12Z" fill="#221F1F"/>
<path d="M17.1327 5.63879C13.7503 4.20766 9.73428 5.31719 6.98558 7.61666C3.58674 10.4709 2.50043 15.9542 6.88683 18.0608C11.0922 20.0949 16.2357 18.6638 19.2724 15.3191C22.2269 12.0628 21.3134 7.39154 17.1327 5.63879ZM15.1247 15.1261C14.3593 15.2708 13.6351 15.0618 13.0426 14.6357C11.6024 15.4718 9.81658 15.2146 8.92778 14.0085C7.9896 12.7141 8.42577 10.8407 9.89888 9.80357C10.7054 9.24076 11.6518 9.0478 12.4994 9.19252C13.2648 9.32116 13.6845 10.1332 13.3224 10.8086L13.0344 11.3633C12.7052 10.9774 12.1538 10.7523 11.5448 10.8005C10.6231 10.8809 9.94002 11.5644 10.0059 12.3282C10.0717 13.092 10.8782 13.6548 11.7917 13.5744C12.4501 13.5181 13.0014 13.1483 13.2236 12.6578L13.2319 12.6658L14.0302 11.098C14.3676 11.4035 14.8037 11.6046 15.2728 11.6608L14.919 12.3121L14.8284 12.4809C14.1207 13.8719 15.1247 15.1261 15.1247 15.1261ZM15.6185 11.0176C14.9354 10.897 14.4416 10.5915 14.1289 9.81965C13.808 8.73423 13.2648 8.59755 12.483 8.58147C13.199 8.10711 14.1701 8.09103 14.9107 8.62167C15.7008 9.17644 15.9723 10.1734 15.6185 11.0176Z" fill="white"/>
</svg>
