<svg data-token-name="animation_motion" width="24" height="24" viewBox="0 0 24 24" fill="none" xmlns="http://www.w3.org/2000/svg">
<path d="M5.72177 10C5.5327 10.1239 5.35097 10.2582 5.17742 10.402C3.84946 11.5026 3 13.163 3 15.0121C3 16.3556 3.45399 17.5956 4.20847 18.5961C5.30262 20.0517 7.03802 21 8.98789 21C10.837 21 12.4974 20.1505 13.598 18.8226C13.7418 18.649 13.8761 18.4673 14 18.2782" stroke="#202427" stroke-width="1.5" stroke-linecap="round" stroke-linejoin="round" stroke-dasharray="3 3"/>
<path d="M14.5 16C18.075 16 21 13.075 21 9.5C21 5.925 18.075 3 14.5 3C10.925 3 8 5.925 8 9.5C8 10.9584 8.49282 12.3045 9.31182 13.3905C10.4995 14.9706 12.3834 16 14.5 16Z" stroke="#202427" stroke-width="1.5" stroke-linecap="round" stroke-linejoin="round"/>
</svg>
