<svg data-token-name="api" xmlns="http://www.w3.org/2000/svg" xmlns:xlink="http://www.w3.org/1999/xlink" width="24" height="24" viewBox="0 0 24 24"><defs><clipPath id="a"><path class="a" d="M0,0H24V24H0Z" transform="translate(20 280)"/></clipPath></defs><g class="b" transform="translate(-20 -280)"><g transform="translate(20 280)"><path class="a" d="M7,7H5A2.006,2.006,0,0,0,3,9v8H5V13H7v4H9V9A2.006,2.006,0,0,0,7,7m0,4H5V9H7m7-2H10V17h2V13h2a2.006,2.006,0,0,0,2-2V9a2.006,2.006,0,0,0-2-2m0,4H12V9h2m6,0v6h1v2H17V15h1V9H17V7h4V9Z"/><path fill="none" d="M0,0H24V24H0Z"/></g></g></svg>