<svg data-token-name="apple_icon" width="24" height="24" viewBox="0 0 24 24" fill="none" xmlns="http://www.w3.org/2000/svg">
<path d="M11.1402 7.03379C10.2674 7.03379 8.91626 6.09065 7.49342 6.12474C5.61624 6.14747 3.8945 7.15878 2.92601 8.76097C0.977093 11.9767 2.42384 16.7265 4.32493 19.34C5.25755 20.6126 6.35755 22.0444 7.81625 21.9989C9.21517 21.9421 9.74126 21.1354 11.4391 21.1354C13.125 21.1354 13.6032 21.9989 15.0858 21.9649C16.5924 21.9421 17.5489 20.6695 18.4696 19.3854C19.5337 17.9082 19.9761 16.4765 20 16.397C19.9641 16.3856 17.0706 15.3288 17.0348 12.1472C17.0109 9.48821 19.3185 8.21555 19.4261 8.15873C18.1109 6.32928 16.0902 6.12474 15.3848 6.07929C13.5435 5.94293 12.0011 7.03379 11.1402 7.03379ZM14.2489 4.3521C15.0261 3.46579 15.5402 2.22721 15.3967 1C14.2848 1.04545 12.9456 1.70451 12.1445 2.59083C11.4271 3.37488 10.8054 4.63618 10.9728 5.84067C12.2043 5.93157 13.4717 5.23842 14.2489 4.3521Z" fill="black"/>
</svg>
