<svg data-token-name="applications" width="24" height="24" viewBox="0 0 24 24" fill="none" xmlns="http://www.w3.org/2000/svg">
<path d="M5 6C3.895 6 3 6.895 3 8V19C3 20.1 3.9 21 5 21H19C20.105 21 21 20.105 21 19V8C21 6.9 20.1 6 19 6M5 6H19M5 6L4.99977 5C4.99977 3.895 5.89477 3 6.99977 3H16.9998C18.1048 3 18.9998 3.895 18.9998 5L19 6M11.0523 11.0865L14.6581 12.9704C15.114 13.2085 15.114 13.7915 14.6581 14.0296L11.0523 15.9135C10.5876 16.1559 10 15.8601 10 15.3838V11.6162C10.001 11.1399 10.5886 10.8441 11.0523 11.0865Z" stroke="currentColor" fill="none"  stroke-linecap="round" stroke-linejoin="round"/>
</svg>
