<svg data-token-name="applications_new" width="24" height="24" viewBox="0 0 24 24" fill="none" xmlns="http://www.w3.org/2000/svg">
<path d="M21 10V16.5C21 17.6935 20.5259 18.8381 19.682 19.682C18.8381 20.5259 17.6935 21 16.5 21H7.5C6.30653 21 5.16193 20.5259 4.31802 19.682C3.47411 18.8381 3 17.6935 3 16.5V7.5C3 6.30653 3.47411 5.16193 4.31802 4.31802C5.16193 3.47411 6.30653 3 7.5 3H14M14 8H7M7 12H17M7 16H17M22 4.5C22 5.88071 20.8807 7 19.5 7C18.1193 7 17 5.88071 17 4.5C17 3.11929 18.1193 2 19.5 2C20.8807 2 22 3.11929 22 4.5Z" stroke="black" stroke-width="1.5" stroke-linecap="round" stroke-linejoin="round"/>
</svg>
