<svg data-token-name="arrow_to_grow_circle" width="32" height="32" viewBox="0 0 32 32" fill="none" xmlns="http://www.w3.org/2000/svg">
<path fill-rule="evenodd" clip-rule="evenodd" d="M16.0003 29.3327C23.3641 29.3327 29.3337 23.3631 29.3337 15.9993C29.3337 8.63555 23.3641 2.66602 16.0003 2.66602C8.63653 2.66602 2.66699 8.63555 2.66699 15.9993C2.66699 23.3631 8.63653 29.3327 16.0003 29.3327ZM16.749 12.5827C16.3348 12.5827 15.999 12.9185 15.999 13.3327C15.999 13.7469 16.3348 14.0827 16.749 14.0827H17.7746C17.7594 14.1012 17.7414 14.1226 17.7208 14.1465C17.6314 14.2506 17.4921 14.4036 17.3022 14.5855C16.9218 14.9498 16.3423 15.4269 15.5584 15.8619C14.0822 16.6809 11.8526 17.3678 8.79721 16.8285C8.76624 16.5564 8.75033 16.2797 8.75033 15.9993C8.75033 11.9949 11.9959 8.74935 16.0003 8.74935C16.4145 8.74935 16.7503 8.41356 16.7503 7.99935C16.7503 7.58514 16.4145 7.24935 16.0003 7.24935C11.1674 7.24935 7.25033 11.1665 7.25033 15.9993C7.25033 20.8322 11.1674 24.7493 16.0003 24.7493C20.8332 24.7493 24.7503 20.8322 24.7503 15.9993C24.7503 15.5851 24.4145 15.2493 24.0003 15.2493C23.5861 15.2493 23.2503 15.5851 23.2503 15.9993C23.2503 20.0038 20.0048 23.2493 16.0003 23.2493C12.8379 23.2493 10.1489 21.2253 9.15776 18.4018C12.2722 18.815 14.643 18.0852 16.2862 17.1735C17.2018 16.6654 17.8836 16.1056 18.3397 15.6687C18.5357 15.481 18.6906 15.3154 18.8052 15.1854V16.1389C18.8052 16.5531 19.141 16.8889 19.5552 16.8889C19.9695 16.8889 20.3052 16.5531 20.3052 16.1389V13.3327C20.3052 12.9185 19.9695 12.5827 19.5552 12.5827H16.749ZM18.4449 14.4438L18.8052 14.706V14.7061L18.4449 14.4438Z" fill="currentColor"/>
</svg>
