<svg data-token-name="arrow_to_grow_circle" width="24" height="24" viewBox="0 0 24 24" fill="none" xmlns="http://www.w3.org/2000/svg">
<path fill-rule="evenodd" clip-rule="evenodd" d="M12 22C17.5228 22 22 17.5228 22 12C22 6.47715 17.5228 2 12 2C6.47715 2 2 6.47715 2 12C2 17.5228 6.47715 22 12 22ZM12.5615 9.25C12.1473 9.25 11.8115 9.58579 11.8115 10C11.8115 10.4142 12.1473 10.75 12.5615 10.75H12.9024C12.8846 10.7676 12.866 10.7857 12.8467 10.8042C12.5709 11.0683 12.149 11.4159 11.5776 11.7329C10.5271 12.3158 8.94361 12.8124 6.76994 12.4608C6.75674 12.309 6.75 12.1553 6.75 12C6.75 9.10021 9.10021 6.75 12 6.75C12.4142 6.75 12.75 6.41421 12.75 6C12.75 5.58579 12.4142 5.25 12 5.25C8.27179 5.25 5.25 8.27179 5.25 12C5.25 15.7282 8.27179 18.75 12 18.75C15.7282 18.75 18.75 15.7282 18.75 12C18.75 11.5858 18.4142 11.25 18 11.25C17.5858 11.25 17.25 11.5858 17.25 12C17.25 14.8998 14.8998 17.25 12 17.25C9.81775 17.25 7.94675 15.919 7.15442 14.0244C9.38127 14.254 11.0964 13.7153 12.3053 13.0446C13.0086 12.6544 13.5327 12.2242 13.8843 11.8874L13.9162 11.8567V12.1047C13.9162 12.5189 14.252 12.8547 14.6662 12.8547C15.0804 12.8547 15.4162 12.5189 15.4162 12.1047V10C15.4162 9.58579 15.0804 9.25 14.6662 9.25H12.5615Z" fill="currentColor"/>
</svg>
