<svg data-token-name="artist" width="24" height="24" version="1.1" id="Layer_1" xmlns="http://www.w3.org/2000/svg" xmlns:xlink="http://www.w3.org/1999/xlink" x="0px" y="0px"
	 viewBox="0 0 24 24" style="enable-background:new 0 0 24 24;" xml:space="preserve">
<path fill="none" d="M0,0h24v24H0V0z"/>
<path d="M11,14c1,0,2.1,0.2,3.2,0.4c-0.8,0.9-1.2,1.9-1.2,3.1c0,0.9,0.3,1.7,0.8,2.5H3v-2c0-1.2,0.9-2.1,2.7-2.9
	C7.6,14.4,9.3,14,11,14 M11,12c-1.1,0-2-0.4-2.8-1.2C7.4,10.1,7,9.1,7,8c0-1.1,0.4-2,1.2-2.8C9,4.4,9.9,4,11,4
	c1.1,0,2.1,0.4,2.8,1.2C14.6,6,15,6.9,15,8c0,1.1-0.4,2.1-1.2,2.8S12.1,12,11,12 M18.5,10H20h2v2h-2v5.5c0,1.4-1.1,2.5-2.5,2.5
	S15,18.9,15,17.5s1.1-2.5,2.5-2.5c0.4,0,0.7,0.1,1,0.2V10z"/>
</svg>
