<svg data-token-name="assets_unassigned" width="24" height="24" viewBox="0 0 24 24" fill="none" xmlns="http://www.w3.org/2000/svg">
<path d="M21 13V16.5C21 17.6935 20.5259 18.8381 19.682 19.682C18.8381 20.5259 17.6935 21 16.5 21H7.5C6.30653 21 5.16193 20.5259 4.31802 19.682C3.47411 18.8381 3 17.6935 3 16.5V7.5C3 6.30653 3.47411 5.16193 4.31802 4.31802C5.16193 3.47411 6.30653 3 7.5 3H11M10 8H7M7 12H13M7 16H17M16.125 4.95833C16.125 4.6287 16.2227 4.30646 16.4059 4.03238C16.589 3.7583 16.8493 3.54468 17.1539 3.41853C17.4584 3.29239 17.7935 3.25938 18.1168 3.32369C18.4401 3.388 18.7371 3.54673 18.9702 3.77982C19.2033 4.01291 19.362 4.30988 19.4263 4.63318C19.4906 4.95648 19.4576 5.2916 19.3315 5.59614C19.2053 5.90068 18.9917 6.16098 18.7176 6.34412C18.4435 6.52725 18.1213 6.625 17.7917 6.625M17.7917 8.63V8.29167M23 6C23 8.76142 20.7614 11 18 11C15.2386 11 13 8.76142 13 6C13 3.23858 15.2386 1 18 1C20.7614 1 23 3.23858 23 6Z" stroke="currentColor" fill="none"  stroke-width="1.5" stroke-linecap="round" stroke-linejoin="round"/>
</svg>
