<?xml version="1.0" encoding="utf-8"?>
<!-- Generator: Adobe Illustrator 24.0.1, SVG Export Plug-In . SVG Version: 6.00 Build 0)  -->
<svg version="1.1" id="Layer_1" xmlns="http://www.w3.org/2000/svg" xmlns:xlink="http://www.w3.org/1999/xlink" x="0px" y="0px"
	 viewBox="0 0 24 24" style="enable-background:new 0 0 24 24;" xml:space="preserve">
<style type="text/css">
	.st0{fill:none;}
</style>
<path class="st0" d="M0,0h24v24H0V0z"/>
<path d="M18.4,15c-1.9,0-3.5,1.6-3.5,3.5s1.6,3.5,3.5,3.5s3.5-1.6,3.5-3.5S20.4,15,18.4,15z M19.1,20.7h-1.4v-2.2h1.4V20.7z
	 M19.1,17.7h-1.4v-1.4h1.4V17.7z"/>
<path d="M13.6,18.5c0-2.7,2.2-4.8,4.8-4.8c1,0,1.8,0.3,2.6,0.8V5c0-1.1-0.9-2-2-2h-4.2c-0.4-1.2-1.5-2-2.8-2S9.6,1.8,9.2,3H5
	C3.9,3,3,3.9,3,5v14c0,1.1,0.9,2,2,2h9.3C13.9,20.3,13.6,19.4,13.6,18.5z M12,3c0.5,0,1,0.5,1,1s-0.5,1-1,1s-1-0.5-1-1S11.5,3,12,3z
	 M7,7h10v2H7V7z M7,11h10v2H7V11z M13,17H7v-2h6V17z"/>
</svg>
