<svg data-token-name="assist_icon" width="24" height="24" version="1.1" id="Layer_1" xmlns="http://www.w3.org/2000/svg" xmlns:xlink="http://www.w3.org/1999/xlink" x="0px" y="0px"
	 viewBox="0 0 24 24" style="enable-background:new 0 0 24 24;" xml:space="preserve">
<path d="M13.6,2h-3.2C5.8,2,2,5.8,2,10.4v10.3C2,21.4,2.6,22,3.3,22h10.3c4.6,0,8.4-3.8,8.4-8.4c0,0,0,0,0,0v-3.2
	C22,5.8,18.2,2,13.6,2z M16.9,13.7C16.9,13.7,16.9,13.7,16.9,13.7c0,1.1-0.9,1.9-1.9,1.9h-3.7l-2.5,2.5c-0.1,0.1-0.1,0.1-0.2,0.1
	c-0.2,0-0.3-0.1-0.3-0.3v-2.3c-1-0.1-1.8-0.9-1.8-1.9V9.5c0,0,0,0,0,0c0-1.1,0.9-1.9,1.9-1.9h6.8c0,0,0,0,0,0c0.9,0,1.7,0.8,1.7,1.7
	V13.7z"/>
<path d="M15,8.5H8.4c-0.6,0-1,0.5-1,1l0,4.1c0,0.6,0.5,1,1,1h0.7v1.4c0,0,0,0.1,0,0.1c0.1,0.1,0.2,0.1,0.2,0l1.5-1.5h4
	c0.6,0,1-0.5,1-1V9.5C16,9,15.5,8.5,15,8.5z M11.7,13.7c-0.2,0-0.4-0.2-0.4-0.4c0-0.2,0.2-0.4,0.4-0.4s0.4,0.2,0.4,0.4
	C12.1,13.5,11.9,13.7,11.7,13.7z M12.1,11.8C12.1,11.8,12.1,11.9,12.1,11.8l0,0.3l0,0c0,0,0,0.1,0,0.1c0,0.2-0.2,0.4-0.4,0.3
	s-0.4-0.2-0.3-0.4v-0.3c0-0.3,0.2-0.6,0.5-0.8c0.2-0.1,0.4-0.3,0.4-0.5c0-0.3-0.2-0.5-0.5-0.5c-0.1,0-0.3,0-0.4,0.2
	c-0.1,0.1-0.2,0.2-0.2,0.4c0,0,0,0.1,0,0.1c0,0.2-0.2,0.4-0.4,0.3s-0.4-0.2-0.3-0.4c0,0,0,0,0,0c0-0.7,0.6-1.3,1.3-1.2
	c0.5,0,1,0.4,1.1,0.9C13.1,10.9,12.8,11.6,12.1,11.8z"/>
</svg>
