<svg data-token-name="assist" width="81" height="24" viewBox="0 0 81 24" fill="none" xmlns="http://www.w3.org/2000/svg">
<path fill-rule="evenodd" clip-rule="evenodd" d="M1.17438 24H70.47C76.3074 24 81.0394 19.1647 81.0394 13.2V10.8C81.0394 4.83533 76.3074 0 70.47 0H10.5694C4.73208 0 0 4.83533 0 10.8V22.8C0 23.4628 0.525786 24 1.17438 24Z" fill="currentColor"/>
<path d="M12.4852 14.8688C12.7211 14.8674 12.947 14.7714 13.1143 14.6016C13.2816 14.4318 13.3769 14.2017 13.3797 13.9609C13.3769 13.7195 13.2818 13.4888 13.1146 13.3181C12.9475 13.1474 12.7216 13.0503 12.4852 13.0474H9.94269C9.36344 13.0478 8.79712 12.8726 8.31538 12.5441C7.83364 12.2157 7.45815 11.7486 7.23643 11.2022C7.01471 10.6557 6.95673 10.0543 7.06983 9.47415C7.18293 8.89401 7.46203 8.36116 7.87179 7.94306C8.13961 7.65942 8.46161 7.43495 8.81782 7.28354C9.17404 7.13212 9.5569 7.057 9.94269 7.06281H14.3935C14.5957 7.05998 14.7941 7.11896 14.9632 7.23217C15.1323 7.34537 15.2644 7.50764 15.3425 7.69811C15.4206 7.88857 15.4411 8.09854 15.4015 8.30102C15.3618 8.5035 15.2638 8.68925 15.1199 8.83438C15.0253 8.93269 14.9122 9.01036 14.7873 9.0627C14.6624 9.11504 14.5285 9.14095 14.3935 9.13887H9.94269C9.76567 9.13768 9.59233 9.19048 9.44488 9.29051C9.29743 9.39053 9.18257 9.53324 9.11502 9.70034C9.04747 9.86744 9.0303 10.0513 9.06572 10.2284C9.10114 10.4056 9.18755 10.5679 9.31385 10.6945C9.39513 10.7806 9.49292 10.8487 9.60112 10.8944C9.70933 10.9401 9.82561 10.9625 9.94269 10.9603H12.4852C13.2406 10.9935 13.9542 11.3232 14.4771 11.8807C15.0001 12.4383 15.292 13.1805 15.292 13.9526C15.292 14.7246 15.0001 15.4668 14.4771 16.0244C13.9542 16.5819 13.2406 16.9117 12.4852 16.9449H8.029C7.8947 16.9449 7.76173 16.9178 7.63773 16.8651C7.51372 16.8124 7.40112 16.7353 7.30641 16.6381C7.2117 16.5408 7.13674 16.4254 7.08584 16.2985C7.03495 16.1716 7.00913 16.0357 7.00984 15.8985C7.00703 15.7622 7.03209 15.6268 7.08343 15.501C7.13477 15.3752 7.21126 15.2617 7.308 15.1677C7.40183 15.0684 7.51486 14.99 7.63991 14.9376C7.76496 14.8852 7.89929 14.8599 8.03442 14.8633L12.4852 14.8688Z" fill="#F2F3F9"/>
<path d="M22.9346 8.07426C22.9346 7.79191 23.0387 7.55662 23.247 7.36838C23.4553 7.16446 23.7116 7.0625 24.016 7.0625C24.3205 7.0625 24.5768 7.15662 24.7851 7.34485C24.9934 7.53309 25.0975 7.77623 25.0975 8.07426V13.1801C25.0975 14.3252 24.713 15.2429 23.9439 15.9331C23.1749 16.6076 22.1495 16.9449 20.8677 16.9449C19.602 16.9449 18.5846 16.6076 17.8155 15.9331C17.0625 15.2429 16.686 14.3252 16.686 13.1801V8.07426C16.686 7.77623 16.7821 7.54093 16.9744 7.36838C17.1827 7.18015 17.447 7.08603 17.7675 7.08603C18.0879 7.08603 18.3443 7.18015 18.5365 7.36838C18.7448 7.54093 18.849 7.77623 18.849 8.07426V13.1801C18.849 13.7292 19.0332 14.1762 19.4017 14.5213C19.7702 14.8507 20.2589 15.0154 20.8677 15.0154C21.4926 15.0154 21.9893 14.8507 22.3578 14.5213C22.7423 14.1762 22.9346 13.7292 22.9346 13.1801V8.07426Z" fill="white"/>
<path fill-rule="evenodd" clip-rule="evenodd" d="M26.6366 16.0272C26.6366 16.534 27.0543 16.9449 27.5696 16.9449C28.0849 16.9449 28.5026 16.534 28.5026 16.0272V14.0931H30.7705C31.6605 14.0931 32.4213 13.9519 33.0529 13.6696C33.694 13.3872 34.1868 12.9825 34.5313 12.4554C34.8758 11.9284 35.0481 11.3025 35.0481 10.5778C35.0481 9.85309 34.8758 9.22721 34.5313 8.70015C34.1868 8.17308 33.694 7.76838 33.0529 7.48603C32.4213 7.20368 31.6605 7.0625 30.7705 7.0625H27.9415C27.2208 7.0625 26.6366 7.63712 26.6366 8.34592V16.0272ZM28.5026 12.5401H30.6844C31.5074 12.5401 32.1247 12.3707 32.5361 12.0319C32.9572 11.6837 33.1677 11.199 33.1677 10.5778C33.1677 9.94721 32.9572 9.4625 32.5361 9.12368C32.1247 8.78485 31.5074 8.61544 30.6844 8.61544H28.5026V12.5401Z" fill="white"/>
<path fill-rule="evenodd" clip-rule="evenodd" d="M36.45 16.0272C36.45 16.534 36.8677 16.9449 37.383 16.9449C37.8983 16.9449 38.316 16.534 38.316 16.0272V14.0931H40.584C41.474 14.0931 42.2347 13.9519 42.8663 13.6696C43.5074 13.3872 44.0003 12.9825 44.3448 12.4554C44.6893 11.9284 44.8616 11.3025 44.8616 10.5778C44.8616 9.85309 44.6893 9.22721 44.3448 8.70015C44.0003 8.17308 43.5074 7.76838 42.8663 7.48603C42.2347 7.20368 41.474 7.0625 40.584 7.0625H37.7549C37.0343 7.0625 36.45 7.63712 36.45 8.34592V16.0272ZM38.316 12.5401H40.4979C41.3209 12.5401 41.9381 12.3707 42.3496 12.0319C42.7707 11.6837 42.9811 11.199 42.9811 10.5778C42.9811 9.94721 42.7707 9.4625 42.3496 9.12368C41.9381 8.78485 41.3209 8.61544 40.4979 8.61544H38.316V12.5401Z" fill="white"/>
<path d="M45.846 12.0244C45.8426 11.2102 46.0391 10.4077 46.418 9.68839C46.7969 8.96907 47.3464 8.35518 48.0177 7.90132C48.689 7.44745 49.4613 7.16768 50.2658 7.08689C51.0704 7.00609 51.8823 7.12677 52.6294 7.4382C53.3765 7.74963 54.0356 8.24215 54.5481 8.87196C55.0605 9.50178 55.4105 10.2494 55.5669 11.0482C55.7232 11.8471 55.6811 12.6725 55.4442 13.451C55.2074 14.2296 54.7832 14.9371 54.2093 15.5107C53.5229 16.1968 52.6504 16.6633 51.7015 16.8516C50.7526 17.0399 49.7696 16.9417 48.876 16.5692C47.9824 16.1966 47.2181 15.5665 46.679 14.7579C46.1399 13.9493 45.8501 12.9983 45.846 12.0244ZM53.5769 12.0244C53.5779 11.4591 53.4123 10.9061 53.101 10.4357C52.7896 9.96523 52.3466 9.59847 51.828 9.38187C51.3094 9.16527 50.7387 9.1086 50.1881 9.21903C49.6375 9.32946 49.1319 9.60202 48.7353 10.0022C48.3387 10.4023 48.069 10.912 47.9604 11.4667C47.8518 12.0214 47.9092 12.596 48.1253 13.1178C48.3414 13.6396 48.7064 14.085 49.1742 14.3976C49.642 14.7103 50.1914 14.876 50.7528 14.8738C51.1266 14.8784 51.4975 14.8068 51.8432 14.6634C52.189 14.52 52.5023 14.3077 52.7645 14.0393C53.031 13.7778 53.2416 13.4641 53.3832 13.1176C53.5247 12.7711 53.5944 12.3991 53.5878 12.0244H53.5769Z" fill="white"/>
<path d="M65.61 8.15872C65.61 7.85331 65.7216 7.59698 65.9448 7.38973C66.1798 7.17158 66.4617 7.0625 66.7907 7.0625L74.6632 7.08456C74.9921 7.08456 75.2741 7.18818 75.509 7.39543C75.7322 7.61358 75.8438 7.87537 75.8438 8.18078C75.8438 8.4862 75.7264 8.74798 75.4914 8.96613C75.2682 9.17338 74.9921 9.277 74.6632 9.277H72.1352V15.9034C72.0647 16.5579 71.677 16.9124 70.9722 16.9669C70.6432 16.9669 70.3554 16.8687 70.1087 16.6724C69.8737 16.4652 69.7562 16.2088 69.7562 15.9034V9.277L66.7907 9.25494C66.4617 9.25494 66.1856 9.14587 65.9624 8.92771C65.7275 8.72047 65.61 8.46414 65.61 8.15872Z" fill="white"/>
<path d="M58.9059 14.2747V15.7873C58.9089 15.9213 58.885 16.0545 58.8359 16.1787C58.7868 16.3028 58.7134 16.4152 58.6203 16.5089C58.531 16.6042 58.4236 16.6794 58.3048 16.73C58.1859 16.7806 58.0582 16.8054 57.9297 16.8029C57.7995 16.8059 57.6701 16.7814 57.5495 16.7308C57.4289 16.6803 57.3197 16.6047 57.2287 16.5089C57.1366 16.4144 57.0638 16.3019 57.0148 16.1779C56.9657 16.054 56.9413 15.9212 56.9431 15.7873V8.21361C56.9418 8.08144 56.9665 7.95038 57.0155 7.82824C57.0646 7.7061 57.1371 7.59539 57.2287 7.50274C57.3187 7.40516 57.4276 7.32811 57.5483 7.27655C57.6691 7.22499 57.799 7.20008 57.9297 7.20342H61.606C62.2056 7.20262 62.7949 7.36351 63.3153 7.67006C63.8357 7.97661 64.269 8.41813 64.5721 8.95066C64.8751 9.48318 65.0374 10.0881 65.0426 10.7053C65.0479 11.3224 64.8961 11.9302 64.6022 12.4682C64.325 12.9804 63.9267 13.4125 63.4442 13.7242L64.7579 15.0765C64.9406 15.2674 65.043 15.5247 65.043 15.7927C65.043 16.0607 64.9406 16.3179 64.7579 16.5089C64.5724 16.6969 64.3225 16.8023 64.0621 16.8023C63.8018 16.8023 63.5519 16.6969 63.3663 16.5089L61.201 14.2747H58.9059ZM63.06 10.7417C63.0559 10.3405 62.8992 9.95678 62.6236 9.67301C62.3479 9.38924 61.9751 9.22797 61.5853 9.2238H58.8851V12.2544H61.5853C61.7787 12.2551 61.9703 12.2165 62.1492 12.1408C62.3281 12.0651 62.4907 11.9537 62.6277 11.8132C62.7647 11.6727 62.8734 11.5057 62.9476 11.3218C63.0218 11.138 63.06 10.9408 63.06 10.7417Z" fill="white"/>
</svg>
