<svg data-token-name="bank_building_colored" width="24" height="24" viewBox="0 0 24 24" fill="none" xmlns="http://www.w3.org/2000/svg">
<rect width="24" height="24" rx="12" fill="#E8178A"/>
<path d="M19.4276 18.6638L17.8651 16.9763C17.8358 16.9446 17.7991 16.9191 17.7576 16.9016C17.7161 16.8841 17.6709 16.875 17.6251 16.875H6.37491C6.32911 16.875 6.28387 16.8841 6.24239 16.9016C6.20092 16.9191 6.16422 16.9446 6.13491 16.9763L4.57238 18.6638C4.53438 18.7048 4.51016 18.7548 4.50257 18.8078C4.49497 18.8608 4.50431 18.9146 4.5295 18.963C4.55468 19.0114 4.59466 19.0524 4.64476 19.081C4.69486 19.1097 4.75301 19.125 4.81239 19.125H19.1876C19.247 19.125 19.3051 19.1097 19.3552 19.081C19.4053 19.0524 19.4453 19.0114 19.4705 18.963C19.4957 18.9146 19.505 18.8608 19.4974 18.8078C19.4898 18.7548 19.4656 18.7048 19.4276 18.6638Z" fill="white"/>
<path d="M8.625 11.625H6.375C6.16789 11.625 6 11.7435 6 11.8897V15.8603C6 16.0065 6.16789 16.125 6.375 16.125H8.625C8.83211 16.125 9 16.0065 9 15.8603V11.8897C9 11.7435 8.83211 11.625 8.625 11.625Z" fill="white"/>
<path d="M13.125 11.625H10.875C10.6679 11.625 10.5 11.7435 10.5 11.8897V15.8603C10.5 16.0065 10.6679 16.125 10.875 16.125H13.125C13.3321 16.125 13.5 16.0065 13.5 15.8603V11.8897C13.5 11.7435 13.3321 11.625 13.125 11.625Z" fill="white"/>
<path d="M17.625 11.625H15.375C15.1679 11.625 15 11.7435 15 11.8897V15.8603C15 16.0065 15.1679 16.125 15.375 16.125H17.625C17.8321 16.125 18 16.0065 18 15.8603V11.8897C18 11.7435 17.8321 11.625 17.625 11.625Z" fill="white"/>
<path d="M5.91504 10.7412C5.94303 10.7823 5.98098 10.8161 6.02551 10.8394C6.07005 10.8627 6.11979 10.875 6.17032 10.875H17.8297C17.8802 10.875 17.93 10.8627 17.9745 10.8394C18.019 10.8161 18.057 10.7823 18.085 10.7412L18.6986 9.8412C18.7294 9.79602 18.747 9.74354 18.7497 9.68933C18.7523 9.63513 18.7399 9.58124 18.7137 9.5334C18.6875 9.48556 18.6485 9.44556 18.6009 9.41767C18.5533 9.38977 18.4988 9.37503 18.4433 9.375H5.55667C5.50117 9.37503 5.44671 9.38977 5.39911 9.41767C5.3515 9.44556 5.31252 9.48556 5.28633 9.5334C5.26013 9.58124 5.2477 9.63513 5.25035 9.68933C5.253 9.74354 5.27064 9.79602 5.30139 9.8412L5.91504 10.7412Z" fill="white"/>
<path d="M5.55754 8.625H18.4425C18.5122 8.62517 18.5799 8.60113 18.6345 8.55684C18.689 8.51255 18.7271 8.45064 18.7425 8.38134C18.7578 8.31203 18.7495 8.23946 18.719 8.1756C18.6884 8.11173 18.6374 8.06037 18.5744 8.02999L12.1319 4.90497C12.0906 4.88523 12.0456 4.875 12 4.875C11.9544 4.875 11.9094 4.88523 11.8681 4.90497L5.42563 8.02999C5.36257 8.06037 5.31156 8.11173 5.28101 8.1756C5.25045 8.23946 5.24217 8.31203 5.25754 8.38134C5.2729 8.45064 5.31099 8.51255 5.36553 8.55684C5.42007 8.60113 5.48779 8.62517 5.55754 8.625Z" fill="white"/>
</svg>
