<svg data-token-name="bank_card_virtual_blue" width="24" height="24" viewBox="0 0 24 24" fill="none" xmlns="http://www.w3.org/2000/svg">
<path d="M0 12C0 5.37258 5.37258 0 12 0C18.6274 0 24 5.37258 24 12C24 18.6274 18.6274 24 12 24C5.37258 24 0 18.6274 0 12Z" fill="#8756FF"/>
<path d="M6.60059 9.79999H18.3006" stroke="white" stroke-width="1" stroke-linecap="round" stroke-linejoin="round"/>
<path d="M10.8707 12.4H9.2002" stroke="white" stroke-width="1" stroke-linecap="round" stroke-linejoin="round"/>
<path d="M12.4506 16.3H8.55059C7.47354 16.3 6.60059 15.427 6.60059 14.35V9.14998C6.60059 8.07293 7.47354 7.19998 8.55059 7.19998H16.3506C17.4276 7.19998 18.3006 8.07293 18.3006 9.14998V11.75" stroke="white" stroke-width="1" stroke-linecap="round" stroke-linejoin="round"/>
<path d="M16.3572 13.6324V11.9676C16.3572 11.9315 16.3459 11.8964 16.3251 11.8674C16.3043 11.8385 16.275 11.8173 16.2416 11.807C16.2082 11.7967 16.1725 11.7978 16.1398 11.8103C16.1071 11.8227 16.0791 11.8458 16.0601 11.876L13.8257 15.463C13.8105 15.4874 13.8019 15.5157 13.8009 15.5448C13.7999 15.5739 13.8064 15.6028 13.8199 15.6283C13.8334 15.6539 13.8533 15.6752 13.8775 15.69C13.9017 15.7048 13.9293 15.7126 13.9574 15.7125H15.6839C15.7033 15.7122 15.7226 15.716 15.7406 15.7235C15.7586 15.731 15.775 15.7422 15.7889 15.7563C15.8027 15.7705 15.8137 15.7873 15.8211 15.8059C15.8286 15.8245 15.8325 15.8444 15.8325 15.8645V17.4904C15.8317 17.5246 15.8418 17.5581 15.8612 17.5858C15.8807 17.6135 15.9084 17.6338 15.94 17.6436C15.9717 17.6533 16.0056 17.652 16.0364 17.6398C16.0673 17.6276 16.0935 17.6053 16.1108 17.5761L18.3245 14.0399C18.3404 14.0146 18.3495 13.9853 18.3506 13.9551C18.3518 13.9249 18.3451 13.895 18.3313 13.8684C18.3174 13.8419 18.2969 13.8197 18.2718 13.8042C18.2468 13.7888 18.2182 13.7806 18.1891 13.7806H16.4964C16.4594 13.7786 16.4246 13.7623 16.3988 13.7348C16.373 13.7073 16.3581 13.6708 16.3572 13.6324Z" fill="white"/>
</svg>
