<?xml version="1.0" encoding="iso-8859-1"?>
<!-- Generator: Adobe Illustrator 19.0.0, SVG Export Plug-In . SVG Version: 6.00 Build 0)  -->
<svg version="1.1" id="Capa_1" xmlns="http://www.w3.org/2000/svg" xmlns:xlink="http://www.w3.org/1999/xlink" x="0px" y="0px"
	 viewBox="0 0 512 512" style="enable-background:new 0 0 512 512;" xml:space="preserve">
<g>
	<g>
		<path d="M467,422H45c-24.814,0-45,20.186-45,45v30c0,8.291,6.709,15,15,15h482c8.291,0,15-6.709,15-15v-30
			C512,442.186,491.814,422,467,422z"/>
	</g>
</g>
<g>
	<g>
		<path d="M340.373,271h-48.746c-6.103,39.814-6.176,81.202-0.225,121h49.197C346.549,352.202,346.476,310.814,340.373,271z"/>
	</g>
</g>
<g>
	<g>
		<path d="M461.368,271h-48.741c-6.103,39.814-6.176,81.202-0.225,121H461.6C467.549,352.204,467.469,310.814,461.368,271z"/>
	</g>
</g>
<g>
	<g>
		<path d="M220.373,271h-48.746c-6.103,39.814-6.176,81.202-0.225,121h49.197C226.549,352.202,226.476,310.814,220.373,271z"/>
	</g>
</g>
<g>
	<g>
		<path d="M99.373,271H50.632c-6.101,39.814-6.182,81.204-0.233,121h49.199C105.549,352.202,105.476,310.814,99.373,271z"/>
	</g>
</g>
<g>
	<g>
		<path d="M263.954,2.285c-4.863-3.047-11.045-3.047-15.908,0L11.703,151h488.595L263.954,2.285z M256,121c-8.284,0-15-6.716-15-15
			s6.716-15,15-15c8.284,0,15,6.716,15,15S264.284,121,256,121z"/>
	</g>
</g>
<g>
	<g>
		<path d="M0,181v15c0,24.814,20.186,45,45,45h422c24.814,0,45-20.186,45-45v-15H0z"/>
	</g>
</g>
<g>
</g>
<g>
</g>
<g>
</g>
<g>
</g>
<g>
</g>
<g>
</g>
<g>
</g>
<g>
</g>
<g>
</g>
<g>
</g>
<g>
</g>
<g>
</g>
<g>
</g>
<g>
</g>
<g>
</g>
</svg>
