<svg width="32" height="32" viewBox="0 0 32 32" fill="none" xmlns="http://www.w3.org/2000/svg">
<path d="M0 16C0 7.16344 7.16344 0 16 0C24.8366 0 32 7.16344 32 16C32 24.8366 24.8366 32 16 32C7.16344 32 0 24.8366 0 16Z" fill="#4EA9A2"/>
<path d="M13.2594 21.4029V13.4784M8.74107 13.4784V21.4029M14.9633 21.4029H7.70403L6.66699 23.3678V24.3502H14.9633M18.4883 23.2272C18.8914 23.7484 19.5798 24.1079 20.4099 24.1079H22.1136C23.3206 24.1079 24.2966 23.3355 24.2966 22.3842C24.2966 21.5929 23.6147 20.903 22.643 20.7103L19.728 20.1323C18.7585 19.9397 18.0744 19.2498 18.0744 18.4585C18.0744 17.5054 19.0526 16.7347 20.2574 16.7347H21.9611C22.7912 16.7347 23.4775 17.0926 23.8805 17.6121M21.1887 24.1044V25.3327M21.1887 16.7364V15.5081M25.3337 10.5251L16.0003 6.66602L6.66699 10.5251V13.4784H25.3337V10.5251Z" stroke="white" stroke-width="1.5" stroke-linecap="round" stroke-linejoin="round" fill="none"/>
</svg>
