<svg data-token-name="bank_rub_colored" width="32" height="32" viewBox="0 0 32 32" fill="none" xmlns="http://www.w3.org/2000/svg">
<path d="M0 16C0 7.16344 7.16344 0 16 0C24.8366 0 32 7.16344 32 16C32 24.8366 24.8366 32 16 32C7.16344 32 0 24.8366 0 16Z" fill="#FF6681"/>
<path d="M13.334 21.3327V14.666" stroke="white" stroke-width="1.5" stroke-linecap="round" stroke-linejoin="round" fill="none"/>
<path d="M8.66602 14.666V21.3327" stroke="white" stroke-width="1.5" stroke-linecap="round" stroke-linejoin="round" fill="none"/>
<path d="M14.666 21.334H7.66602L6.66602 23.3784V24.4007H14.666" stroke="white" stroke-width="1.5" stroke-linecap="round" stroke-linejoin="round" fill="none"/>
<path d="M25.3327 10.4426L15.9993 6.66602L6.66602 10.4426V13.3327H25.3327V10.4426Z" stroke="white" stroke-width="1.5" stroke-linecap="round" stroke-linejoin="round" fill="none"/>
<path d="M19.1339 25.3333V16H22.9223C24.254 16 25.334 17.0443 25.334 18.3333C25.334 19.6224 24.254 20.6667 22.9223 20.6667M22.9194 20.6667H17.334M22.3478 23.5185H17.334" stroke="white" stroke-width="1.5" stroke-linecap="round" stroke-linejoin="round" fill="none"/>
</svg>
