<svg data-token-name="bank_eur_colored" width="32" height="32" viewBox="0 0 32 32" fill="none" xmlns="http://www.w3.org/2000/svg">
<path d="M0 16C0 7.16344 7.16344 0 16 0C24.8366 0 32 7.16344 32 16C32 24.8366 24.8366 32 16 32C7.16344 32 0 24.8366 0 16Z" fill="#3C88FA"/>
<path d="M13.2594 22.2216V13.8568M8.74107 13.8568V22.2216M14.9633 22.2216H7.70403L6.66699 24.2956V25.3327H14.9633M24.988 24.9158C23.4048 25.5736 21.5089 25.3034 20.2145 24.0615C18.5179 22.4337 18.5179 19.7972 20.2145 18.1693C21.5089 16.9274 23.4066 16.6573 24.988 17.3151M18.0744 21.1163H23.2848M25.3337 10.7395L16.0003 6.66602L6.66699 10.7395V13.8568H25.3337V10.7395Z" stroke="white" stroke-width="1.5" stroke-linecap="round" stroke-linejoin="round" fill="none"/>
</svg>
