<svg width="41" height="40" viewBox="0 0 41 40" data-token-name="bank_money_colored" fill="none" xmlns="http://www.w3.org/2000/svg">
<rect x="0.333984" width="40" height="40" rx="20" fill="#B265FF"/>
<path d="M17.0302 27.084V17.0015M11.584 17.0015V27.084M19.084 27.084H10.334L9.08398 29.584V30.834H19.084M31.584 22.709L31.5827 30.209C31.5815 31.2442 29.624 32.084 27.209 32.084C24.794 32.084 22.834 31.2456 22.834 30.209V22.709M31.584 22.709C31.584 21.6724 29.624 20.834 27.209 20.834C24.794 20.834 22.8352 21.6737 22.834 22.709M31.584 22.709C31.5827 23.7442 29.624 24.584 27.209 24.584C24.794 24.584 22.834 23.7456 22.834 22.709M22.834 26.459C22.834 27.4956 24.794 28.334 27.209 28.334C29.624 28.334 31.5827 27.4942 31.584 26.459M31.584 13.244L20.334 8.33398L9.08398 13.244V17.0015H31.584V13.244Z" stroke="white" stroke-width="1.5" stroke-linecap="round" stroke-linejoin="round"/>
</svg>
