<svg data-token-name="bank" width="24" height="24" viewBox="0 0 24 24" fill="none" xmlns="http://www.w3.org/2000/svg">
<path d="M9.35742 17V8.934" stroke="currentColor" fill="none"  stroke-linecap="round" stroke-linejoin="round"/>
<path d="M5 8.934V17" stroke="currentColor" fill="none"  stroke-linecap="round" stroke-linejoin="round"/>
<path d="M11 17H4L3 19V20H11" stroke="currentColor" fill="none"  stroke-linecap="round" stroke-linejoin="round"/>
<path d="M21 5.928L12 2L3 5.928V8.934H21V5.928Z" stroke="currentColor" fill="none"  stroke-linecap="round" stroke-linejoin="round"/>
<path d="M20.999 19.5L21 13.5" stroke="currentColor" fill="none"  stroke-linecap="round" stroke-linejoin="round"/>
<path d="M14 13.5V19.5" stroke="currentColor" fill="none"  stroke-linecap="round" stroke-linejoin="round"/>
<path d="M21 13.5C21 12.6707 19.432 12 17.5 12C15.568 12 14.001 12.6718 14 13.5" stroke="currentColor" fill="none"  stroke-linecap="round" stroke-linejoin="round"/>
<path d="M14 19.5C14 20.3293 15.568 21 17.5 21C19.432 21 20.999 20.3282 21 19.5" stroke="currentColor" fill="none"  stroke-linecap="round" stroke-linejoin="round"/>
<path d="M14 13.5C14 14.3293 15.568 15 17.5 15C19.432 15 20.999 14.3282 21 13.5" stroke="currentColor" fill="none"  stroke-linecap="round" stroke-linejoin="round"/>
<path d="M14 16.5C14 17.3293 15.568 18 17.5 18C19.432 18 20.999 17.3282 21 16.5" stroke="currentColor" fill="none"  stroke-linecap="round" stroke-linejoin="round"/>
</svg>
