<svg data-token-name="bell" width="24" height="24" viewBox="0 0 24 24" fill="none" xmlns="http://www.w3.org/2000/svg">
<path d="M9.51 18V18.512C9.51 18.8389 9.57442 19.1626 9.69958 19.4646C9.82474 19.7666 10.0082 20.0409 10.2394 20.272C10.4707 20.503 10.7452 20.6863 11.0473 20.8112C11.3494 20.9361 11.6731 21.0003 12 21C12.3269 21.0001 12.6507 20.9358 12.9528 20.8108C13.2549 20.6858 13.5294 20.5025 13.7606 20.2713C13.9919 20.0402 14.1753 19.7658 14.3004 19.4637C14.4256 19.1617 14.49 18.8379 14.49 18.511V18M17.947 18C18.4915 18 19.0137 17.7837 19.3987 17.3987C19.7837 17.0137 20 16.4915 20 15.947C19.9995 15.371 19.7708 14.8187 19.364 14.411L18 13.048V9C18 7.4087 17.3679 5.88258 16.2426 4.75736C15.1174 3.63214 13.5913 3 12 3C10.4087 3 8.88258 3.63214 7.75736 4.75736C6.63214 5.88258 6 7.4087 6 9V13.048L4.636 14.411C4.22916 14.8187 4.00046 15.371 4 15.947C4 16.4915 4.2163 17.0137 4.60131 17.3987C4.98632 17.7837 5.50851 18 6.053 18H17.947Z" stroke="currentColor" fill="none"  stroke-linecap="round" stroke-linejoin="round"/>
</svg>
