<svg data-token-name="binance_coin_colored" width="24" height="24" viewBox="0 0 24 24" fill="none" xmlns="http://www.w3.org/2000/svg">
<path d="M0 12C0 5.37258 5.37258 0 12 0C18.6274 0 24 5.37258 24 12C24 18.6274 18.6274 24 12 24C5.37258 24 0 18.6274 0 12Z" fill="#F4C139"/>
<path fill-rule="evenodd" clip-rule="evenodd" d="M8.25543 9.68906L11.9783 6L15.5924 9.68906L14.2201 10.9816L11.9783 8.71967L9.62772 11.0489L8.25543 9.68906ZM7.33152 10.645L6 11.9644L7.33152 13.2839L8.66304 11.9644L7.33152 10.645ZM10.606 11.951L11.9375 10.6315L13.269 11.951L11.9375 13.2704L10.606 11.951ZM16.5435 10.6181L15.212 11.9375L16.5435 13.2569L17.875 11.9375L16.5435 10.6181ZM9.62772 12.8934L8.26902 14.2398L11.9375 17.875L15.606 14.2398L14.2473 12.8934L11.9375 15.1823L9.62772 12.8934Z" fill="white"/>
</svg>
