<svg data-token-name="bitcoin_colored" width="24" height="24" viewBox="0 0 24 24" fill="none" xmlns="http://www.w3.org/2000/svg">
<path d="M0 12C0 5.37258 5.37258 0 12 0C18.6274 0 24 5.37258 24 12C24 18.6274 18.6274 24 12 24C5.37258 24 0 18.6274 0 12Z" fill="#F7931A"/>
<path d="M15.9791 11.0202C16.1456 9.96943 15.2984 9.40456 14.1399 9.02774L14.5157 7.60435L13.5982 7.38842L13.2324 8.7743C12.9912 8.71754 12.7434 8.664 12.4973 8.61094L12.8657 7.21593L11.9488 7L11.5727 8.42289C11.3731 8.37995 11.1771 8.33752 10.9869 8.29285L10.9879 8.28841L9.72261 7.99005L9.47854 8.91545C9.47854 8.91545 10.1593 9.06278 10.1449 9.07191C10.5165 9.15951 10.5837 9.39172 10.5724 9.57582L10.1444 11.1974C10.17 11.2035 10.2032 11.2124 10.2398 11.2262C10.2092 11.2191 10.1765 11.2112 10.1428 11.2035L9.54282 13.4751C9.49735 13.5817 9.38212 13.7416 9.12237 13.6809C9.13151 13.6935 8.45548 13.5237 8.45548 13.5237L8 14.5155L9.19396 14.7966C9.41608 14.8491 9.63376 14.9041 9.84804 14.956L9.46835 16.3957L10.3848 16.6116L10.7608 15.1872C11.0112 15.2514 11.2542 15.3106 11.492 15.3664L11.1173 16.7841L12.0348 17L12.4145 15.563C13.979 15.8426 15.1554 15.7299 15.6506 14.3936C16.0497 13.3176 15.6308 12.697 14.8076 12.2923C15.4071 12.1618 15.8586 11.7894 15.9791 11.0202ZM13.8828 13.7961C13.5993 14.8721 11.6809 14.2904 11.059 14.1446L11.5628 12.2373C12.1848 12.3839 14.1791 12.6741 13.8828 13.7961ZM14.1666 11.0046C13.9079 11.9833 12.3112 11.4861 11.7933 11.3642L12.2501 9.63431C12.768 9.75622 14.436 9.98374 14.1666 11.0046Z" fill="white"/>
</svg>
