<svg data-token-name="bitcoin" width="24" height="24" version="1.1" id="Layer_1" xmlns="http://www.w3.org/2000/svg" xmlns:xlink="http://www.w3.org/1999/xlink" x="0px" y="0px"
	 viewBox="0 0 24 24" style="enable-background:new 0 0 24 24;" xml:space="preserve">
<path d="M4.5,4h2.3V2.1h2.4v2h2.3v-2h2.3v2c2.6,0.3,4.6,2.1,4.6,4.5c0,1.3-0.6,2.5-1.7,3.2C18,12.6,19,14,19,15.5
	c0,2.5-2.3,4.5-5.2,4.5v2h-2.3v-2H9.2v2H6.9v-2H4.6l0.6-2H7V6H4.7V4 M9.2,13v5h4.6c1.6,0,2.9-1.1,2.9-2.5S15.4,13,13.8,13H9.2
	 M9.2,6v5h4c1.6,0,2.9-1.1,2.9-2.5S14.9,6,13.2,6l0,0H9.2z"/>
</svg>
