<svg data-token-name="bitcoin_cash_colored" width="24" height="24" viewBox="0 0 24 24" fill="none" xmlns="http://www.w3.org/2000/svg">
<path d="M0 12C0 5.37258 5.37258 0 12 0C18.6274 0 24 5.37258 24 12C24 18.6274 18.6274 24 12 24C5.37258 24 0 18.6274 0 12Z" fill="#0AC18E" stroke="none"/>
<path d="M16.0195 8.51678C15.408 7.13891 14.0026 6.84431 12.2823 7.12971L11.7294 5L10.426 5.33449L10.9696 7.45806C10.6268 7.54398 10.2747 7.61763 9.92565 7.71583L9.38205 5.60454L8.07865 5.93903L8.63151 8.06874C8.35045 8.14853 6 8.74693 6 8.74693L6.35828 10.134C6.35828 10.134 7.31576 9.86702 7.30649 9.8885C7.83774 9.75041 8.08791 10.0143 8.20528 10.2629L9.72489 16.0996C9.74342 16.2684 9.71254 16.5569 9.34808 16.6551C9.3697 16.6673 8.39987 16.8975 8.39987 16.8975L8.54194 18.5147C8.54194 18.5147 10.8708 17.9225 11.1765 17.8457L11.7356 20L13.039 19.6655L12.4799 17.4959C12.8382 17.4131 13.1872 17.3271 13.527 17.2381L14.0829 19.3955L15.3864 19.061L14.8273 16.9098C16.8349 16.4249 18.2526 15.1667 17.9623 13.2426C17.777 12.0827 16.5013 11.1313 15.4419 11.0239C16.0936 10.4501 16.4241 9.61232 16.0195 8.51678ZM15.3925 13.5955C15.652 15.5012 12.9865 15.7345 12.1062 15.9646L11.3402 13.1137C12.2236 12.8836 14.9539 11.9169 15.3925 13.5955ZM13.7864 9.71358C14.0613 11.4075 11.7819 11.6039 11.0468 11.7911L10.3488 9.20417C11.087 9.02312 13.2274 8.14546 13.7864 9.71358Z" fill="white" stroke="none"/>
</svg>
