<svg data-token-name="bitcoin_cash_colored" width="24" height="24" viewBox="0 0 24 24" fill="none" xmlns="http://www.w3.org/2000/svg">
<path d="M0 12C0 5.37258 5.37258 0 12 0C18.6274 0 24 5.37258 24 12C24 18.6274 18.6274 24 12 24C5.37258 24 0 18.6274 0 12Z" fill="#50AF95"/>
<path d="M14.5593 8.79965C14.0515 7.86483 13.0355 7.93271 11.8872 8.33928L11.3184 6.98143L10.4592 7.36889L11.013 8.69094C10.7871 8.7928 10.558 8.90119 10.3304 9.00902L9.77316 7.67813L8.91434 8.06527L9.48259 9.42289C9.29808 9.51041 9.11678 9.5961 8.93869 9.67653L8.93681 9.67237L7.7515 10.2063L8.12146 11.0889C8.12146 11.0889 8.75112 10.7912 8.74528 10.8072C9.09338 10.6504 9.28805 10.7937 9.39125 10.9466L10.0392 12.4934C10.0633 12.4827 10.095 12.4695 10.1325 12.4582C10.1039 12.4712 10.0731 12.4848 10.0417 12.4993L10.9492 14.6664C10.978 14.7787 10.984 14.9757 10.741 15.0857C10.7559 15.0901 10.1163 15.3671 10.1163 15.3671L10.359 16.4312L11.4772 15.927C11.6854 15.8334 11.8916 15.7445 12.0931 15.6551L12.6687 17.0283L13.5271 16.6415L12.9579 15.2827C13.1956 15.1811 13.4244 15.0801 13.647 14.9795L14.2131 16.3322L15.0723 15.9448L14.4984 14.5738C15.9096 13.8428 16.7741 13.0369 16.3531 11.6754C16.0144 10.579 15.3042 10.3418 14.4048 10.5221C14.8008 10.0535 14.9322 9.48312 14.5593 8.79965ZM14.5871 12.2781C15.0174 13.3042 13.1416 14.011 12.5595 14.2741L11.7976 12.4544C12.3802 12.192 14.1388 11.2076 14.5871 12.2781ZM13.1122 9.89109C13.503 10.8249 11.9338 11.4029 11.4487 11.6216L10.7576 9.97128C11.2426 9.75257 12.7042 8.91726 13.1122 9.89109Z" fill="white"/>
</svg>
