<svg version="1.0" xmlns="http://www.w3.org/2000/svg"
 width="513.000000pt" height="512.000000pt" viewBox="0 0 513.000000 512.000000"
 preserveAspectRatio="xMidYMid meet">
<g transform="translate(0.000000,512.000000) scale(0.100000,-0.100000)">
<path d="M2055 4416 c-244 -37 -306 -56 -478 -143 -312 -159 -498 -389 -570
-708 -19 -84 -21 -130 -25 -690 -5 -759 14 -1139 78 -1599 40 -285 134 -464
285 -544 45 -24 60 -27 160 -27 61 0 142 2 180 5 47 3 103 -1 170 -15 82 -16
144 -19 340 -19 248 -1 344 7 625 50 180 28 257 50 459 131 279 111 490 242
652 402 152 151 229 279 275 461 28 111 26 325 -5 439 -47 178 -124 306 -270
451 -72 72 -226 191 -279 216 -2 1 11 53 27 115 45 167 64 300 58 394 -8 109
-49 289 -86 370 -82 180 -260 393 -417 497 -224 149 -506 232 -824 243 -118 4
-163 1 -355 -29z m513 -925 c188 -47 269 -127 243 -241 -39 -172 -274 -276
-735 -325 -80 -8 -153 -15 -162 -15 -15 0 -16 17 -10 193 4 105 12 209 18 230
23 79 99 141 211 172 76 22 324 14 435 -14z m483 -1435 c93 -20 161 -51 200
-93 l34 -35 -62 -57 c-108 -98 -245 -168 -423 -216 -153 -41 -296 -55 -554
-55 l-234 0 -29 33 c-40 46 -58 115 -58 222 l0 89 60 12 c142 30 469 85 580
98 161 19 402 20 486 2z"/>
</g>
</svg>
