<svg data-token-name="board" version="1.1" xmlns="http://www.w3.org/2000/svg" xmlns:xlink="http://www.w3.org/1999/xlink" x="0px" y="0px"
	 viewBox="0 0 24 24" style="enable-background:new 0 0 24 24;" xml:space="preserve" fill="none">
<path fill="currentColor" d="M18.3,2.5c1.7,0,3.1,1.4,3.2,3.1l0,0.2l0,12c0,1.8-1.5,3.2-3.3,3.2h-12c-1.7,0-3.1-1.4-3.2-3.1l0-0.2l0-12
	C3,4,4.5,2.5,6.3,2.5H18.3z M11.5,9.5l-7,0l0,8.3l0,0.2c0.1,0.9,0.8,1.6,1.7,1.6l5.2,0V9.5z M20,15.5l-7,0v4l5.3,0
	c1,0,1.8-0.8,1.8-1.8L20,15.5z M18.3,4L13,4v10l7,0l0-8.2l0-0.2C19.9,4.7,19.2,4,18.3,4z M11.5,4L6.3,4L6.1,4
	C5.2,4.1,4.5,4.8,4.5,5.7l0,2.3l7,0V4z"/>
</svg>
