<svg data-token-name="broken_link" viewBox="0 0 40 40" fill="none" xmlns="http://www.w3.org/2000/svg">
<path d="M28.9262 20.0191L31.4892 17.4561C32.6934 16.2878 33.3841 14.6891 33.4095 13.0115C33.4349 11.334 32.7929 9.71505 31.6246 8.51089C30.4564 7.30672 28.8576 6.61596 27.1801 6.59057C25.5025 6.56517 23.8836 7.20722 22.6794 8.37547C22.6336 8.41991 22.5885 8.46505 22.544 8.51089L17.0625 13.9924C16.4752 14.5794 16.0092 15.2762 15.6911 16.0432C15.3731 16.8103 15.2093 17.6324 15.209 18.4628C15.2087 19.2931 15.3719 20.1154 15.6894 20.8826C16.0069 21.6499 16.4724 22.3471 17.0594 22.9344L17.0625 22.9376L17.0462 22.9539C17.5568 23.4548 18.1496 23.8642 18.7988 24.1643" stroke="currentColor" stroke-linecap="round" stroke-linejoin="round"/>
<path d="M21.2022 15.834C21.8515 16.1346 22.4443 16.5445 22.9548 17.0458C24.141 18.2312 24.8078 19.8392 24.8084 21.5162C24.809 23.1931 24.1434 24.8016 22.958 25.9879L22.9548 25.991L17.4734 31.4725C16.2811 32.6294 14.6817 33.2708 13.0205 33.2583C11.3593 33.2458 9.76968 32.5803 8.59501 31.4057C7.42033 30.231 6.75487 28.6414 6.74237 26.9802C6.72986 25.319 7.37131 23.7195 8.52817 22.5273L11.0911 19.9643" stroke="currentColor" stroke-linecap="round" stroke-linejoin="round"/>
<path d="M26.666 34.9993V31.666" stroke="currentColor" stroke-linecap="round" stroke-linejoin="round"/>
<path d="M31.666 26.666H34.9993" stroke="currentColor" stroke-linecap="round" stroke-linejoin="round"/>
<path d="M5 13.334H8.33333" stroke="currentColor" stroke-linecap="round" stroke-linejoin="round"/>
<path d="M13.334 5V8.33333" stroke="currentColor" stroke-linecap="round" stroke-linejoin="round"/>
</svg>
