<svg data-token-name="broken_link" width="24" height="24" viewBox="0 0 24 24" fill="none" xmlns="http://www.w3.org/2000/svg">
<path d="M17.3553 12.0118L18.8931 10.474C19.6156 9.77305 20.03 8.8138 20.0453 7.80727C20.0605 6.80074 19.6753 5.82939 18.9743 5.10689C18.2734 4.38439 17.3141 3.96994 16.3076 3.9547C15.3011 3.93946 14.3297 4.32469 13.6072 5.02564C13.5797 5.05231 13.5526 5.07939 13.526 5.10689L10.2371 8.39581C9.88467 8.74797 9.60507 9.16609 9.41426 9.62631C9.22344 10.0865 9.12513 10.5798 9.12496 11.078C9.12478 11.5762 9.22273 12.0696 9.41323 12.5299C9.60372 12.9903 9.88302 13.4086 10.2352 13.761L10.2371 13.7629L10.2273 13.7727C10.5336 14.0732 10.8893 14.3189 11.2789 14.4989M12.7215 9.49981C13.1111 9.68019 13.4668 9.92614 13.7731 10.2269C14.4848 10.9381 14.8848 11.903 14.8852 12.9091C14.8856 13.9153 14.4862 14.8804 13.775 15.5921L10.4842 18.8829C9.76885 19.577 8.80919 19.9619 7.81247 19.9544C6.81575 19.9469 5.86199 19.5476 5.15718 18.8428C4.45237 18.138 4.0531 17.1842 4.0456 16.1875C4.03809 15.1908 4.42296 14.2311 5.11708 13.5158L6.65486 11.978M16 21V19M19 16H21M3 8H5M8 3V5" stroke="currentColor" fill="none" stroke-linecap="round" stroke-linejoin="round"/>
</svg>
