<svg data-token-name="bug" xmlns="http://www.w3.org/2000/svg" width="40" height="40" viewBox="0 0 40 40" fill="none">
    <g transform="translate(8 8)">
        <path d="M20,0A20,20,0,1,1,0,20,20,20,0,0,1,20,0Z" transform="translate(-8 -8)" fill="none"/>
        <g transform="translate(15478 19354)">
            <rect width="24" height="24" transform="translate(-15478 -19354)" fill="none"/>
            <path d="M10.5,2.751a.75.75,0,0,0-1.5,0V3.5a2.986,2.986,0,0,0,.53,1.7A3.753,3.753,0,0,0,7.009,8.49H6.753A2.25,2.25,0,0,1,4.512,6.231l.006-1.486a.75.75,0,0,0-1.5-.006L3.012,6.224A3.75,3.75,0,0,0,6.747,9.99H7V11.5H2.75a.75.75,0,0,0,0,1.5H7v1.992H6.747a3.75,3.75,0,0,0-3.734,3.765l.006,1.486a.75.75,0,1,0,1.5-.006l-.006-1.486a2.25,2.25,0,0,1,2.241-2.259h.473a5,5,0,0,0,9.547,0h.473a2.25,2.25,0,0,1,2.241,2.259l-.006,1.486a.75.75,0,1,0,1.5.006l.006-1.486a3.75,3.75,0,0,0-3.734-3.765H17V13h4.251a.75.75,0,0,0,0-1.5H17V9.99h.253a3.75,3.75,0,0,0,3.734-3.765l-.006-1.486a.75.75,0,0,0-1.5.006l.006,1.486A2.25,2.25,0,0,1,17.247,8.49h-.256A3.753,3.753,0,0,0,14.47,5.206,2.986,2.986,0,0,0,15,3.5V2.751a.75.75,0,0,0-1.5,0V3.5a1.5,1.5,0,0,1-3,0Zm-2,6A2.25,2.25,0,0,1,10.75,6.5h2.5a2.25,2.25,0,0,1,2.25,2.25V15a3.5,3.5,0,0,1-7,0Z"
                  transform="translate(-15478 -19353.496)" fill="currentColor"/>
        </g>
    </g>
</svg>
