<svg data-token-name="bug_report" width="24" height="24" viewBox="0 0 24 24" fill="none" xmlns="http://www.w3.org/2000/svg">
<path d="M18 7L17 9L15.667 9.917M5 12H8.111M15.889 12H19M6 3H5C3.895 3 3 3.895 3 5V6M18 21H19C20.105 21 21 20.105 21 19V18M3 18V19C3 20.105 3.895 21 5 21H6M21 6V5C21 3.895 20.105 3 19 3H18M6 7L7 9L8.333 9.917M6 17L7 15L8.333 14.083M18 17L17 15L15.667 14.083M12.444 17H11.555C9.898 17 8.555 15.657 8.555 14V11C8.555 9.895 9.45 9 10.555 9H13.444C14.549 9 15.444 9.895 15.444 11V14C15.444 15.657 14.101 17 12.444 17ZM14 9H10V7C10 6.448 10.448 6 11 6H13C13.552 6 14 6.448 14 7V9Z" stroke="currentColor" fill="none"  stroke-linecap="round" stroke-linejoin="round"/>
</svg>
