<svg data-token-name="buildings" viewBox="0 0 24 24" fill="none" xmlns="http://www.w3.org/2000/svg">
    <path d="M14.5002 21.3031H18.4502C19.0213 21.3031 19.4558 21.1694 19.9127 20.8531C20.3696 20.5368 20.4002 19.9531 20.4002 19.5031V4.3C20.4002 3.82261 20.1947 3.36477 19.8291 3.02721C19.4634 2.68964 18.9674 2.5 18.4502 2.5H10.6502C10.133 2.5 9.63703 2.68964 9.27134 3.02721C8.90564 3.36477 8.7002 3.82261 8.7002 4.3V7.30313" stroke="currentColor" fill="none" stroke-linecap="round" stroke-linejoin="round"/>
    <path d="M12.2427 11.2662L12.2884 19.2902C12.2947 20.3992 11.3974 21.3016 10.2884 21.3016H5.54974C4.95302 21.3016 4.38074 21.1254 3.9588 20.8119C3.53685 20.4984 3.2998 20.0732 3.2998 19.6298V13.8047C3.2998 13.4942 3.41616 13.1899 3.63585 12.9258C3.85553 12.6617 4.16985 12.4483 4.54359 12.3094L8.98667 9.77803C9.32897 9.65087 9.70927 9.59069 10.0916 9.60318C10.4739 9.61566 10.8457 9.70041 11.1716 9.84939C11.4976 9.99838 11.7671 10.2067 11.9545 10.4546C12.1419 10.7025 12.2411 10.9819 12.2427 11.2662Z" stroke="currentColor" fill="none" stroke-linecap="round" stroke-linejoin="round"/>
</svg>
