<svg data-token-name="bulding_colored" width="24" height="24" viewBox="0 0 24 24" fill="none" xmlns="http://www.w3.org/2000/svg">
<path d="M0 12C0 5.37258 5.37258 0 12 0V0C18.6274 0 24 5.37258 24 12V12C24 18.6274 18.6274 24 12 24V24C5.37258 24 0 18.6274 0 12V12Z" fill="white"/>
<path d="M9 19V5.77778V5.77778C9 5.34822 9.33579 5 9.75 5H14.25V5C14.6642 5 15 5.34822 15 5.77778V19" stroke="#2578F4" stroke-width="1.5" stroke-linecap="round" stroke-linejoin="round"/>
<path d="M19 19V8.71736V8.71736C19 8.32117 18.673 8 18.2696 8H15" stroke="#2578F4" stroke-width="1.5" stroke-linecap="round" stroke-linejoin="round"/>
<path d="M9 8H5.7304H5.7304C5.32701 8 5 8.32117 5 8.71736V8.71736V19" stroke="#2578F4" stroke-width="1.5" stroke-linecap="round" stroke-linejoin="round"/>
<path d="M15 10H17" stroke="#2578F4" stroke-width="1.5" stroke-linecap="round" stroke-linejoin="round"/>
<path d="M15 12.5H17" stroke="#2578F4" stroke-width="1.5" stroke-linecap="round" stroke-linejoin="round"/>
<path d="M15 15H17" stroke="#2578F4" stroke-width="1.5" stroke-linecap="round" stroke-linejoin="round"/>
<path d="M7 10H9" stroke="#2578F4" stroke-width="1.5" stroke-linecap="round" stroke-linejoin="round"/>
<path d="M7 12.5H9" stroke="#2578F4" stroke-width="1.5" stroke-linecap="round" stroke-linejoin="round"/>
<path d="M7 15H9" stroke="#2578F4" stroke-width="1.5" stroke-linecap="round" stroke-linejoin="round"/>
<path d="M11 13H13" stroke="#2578F4" stroke-width="1.5" stroke-linecap="round" stroke-linejoin="round"/>
<path d="M11 15.5H13" stroke="#2578F4" stroke-width="1.5" stroke-linecap="round" stroke-linejoin="round"/>
<path d="M11 10.5H13" stroke="#2578F4" stroke-width="1.5" stroke-linecap="round" stroke-linejoin="round"/>
<path d="M11 8H13" stroke="#2578F4" stroke-width="1.5" stroke-linecap="round" stroke-linejoin="round"/>
<path d="M12 18V19" stroke="#2578F4" stroke-width="1.5" stroke-linecap="round" stroke-linejoin="round"/>
<path d="M20 19H4" stroke="#2578F4" stroke-width="1.5" stroke-linecap="round" stroke-linejoin="round"/>
</svg>
