<svg data-token-name="calendar_colored" width="40" height="40" viewBox="0 0 40 40" fill="none" xmlns="http://www.w3.org/2000/svg">
<rect width="40" height="40" rx="20" fill="#4EA9A2"/>
<path d="M14.166 8.3335V12.2224" stroke="currentColor" fill="none" stroke-linecap="round" stroke-linejoin="round"/>
<path d="M25.833 8.3335V12.2224" stroke="currentColor" fill="none" stroke-linecap="round" stroke-linejoin="round"/>
<path d="M19.119 17.9389H19.106C19.3393 17.4463 19.9227 17.2519 20.4023 17.4982C20.5838 17.5889 20.7393 17.7445 20.8301 17.9259L21.5301 19.3519L21.5171 19.3389C21.6467 19.6241 21.919 19.8185 22.243 19.8574L23.8245 20.0908C24.343 20.1556 24.719 20.6482 24.6412 21.1797C24.6023 21.3871 24.4986 21.5815 24.356 21.7241L23.2023 22.8389H23.1893C22.956 23.0593 22.8523 23.3704 22.9041 23.6945L23.1634 25.263L23.1504 25.25C23.2412 25.7685 22.8782 26.2741 22.3597 26.3648C22.1393 26.3908 21.9319 26.3648 21.7375 26.2611L20.3115 25.5093C20.0264 25.3537 19.6764 25.3537 19.4041 25.4963L17.9782 26.2352V26.2222C17.4986 26.4685 16.9153 26.2871 16.669 25.8074C16.5653 25.613 16.5264 25.3926 16.5653 25.1852L16.8245 23.6037V23.5908C16.8764 23.2667 16.7727 22.9556 16.5393 22.7222L15.3986 21.5945C15.0097 21.2185 14.9967 20.5963 15.3727 20.2204C15.5153 20.0648 15.7097 19.9611 15.9171 19.9352L17.4986 19.6889V19.6759C17.8097 19.6241 18.0819 19.4297 18.2245 19.1445L19.119 17.9389Z" stroke="currentColor" fill="none" stroke-linecap="round" stroke-linejoin="round"/>
<path d="M27.7775 10.2778H12.2219C10.0741 10.2778 8.33301 12.0189 8.33301 14.1667V27.7778C8.33301 29.9256 10.0741 31.6667 12.2219 31.6667H27.7775C29.9252 31.6667 31.6663 29.9256 31.6663 27.7778V14.1667C31.6663 12.0189 29.9252 10.2778 27.7775 10.2778Z" stroke="currentColor" fill="none" stroke-linecap="round" stroke-linejoin="round"/>
</svg>
