<svg data-token-name="calendar_sixteen" width="24" height="24" viewBox="0 0 24 24" fill="none" xmlns="http://www.w3.org/2000/svg">
<path fill-rule="evenodd" clip-rule="evenodd" d="M8 1.5C8.27614 1.5 8.5 1.72386 8.5 2V3.5H15.5V2C15.5 1.72386 15.7239 1.5 16 1.5C16.2761 1.5 16.5 1.72386 16.5 2V3.5H19C20.3811 3.5 21.5 4.61886 21.5 6V19C21.5 20.3811 20.3811 21.5 19 21.5H5C3.61886 21.5 2.5 20.3811 2.5 19V6C2.5 4.61886 3.61886 3.5 5 3.5H7.5V2C7.5 1.72386 7.72386 1.5 8 1.5ZM7.5 4.5H5C4.17114 4.5 3.5 5.17114 3.5 6V19C3.5 19.8289 4.17114 20.5 5 20.5H19C19.8289 20.5 20.5 19.8289 20.5 19V6C20.5 5.17114 19.8289 4.5 19 4.5H16.5V6C16.5 6.27614 16.2761 6.5 16 6.5C15.7239 6.5 15.5 6.27614 15.5 6V4.5H8.5V6C8.5 6.27614 8.27614 6.5 8 6.5C7.72386 6.5 7.5 6.27614 7.5 6V4.5Z" fill="currentColor"/>
<path d="M9.09089 8.9C9.26423 8.90867 9.40289 8.97367 9.5069 9.095C9.61956 9.20767 9.67589 9.35067 9.67589 9.524V17.376C9.67589 17.5493 9.6109 17.6967 9.4809 17.818C9.35089 17.9393 9.19056 18 8.99989 18C8.80923 18 8.65323 17.9393 8.53189 17.818C8.41056 17.6967 8.34989 17.5493 8.34989 17.376V10.616L7.20589 11.305C7.11056 11.3657 7.00223 11.396 6.88089 11.396C6.70756 11.396 6.56023 11.331 6.43889 11.201C6.31756 11.0623 6.25689 10.915 6.25689 10.759C6.25689 10.655 6.28723 10.5553 6.34789 10.46C6.40856 10.3647 6.48656 10.2867 6.58189 10.226L8.63589 8.991C8.75723 8.93033 8.90889 8.9 9.09089 8.9Z" fill="currentColor"/>
<path d="M14.5715 12.163C15.0482 12.163 15.4988 12.3017 15.9235 12.579C16.3482 12.8477 16.6862 13.2117 16.9375 13.671C17.1975 14.1303 17.3275 14.6243 17.3275 15.153C17.3275 15.6903 17.1975 16.1887 16.9375 16.648C16.6775 17.0987 16.3222 17.4583 15.8715 17.727C15.4208 17.9957 14.9225 18.13 14.3765 18.13C13.7525 18.13 13.2108 17.9697 12.7515 17.649C12.3008 17.3283 11.9542 16.908 11.7115 16.388C11.4688 15.868 11.3475 15.309 11.3475 14.711C11.3475 14.0437 11.4775 13.3113 11.7375 12.514C11.9975 11.708 12.4222 10.9627 13.0115 10.278C13.6095 9.58467 14.3722 9.09067 15.2995 8.796C15.3775 8.77 15.4555 8.757 15.5335 8.757C15.7155 8.757 15.8628 8.80467 15.9755 8.9C16.0968 8.99533 16.1575 9.147 16.1575 9.355C16.1575 9.50233 16.1098 9.63233 16.0145 9.745C15.9192 9.85767 15.7892 9.93567 15.6245 9.979C15.0178 10.1957 14.4545 10.5683 13.9345 11.097C13.4145 11.6257 13.0418 12.2193 12.8165 12.878C13.3278 12.4013 13.9128 12.163 14.5715 12.163ZM14.3635 16.986C14.8575 16.986 15.2692 16.8127 15.5985 16.466C15.9278 16.1193 16.0925 15.6817 16.0925 15.153C16.0925 14.6417 15.9322 14.2083 15.6115 13.853C15.2995 13.489 14.8922 13.307 14.3895 13.307C13.8695 13.307 13.4405 13.489 13.1025 13.853C12.7732 14.2083 12.6085 14.6503 12.6085 15.179C12.6085 15.6817 12.7688 16.1107 13.0895 16.466C13.4188 16.8127 13.8435 16.986 14.3635 16.986Z" fill="currentColor"/>
</svg>
