<svg data-token-name="calendar_load" width="20" height="20" viewBox="0 0 20 20" fill="none" xmlns="http://www.w3.org/2000/svg">
<path d="M13.3333 1.6665V4.99984M5.83333 9.99984V10.4165M10 9.99984V10.4165M5.83333 13.3332V13.7498M6.66667 1.6665V4.99984M2.5 7.49984H17.5M9.16667 17.4998H4.16667C3.24583 17.4998 2.5 16.754 2.5 15.8332V4.99984C2.5 4.079 3.24583 3.33317 4.16667 3.33317H15.8333C16.7542 3.33317 17.5 4.079 17.5 4.99984V9.99984M11.6667 15.3123L12.6042 16.2498M12.6042 16.2498L13.5417 15.3123M12.6042 16.2498V13.7498C12.6042 13.4183 12.7359 13.1004 12.9703 12.866C13.2047 12.6315 13.5226 12.4998 13.8542 12.4998H15.8333M18.3333 14.6873L17.3958 13.7498M17.3958 13.7498L16.4583 14.6873M17.3958 13.7498V16.2498C17.3958 16.5814 17.2641 16.8993 17.0297 17.1337C16.7953 17.3681 16.4774 17.4998 16.1458 17.4998H14.1667" stroke="currentColor" fill="none" stroke-linecap="round" stroke-linejoin="round"/>
</svg>
