<svg data-token-name="calendar_load" width="24" height="24" viewBox="0 0 24 24" fill="none" xmlns="http://www.w3.org/2000/svg">
<path d="M16 2V6M7 12V12.5M12 12V12.5M7 16V16.5M8 2V6M3 9H21M11 21H5C3.895 21 3 20.105 3 19V6C3 4.895 3.895 4 5 4H19C20.105 4 21 4.895 21 6V12M14 18.375L15.125 19.5M15.125 19.5L16.25 18.375M15.125 19.5V16.5C15.125 16.1022 15.283 15.7206 15.5643 15.4393C15.8456 15.158 16.2272 15 16.625 15H19M22 17.625L20.875 16.5M20.875 16.5L19.75 17.625M20.875 16.5V19.5C20.875 19.8978 20.717 20.2794 20.4357 20.5607C20.1544 20.842 19.7728 21 19.375 21H17" stroke="currentColor" fill="none" stroke-linecap="round" stroke-linejoin="round"/>
</svg>
