<svg data-token-name="calendar_user" width="24" height="24" viewBox="0 0 24 24" fill="none" xmlns="http://www.w3.org/2000/svg">
<path d="M7.5 3V6" stroke="currentColor" fill="none"  stroke-width="1.5" stroke-linecap="round" stroke-linejoin="round"/>
<path d="M16.5 3V6" stroke="currentColor" fill="none"  stroke-width="1.5" stroke-linecap="round" stroke-linejoin="round"/>
<path d="M11 21H6C5.20435 21 4.44129 20.6839 3.87868 20.1213C3.31607 19.5587 3 18.7956 3 18V7.5C3 6.70435 3.31607 5.94129 3.87868 5.37868C4.44129 4.81607 5.20435 4.5 6 4.5H18C18.7956 4.5 19.5587 4.81607 20.1213 5.37868C20.6839 5.94129 21 6.70435 21 7.5V9" stroke="currentColor" fill="none"  stroke-width="1.5" stroke-linecap="round" stroke-linejoin="round"/>
<path d="M11.5 16H10.5" stroke="currentColor" fill="none"  stroke-width="1.5" stroke-linecap="round" stroke-linejoin="round"/>
<path d="M13 12H10.5" stroke="currentColor" fill="none"  stroke-width="1.5" stroke-linecap="round" stroke-linejoin="round"/>
<path d="M7.43573 11.2188C7.28739 11.2188 7.14239 11.2627 7.01905 11.3452C6.89572 11.4276 6.79959 11.5447 6.74282 11.6817C6.68606 11.8188 6.6712 11.9696 6.70014 12.1151C6.72908 12.2606 6.80051 12.3942 6.9054 12.4991C7.01029 12.604 7.14393 12.6754 7.28941 12.7043C7.4349 12.7333 7.5857 12.7184 7.72274 12.6617C7.85979 12.6049 7.97692 12.5088 8.05933 12.3854C8.14174 12.2621 8.18573 12.1171 8.18573 11.9688C8.18573 11.7698 8.10671 11.5791 7.96606 11.4384C7.82541 11.2978 7.63464 11.2188 7.43573 11.2188Z" fill="currentColor"/>
<path d="M7.43573 15.2188C7.28739 15.2188 7.14239 15.2627 7.01905 15.3452C6.89572 15.4276 6.79959 15.5447 6.74282 15.6817C6.68606 15.8188 6.6712 15.9696 6.70014 16.1151C6.72908 16.2606 6.80051 16.3942 6.9054 16.4991C7.01029 16.604 7.14393 16.6754 7.28941 16.7043C7.4349 16.7333 7.5857 16.7184 7.72274 16.6617C7.85979 16.6049 7.97692 16.5088 8.05933 16.3854C8.14174 16.2621 8.18573 16.1171 8.18573 15.9688C8.18573 15.7698 8.10671 15.5791 7.96606 15.4384C7.82541 15.2978 7.63464 15.2188 7.43573 15.2188Z" fill="currentColor"/>
<path d="M15 20.5V20.094C15.0016 19.5391 15.2227 19.0074 15.6151 18.6151C16.0074 18.2227 16.5391 18.0016 17.094 18H19.906C20.4609 18.0016 20.9926 18.2227 21.3849 18.6151C21.7773 19.0074 21.9984 19.5391 22 20.094V20.5C22 20.6326 21.9473 20.7598 21.8536 20.8536C21.7598 20.9473 21.6326 21 21.5 21H15.5C15.3674 21 15.2402 20.9473 15.1464 20.8536C15.0527 20.7598 15 20.6326 15 20.5Z" stroke="currentColor" fill="none"  stroke-width="1.5" stroke-linecap="round" stroke-linejoin="round"/>
<path d="M18.5 15.75C19.6046 15.75 20.5 14.8546 20.5 13.75C20.5 12.6454 19.6046 11.75 18.5 11.75C17.3954 11.75 16.5 12.6454 16.5 13.75C16.5 14.8546 17.3954 15.75 18.5 15.75Z" stroke="currentColor" fill="none"  stroke-width="1.5" stroke-linecap="round" stroke-linejoin="round"/>
</svg>
