<svg data-token-name="capitalist" width="24" height="24" version="1.1" id="Layer_1" xmlns="http://www.w3.org/2000/svg" xmlns:xlink="http://www.w3.org/1999/xlink" x="0px" y="0px"
	 viewBox="0 0 24 24" style="enable-background:new 0 0 24 24;" xml:space="preserve">
<g>
	<path d="M12,2.5c1.2,0,2.3,0,3.5,0c0.1,0,0.2,0,0.2,0c0.6,0,0.9,0.3,0.8,0.9c-0.2,1.1-0.4,2.3-0.5,3.4c0,0,0,0,0,0
		c-0.2,0.9,0,0.8-1,0.8c-2.1,0-4.2,0-6.3,0c-0.5,0-0.5,0-0.6-0.5C7.9,6,7.7,4.6,7.5,3.3C7.4,2.9,7.7,2.5,8.2,2.5c0.4,0,0.9,0,1.3,0
		C10.4,2.5,11.2,2.5,12,2.5z"/>
	<path d="M12,8.5c1.1,0,2.2,0,3.2,0c0.4,0,0.5,0.1,0.4,0.5c-0.1,0.5-0.2,1-0.2,1.5c0,0.4-0.3,0.6-0.6,0.8c-0.5,0.2-1.1,0.3-1.6,0.4
		c-1.2,0.2-2.3,0.1-3.5-0.2c-0.2,0-0.4-0.1-0.6-0.2c-0.3-0.1-0.5-0.4-0.6-0.8c-0.1-0.5-0.1-1-0.2-1.5c-0.1-0.4,0-0.5,0.4-0.5
		C9.8,8.5,10.9,8.5,12,8.5z"/>
	<path d="M6.9,19.9c0.2,0.1,0.5,0.3,0.7,0.4c0.4,0.2,0.9,0.2,1.3,0.1c0.7-0.2,1.2-0.5,1.7-1.1c0.4-0.5,0.8-0.5,1.2,0
		c0.2,0.2,0.3,0.2,0.4,0c0.5-0.5,0.8-0.5,1.2,0c0.5,0.6,1.2,1,2.1,1.1c0.3,0,0.5,0,0.8-0.1c0.3-0.1,0.6-0.3,0.8-0.5
		c0,0.7-0.5,1.4-1.2,1.7c-1.3,0.6-2.5,0.3-3.6-0.5c-0.2-0.2-0.3-0.2-0.6,0c-1,0.9-2.8,1.2-4.1,0.3C7.2,21,6.9,20.5,6.9,19.9
		L6.9,19.9z"/>
	<path d="M12.3,13.6C10.1,13.7,8,13,6,11.8c-0.3-0.2-0.4-0.6-0.2-0.9c0.2-0.3,0.5-0.3,0.8-0.1c1,0.6,2,1.1,3.2,1.4
		c2.5,0.6,4.9,0.2,7.2-1.2c0.2-0.1,0.3-0.2,0.5-0.3c0.4-0.2,0.6-0.1,0.7,0.2c0.2,0.3,0.1,0.6-0.2,0.8c-0.4,0.3-0.8,0.5-1.2,0.7
		C15.4,13.1,14,13.5,12.3,13.6z"/>
	<path d="M16.4,16.2c0,1-0.8,1.9-1.9,1.9c-1,0-1.9-0.7-1.9-1.7c0-0.2-0.1-0.3-0.3-0.3c-0.1,0-0.3,0-0.5,0c-0.3,0-0.5,0.1-0.5,0.4
		c-0.1,0.9-0.9,1.6-1.9,1.7c-0.9,0-1.7-0.7-1.9-1.6c-0.1-0.9,0.4-1.8,1.3-2.1c0.9-0.3,1.9,0.1,2.3,1c0.1,0.2,0.2,0.3,0.4,0.2
		c0.3-0.1,0.5-0.1,0.8,0c0.2,0.1,0.3,0,0.4-0.2c0.4-0.8,1.3-1.2,2.2-1C15.8,14.5,16.4,15.3,16.4,16.2z M9.5,17.7
		c0.8,0,1.5-0.6,1.5-1.4c0-0.8-0.7-1.5-1.5-1.5c-0.8,0-1.4,0.7-1.5,1.5C8,17,8.6,17.6,9.5,17.7z M14.5,17.7c0.8,0,1.4-0.6,1.4-1.4
		c0-0.8-0.7-1.5-1.5-1.5c-0.8,0-1.4,0.7-1.4,1.5C13.1,17,13.7,17.7,14.5,17.7z"/>
</g>
</svg>
