<svg data-token-name="capitalist_colored" width="24" height="24" viewBox="0 0 24 24" fill="none" xmlns="http://www.w3.org/2000/svg">
<path d="M0 12C0 5.37258 5.37258 0 12 0C18.6274 0 24 5.37258 24 12C24 18.6274 18.6274 24 12 24C5.37258 24 0 18.6274 0 12Z" fill="#8EB748"/>
<path fill-rule="evenodd" clip-rule="evenodd" d="M10.3795 9.62832C10.3795 10.6804 9.42163 11.5752 8.18345 11.5752C6.94527 11.5752 5.98737 10.6804 5.98737 9.62832C5.98737 8.57622 6.94527 7.68142 8.18345 7.68142C9.42163 7.68142 10.3795 8.57622 10.3795 9.62832ZM11.1116 9.62832C11.1116 11.0799 9.8006 12.2566 8.18345 12.2566C6.5663 12.2566 5.25535 11.0799 5.25535 9.62832C5.25535 8.17674 6.5663 7 8.18345 7C9.46641 7 10.5567 7.74064 10.9525 8.77158C11.3271 8.66988 11.6572 8.609 11.9972 8.60629C12.366 8.60335 12.7239 8.66893 13.1436 8.79649C13.5313 7.7526 14.6287 7 15.922 7C17.5392 7 18.8501 8.17674 18.8501 9.62832C18.8501 11.0799 17.5392 12.2566 15.922 12.2566C14.3049 12.2566 12.9939 11.0799 12.9939 9.62832C12.9939 9.575 12.9957 9.52206 12.9992 9.46953C12.9931 9.46793 12.9871 9.46619 12.9811 9.4643C12.5755 9.33643 12.2833 9.28545 12.0034 9.28768C11.7426 9.28975 11.4709 9.33812 11.1042 9.44041C11.1091 9.50248 11.1116 9.56514 11.1116 9.62832ZM14.87 14.4883C16.0789 15.3933 17.5805 16.5175 19.9482 14.9823C19.5299 18.146 15.19 18.8274 12.0527 16.3938C8.8109 18.9735 4.47103 18.146 4.05273 14.9823C6.72194 16.5482 8.19382 15.4124 9.35043 14.52C10.3009 13.7865 11.0385 13.2174 12.0527 14.4469C13.0168 13.1008 13.8364 13.7144 14.87 14.4883ZM15.922 11.5752C17.1602 11.5752 18.1181 10.6804 18.1181 9.62832C18.1181 8.57622 17.1602 7.68142 15.922 7.68142C14.6838 7.68142 13.7259 8.57622 13.7259 9.62832C13.7259 10.6804 14.6838 11.5752 15.922 11.5752Z" fill="white"/>
</svg>
