<svg width="33" height="32" viewBox="0 0 33 32" fill="none" xmlns="http://www.w3.org/2000/svg">
<rect x="0.5" width="32" height="32" rx="16" fill="#3C88FA"/>
<rect x="4.5" y="7" width="24" height="18" rx="5" fill="white"/>
<path d="M16.7682 22.5779H15.4626L16.2786 17.4256H17.5843L16.7682 22.5779ZM14.3643 17.4256L13.1196 20.9694L12.9723 20.2063L12.9725 20.2066L12.5332 17.8895C12.5332 17.8895 12.4801 17.4256 11.9139 17.4256H9.85618L9.83203 17.5128C9.83203 17.5128 10.4613 17.6473 11.1977 18.1017L12.332 22.5781H13.6923L15.7694 17.4256H14.3643ZM24.6332 22.5779H25.832L24.7868 17.4254H23.7373C23.2527 17.4254 23.1346 17.8094 23.1346 17.8094L21.1875 22.5779H22.5485L22.8206 21.8126H24.4803L24.6332 22.5779ZM23.1966 20.7554L23.8826 18.8272L24.2685 20.7554H23.1966ZM21.2896 18.6646L21.4759 17.5581C21.4759 17.5581 20.901 17.3335 20.3017 17.3335C19.6538 17.3335 18.1152 17.6244 18.1152 19.0392C18.1152 20.3703 19.921 20.3868 19.921 21.086C19.921 21.7852 18.3012 21.6599 17.7667 21.219L17.5726 22.3759C17.5726 22.3759 18.1556 22.6668 19.0463 22.6668C19.9372 22.6668 21.2813 22.1929 21.2813 20.9028C21.2813 19.5632 19.4593 19.4385 19.4593 18.856C19.4594 18.2734 20.7309 18.3483 21.2896 18.6646Z" fill="#1434CB"/>
</svg>
