<svg data-token-name="card_mastercard_colored" width="24" height="24" viewBox="0 0 24 24" fill="none" xmlns="http://www.w3.org/2000/svg">
<rect width="24" height="24" rx="12" fill="#3C88FA"/>
<rect x="3" y="5.25" width="18" height="13.5" rx="5" fill="white"/>
<path d="M16.0522 16.8766H13.4756V12.2474H16.0522L16.0522 16.8766Z" fill="#FF5F00"/>
<path d="M13.6396 14.562C13.6396 13.623 14.0794 12.7865 14.7643 12.2474C14.2459 11.8387 13.6047 11.6169 12.9445 11.6179C11.3183 11.6179 10 12.936 10 14.562C10 16.188 11.3183 17.506 12.9445 17.506C13.6047 17.507 14.2459 17.2852 14.7643 16.8766C14.0795 16.3376 13.6396 15.5011 13.6396 14.562Z" fill="#EB001B"/>
<path d="M19.5292 14.5622C19.5292 16.1881 18.2109 17.5062 16.5847 17.5062C15.9244 17.5072 15.2832 17.2854 14.7646 16.8768C15.4497 16.3377 15.8895 15.5012 15.8895 14.5622C15.8895 13.6231 15.4497 12.7866 14.7646 12.2476C15.2831 11.8389 15.9244 11.6171 16.5846 11.6181C18.2109 11.6181 19.5292 12.9362 19.5292 14.5622" fill="#F79E1B"/>
</svg>
