<svg data-token-name="cardano_colored" width="24" height="24" viewBox="0 0 24 24" fill="none" xmlns="http://www.w3.org/2000/svg">
<path d="M0 12C0 5.37258 5.37258 0 12 0C18.6274 0 24 5.37258 24 12C24 18.6274 18.6274 24 12 24C5.37258 24 0 18.6274 0 12Z" fill="#E1EDFF" stroke="none"/>
<path d="M8.38656 12.0465C8.35243 12.6562 8.80895 13.1782 9.402 13.2133C9.42333 13.2133 9.44466 13.2133 9.466 13.2133C10.0633 13.2133 10.5454 12.7176 10.5412 12.1035C10.5412 11.4894 10.059 10.9937 9.46173 10.9981C8.89001 10.9981 8.41643 11.4587 8.38656 12.0465Z" fill="#0033AD" stroke="none"/>
<path d="M4.36728 11.7606C4.17529 11.7474 4.00889 11.9009 4.00036 12.0983C3.99182 12.2957 4.13689 12.4668 4.32888 12.4756C4.52088 12.4887 4.683 12.3352 4.6958 12.1378C4.7086 11.9404 4.55927 11.7737 4.36728 11.7606Z" fill="#0033AD" stroke="none"/>
<path d="M8.31953 5.61571C8.49019 5.52798 8.55846 5.30865 8.47313 5.13319C8.3878 4.95772 8.17447 4.88754 8.00381 4.97527C7.83315 5.063 7.76488 5.27794 7.85021 5.45341C7.93554 5.63326 8.1446 5.70783 8.31953 5.61571Z" fill="#0033AD" stroke="none"/>
<path d="M9.40965 7.5766C9.67417 7.44061 9.78083 7.10723 9.64857 6.83526C9.51631 6.56329 9.19205 6.45363 8.92753 6.58961C8.663 6.7256 8.55634 7.05898 8.6886 7.33095C8.82086 7.60291 9.14512 7.71258 9.40965 7.5766Z" fill="#0033AD" stroke="none"/>
<path d="M5.73279 8.92289C5.93759 9.05887 6.21065 9.00184 6.34718 8.79129C6.47944 8.58073 6.42397 8.29999 6.21918 8.15962C6.01439 8.02364 5.74133 8.08066 5.6048 8.29122C5.46827 8.50177 5.528 8.7869 5.73279 8.92289Z" fill="#0033AD" stroke="none"/>
<path d="M6.38574 11.5634C6.08708 11.5459 5.83535 11.7784 5.81829 12.0854C5.80122 12.3925 6.02735 12.6513 6.32601 12.6689C6.62466 12.6864 6.87639 12.4539 6.89346 12.1468C6.91052 11.8442 6.6844 11.581 6.38574 11.5634Z" fill="#0033AD" stroke="none"/>
<path d="M5.79278 15.2775C5.57518 15.3916 5.48559 15.6636 5.59652 15.8917C5.70745 16.1154 5.97197 16.2075 6.19383 16.0935C6.41142 15.9794 6.50102 15.7074 6.39009 15.4793C6.27916 15.2556 6.01037 15.1635 5.79278 15.2775Z" fill="#0033AD" stroke="none"/>
<path d="M7.88219 10.4175C8.17658 10.6149 8.5691 10.5315 8.75683 10.2288C8.94883 9.92616 8.86776 9.5226 8.57337 9.32959C8.27898 9.13219 7.88646 9.21554 7.69873 9.51821C7.50674 9.8165 7.5878 10.2201 7.88219 10.4175Z" fill="#0033AD" stroke="none"/>
<path d="M14.517 7.53161C14.7644 7.6983 15.1015 7.62811 15.2636 7.37369C15.4257 7.11927 15.3575 6.77273 15.11 6.60604C14.8626 6.43935 14.5255 6.50953 14.3634 6.76396C14.197 7.02277 14.2652 7.36492 14.517 7.53161Z" fill="#0033AD" stroke="none"/>
<path d="M15.6177 5.57999C15.7798 5.68965 15.9931 5.6414 16.0998 5.47471C16.2064 5.30802 16.1595 5.08869 15.9974 4.97902C15.8352 4.86936 15.6219 4.91761 15.5153 5.07991C15.4129 5.2466 15.4598 5.47032 15.6177 5.57999Z" fill="#0033AD" stroke="none"/>
<path d="M14.5986 10.9882C14.0056 10.9531 13.4936 11.4224 13.4637 12.0322C13.4296 12.6419 13.8861 13.1683 14.4791 13.199C14.5005 13.199 14.5218 13.199 14.5389 13.199C15.1319 13.199 15.614 12.7033 15.614 12.0892C15.6183 11.5058 15.1703 11.0189 14.5986 10.9882Z" fill="#0033AD" stroke="none"/>
<path d="M9.76462 10.3394C9.94808 10.7123 10.3193 10.9491 10.7289 10.9491C11.3219 10.9491 11.804 10.4535 11.804 9.83933C11.804 9.66825 11.7656 9.49718 11.6888 9.33926C11.42 8.79094 10.7715 8.57161 10.2425 8.84796C9.70915 9.1287 9.49582 9.79547 9.76462 10.3394Z" fill="#0033AD" stroke="none"/>
<path d="M18.2079 8.92201C18.4255 8.80796 18.5109 8.53161 18.3999 8.30789C18.289 8.08417 18.0202 7.99644 17.8026 8.11049C17.585 8.22454 17.4997 8.49651 17.6064 8.72023C17.7216 8.94394 17.9861 9.03606 18.2079 8.92201Z" fill="#0033AD" stroke="none"/>
<path d="M15.4763 9.27278C15.1648 9.43508 15.0368 9.82549 15.1947 10.1457C15.3525 10.4659 15.7323 10.5975 16.0437 10.4352C16.3552 10.2729 16.4832 9.88251 16.3253 9.56229C16.1674 9.24207 15.7877 9.11486 15.4763 9.27278Z" fill="#0033AD" stroke="none"/>
<path d="M11.9578 5.41306C12.201 5.42622 12.4101 5.23321 12.4271 4.98317C12.4442 4.73314 12.2522 4.51819 12.009 4.50065C11.7658 4.48749 11.5567 4.67611 11.5397 4.92615C11.5269 5.18057 11.7146 5.39551 11.9578 5.41306Z" fill="#0033AD" stroke="none"/>
<path d="M11.9536 8.27817C12.3034 8.3001 12.6021 8.02374 12.6191 7.66404C12.6405 7.30434 12.3717 6.99728 12.0218 6.97974C11.672 6.9578 11.3733 7.23416 11.3563 7.59386C11.3392 7.95356 11.6037 8.26062 11.9536 8.27817Z" fill="#0033AD" stroke="none"/>
<path d="M8.5232 14.9274C8.83466 14.7651 8.96266 14.3747 8.80479 14.0544C8.64693 13.7342 8.26721 13.6026 7.95575 13.7649C7.6443 13.9272 7.5163 14.3176 7.67416 14.6379C7.83202 14.9581 8.21175 15.0897 8.5232 14.9274Z" fill="#0033AD" stroke="none"/>
<path d="M12.3632 9.22859C12.0389 9.74182 12.1754 10.4261 12.6746 10.7595C13.1738 11.0929 13.8394 10.9525 14.1636 10.4393C14.4879 9.92605 14.3514 9.24175 13.8522 8.90837C13.6773 8.78993 13.4725 8.72852 13.2634 8.72852C12.9008 8.72852 12.5637 8.91714 12.3632 9.22859Z" fill="#0033AD" stroke="none"/>
<path d="M14.2347 13.8607C13.9659 13.3124 13.3174 13.0931 12.7884 13.3694C12.255 13.6458 12.0417 14.3126 12.3105 14.8565C12.5793 15.4048 13.2278 15.6242 13.7569 15.3478C14.2859 15.0758 14.5035 14.4178 14.239 13.8695C14.239 13.8651 14.239 13.8651 14.2347 13.8607Z" fill="#0033AD" stroke="none"/>
<path d="M16.1183 13.7827C15.8239 13.5853 15.4314 13.6687 15.2437 13.9713C15.0517 14.274 15.1327 14.6776 15.4271 14.8706C15.7215 15.068 16.114 14.9846 16.3018 14.682C16.4937 14.3837 16.4127 13.9801 16.1183 13.7827Z" fill="#0033AD" stroke="none"/>
<path d="M18.1835 12.1195C18.2006 11.8124 17.9744 11.5536 17.6758 11.5361C17.3771 11.5185 17.1254 11.751 17.1083 12.0581C17.0913 12.3652 17.3174 12.624 17.616 12.6415C17.9104 12.6591 18.1664 12.4222 18.1835 12.1195Z" fill="#0033AD" stroke="none"/>
<path d="M19.671 11.7254C19.479 11.7122 19.3126 11.8658 19.3041 12.0632C19.2955 12.2606 19.4406 12.4316 19.6326 12.4404C19.8246 12.4536 19.9867 12.3 19.9995 12.1026C20.008 11.9052 19.863 11.7386 19.671 11.7254Z" fill="#0033AD" stroke="none"/>
<path d="M18.2681 15.2788C18.0633 15.1428 17.7902 15.1998 17.6537 15.4104C17.5214 15.6209 17.5769 15.9017 17.7817 16.042C17.9865 16.178 18.2595 16.121 18.3961 15.9104C18.5326 15.6999 18.4729 15.4147 18.2681 15.2788Z" fill="#0033AD" stroke="none"/>
<path d="M8.37749 18.6216C8.21536 18.5119 8.00204 18.5602 7.89537 18.7225C7.78871 18.8892 7.83564 19.1085 7.9935 19.2182C8.15563 19.3278 8.36896 19.2796 8.47562 19.1173C8.58655 18.955 8.53962 18.7313 8.37749 18.6216Z" fill="#0033AD" stroke="none"/>
<path d="M15.6825 18.5865C15.5119 18.6742 15.4436 18.8935 15.5289 19.069C15.6143 19.2445 15.8276 19.3146 15.9982 19.2269C16.1689 19.1392 16.2372 18.9242 16.1518 18.7488C16.0665 18.5689 15.8574 18.4943 15.6825 18.5865Z" fill="#0033AD" stroke="none"/>
<path d="M11.6376 14.9718C11.9618 14.4585 11.8253 13.7742 11.3261 13.4365C10.8269 13.1031 10.1613 13.2435 9.83283 13.7567C9.5043 14.2699 9.6451 14.9542 10.1443 15.292C10.3192 15.4104 10.524 15.4719 10.7331 15.4719C11.1 15.4762 11.437 15.2876 11.6376 14.9718Z" fill="#0033AD" stroke="none"/>
<path d="M9.48302 16.6685C9.23556 16.5018 8.89851 16.572 8.73638 16.8265C8.57425 17.0809 8.64251 17.4274 8.88997 17.5941C9.13743 17.7608 9.47449 17.6906 9.63662 17.4362C9.80301 17.1818 9.73475 16.8352 9.48302 16.6685Z" fill="#0033AD" stroke="none"/>
<path d="M11.9958 18.7877C11.7526 18.7746 11.5435 18.9676 11.5264 19.2176C11.5094 19.4677 11.7014 19.6826 11.9446 19.7002C12.1878 19.7133 12.3968 19.5247 12.4139 19.2747C12.4267 19.0202 12.239 18.8053 11.9958 18.7877Z" fill="#0033AD" stroke="none"/>
<path d="M12.0008 15.9231C11.6509 15.9012 11.3522 16.1775 11.3352 16.5372C11.3138 16.8969 11.5826 17.204 11.9325 17.2215C12.2823 17.2391 12.581 16.9671 12.5981 16.6074C12.6194 16.2521 12.3506 15.9406 12.0008 15.9231Z" fill="#0033AD" stroke="none"/>
<path d="M14.5901 16.6247C14.3256 16.7651 14.2189 17.0985 14.3554 17.3705C14.492 17.6424 14.8162 17.7521 15.0807 17.6117C15.3453 17.4757 15.4519 17.1424 15.3197 16.8704C15.1831 16.5984 14.8589 16.4844 14.5901 16.6247Z" fill="#0033AD" stroke="none"/>
</svg>
