<svg data-token-name="card_visa_colored" data-token-icon="card_visa_colored" width="24" height="24" viewBox="0 0 24 24" fill="none" xmlns="http://www.w3.org/2000/svg">
<rect width="24" height="24" rx="12" fill="#3C88FA"/>
<rect x="3" y="5.25" width="18" height="13.5" rx="5" fill="white"/>
<path d="M12.2021 16.9333H11.2229L11.8349 13.069H12.8142L12.2021 16.9333ZM10.3992 13.069L9.46569 15.7269L9.35523 15.1546L9.35533 15.1548L9.02586 13.417C9.02586 13.417 8.98602 13.069 8.56137 13.069H7.01811L7 13.1345C7 13.1345 7.47193 13.2354 8.02425 13.5762L8.87495 16.9334H9.89517L11.453 13.069H10.3992ZM18.1009 16.9333H19L18.2161 13.0689H17.429C17.0655 13.0689 16.977 13.3569 16.977 13.3569L15.5166 16.9333H16.5373L16.7414 16.3593H17.9862L18.1009 16.9333ZM17.0234 15.5664L17.5379 14.1203L17.8274 15.5664H17.0234ZM15.5932 13.9983L15.7329 13.1685C15.7329 13.1685 15.3017 13 14.8522 13C14.3663 13 13.2124 13.2182 13.2124 14.2793C13.2124 15.2776 14.5667 15.29 14.5667 15.8144C14.5667 16.3388 13.3519 16.2448 12.951 15.9141L12.8054 16.7818C12.8054 16.7818 13.2427 17 13.9107 17C14.5789 17 15.5869 16.6445 15.5869 15.677C15.5869 14.6723 14.2204 14.5787 14.2204 14.1419C14.2205 13.705 15.1741 13.7611 15.5932 13.9983Z" fill="#1434CB"/>
</svg>
