<svg data-token-name="card_off_circle" width="24" height="24" viewBox="0 0 24 24" fill="none" xmlns="http://www.w3.org/2000/svg">
<path d="M2 6.85H21M17 21C14.239 21 12 18.761 12 16C12 13.239 14.239 11 17 11C19.762 11 22 13.239 22 16C22 18.761 19.762 21 17 21Z" stroke="currentColor" stroke-width="1.5" stroke-linecap="round" stroke-linejoin="round"/>
<path d="M21 13V5C21 3.895 20.105 3 19 3H4C2.895 3 2 3.895 2 5V14C2 15.105 2.895 16 4 16H12M18.41 14.59L15.59 17.41M18.41 17.41L15.59 14.59" stroke="currentColor" stroke-width="1.5" stroke-linecap="round" stroke-linejoin="round"/>
</svg>
