<svg width="33" height="32" viewBox="0 0 33 32" fill="none" xmlns="http://www.w3.org/2000/svg">
<rect x="0.5" width="32" height="32" rx="16" fill="#3C88FA"/>
<rect x="4.5" y="7" width="24" height="18" rx="5" fill="white"/>
<path d="M15.1203 18.3013V18.3032C15.1185 18.3032 14.5472 18.3013 14.3949 18.8795C14.2552 19.4098 13.8617 20.873 13.8508 20.9134H13.742C13.742 20.9134 13.3394 19.4174 13.1979 18.8776C13.0456 18.2993 12.4725 18.3013 12.4725 18.3013H11.168V22.6994H12.4731V20.0873H12.5819L13.3436 22.6993H14.2498L15.0115 20.0892H15.1203V22.6993H16.4254V18.3013H15.1203ZM19.8881 18.3013C19.8881 18.3013 19.5054 18.3378 19.3259 18.7624L18.4016 20.9134H18.2928V18.3013H16.9876V22.6994H18.2202C18.2202 22.6994 18.621 22.6609 18.8006 22.2383L19.7067 20.0873H19.8155V22.6994H21.1207V18.3013H19.8881ZM21.701 20.2986V22.6994H23.0061V21.2976H24.4201C25.0367 21.2976 25.5584 20.8807 25.7525 20.2992H21.701V20.2986Z" fill="#1C8258"/>
<path d="M24.4185 18.3008H21.5156C21.6607 19.1384 22.2537 19.8101 23.0202 20.0292C23.1982 20.0802 23.3817 20.1061 23.5661 20.106H25.8034C25.8234 20.0061 25.8324 19.9043 25.8324 19.7986C25.8324 18.9713 25.1995 18.3008 24.4185 18.3008Z" fill="url(#paint0_linear_91313_192404)"/>
<defs>
<linearGradient id="paint0_linear_91313_192404" x1="21.5156" y1="19.2034" x2="25.8324" y2="19.2034" gradientUnits="userSpaceOnUse">
<stop offset="0.3" stop-color="#02ADFF"/>
<stop offset="1" stop-color="#2968EA"/>
</linearGradient>
</defs>
</svg>
