<svg data-token-name="card" width="24" height="24" viewBox="0 -91 512 512" xmlns="http://www.w3.org/2000/svg"><path d="m347.339844 0c-33.765625 0-65.1875 10.222656-91.339844 27.722656-26.15625-17.5-57.574219-27.722656-91.339844-27.722656-90.792968 0-164.660156 73.859375-164.660156 164.644531 0 90.785157 73.867188 164.644531 164.660156 164.644531 33.765625 0 65.1875-10.222656 91.339844-27.722656 26.15625 17.5 57.574219 27.722656 91.339844 27.722656 90.792968 0 164.660156-73.859374 164.660156-164.644531 0-90.785156-73.867188-164.644531-164.660156-164.644531zm0 299.289062c-49.03125 0-92.023438-26.34375-115.570313-65.613281h17.304688c8.285156 0 15-6.714843 15-15 0-8.28125-6.714844-15-15-15h-30.617188c-1.851562-6.101562-3.285156-12.378906-4.261719-18.8125h58.882813c8.28125 0 15-6.714843 15-15 0-8.28125-6.71875-15-15-15h-60.042969c.460938-6.402343 1.378906-12.683593 2.710938-18.808593h33.328125c8.285156 0 15-6.71875 15-15 0-8.285157-6.714844-15-15-15h-22.960938c21.828125-44.972657 67.964844-76.054688 121.226563-76.054688 74.25 0 134.660156 60.402344 134.660156 134.644531 0 74.242188-60.410156 134.644531-134.660156 134.644531zm0 0"/></svg>