<svg data-token-name="card_to_card_blue" width="24" height="24" viewBox="0 0 24 24" fill="none" xmlns="http://www.w3.org/2000/svg">
<path d="M0 12C0 5.37258 5.37258 0 12 0C18.6274 0 24 5.37258 24 12C24 18.6274 18.6274 24 12 24C5.37258 24 0 18.6274 0 12Z" fill="#2578F4"/>
<path d="M15.667 17.6667L14.667 16.6667L15.667 15.6667" stroke="white" stroke-width="1" stroke-linecap="round" stroke-linejoin="round"/>
<path d="M14.667 16.6667H16.667C17.0206 16.6667 17.3598 16.5262 17.6098 16.2761C17.8598 16.0261 18.0003 15.6869 18.0003 15.3333V14.6667" stroke="white" stroke-width="1" stroke-linecap="round" stroke-linejoin="round"/>
<path d="M8.33301 6.33334L9.33301 7.33334L8.33301 8.33334" stroke="white" stroke-width="1" stroke-linecap="round" stroke-linejoin="round"/>
<path d="M9.33333 7.33334H7.33333C6.97971 7.33334 6.64057 7.47382 6.39052 7.72387C6.14048 7.97392 6 8.31305 6 8.66668V9.33334" stroke="white" stroke-width="1" stroke-linecap="round" stroke-linejoin="round"/>
<path d="M12.6663 14.3333H5.33301" stroke="white" stroke-width="1" stroke-linecap="round" stroke-linejoin="round"/>
<path d="M11.1663 12H6.83301C6.00458 12 5.33301 12.6716 5.33301 13.5V16.5C5.33301 17.3284 6.00458 18 6.83301 18H11.1663C11.9948 18 12.6663 17.3284 12.6663 16.5V13.5C12.6663 12.6716 11.9948 12 11.1663 12Z" stroke="white" stroke-width="1" stroke-linecap="round" stroke-linejoin="round"/>
<path d="M14.6663 12H17.1663C17.5642 12 17.9457 11.842 18.227 11.5607C18.5083 11.2794 18.6663 10.8978 18.6663 10.5V7.5C18.6663 7.10218 18.5083 6.72064 18.227 6.43934C17.9457 6.15804 17.5642 6 17.1663 6H12.833C12.4352 6 12.0537 6.15804 11.7723 6.43934C11.491 6.72064 11.333 7.10218 11.333 7.5V10" stroke="white" stroke-width="1" stroke-linecap="round" stroke-linejoin="round"/>
<path d="M18.6663 8.33334H11.333" stroke="white" stroke-width="1" stroke-linecap="round" stroke-linejoin="round"/>
</svg>
