<svg xmlns="http://www.w3.org/2000/svg" data-token-name="card_to_card_colored" width="41" height="40" fill="none"><rect width="40" height="40" x=".667" fill="#4EA9A2" rx="20"/><path stroke="#fff" stroke-linecap="round" stroke-linejoin="round" fill="none" stroke-width="1.5" d="m26.778 29.444-1.667-1.666 1.667-1.667"/><path stroke="#fff" stroke-linecap="round" stroke-linejoin="round" stroke-width="1.5" fill="none" d="M25.111 27.778h3.334a2.222 2.222 0 0 0 2.222-2.223v-1.11M14.556 10.556l1.666 1.666-1.666 1.667"/><path stroke="#fff" stroke-linecap="round" fill="none" stroke-linejoin="round" stroke-width="1.5" d="M16.222 12.222H12.89a2.222 2.222 0 0 0-2.222 2.222v1.111M21.778 23.889H9.556M19.278 20h-7.222a2.5 2.5 0 0 0-2.5 2.5v5a2.5 2.5 0 0 0 2.5 2.5h7.222a2.5 2.5 0 0 0 2.5-2.5v-5a2.5 2.5 0 0 0-2.5-2.5ZM25.111 20h4.167a2.5 2.5 0 0 0 2.5-2.5v-5a2.5 2.5 0 0 0-2.5-2.5h-7.222a2.5 2.5 0 0 0-2.5 2.5v4.167M31.778 13.889H19.556"/></svg>