<svg data-token-name="cash-ad" width="24" height="24" viewBox="0 0 24 24" fill="none" xmlns="http://www.w3.org/2000/svg">
<path d="M16 22L14 20L16 18" stroke="currentColor" stroke-width="1.5" stroke-linecap="round" stroke-linejoin="round"/>
<path d="M20 20H14" stroke="currentColor" stroke-width="1.5" stroke-linecap="round" stroke-linejoin="round"/>
<path d="M12.0589 7.40433L7.40399 12.0592C6.95489 12.5083 6.95489 13.2364 7.40399 13.6856L10.3141 16.5956C10.7632 17.0447 11.4913 17.0447 11.9404 16.5956L16.5953 11.9408C17.0444 11.4917 17.0444 10.7635 16.5953 10.3144L13.6852 7.40433C13.2361 6.95523 12.508 6.95523 12.0589 7.40433Z" stroke="currentColor" stroke-width="1.5" stroke-linecap="round" stroke-linejoin="round"/>
<path d="M12.2077 12.1391C12.2352 12.098 12.2499 12.0497 12.25 12.0003C12.25 11.9674 12.2436 11.9349 12.231 11.9045C12.2185 11.8741 12.2 11.8465 12.1768 11.8232C12.1535 11.8 12.1259 11.7815 12.0955 11.769C12.0651 11.7564 12.0326 11.75 11.9997 11.75C11.9503 11.7501 11.902 11.7648 11.8609 11.7923C11.8198 11.8198 11.7879 11.8588 11.769 11.9045C11.7501 11.9501 11.7452 12.0004 11.7548 12.0489C11.7645 12.0973 11.7883 12.1418 11.8232 12.1768C11.8582 12.2117 11.9027 12.2355 11.9511 12.2452C11.9996 12.2548 12.0499 12.2499 12.0955 12.231C12.1412 12.2121 12.1802 12.1802 12.2077 12.1391Z" stroke="currentColor" stroke-width="1.5" stroke-linecap="round" stroke-linejoin="round"/>
<path d="M20.0534 16C20.8856 14.325 21.175 12.4322 20.8815 10.5851C20.5879 8.73788 19.7259 7.02813 18.4154 5.69364C17.105 4.35915 15.4111 3.46628 13.5696 3.13924C11.728 2.81219 9.83035 3.06724 8.1405 3.8689C6.45066 4.67055 5.05268 5.97896 4.14103 7.6121C3.22939 9.24524 2.84942 11.1219 3.05397 12.981C3.25853 14.8402 4.03744 16.5893 5.28235 17.9852C6.52727 19.3811 8.17628 20.3542 10 20.7693" stroke="currentColor" stroke-width="1.5" stroke-linecap="round" stroke-linejoin="round"/>
</svg>
