<svg data-token-name="category" width="24" height="24" viewBox="0 0 24 24" xmlns="http://www.w3.org/2000/svg">
<path d="M7.5 11C5.567 11 4 9.433 4 7.5C4 5.567 5.567 4 7.5 4C9.433 4 11 5.567 11 7.5C11 9.433 9.433 11 7.5 11Z" />
<path d="M16.5 11C14.567 11 13 9.433 13 7.5C13 5.567 14.567 4 16.5 4C18.433 4 20 5.567 20 7.5C20 9.433 18.433 11 16.5 11Z" />
<path d="M7.5 20C5.567 20 4 18.433 4 16.5C4 14.567 5.567 13 7.5 13C9.433 13 11 14.567 11 16.5C11 18.433 9.433 20 7.5 20Z" />
<path d="M20 16.5C20 14.567 18.433 13 16.5 13C14.567 13 13 14.567 13 16.5C13 18.433 14.567 20 16.5 20C18.433 20 20 18.433 20 16.5Z" />
</svg>
