<svg data-token-name="channels_icon" width="24" height="24" version="1.1" id="Layer_1" xmlns="http://www.w3.org/2000/svg" xmlns:xlink="http://www.w3.org/1999/xlink" x="0px" y="0px"
	 viewBox="0 0 24 24" style="enable-background:new 0 0 24 24;" xml:space="preserve">
<path d="M13.6,2C13.6,2,13.6,2,13.6,2h-3.2C5.8,2,2,5.8,2,10.4v10.3C2,21.4,2.6,22,3.3,22c0,0,0,0,0,0h10.3c4.6,0,8.4-3.8,8.4-8.4
	v-3.2C22,5.8,18.2,2,13.6,2z M16.6,15c0,0.7-0.6,1.3-1.3,1.3H7.8c-0.5,0-1-0.4-1-1V9.4c0-0.5,0.4-1,1-1h7.5c0,0,0,0,0,0
	c0.7,0,1.3,0.6,1.3,1.2V15z"/>
<path d="M12.9,13.3H8c-0.1,0-0.3,0.1-0.3,0.3v1.4c0,0.1,0.1,0.3,0.3,0.3h4.8c0.1,0,0.3-0.1,0.3-0.3v-1.4
	C13.1,13.4,13,13.3,12.9,13.3z"/>
<path d="M12.9,10.8H8c0,0,0,0,0,0c-0.2,0-0.3,0.1-0.3,0.3v1.4c0,0.1,0.1,0.3,0.3,0.3h4.8c0,0,0,0,0,0c0.2,0,0.3-0.1,0.3-0.3v-1.4
	C13.1,10.9,13,10.8,12.9,10.8z"/>
<path d="M15.3,10.8h-1.4c0,0,0,0,0,0c-0.2,0-0.3,0.1-0.3,0.3v3.9c0,0.2,0.1,0.3,0.3,0.3h1.4c0,0,0,0,0,0c0.2,0,0.3-0.1,0.3-0.3v-3.9
	C15.6,10.9,15.5,10.8,15.3,10.8z"/>
</svg>
