<svg data-token-name="change_sheet" width="24" height="24" viewBox="0 0 24 24" fill="none" xmlns="http://www.w3.org/2000/svg">
<path d="M5 13H7M5 16H9M16 19.316V19.5C16 19.8978 15.842 20.2794 15.5607 20.5607C15.2794 20.842 14.8978 21 14.5 21H3.5C3.10218 21 2.72064 20.842 2.43934 20.5607C2.15804 20.2794 2 19.8978 2 19.5V4.5C2 4.10218 2.15804 3.72064 2.43934 3.43934C2.72064 3.15804 3.10218 3 3.5 3H14.5C14.8978 3 15.2794 3.15804 15.5607 3.43934C15.842 3.72064 16 4.10218 16 4.5V14M16 14L16.0019 13.997L13.6229 11.4763C13.4835 11.3286 13.3159 11.2103 13.13 11.1285C12.9441 11.0468 12.7436 11.0031 12.5405 11.0002C12.3374 10.9972 12.1358 11.0351 11.9476 11.1114C11.7594 11.1878 11.5884 11.3012 11.4448 11.4448C11.1968 11.6928 11.0423 12.019 11.0075 12.3679C10.9727 12.7169 11.0598 13.0672 11.254 13.3592L14.2411 17.8527C14.7341 18.5943 15.4606 19.1502 16.3053 19.4322L21 21M16 14H17.5M16 9H17.2918C17.7575 9 18.2169 9.10843 18.6334 9.31671L19.2874 9.64371C19.7544 9.87719 20.1523 10.2285 20.4419 10.6629L22 13M8 7.5C8 8.32843 7.32843 9 6.5 9C5.67157 9 5 8.32843 5 7.5C5 6.67157 5.67157 6 6.5 6C7.32843 6 8 6.67157 8 7.5Z" stroke="currentColor" stroke-linecap="round" stroke-linejoin="round" fill="none"/>
</svg>
