<svg data-token-name="chat_add" width="24" height="24" viewBox="0 0 24 24" fill="none" xmlns="http://www.w3.org/2000/svg">
<path d="M16 6.49997H19" stroke="currentColor" stroke-linecap="round" stroke-linejoin="round" fill="none"/>
<path d="M17.5 7.99997V4.99997" stroke="currentColor" stroke-linecap="round" stroke-linejoin="round" fill="none"/>
<path d="M17.5 11C19.9853 11 22 8.98528 22 6.5C22 4.01472 19.9853 2 17.5 2C15.0147 2 13 4.01472 13 6.5C13 8.98528 15.0147 11 17.5 11Z" stroke="currentColor" fill="none" stroke-linecap="round" stroke-linejoin="round"/>
<path d="M10 3H6C5.20435 3 4.44129 3.31607 3.87868 3.87868C3.31607 4.44129 3 5.20435 3 6V15C3 15.7956 3.31607 16.5587 3.87868 17.1213C4.44129 17.6839 5.20435 18 6 18H8.007V20.4429C8.007 20.5476 8.03659 20.6503 8.09235 20.7389C8.14812 20.8276 8.22779 20.8987 8.3222 20.9441C8.41662 20.9895 8.52192 21.0073 8.626 20.9954C8.73008 20.9836 8.82869 20.9426 8.91049 20.8771L12.507 18H18C18.7956 18 19.5587 17.6839 20.1213 17.1213C20.6839 16.5587 21 15.7956 21 15V14" stroke="currentColor" fill="none" stroke-linecap="round" stroke-linejoin="round"/>
</svg>
