<svg data-token-name="chat_forum" width="24" height="24" viewBox="0 0 24 24" fill="none" xmlns="http://www.w3.org/2000/svg">
<path d="M6.557 11.9612C6.199 11.1347 6 10.2338 6 9.28847C6 5.24458 9.598 2 14 2C18.402 2 22 5.24458 22 9.28847C22 11.6784 20.738 13.7824 18.801 15.1092C18.802 15.8702 18.8 16.8961 18.8 17.9732L15.661 16.4169C15.124 16.5206 14.569 16.5769 14 16.5769C13.293 16.5769 12.607 16.4924 11.953 16.3343M7.18359 21.8117C9.89159 21.8117 11.982 19.596 11.982 16.8699C11.982 14.1438 9.787 11.9331 7.078 11.9331C4.369 11.9331 2.174 14.1438 2.174 16.8699C2.174 17.6148 2.338 18.3215 2.631 18.9558L2 22L5.018 21.3547C5.70092 21.6733 6.43388 21.8117 7.18359 21.8117Z" stroke="currentColor" fill="none"  stroke-linecap="round" stroke-linejoin="round"/>
</svg>
