<svg data-token-name="checkbox--checked" width="18" height="18" viewBox="0 0 18 18" xmlns="http://www.w3.org/2000/svg">
<path d="M6.98402 14.017L15.984 5.017L14.578 3.563L6.98402 11.158L3.42002 7.594L2.01802 9L6.98402 14.017ZM15.984 0C16.5467 0 17.0233 0.203333 17.414 0.61C17.8047 1.01667 18 1.48467 18 2.014V15.984C18 16.5153 17.8047 16.984 17.414 17.39C17.0233 17.7967 16.5467 18 15.984 18H2.01402C1.45202 18 0.975349 17.7967 0.584015 17.39C0.192682 16.9833 -0.00198475 16.5147 1.52542e-05 15.984V2.014C1.52542e-05 1.48333 0.195015 1.01533 0.585015 0.61C0.975015 0.203333 1.45168 0 2.01502 0H15.985H15.984Z" />
</svg>
