<svg data-token-name="checkboxes" width="24" height="24" viewBox="0 0 24 24" fill="none" xmlns="http://www.w3.org/2000/svg">
<path d="M18.3607 5.64844L16.6607 7.34844L15.6387 6.32944M11 9.35658H4.143C3.51174 9.35658 3 8.84484 3 8.21358V4.78558C3 4.15432 3.51174 3.64258 4.143 3.64258H11M11 20.3566H4.143C3.51174 20.3566 3 19.8448 3 19.2136V15.7856C3 15.1543 3.51174 14.6426 4.143 14.6426H11M17.8514 16.6484L16.1514 18.3484M19.828 3.67115C21.3903 5.23301 21.3907 7.76567 19.8289 9.328C18.267 10.8903 15.7343 10.8907 14.172 9.32885C12.6097 7.76699 12.6093 5.23433 14.1712 3.672L14.172 3.67115C15.734 2.10962 18.266 2.10962 19.828 3.67115ZM19.828 14.6711C21.3903 16.233 21.3907 18.7657 19.8289 20.328C18.267 21.8903 15.7343 21.8907 14.172 20.3289C12.6097 18.767 12.6093 16.2343 14.1712 14.672L14.172 14.6711C15.734 13.1096 18.266 13.1096 19.828 14.6711Z" stroke="currentColor" fill="none" stroke-linecap="round" stroke-linejoin="round"/>
</svg>
