<svg data-token-name="checkboxes" width="20" height="20" viewBox="0 0 20 20" fill="none" xmlns="http://www.w3.org/2000/svg">
<path d="M16.5232 3.05896C17.8252 4.36051 17.8255 6.47106 16.524 7.77301C15.2224 9.07495 13.1119 9.07527 11.8099 7.77372C10.508 6.47217 10.5077 4.36162 11.8092 3.05968C11.8094 3.05944 11.8097 3.0592 11.8099 3.05896C13.1116 1.75769 15.2216 1.75769 16.5232 3.05896Z" stroke="currentColor" fill="none" stroke-width="1.5" stroke-linecap="round" stroke-linejoin="round"/>
<path d="M15.3006 4.70703L13.8839 6.1237L13.0322 5.27453" stroke="currentColor" fill="none" stroke-width="1.5" stroke-linecap="round" stroke-linejoin="round"/>
<path d="M16.5232 12.226C17.8252 13.5275 17.8255 15.6381 16.524 16.94C15.2224 18.2419 13.1119 18.2423 11.8099 16.9407C10.508 15.6392 10.5077 13.5286 11.8092 12.2267C11.8094 12.2264 11.8097 12.2262 11.8099 12.226C13.1116 10.9247 15.2216 10.9247 16.5232 12.226Z" stroke="currentColor" fill="none" stroke-width="1.5" stroke-linecap="round" stroke-linejoin="round"/>
<path d="M9.16667 7.79682H3.4525C2.92645 7.79682 2.5 7.37037 2.5 6.84432V3.98766C2.5 3.46161 2.92645 3.03516 3.4525 3.03516H9.16667" stroke="currentColor" fill="none" stroke-width="1.5" stroke-linecap="round" stroke-linejoin="round"/>
<path d="M9.16667 16.9638H3.4525C2.92645 16.9638 2.5 16.5374 2.5 16.0113V13.1546C2.5 12.6286 2.92645 12.2021 3.4525 12.2021H9.16667" stroke="currentColor" fill="none" stroke-width="1.5" stroke-linecap="round" stroke-linejoin="round"/>
<path d="M14.8761 13.874L13.4595 15.2907" stroke="currentColor" fill="none" stroke-width="1.5" stroke-linecap="round" stroke-linejoin="round"/>
</svg>
