<svg data-token-name="checkbox" width="20" height="20" viewBox="0 0 20 20" fill="none" xmlns="http://www.w3.org/2000/svg">
<path fill-rule="evenodd" clip-rule="evenodd" d="M17 4C17 3.44772 16.5523 3 16 3H4C3.44772 3 3 3.44772 3 4V16C3 16.5523 3.44772 17 4 17H16C16.5523 17 17 16.5523 17 16V4ZM2.54222 2.54222C2.18074 2.90252 2 3.31852 2 3.79022V16.208C2 16.6797 2.18044 17.0963 2.54133 17.4578C2.90222 17.8193 3.31852 18 3.79022 18H16.208C16.6797 18 17.0963 17.8193 17.4578 17.4578C17.8193 17.0969 18 16.6803 18 16.208V3.79022C18 3.3197 17.8193 2.9037 17.4578 2.54222C17.0969 2.18074 16.6803 2 16.208 2H3.79022C3.3197 2 2.9037 2.18074 2.54222 2.54222Z" fill="#C7CCD1"/>
</svg>
