<svg data-token-name="check_circle_solid" width="24" height="24" viewBox="0 0 24 24" xmlns="http://www.w3.org/2000/svg">
<path fill-rule="evenodd" clip-rule="evenodd" d="M2 12C2 17.5233 6.47667 22 12 22C17.5233 22 22 17.5233 22 12C22 6.47667 17.5233 2 12 2C6.47667 2 2 6.47667 2 12ZM16.5762 9.48014C16.8413 9.16193 16.7983 8.68901 16.4801 8.42383C16.1619 8.15866 15.689 8.20165 15.4238 8.51986L10.9496 13.8889L8.53033 11.4697C8.23744 11.1768 7.76256 11.1768 7.46967 11.4697C7.17678 11.7626 7.17678 12.2374 7.46967 12.5303L10.4697 15.5303C10.6187 15.6793 10.8235 15.7588 11.034 15.7492C11.2445 15.7397 11.4413 15.642 11.5762 15.4801L16.5762 9.48014Z" />
</svg>
