<svg data-token-name="circle_arrows" width="24" height="24" viewBox="0 0 24 24" fill="none" xmlns="http://www.w3.org/2000/svg">
<path d="M11.2439 3.52254C10.2243 3.56947 9.1973 3.7924 8.20408 4.2276C4.49191 5.85532 2.48964 9.79554 3.11238 13.6558M19.3354 16.2636C19.804 15.3473 20.127 14.3372 20.2505 13.2514C20.7128 9.18846 18.3358 5.46689 14.7165 4.08131M8.52624 2L11.5249 3.03146L10.0662 5.58717M22 14.648L19.6167 16.7568L18.1559 14.2022M4.42295 20.1154L3.8076 16.9752L6.72709 16.9741M4.36716 16.976C4.91812 17.8453 5.62214 18.6325 6.49081 19.2832C9.74173 21.7183 14.1199 21.5007 17.1165 19.025" stroke="currentColor" fill="none" stroke-linecap="round" stroke-linejoin="round"/>
</svg>
