<svg data-token-name="circle_arrows" width="24" height="24" viewBox="0 0 24 24" fill="none" xmlns="http://www.w3.org/2000/svg">
<path d="M10.3069 3.22916C9.37227 3.27218 8.43086 3.47653 7.52041 3.87546C4.11758 5.36754 2.28217 8.97941 2.85301 12.518M17.7241 14.9085C18.1537 14.0686 18.4497 13.1426 18.5629 12.1472C18.9867 8.42292 16.8078 5.01148 13.4901 3.74136M7.81572 1.8335L10.5645 2.779L9.22735 5.12173M20.1667 13.4275L17.982 15.3606L16.6429 13.0188M4.05437 18.4393L3.4903 15.5607L6.1665 15.5598M4.00323 15.5615C4.50828 16.3584 5.15363 17.08 5.94991 17.6764C8.92992 19.9086 12.9433 19.7092 15.6901 17.4398" stroke="currentColor" fill="none" stroke-linecap="round" stroke-linejoin="round"/>
</svg>
