<svg data-token-name="clock_check" width="24" height="24" viewBox="0 0 24 24" fill="none" xmlns="http://www.w3.org/2000/svg">
<path d="M12.391 7V12.391H8M20.9414 11.0001C20.7534 9.31592 20.0936 7.71909 19.0381 6.39339C17.9825 5.06769 16.5741 4.06699 14.9748 3.50648C13.3756 2.94597 11.6506 2.84844 9.99839 3.2251C8.34617 3.60176 6.83389 4.43731 5.63562 5.63558C4.43734 6.83384 3.60178 8.34612 3.22511 9.99833C2.84844 11.6505 2.94596 13.3755 3.50646 14.9748C4.06696 16.574 5.06765 17.9825 6.39335 19.038C7.71905 20.0936 9.31587 20.7534 11 20.9414M16.75 17.8516L17.75 18.8516L19.25 17.3516M22 18C22 20.2091 20.2091 22 18 22C15.7909 22 14 20.2091 14 18C14 15.7909 15.7909 14 18 14C20.2091 14 22 15.7909 22 18Z" stroke="currentColor" fill="none" stroke-linecap="round" stroke-linejoin="round"/>
</svg>
