<svg data-token-name="clock_solid" width="24" height="24" viewBox="0 0 24 24" fill="none" xmlns="http://www.w3.org/2000/svg">
<rect x="1" y="1" width="22" height="22" rx="11" fill="white"/>
<path fill-rule="evenodd" clip-rule="evenodd" d="M8.28769 8.28769C10.3379 6.23744 13.6621 6.23744 15.7123 8.28769C17.7626 10.3379 17.7626 13.6621 15.7123 15.7123C13.6621 17.7626 10.3379 17.7626 8.28769 15.7123C6.23744 13.6621 6.23744 10.3379 8.28769 8.28769ZM12.5626 8.5C12.5626 8.08579 12.2268 7.75 11.8126 7.75C11.3984 7.75 11.0626 8.08579 11.0626 8.5V12.7093C11.0626 12.9748 11.2029 13.2204 11.4315 13.3553L13.6189 14.6459C13.9756 14.8564 14.4354 14.7379 14.6459 14.3811C14.8564 14.0244 14.7379 13.5646 14.3811 13.3541L12.5626 12.2811V8.5Z" fill="currentColor"/>
<path fill-rule="evenodd" clip-rule="evenodd" d="M12 22C6.47667 22 2 17.5233 2 12C2 6.47667 6.47667 2 12 2C17.5233 2 22 6.47667 22 12C22 17.5233 17.5233 22 12 22ZM16.773 7.22703C14.1369 4.59099 9.86307 4.59099 7.22703 7.22703C4.59099 9.86306 4.59099 14.1369 7.22703 16.773C9.86306 19.409 14.1369 19.409 16.773 16.773C19.409 14.1369 19.409 9.86307 16.773 7.22703Z" fill="currentColor"/>
</svg>
