<svg data-token-name="clock_check" width="20" height="20" viewBox="0 0 20 20" fill="none" xmlns="http://www.w3.org/2000/svg">
<path d="M10.3257 5.83334V10.3258H6.6665" stroke="currentColor" fill="none"  stroke-linecap="round" stroke-linejoin="round"/>
<path d="M17.4512 9.16672C17.2945 7.76326 16.7447 6.43258 15.8651 5.32783C14.9854 4.22307 13.8117 3.38916 12.479 2.92207C11.1463 2.45498 9.70884 2.3737 8.33199 2.68758C6.95514 3.00147 5.69491 3.69776 4.69635 4.69632C3.69779 5.69487 3.00149 6.9551 2.68759 8.33194C2.3737 9.70879 2.45497 11.1463 2.92205 12.479C3.38914 13.8117 4.22304 14.9854 5.32779 15.865C6.43254 16.7447 7.76322 17.2945 9.16667 17.4512" stroke="currentColor" fill="none"  stroke-linecap="round" stroke-linejoin="round"/>
<path d="M14.9998 18.3333C16.8408 18.3333 18.3332 16.8409 18.3332 15C18.3332 13.159 16.8408 11.6667 14.9998 11.6667C13.1589 11.6667 11.6665 13.159 11.6665 15C11.6665 16.8409 13.1589 18.3333 14.9998 18.3333Z" stroke="currentColor" fill="none"  stroke-linecap="round" stroke-linejoin="round"/>
<path d="M13.9585 14.8763L14.7918 15.7096L16.0418 14.4596" stroke="currentColor" fill="none"  stroke-linecap="round" stroke-linejoin="round"/>
</svg>
