<svg data-token-name="coin_speed" width="32" height="32" viewBox="0 0 32 32" fill="none" xmlns="http://www.w3.org/2000/svg">
<path d="M8.00065 12H5.33398" stroke="currentColor" stroke-width="1.5" stroke-linecap="round" stroke-linejoin="round"/>
<path d="M8.00065 20H5.33398" stroke="currentColor" stroke-width="1.5" stroke-linecap="round" stroke-linejoin="round"/>
<path d="M5.33268 16H2.66602" stroke="currentColor" stroke-width="1.5" stroke-linecap="round" stroke-linejoin="round"/>
<path d="M7.55273 7.51473C9.23096 5.8365 11.3692 4.69361 13.6969 4.23058C16.0247 3.76756 18.4375 4.0052 20.6302 4.91345C22.8229 5.8217 24.6971 7.35977 26.0157 9.33316C27.3342 11.3066 28.038 13.6266 28.038 16C28.038 18.3734 27.3342 20.6935 26.0157 22.6668C24.6971 24.6402 22.8229 26.1783 20.6302 27.0866C18.4375 27.9948 16.0247 28.2324 13.6969 27.7694C11.3692 27.3064 9.23096 26.1635 7.55273 24.4853" stroke="currentColor" stroke-width="1.5" stroke-linecap="round" stroke-linejoin="round"/>
<path d="M20.7467 14.5845L17.4129 11.2516C17.2272 11.0659 17.0067 10.9186 16.764 10.8182C16.5213 10.7177 16.2613 10.666 15.9986 10.666C15.736 10.6661 15.4759 10.7178 15.2332 10.8184C14.9906 10.9189 14.7701 11.0663 14.5845 11.252L11.2516 14.5858C11.0659 14.7715 10.9186 14.992 10.8182 15.2347C10.7177 15.4774 10.666 15.7375 10.666 16.0001C10.6661 16.2628 10.7178 16.5228 10.8184 16.7655C10.9189 17.0081 11.0663 17.2286 11.252 17.4143L14.5858 20.7471C14.7715 20.9328 14.992 21.0801 15.2347 21.1806C15.4774 21.281 15.7375 21.3327 16.0001 21.3327C16.2628 21.3327 16.5228 21.2809 16.7655 21.1804C17.0081 21.0798 17.2286 20.9324 17.4143 20.7467L20.7471 17.4129C20.9328 17.2272 21.0801 17.0067 21.1806 16.764C21.281 16.5213 21.3327 16.2613 21.3327 15.9986C21.3327 15.736 21.2809 15.4759 21.1804 15.2332C21.0798 14.9906 20.9324 14.7701 20.7467 14.5845Z" stroke="currentColor" stroke-width="1.5" stroke-linecap="round" stroke-linejoin="round"/>
</svg>
