<svg data-token-name="coin_speed" width="24" height="24" viewBox="0 0 24 24" fill="none" xmlns="http://www.w3.org/2000/svg">
<path d="M6 9H4M6 15H4M4 12H2M5.66382 5.636C6.92249 4.37733 8.52614 3.52016 10.272 3.17289C12.0178 2.82563 13.8274 3.00386 15.4719 3.68504C17.1165 4.36623 18.5221 5.51978 19.511 6.99983C20.4999 8.47987 21.0278 10.2199 21.0278 12C21.0278 13.78 20.4999 15.52 19.511 17.0001C18.5221 18.4801 17.1165 19.6337 15.4719 20.3149C13.8274 20.9961 12.0178 21.1743 10.272 20.827C8.52614 20.4798 6.92249 19.6226 5.66382 18.3639M13.0602 8.4392L15.5605 10.9388C15.6998 11.0781 15.8103 11.2434 15.8857 11.4254C15.9612 11.6074 16 11.8025 16 11.9994C16 12.1964 15.9613 12.3915 15.8859 12.5735C15.8105 12.7555 15.7001 12.9209 15.5608 13.0602L13.0612 15.5605C12.9219 15.6998 12.7566 15.8103 12.5746 15.8857C12.3926 15.9612 12.1975 16 12.0006 16C11.8036 16 11.6085 15.9613 11.4265 15.8859C11.2445 15.8105 11.0791 15.7001 10.9398 15.5608L8.4395 13.0612C8.30019 12.9219 8.18967 12.7566 8.11426 12.5746C8.03885 12.3926 8.00002 12.1975 7.99999 12.0006C7.99996 11.8036 8.03874 11.6085 8.1141 11.4265C8.18946 11.2445 8.29993 11.0791 8.4392 10.9398L10.9388 8.4395C11.0781 8.30019 11.2434 8.18967 11.4254 8.11426C11.6074 8.03885 11.8025 8.00002 11.9994 7.99999C12.1964 7.99996 12.3915 8.03874 12.5735 8.1141C12.7555 8.18946 12.9209 8.29993 13.0602 8.4392Z" stroke="currentColor" fill="none" stroke-linecap="round" stroke-linejoin="round"/>
</svg>
