<svg width="24" height="24" viewBox="0 0 24 24" fill="none" xmlns="http://www.w3.org/2000/svg">
<path d="M14 19L19 14M6 7H18M6 11H9M6 15H7M9 21H7C4.791 21 3 19.209 3 17V7C3 4.791 4.791 3 7 3H17C19.209 3 21 4.791 21 7V10M14.5607 12.4393C15.1464 13.0251 15.1464 13.9749 14.5607 14.5607C13.9749 15.1464 13.0251 15.1464 12.4393 14.5607C11.8536 13.9749 11.8536 13.0251 12.4393 12.4393C13.0251 11.8536 13.9749 11.8536 14.5607 12.4393ZM20.5607 18.4393C21.1464 19.0251 21.1464 19.9749 20.5607 20.5607C19.9749 21.1464 19.0251 21.1464 18.4393 20.5607C17.8536 19.9749 17.8536 19.0251 18.4393 18.4393C19.0251 17.8536 19.9749 17.8536 20.5607 18.4393Z" stroke="black" stroke-width="1.5" stroke-linecap="round" stroke-linejoin="round"/>
</svg>
