<svg data-token-name="credit-card" width="24" height="24" viewBox="0 0 24 24" fill="none" xmlns="http://www.w3.org/2000/svg">
<path d="M9.996 6.6H5.795C4.804 6.6 4 7.404 4 8.395V19.206C4 20.196 4.804 21 5.795 21H12.942C13.933 21 14.737 20.196 14.737 19.205V18.442" stroke="currentColor" fill="none"  stroke-width="1.5" stroke-linecap="round" stroke-linejoin="round"/>
<path d="M15.8041 18.73L9.29505 16.976C8.23105 16.689 7.60005 15.595 7.88305 14.53L10.5591 4.486C10.8441 3.417 11.9431 2.782 13.0121 3.07L19.5211 4.824C20.5801 5.11 21.2151 6.21 20.9331 7.27L18.2571 17.314C17.9721 18.383 16.8731 19.018 15.8041 18.73Z" stroke="currentColor" fill="none"  stroke-width="1.5" stroke-linecap="round" stroke-linejoin="round"/>
<path d="M11.4004 17.54L15.1204 3.64" stroke="currentColor" fill="none"  stroke-width="1.5" stroke-linecap="round" stroke-linejoin="round"/>
</svg>
