<svg data-token-name="credit_card_blink" width="24" height="24" viewBox="0 0 33 32" fill="none" xmlns="http://www.w3.org/2000/svg">
<g clip-path="url(#clip0_65173_80591)">
<path fill-rule="evenodd" clip-rule="evenodd" d="M17.7026 1.14203C15.5142 0.552459 13.2644 1.85241 12.681 4.04076L12.681 4.04091L12.0075 6.56851H6.27713C4.19162 6.56851 2.5 8.26014 2.5 10.3456V27.0719C2.5 29.1562 4.19199 30.8475 6.27713 30.8475H17.3346C17.3955 30.8475 17.4561 30.846 17.5164 30.8432C16.9396 30.2387 16.4302 29.5695 16 28.8475H6.27713C5.29583 28.8475 4.5 28.0509 4.5 27.0719V10.3456C4.5 9.36471 5.29619 8.56851 6.27713 8.56851H11.4747L8.5408 19.5805L8.54063 19.5811C7.96389 21.7515 9.24196 23.9816 11.4044 24.5804L14.7211 25.6634C14.5356 24.8571 14.4375 24.0174 14.4375 23.1547C14.4375 22.9176 14.4449 22.6821 14.4595 22.4486L14.2071 23.3917L12.0021 22.6717C11.9855 22.6663 11.9689 22.6613 11.9521 22.6568C10.8385 22.3564 10.177 21.2109 10.4735 20.0949L10.4735 20.0947L13.7311 7.8679C13.7396 7.84071 13.747 7.81302 13.7532 7.78489L14.6135 4.55597L14.6136 4.55581C14.9121 3.43646 16.0629 2.77161 17.1822 3.07315L17.1823 3.07317L19.4792 3.69214L15.5956 18.2035C16.3335 16.7189 17.3929 15.4222 18.6827 14.4047L21.4104 4.21252L27.2521 5.78671L27.2522 5.78675C28.356 6.08493 29.0222 7.23503 28.7333 8.33998L27.624 12.2034C28.2884 12.3268 28.932 12.5092 29.5493 12.7449L30.6586 8.88159L30.6638 8.86272C31.2417 6.69038 29.9437 4.44197 27.7735 3.85589L27.773 3.85574L17.7026 1.14204L17.7026 1.14203Z" fill="currentColor"/>
<path d="M26 28.5C26 27.1739 25.4732 25.9021 24.5355 24.9645C23.5979 24.0268 22.3261 23.5 21 23.5C22.3261 23.5 23.5979 22.9732 24.5355 22.0355C25.4732 21.0979 26 19.8261 26 18.5C26 19.8261 26.5268 21.0979 27.4645 22.0355C28.4021 22.9732 29.6739 23.5 31 23.5C29.6739 23.5 28.4021 24.0268 27.4645 24.9645C26.5268 25.9021 26 27.1739 26 28.5Z" stroke="currentColor" stroke-linecap="round" stroke-linejoin="round"/>
</g>
</svg>
