<svg width="41" height="40" viewBox="0 0 41 40" data-token-name="cryptowallet_colored" fill="none" xmlns="http://www.w3.org/2000/svg">
<rect x="0.666687" width="40" height="40" rx="20" fill="#9673ED"/>
<path d="M20.429 12.561C21.6207 11.994 22.9499 11.6666 24.3576 11.6666C29.4202 11.6666 33.5243 15.7707 33.5243 20.8333C33.5243 25.8959 29.4202 30 24.3576 30C22.9499 30 21.6207 29.6726 20.429 29.1056" stroke="white" stroke-width="1.5" stroke-linecap="round" stroke-linejoin="round" fill="none"/>
<path d="M22.9818 27.3151C26.5616 23.7353 26.5616 17.9313 22.9818 14.3515C19.402 10.7717 13.598 10.7717 10.0182 14.3515C6.43839 17.9313 6.43839 23.7353 10.0182 27.3151C13.598 30.8949 19.402 30.8949 22.9818 27.3151Z" stroke="white" stroke-width="1.5" stroke-linecap="round" stroke-linejoin="round" fill="none"/>
<path d="M15.9439 15.2364C16.0047 15.1388 16.089 15.0663 16.1855 15.0287C16.2819 14.9912 16.3856 14.9904 16.4824 15.0266C16.5792 15.0628 16.6643 15.1341 16.726 15.2308C16.7877 15.3275 16.8229 15.4447 16.8268 15.5665V19.399H19.6836C19.7715 19.4006 19.8574 19.4306 19.9324 19.4858C20.0074 19.541 20.0686 19.6194 20.1097 19.7128C20.1509 19.8062 20.1703 19.9111 20.1661 20.0167C20.1619 20.1222 20.1342 20.2244 20.0858 20.3127L16.5541 26.5136C16.4934 26.6112 16.409 26.6837 16.3126 26.7213C16.2162 26.7588 16.1124 26.7596 16.0156 26.7234C15.9188 26.6872 15.8338 26.6159 15.7721 26.5192C15.7104 26.4225 15.6752 26.3053 15.6712 26.1835V22.351H12.8165C12.7285 22.3494 12.6426 22.3194 12.5676 22.2642C12.4926 22.209 12.4314 22.1306 12.3903 22.0372C12.3492 21.9438 12.3297 21.8389 12.3339 21.7333C12.3381 21.6278 12.3659 21.5256 12.4142 21.4373L15.9439 15.2364Z" stroke="white" stroke-width="1.5" stroke-linecap="round" stroke-linejoin="round" fill="none"/>
</svg>
