<svg width="40" height="40" data-token-name="crypto_colored" viewBox="0 0 40 40" fill="none" xmlns="http://www.w3.org/2000/svg">
<rect width="40" height="40" rx="20" fill="#3C88FA"/>
<path d="M16.9922 10.8509C20.3483 7.49354 25.7914 7.49484 29.1488 10.8509C32.5062 14.207 32.5062 19.6501 29.1488 23.0075" fill="none" stroke="white" stroke-width="1.5" stroke-linecap="round" stroke-linejoin="round"/>
<path d="M16.9303 31.6667C21.6786 31.6667 25.5273 27.8181 25.5273 23.0698C25.5273 18.3215 21.6786 14.4728 16.9303 14.4728C12.182 14.4728 8.33333 18.3215 8.33333 23.0698C8.33333 27.8181 12.182 31.6667 16.9303 31.6667Z" fill="none" stroke="white" stroke-width="1.5" stroke-linecap="round" stroke-linejoin="round"/>
<path d="M14.433 26.5684H18.537C19.5079 26.5684 20.2948 25.7803 20.2948 24.8094C20.2948 23.8384 19.5067 23.0503 18.5357 23.0503H14.433V26.5684Z" fill="none" stroke="white" stroke-width="1.5" stroke-linecap="round" stroke-linejoin="round"/>
<path d="M14.433 23.0503V19.422H18.0911C19.0931 19.422 19.9046 20.2335 19.9046 21.2355C19.9046 22.2375 19.0931 23.049 18.0911 23.049" fill="none" stroke="white" stroke-width="1.5" stroke-linecap="round" stroke-linejoin="round"/>
<path d="M16.7216 18.3811V19.4207" fill="none" stroke="white" stroke-width="1.5" stroke-linecap="round" stroke-linejoin="round"/>
<path d="M16.7216 27.7584V26.5865" fill="none" stroke="white" stroke-width="1.5" stroke-linecap="round" stroke-linejoin="round"/>
</svg>
