<svg data-token-name="cryptowallet" width="24" height="24" viewBox="0 0 24 24" fill="none" xmlns="http://www.w3.org/2000/svg">
<path d="M12.0001 5.68299C12.9101 5.25 13.9251 5 15.0001 5C18.866 5 22 8.13397 22 11.9999C22 15.8659 18.866 18.9999 15.0001 18.9999C13.9251 18.9999 12.9101 18.7499 12.0001 18.3169M13.9496 7.05023C16.6833 9.78388 16.6833 14.216 13.9496 16.9496C11.216 19.6833 6.78388 19.6833 4.05023 16.9496C1.31659 14.216 1.31659 9.78388 4.05023 7.05023C6.78388 4.31659 11.216 4.31659 13.9496 7.05023ZM8.57555 7.72594C8.62191 7.65145 8.68634 7.59605 8.75998 7.56737C8.83362 7.53868 8.91284 7.53812 8.98676 7.56575C9.06067 7.59339 9.12564 7.64786 9.17274 7.72168C9.21984 7.79551 9.24675 7.88505 9.24977 7.978V10.9047H11.4312C11.4984 10.9059 11.564 10.9288 11.6213 10.9709C11.6785 11.0131 11.7253 11.0729 11.7567 11.1442C11.7881 11.2156 11.8029 11.2957 11.7997 11.3763C11.7965 11.4569 11.7753 11.535 11.7384 11.6023L9.04151 16.3376C8.99514 16.4121 8.93071 16.4675 8.85707 16.4961C8.78344 16.5248 8.70421 16.5254 8.6303 16.4978C8.55638 16.4701 8.49141 16.4157 8.44431 16.3418C8.39721 16.268 8.3703 16.1785 8.36729 16.0855V13.1588H6.18731C6.12017 13.1576 6.05455 13.1348 5.99729 13.0926C5.94004 13.0505 5.89327 12.9906 5.86187 12.9193C5.83047 12.8479 5.81561 12.7678 5.81882 12.6872C5.82204 12.6066 5.84323 12.5285 5.88016 12.4612L8.57555 7.72594Z" stroke="currentColor" fill="none" stroke-linecap="round" stroke-linejoin="round"/>
</svg>
