<svg data-token-name="crypto_transfer" width="24" height="24" viewBox="0 0 24 24" fill="none" xmlns="http://www.w3.org/2000/svg">
<path d="M8 4L6.5 5.5M8 4L6.5 2.5M8 4H6C4.343 4 3 5.343 3 7M16 20L17.5 18.5M16 20L17.5 21.5M16 20H18C19.657 20 21 18.657 21 17M10.153 6.153C10.295 5.966 10.441 5.781 10.611 5.611C12.75 3.472 16.25 3.472 18.389 5.611C20.528 7.75 20.528 11.25 18.389 13.389C18.218 13.56 18.031 13.703 17.842 13.842M7 14.3652H9.85M10.7821 16.5313C9.9161 16.9063 8.8791 16.7523 8.1711 16.0443C7.2431 15.1163 7.2431 13.6133 8.1711 12.6853C8.8791 11.9773 9.9171 11.8233 10.7821 12.1983M9.5 20C12.525 20 15.001 17.525 15.001 14.501C15.001 11.477 12.525 9 9.5 9C6.475 9 4.001 11.475 4.001 14.501C4.001 15.735 4.418 16.873 5.11 17.793C6.116 19.129 7.71 20 9.5 20Z" stroke="currentColor" fill="none" stroke-linecap="round" stroke-linejoin="round"/>
</svg>
