<svg data-token-name="cryptowallet_colored" width="24" height="24" viewBox="0 0 24 24" fill="none" xmlns="http://www.w3.org/2000/svg">
<rect width="24" height="24" rx="12" fill="#9673ED"/>
<path d="M11.8574 7.53664C12.5724 7.19643 13.3699 7 14.2146 7C17.2521 7 19.7146 9.46243 19.7146 12.5C19.7146 15.5376 17.2521 18 14.2146 18C13.3699 18 12.5724 17.8036 11.8574 17.4634" stroke="white" fill="none" stroke-linecap="round" stroke-linejoin="round"/>
<path d="M13.3891 16.3891C15.537 14.2412 15.537 10.7588 13.3891 8.61091C11.2412 6.46303 7.7588 6.46303 5.61091 8.61091C3.46303 10.7588 3.46303 14.2412 5.61091 16.3891C7.7588 18.537 11.2412 18.537 13.3891 16.3891Z" stroke="white" fill="none" stroke-linecap="round" stroke-linejoin="round"/>
<path d="M9.16635 9.14183C9.20279 9.0833 9.25341 9.03977 9.31127 9.01723C9.36913 8.9947 9.43137 8.99425 9.48945 9.01597C9.54753 9.03768 9.59858 9.08048 9.63558 9.13848C9.67259 9.19649 9.69373 9.26685 9.6961 9.33988V11.6394H11.4101C11.4629 11.6404 11.5144 11.6584 11.5594 11.6915C11.6044 11.7246 11.6412 11.7716 11.6658 11.8277C11.6905 11.8837 11.7022 11.9467 11.6997 12.01C11.6971 12.0733 11.6805 12.1347 11.6515 12.1876L9.53247 15.9082C9.49604 15.9667 9.44541 16.0102 9.38755 16.0328C9.3297 16.0553 9.26745 16.0557 9.20937 16.034C9.1513 16.0123 9.10025 15.9695 9.06324 15.9115C9.02623 15.8535 9.00509 15.7832 9.00272 15.7101V13.4106H7.28986C7.23712 13.4096 7.18555 13.3916 7.14057 13.3585C7.09558 13.3254 7.05883 13.2784 7.03416 13.2223C7.00949 13.1663 6.99781 13.1033 7.00034 13.04C7.00287 12.9767 7.01951 12.9153 7.04853 12.8624L9.16635 9.14183Z" stroke="white" fill="none" stroke-linecap="round" stroke-linejoin="round"/>
</svg>
