<svg data-token-name="crypto_transfer" width="60" height="60" viewBox="0 0 60 60" fill="none" xmlns="http://www.w3.org/2000/svg">
<path d="M20 10L16.25 13.75M20 10L16.25 6.25M20 10H15C10.8575 10 7.5 13.3575 7.5 17.5M40 50L43.75 46.25M40 50L43.75 53.75M40 50H45C49.1425 50 52.5 46.6425 52.5 42.5M25.3825 15.3825C25.7375 14.915 26.1025 14.4525 26.5275 14.0275C31.875 8.68 40.625 8.68 45.9725 14.0275C51.32 19.375 51.32 28.125 45.9725 33.4725C45.545 33.9 45.0775 34.2575 44.605 34.605M17.5 35.9131H24.625M26.9552 41.3282C24.7902 42.2657 22.1977 41.8807 20.4277 40.1107C18.1077 37.7907 18.1077 34.0332 20.4277 31.7132C22.1977 29.9432 24.7927 29.5582 26.9552 30.4957M23.75 50C31.3125 50 37.5025 43.8125 37.5025 36.2525C37.5025 28.6925 31.3125 22.5 23.75 22.5C16.1875 22.5 10.0025 28.6875 10.0025 36.2525C10.0025 39.3375 11.045 42.1825 12.775 44.4825C15.29 47.8225 19.275 50 23.75 50Z" stroke="currentColor" fill="none" stroke-linecap="round" stroke-linejoin="round"/>
</svg>
