<svg xmlns="http://www.w3.org/2000/svg" width="40" height="40" data-token-name="crypto_colored" fill="none"><rect width="40" height="40" fill="#3C88FA" rx="20"/><path stroke="#fff" stroke-linecap="round" stroke-linejoin="round" fill="none" stroke-width="1.5" d="M16.992 10.85c3.356-3.356 8.8-3.355 12.157 0a8.595 8.595 0 0 1 0 12.158"/><path stroke="#fff" stroke-linecap="round" fill="none" stroke-linejoin="round" stroke-width="1.5" d="M16.93 31.667a8.597 8.597 0 0 0 8.597-8.597 8.597 8.597 0 0 0-8.597-8.597 8.597 8.597 0 0 0-8.597 8.597 8.596 8.596 0 0 0 8.597 8.597Z"/><path stroke="#fff" stroke-linecap="round" fill="none" stroke-linejoin="round" stroke-width="1.5" d="M14.433 26.568h4.104a1.759 1.759 0 0 0-.001-3.518h-4.103v3.518Z"/><path stroke="#fff" stroke-linecap="round" stroke-linejoin="round" fill="none" stroke-width="1.5" d="M14.433 23.05v-3.628h3.658a1.813 1.813 0 1 1 0 3.627M16.722 18.381v1.04M16.722 27.758v-1.171"/></svg>