<svg data-token-name="crypto_colored" width="24" height="24" viewBox="0 0 24 24" fill="none" xmlns="http://www.w3.org/2000/svg">
<rect width="24" height="24" rx="12" fill="#3C88FA"/>
<path d="M10.1953 6.51056C12.209 4.49613 15.4748 4.49691 17.4893 6.51056C19.5037 8.52421 19.5037 11.7901 17.4893 13.8045" stroke="white" fill="none" stroke-linecap="round" stroke-linejoin="round"/>
<path d="M10.1582 19C13.0072 19 15.3164 16.6908 15.3164 13.8418C15.3164 10.9929 13.0072 8.68365 10.1582 8.68365C7.30921 8.68365 5 10.9929 5 13.8418C5 16.6908 7.30921 19 10.1582 19Z" stroke="white" fill="none" stroke-linecap="round" stroke-linejoin="round"/>
<path d="M8.66016 15.941H11.1226C11.7051 15.941 12.1772 15.4682 12.1772 14.8856C12.1772 14.3031 11.7044 13.8302 11.1218 13.8302H8.66016V15.941Z" stroke="white" fill="none" stroke-linecap="round" stroke-linejoin="round"/>
<path d="M8.66016 13.8302V11.6532H10.855C11.4562 11.6532 11.9431 12.1401 11.9431 12.7413C11.9431 13.3425 11.4562 13.8294 10.855 13.8294" stroke="white" fill="none" stroke-linecap="round" stroke-linejoin="round"/>
<path d="M10.0332 11.0286V11.6524" stroke="white" fill="none" stroke-linecap="round" stroke-linejoin="round"/>
<path d="M10.0332 16.655V15.9519" stroke="white" fill="none" stroke-linecap="round" stroke-linejoin="round"/>
</svg>
