<svg data-token-name="cryptowallet" width="32" height="32" viewBox="0 0 32 32" fill="none" xmlns="http://www.w3.org/2000/svg">
<path d="M16 7.57667C17.2133 6.99935 18.5666 6.66602 20 6.66602C25.1546 6.66602 29.3332 10.8446 29.3332 15.9993C29.3332 21.1539 25.1546 25.3325 20 25.3325C18.5666 25.3325 17.2133 24.9992 16 24.4219" stroke="currentColor" fill="none"  stroke-width="1.5" stroke-linecap="round" stroke-linejoin="round"/>
<path d="M18.5989 22.5989C22.2437 18.954 22.2437 13.0445 18.5989 9.39966C14.954 5.7548 9.04452 5.7548 5.39966 9.39966C1.7548 13.0445 1.7548 18.954 5.39966 22.5989C9.04452 26.2437 14.954 26.2437 18.5989 22.5989Z" stroke="currentColor" fill="none"  stroke-width="1.5" stroke-linecap="round" stroke-linejoin="round"/>
<path d="M11.434 10.3012C11.4958 10.2019 11.5817 10.128 11.6799 10.0898C11.7781 10.0515 11.8837 10.0508 11.9823 10.0876C12.0808 10.1245 12.1675 10.1971 12.2303 10.2955C12.2931 10.394 12.329 10.5134 12.333 10.6373V14.5395H15.2416C15.3311 14.5411 15.4186 14.5717 15.495 14.6278C15.5713 14.684 15.6337 14.7639 15.6755 14.859C15.7174 14.9541 15.7372 15.0609 15.7329 15.1684C15.7286 15.2758 15.7004 15.3799 15.6511 15.4698L12.0553 21.7834C11.9935 21.8827 11.9076 21.9566 11.8094 21.9948C11.7112 22.0331 11.6056 22.0338 11.507 21.997C11.4085 21.9601 11.3218 21.8875 11.259 21.7891C11.1962 21.6906 11.1604 21.5713 11.1563 21.4473V17.5451H8.2497C8.16019 17.5435 8.07268 17.513 7.99635 17.4568C7.92001 17.4006 7.85764 17.3208 7.81578 17.2257C7.77392 17.1306 7.7541 17.0237 7.75839 16.9162C7.76268 16.8088 7.79092 16.7047 7.84017 16.6149L11.434 10.3012Z" stroke="currentColor" fill="none"  stroke-width="1.5" stroke-linecap="round" stroke-linejoin="round"/>
</svg>
