<svg data-token-name="cryptowallet_blue" width="41" height="40" viewBox="0 0 41 40" fill="none" xmlns="http://www.w3.org/2000/svg">
<rect x="0.666016" width="40" height="40" rx="20" fill="#8756FF"/>
<path d="M20.4277 12.5604C21.6194 11.9934 22.9486 11.666 24.3563 11.666C29.4189 11.666 33.523 15.7701 33.523 20.8327C33.523 25.8953 29.4189 29.9993 24.3563 29.9993C22.9486 29.9993 21.6194 29.672 20.4277 29.1049" stroke="white" fill="none"  stroke-linecap="round" stroke-linejoin="round"/>
<path d="M22.9805 27.3145C26.5603 23.7347 26.5603 17.9307 22.9805 14.3509C19.4007 10.7711 13.5967 10.7711 10.0169 14.3509C6.43708 17.9307 6.43708 23.7347 10.0169 27.3145C13.5967 30.8943 19.4007 30.8943 22.9805 27.3145Z" stroke="white" fill="none"  stroke-linecap="round" stroke-linejoin="round"/>
<path d="M15.9426 15.2364C16.0033 15.1388 16.0877 15.0663 16.1841 15.0287C16.2806 14.9912 16.3843 14.9904 16.4811 15.0266C16.5779 15.0628 16.663 15.1341 16.7247 15.2308C16.7863 15.3275 16.8216 15.4447 16.8255 15.5665V19.399H19.6823C19.7702 19.4006 19.8561 19.4306 19.9311 19.4858C20.0061 19.541 20.0673 19.6194 20.1084 19.7128C20.1495 19.8062 20.169 19.9111 20.1648 20.0167C20.1606 20.1222 20.1328 20.2244 20.0845 20.3127L16.5528 26.5136C16.4921 26.6112 16.4077 26.6837 16.3113 26.7213C16.2149 26.7588 16.1111 26.7596 16.0143 26.7234C15.9175 26.6872 15.8324 26.6159 15.7708 26.5192C15.7091 26.4225 15.6738 26.3053 15.6699 26.1835V22.351H12.8151C12.7272 22.3494 12.6413 22.3194 12.5663 22.2642C12.4913 22.209 12.4301 22.1306 12.389 22.0372C12.3478 21.9438 12.3284 21.8389 12.3326 21.7333C12.3368 21.6278 12.3646 21.5256 12.4129 21.4373L15.9426 15.2364Z" stroke="white" fill="none"  stroke-linecap="round" stroke-linejoin="round"/>
</svg>
