<svg data-token-name="deferred_payment" width="24" height="24" viewBox="0 0 24 24" fill="none" xmlns="http://www.w3.org/2000/svg">
<path d="M15 2V4M7 2V4M3 8H19M19 10V6C19 4.343 17.657 3 16 3H6C4.343 3 3 4.343 3 6V14C3 15.657 4.343 17 6 17H9M15.33 15.018C13.478 15.108 12 16.626 12 18.5C12 20.433 13.567 22 15.5 22C16.897 22 18.093 21.176 18.655 19.992M18.5 20C16.567 20 15 18.433 15 16.5C15 14.567 16.567 13 18.5 13C20.434 13 22 14.567 22 16.5C22 18.433 20.434 20 18.5 20Z" stroke="currentColor" fill="none" stroke-linecap="round" stroke-linejoin="round"/>
</svg>
