<svg data-token-name="delete" width="24" height="24" viewBox="0 0 24 24" fill="none" xmlns="http://www.w3.org/2000/svg">
<path d="M4.5 6H19.5M8 6L8.544 4.368C8.6767 3.96959 8.93143 3.62305 9.2721 3.37752C9.61276 3.13198 10.0221 2.9999 10.442 3H13.558C13.9783 2.99948 14.388 3.13136 14.7291 3.37693C15.0702 3.6225 15.3252 3.96927 15.458 4.368L16 6M6 9V19C6 19.5304 6.21071 20.0391 6.58579 20.4142C6.96086 20.7893 7.46957 21 8 21H16C16.5304 21 17.0391 20.7893 17.4142 20.4142C17.7893 20.0391 18 19.5304 18 19V9H6Z" stroke="currentColor" fill="none"  stroke-linecap="round" stroke-linejoin="round"/>
</svg>
