<svg data-token-name="desktop_device" width="24" height="24" viewBox="0 0 32 33" xmlns="http://www.w3.org/2000/svg">
<path d="M21.3332 29.5C21.8855 29.5 22.3332 29.0523 22.3332 28.5C22.3332 27.9477 21.8855 27.5 21.3332 27.5V29.5ZM10.6665 27.5C10.1142 27.5 9.6665 27.9477 9.6665 28.5C9.6665 29.0523 10.1142 29.5 10.6665 29.5V27.5ZM29.3332 20.1667C29.8855 20.1667 30.3332 19.719 30.3332 19.1667C30.3332 18.6144 29.8855 18.1667 29.3332 18.1667V20.1667ZM2.6665 18.1667C2.11422 18.1667 1.6665 18.6144 1.6665 19.1667C1.6665 19.719 2.11422 20.1667 2.6665 20.1667V18.1667ZM19.6665 23.1667C19.6665 22.6144 19.2188 22.1667 18.6665 22.1667C18.1142 22.1667 17.6665 22.6144 17.6665 23.1667H19.6665ZM20.6665 29.5C21.2188 29.5 21.6665 29.0523 21.6665 28.5C21.6665 27.9477 21.2188 27.5 20.6665 27.5V29.5ZM14.3332 23.1667C14.3332 22.6144 13.8855 22.1667 13.3332 22.1667C12.7809 22.1667 12.3332 22.6144 12.3332 23.1667H14.3332ZM11.3332 27.5C10.7809 27.5 10.3332 27.9477 10.3332 28.5C10.3332 29.0523 10.7809 29.5 11.3332 29.5V27.5ZM21.3332 27.5H10.6665V29.5H21.3332V27.5ZM5.33317 5.5H26.6665V3.5H5.33317V5.5ZM26.6665 5.5C27.587 5.5 28.3332 6.24619 28.3332 7.16667H30.3332C30.3332 5.14162 28.6915 3.5 26.6665 3.5V5.5ZM28.3332 7.16667V20.5H30.3332V7.16667H28.3332ZM28.3332 20.5C28.3332 21.4205 27.587 22.1667 26.6665 22.1667V24.1667C28.6915 24.1667 30.3332 22.525 30.3332 20.5H28.3332ZM26.6665 22.1667H5.33317V24.1667H26.6665V22.1667ZM5.33317 22.1667C4.4127 22.1667 3.6665 21.4205 3.6665 20.5H1.6665C1.6665 22.525 3.30813 24.1667 5.33317 24.1667V22.1667ZM3.6665 20.5V7.16667H1.6665V20.5H3.6665ZM3.6665 7.16667C3.6665 6.24619 4.4127 5.5 5.33317 5.5V3.5C3.30813 3.5 1.6665 5.14162 1.6665 7.16667H3.6665ZM29.3332 18.1667H2.6665V20.1667H29.3332V18.1667ZM17.6665 23.1667V24.5H19.6665V23.1667H17.6665ZM17.6665 24.5C17.6665 25.7262 17.9129 26.8857 18.3579 27.7756C18.7729 28.6058 19.5314 29.5 20.6665 29.5V27.5C20.6654 27.5 20.6639 27.4999 20.6611 27.4994C20.6581 27.4988 20.6519 27.4972 20.6422 27.4932C20.6225 27.4852 20.5854 27.4658 20.5339 27.4222C20.426 27.331 20.286 27.1598 20.1467 26.8812C19.8678 26.3235 19.6665 25.483 19.6665 24.5H17.6665ZM12.3332 23.1667V24.5H14.3332V23.1667H12.3332ZM12.3332 24.5C12.3332 25.483 12.1318 26.3235 11.853 26.8812C11.7137 27.1598 11.5736 27.331 11.4658 27.4222C11.4142 27.4658 11.3772 27.4852 11.3575 27.4932C11.3477 27.4972 11.3416 27.4988 11.3386 27.4994C11.3358 27.4999 11.3342 27.5 11.3332 27.5V29.5C12.4683 29.5 13.2267 28.6058 13.6418 27.7756C14.0868 26.8857 14.3332 25.7262 14.3332 24.5H12.3332Z"/>
</svg>
