<svg data-token-name="dialog_question" width="24" height="24" viewBox="0 0 24 24" fill="none" xmlns="http://www.w3.org/2000/svg">
<path d="M11.899 12.328V12.121C11.899 11.443 12.318 11.076 12.738 10.794C13.148 10.518 13.559 10.158 13.559 9.494C13.559 8.577 12.816 7.835 11.9 7.835C10.984 7.835 10.24 8.576 10.24 9.493M3 11.291C3 13.974 4.42 16.336 6.599 17.825C6.598 18.68 6.6 19.832 6.6 21.041L10.131 19.294C10.735 19.41 11.359 19.473 12 19.473C16.952 19.473 21 15.83 21 11.291C21 6.752 16.952 3.109 12 3.109C7.048 3.109 3 6.752 3 11.291Z" stroke="currentColor" fill="none" stroke-linecap="round" stroke-linejoin="round"/>
<circle cx="11.9502" cy="14.45" r="0.75" fill="currentColor"/>
</svg>
