<svg width="25" height="25" viewBox="0 0 25 25" fill="none" xmlns="http://www.w3.org/2000/svg">
<path d="M12.0279 13.0784V12.8714C12.0279 12.1934 12.4469 11.8264 12.8669 11.5444C13.2769 11.2684 13.6879 10.9084 13.6879 10.2444C13.6879 9.32738 12.9449 8.58537 12.0289 8.58537C11.1129 8.58537 10.3689 9.32637 10.3689 10.2434M3.12891 12.0414C3.12891 14.7244 4.54891 17.0864 6.72791 18.5754C6.72691 19.4304 6.72891 20.5824 6.72891 21.7914L10.2599 20.0444C10.8639 20.1604 11.4879 20.2234 12.1289 20.2234C17.0809 20.2234 21.1289 16.5804 21.1289 12.0414C21.1289 7.50238 17.0809 3.85938 12.1289 3.85938C7.17691 3.85938 3.12891 7.50238 3.12891 12.0414Z" stroke="currentColor" fill="none" stroke-linecap="round" stroke-linejoin="round"/>
<circle cx="12.0791" cy="15.2002" r="0.75" fill="currentColor"/>
</svg>
