<svg data-token-name="discord_colored" width="24" height="24" viewBox="0 0 24 24" fill="none" xmlns="http://www.w3.org/2000/svg">
<path d="M0 12C0 5.37258 5.37258 0 12 0C18.6274 0 24 5.37258 24 12C24 18.6274 18.6274 24 12 24C5.37258 24 0 18.6274 0 12Z" fill="#7289DA"/>
<path d="M18.0183 7.88874C16.9174 7.00874 15.5963 6.56874 14.2018 6.49541L13.9817 6.71541C15.2294 7.00874 16.3303 7.59541 17.3578 8.40207C16.1101 7.74207 14.7156 7.30207 13.2477 7.15541C12.8073 7.08207 12.4404 7.08207 12 7.08207C11.5596 7.08207 11.1927 7.08207 10.7523 7.15541C9.2844 7.30207 7.88991 7.74207 6.6422 8.40207C7.66972 7.59541 8.77064 7.00874 10.0183 6.71541L9.79817 6.49541C8.40367 6.56874 7.08257 7.00874 5.98165 7.88874C4.73394 10.2354 4.07339 12.8754 4 15.5887C5.10092 16.7621 6.6422 17.4954 8.25688 17.4954C8.25688 17.4954 8.77064 16.9087 9.13761 16.3954C8.18349 16.1754 7.30275 15.6621 6.7156 14.8554C7.22936 15.1487 7.74312 15.4421 8.25688 15.6621C8.91743 15.9554 9.57798 16.1021 10.2385 16.2487C10.8257 16.3221 11.4128 16.3954 12 16.3954C12.5872 16.3954 13.1743 16.3221 13.7615 16.2487C14.422 16.1021 15.0826 15.9554 15.7431 15.6621C16.2569 15.4421 16.7706 15.1487 17.2844 14.8554C16.6972 15.6621 15.8165 16.1754 14.8624 16.3954C15.2294 16.9087 15.7431 17.4954 15.7431 17.4954C17.3578 17.4954 18.8991 16.7621 20 15.5887C19.9266 12.8754 19.2661 10.2354 18.0183 7.88874ZM9.57798 14.2687C8.84404 14.2687 8.18349 13.6087 8.18349 12.8021C8.18349 11.9954 8.84404 11.3354 9.57798 11.3354C10.3119 11.3354 10.9725 11.9954 10.9725 12.8021C10.9725 13.6087 10.3119 14.2687 9.57798 14.2687ZM14.422 14.2687C13.6881 14.2687 13.0275 13.6087 13.0275 12.8021C13.0275 11.9954 13.6881 11.3354 14.422 11.3354C15.156 11.3354 15.8165 11.9954 15.8165 12.8021C15.8165 13.6087 15.156 14.2687 14.422 14.2687Z" fill="white"/>
</svg>
