<svg data-token-name="dislike" width="24" height="24" viewBox="0 0 24 24" fill="none" xmlns="http://www.w3.org/2000/svg">
<path d="M15.9971 13.571L12.3481 18.322C11.6691 19.207 10.3431 19.229 9.63407 18.368C9.36907 18.047 9.22507 17.643 9.22507 17.227L9.22507 13.956L6.12907 13.956C5.52807 13.956 4.96707 13.656 4.63307 13.157L4.30407 12.666C4.00907 12.225 3.92307 11.676 4.07007 11.167L5.42907 6.445C5.65107 5.674 6.35607 5.143 7.15807 5.143L13.4471 5.143C13.9471 5.143 14.4251 5.351 14.7651 5.717L15.9971 7.043M17.0531 5.143L18.9411 5.143C19.5241 5.143 19.9971 5.616 19.9971 6.199L19.9971 13.587C19.9971 14.17 19.5241 14.643 18.9411 14.643L17.0531 14.643C16.4701 14.643 15.9971 14.17 15.9971 13.587L15.9971 6.199C15.9971 5.616 16.4701 5.143 17.0531 5.143Z" stroke="currentColor" fill="none" stroke-linecap="round" stroke-linejoin="round"/>
</svg>
