<svg data-token-name="doc-export" width="24" height="24" viewBox="0 0 24 24" fill="none" xmlns="http://www.w3.org/2000/svg">
<path d="M21 17V19C21 20.1046 20.1046 21 19 21H17" stroke="currentColor" fill="none"  stroke-linecap="round" stroke-linejoin="round"/>
<path d="M3 7V5C3 3.89543 3.89543 3 5 3H7" stroke="currentColor" fill="none"  stroke-linecap="round" stroke-linejoin="round"/>
<path d="M10 9V5C10 3.89543 10.8954 3 12 3H19C20.1046 3 21 3.89543 21 5V12C21 13.1046 20.1046 14 19 14H17" stroke="currentColor" fill="none"  stroke-linecap="round" stroke-linejoin="round"/>
<path d="M13 7.00001H18" stroke="currentColor" fill="none"  stroke-linecap="round" stroke-linejoin="round"/>
<path d="M16 10H18" stroke="currentColor" fill="none"  stroke-linecap="round" stroke-linejoin="round"/>
<path d="M11.75 12H5.25C4.00736 12 3 13.0074 3 14.25V18.75C3 19.9926 4.00736 21 5.25 21H11.75C12.9926 21 14 19.9926 14 18.75V14.25C14 13.0074 12.9926 12 11.75 12Z" stroke="currentColor" fill="none"  stroke-linecap="round" stroke-linejoin="round"/>
<path d="M9 18.25C9.9665 18.25 10.75 17.4665 10.75 16.5C10.75 15.5335 9.9665 14.75 9 14.75C8.0335 14.75 7.25 15.5335 7.25 16.5C7.25 17.4665 8.0335 18.25 9 18.25Z" stroke="currentColor" fill="none"  stroke-linecap="round" stroke-linejoin="round"/>
<path d="M5.55 14.5001C5.54996 14.5277 5.52757 14.55 5.49997 14.55C5.47238 14.55 5.45001 14.5276 5.45 14.5C5.44999 14.4724 5.47234 14.45 5.49994 14.45C5.51322 14.45 5.52596 14.4553 5.53536 14.4646C5.54475 14.474 5.55002 14.4868 5.55 14.5001" stroke="currentColor" fill="none"  stroke-linecap="round" stroke-linejoin="round"/>
</svg>
