<svg data-token-name="dollar" width="24" height="24" viewBox="0 0 24 24" fill="none" xmlns="http://www.w3.org/2000/svg">
<path d="M12 6V7.5M12 18V16.5M9 14.255C9 15.498 10.007 16.505 11.25 16.505H12.893C14.056 16.505 15 15.562 15 14.398C15 13.432 14.343 12.59 13.406 12.355L10.594 11.65C9.657 11.415 9 10.573 9 9.607C9 8.443 9.943 7.5 11.107 7.5H12.75C13.993 7.5 15 8.507 15 9.75M18.3639 5.63604C21.8787 9.15076 21.8787 14.8492 18.3639 18.3639C14.8492 21.8787 9.15074 21.8787 5.63604 18.3639C2.12132 14.8492 2.12132 9.15074 5.63604 5.63604C9.15076 2.12132 14.8492 2.12132 18.3639 5.63604Z" stroke="black" stroke-width="1.5" stroke-linecap="round" stroke-linejoin="round"/>
</svg>
