<svg data-token-name="dollar" width="24" height="24" viewBox="0 0 24 24" fill="none" xmlns="http://www.w3.org/2000/svg">
<path d="M19.0711 4.92894C22.9763 8.83419 22.9763 15.1658 19.0711 19.0711C15.1658 22.9763 8.83416 22.9763 4.92894 19.0711C1.02369 15.1658 1.02369 8.83416 4.92894 4.92894C8.83419 1.02369 15.1658 1.02369 19.0711 4.92894Z" stroke="currentColor" fill="none" stroke-linecap="round" stroke-linejoin="round"/>
<path d="M12 6V7.5M12 18V16.5M9 14.255C9 15.498 10.007 16.505 11.25 16.505H12.893C14.056 16.505 15 15.562 15 14.398C15 13.432 14.343 12.59 13.406 12.355L10.594 11.65C9.657 11.415 9 10.573 9 9.607C9 8.443 9.943 7.5 11.107 7.5H12.75C13.993 7.5 15 8.507 15 9.75" stroke="currentColor" fill="none" stroke-linecap="round" stroke-linejoin="round"/>
</svg>
