<svg data-token-name="donate_blue" width="24" height="24" viewBox="0 0 24 24" fill="none" xmlns="http://www.w3.org/2000/svg">
<path d="M0 12C0 5.37258 5.37258 0 12 0C18.6274 0 24 5.37258 24 12C24 18.6274 18.6274 24 12 24C5.37258 24 0 18.6274 0 12Z" fill="#8756FF"/>
<path d="M8 18H6.66667C6.29867 18 6 17.7013 6 17.3333V13.3333C6 12.9653 6.29867 12.6667 6.66667 12.6667H8C8.368 12.6667 8.66667 12.9653 8.66667 13.3333V17.3333C8.66667 17.7013 8.368 18 8 18Z" stroke="white" stroke-width="1.5" stroke-linecap="round" stroke-linejoin="round"/>
<path d="M12.667 15.3334H14.2223C14.511 15.3334 14.7917 15.24 15.0223 15.0667L16.633 13.8587C17.035 13.5574 17.5977 13.5974 17.953 13.9527C18.3477 14.3474 18.3477 14.9867 17.953 15.3807L16.571 16.7627C16.199 17.1347 15.7243 17.3887 15.2083 17.492L13.255 17.8827C12.8677 17.96 12.4683 17.9507 12.085 17.8547L10.3183 17.4134C10.107 17.36 9.89033 17.3334 9.67233 17.3334H8.66699" stroke="white" stroke-width="1.5" stroke-linecap="round" stroke-linejoin="round"/>
<path d="M12.667 15.3333H13.657C14.215 15.3333 14.667 14.8813 14.667 14.3233V14.1213C14.667 13.658 14.3517 13.254 13.9023 13.142L12.3743 12.76C12.1257 12.698 11.871 12.6667 11.615 12.6667C10.997 12.6667 10.3923 12.8493 9.87833 13.1927L8.66699 14" stroke="white" stroke-width="1.5" stroke-linecap="round" stroke-linejoin="round"/>
<path d="M14.5 5.64162C14.7679 5.33937 15.2315 5 15.9373 5C17.1721 5 18 6.1175 18 7.15812C18 9.3335 15.1914 11 14.5 11C13.8086 11 11 9.3335 11 7.15812C11 6.1175 11.8279 5 13.0627 5C13.7685 5 14.2321 5.33937 14.5 5.64162Z" stroke="white" stroke-width="1.5" stroke-linecap="round" stroke-linejoin="round"/>
</svg>
