<svg xmlns="http://www.w3.org/2000/svg" data-token-name="donate_colored" width="41" height="40" fill="none"><rect width="40" height="40" x=".333" fill="#FF6681" rx="20"/><path stroke="#fff" stroke-linecap="round" stroke-linejoin="round" fill="none" stroke-width="1.5" d="M13.667 30h-2.223a1.112 1.112 0 0 1-1.11-1.111v-6.667c0-.613.497-1.11 1.11-1.11h2.223c.613 0 1.11.497 1.11 1.11v6.667c0 .613-.497 1.111-1.11 1.111ZM21.445 25.556h2.592c.481 0 .95-.156 1.334-.445l2.684-2.013a1.684 1.684 0 0 1 2.2 2.537l-2.303 2.303a4.45 4.45 0 0 1-2.272 1.215l-3.255.652a4.443 4.443 0 0 1-1.95-.047l-2.945-.736a4.395 4.395 0 0 0-1.076-.133h-1.676"/><path stroke="#fff" stroke-linecap="round" fill="none" stroke-linejoin="round" stroke-width="1.5" d="M21.445 25.555h1.65c.93 0 1.683-.753 1.683-1.683v-.337c0-.772-.525-1.445-1.274-1.632l-2.547-.636a5.23 5.23 0 0 0-4.16.72l-2.019 1.346M24.5 9.403a3.122 3.122 0 0 1 2.395-1.07c2.058 0 3.438 1.863 3.438 3.597 0 3.626-4.68 6.403-5.833 6.403-1.152 0-5.833-2.777-5.833-6.403 0-1.734 1.38-3.597 3.437-3.597 1.177 0 1.95.566 2.396 1.07Z"/></svg>