<svg width="41" height="40" data-token-name="e_wallet_colored" viewBox="0 0 41 40" fill="none" xmlns="http://www.w3.org/2000/svg">
<rect x="0.333313" width="40" height="40" rx="20" fill="#C55FE8"/>
<path d="M25.8889 21.7676V23.3332C25.8889 23.9226 25.6548 24.4878 25.238 24.9046C24.8213 25.3213 24.256 25.5554 23.6667 25.5554H17C16.4106 25.5554 15.8454 25.3213 15.4286 24.9046C15.0119 24.4878 14.7778 23.9226 14.7778 23.3332V16.6666C14.7778 16.0772 15.0119 15.512 15.4286 15.0952C15.8454 14.6785 16.4106 14.4443 17 14.4443H23.6667C24.256 14.4443 24.8213 14.6785 25.238 15.0952C25.6548 15.512 25.8889 16.0772 25.8889 16.6666V18.2322" stroke="white" stroke-width="1.5" fill="none" stroke-linecap="round" stroke-linejoin="round"/>
<path d="M24.8788 18.2324H26.2929C26.4804 18.2324 26.6603 18.3069 26.7929 18.4395C26.9255 18.5721 27 18.752 27 18.9395V21.0607C27 21.2482 26.9255 21.4281 26.7929 21.5607C26.6603 21.6933 26.4804 21.7678 26.2929 21.7678H24.8788C24.4099 21.7678 23.9603 21.5815 23.6288 21.25C23.2973 20.9185 23.1111 20.4689 23.1111 20.0001V20.0001C23.1111 19.768 23.1568 19.5381 23.2456 19.3236C23.3345 19.1092 23.4647 18.9143 23.6288 18.7502C23.793 18.586 23.9878 18.4558 24.2023 18.367C24.4168 18.2781 24.6466 18.2324 24.8788 18.2324V18.2324Z" stroke="white" fill="none" stroke-width="1.5" stroke-linecap="round" stroke-linejoin="round"/>
<path d="M24.7778 29.9999H27C27.884 29.9999 28.7319 29.6487 29.357 29.0236C29.9821 28.3985 30.3333 27.5506 30.3333 26.6666V24.4443" stroke="white" stroke-width="1.5" stroke-linecap="round" stroke-linejoin="round" fill="none"/>
<path d="M24.7778 10H27C27.884 10 28.7319 10.3512 29.357 10.9763C29.9821 11.6014 30.3333 12.4493 30.3333 13.3333V15.5556" stroke="white" stroke-width="1.5" stroke-linecap="round" stroke-linejoin="round" fill="none"/>
<path d="M10.3333 24.4443V26.6666C10.3333 27.5506 10.6845 28.3985 11.3096 29.0236C11.9347 29.6487 12.7826 29.9999 13.6666 29.9999H15.8889" stroke="white" stroke-width="1.5" stroke-linecap="round" stroke-linejoin="round" fill="none"/>
<path d="M10.3333 15.5556V13.3333C10.3333 12.4493 10.6845 11.6014 11.3096 10.9763C11.9347 10.3512 12.7826 10 13.6666 10H15.8889" stroke="white" stroke-width="1.5" stroke-linecap="round" stroke-linejoin="round" fill="none"/>
</svg>
