<svg xmlns="http://www.w3.org/2000/svg" data-token-name="e_wallet_colored" width="41" height="40" fill="none"><rect width="40" height="40" x=".333" fill="#C55FE8" rx="20"/><path stroke="#fff" stroke-linecap="round" stroke-linejoin="round" fill="none" stroke-width="1.5" d="M25.889 21.768v1.565a2.222 2.222 0 0 1-2.222 2.222H17a2.223 2.223 0 0 1-2.222-2.222v-6.666A2.223 2.223 0 0 1 17 14.444h6.667a2.222 2.222 0 0 1 2.222 2.223v1.565"/><path stroke="#fff" stroke-linecap="round" stroke-linejoin="round" fill="none" stroke-width="1.5" d="M24.879 18.232h1.414a.707.707 0 0 1 .707.707v2.122a.707.707 0 0 1-.707.707h-1.414A1.768 1.768 0 0 1 23.11 20v0a1.769 1.769 0 0 1 1.768-1.768v0ZM24.778 30H27a3.333 3.333 0 0 0 3.333-3.333v-2.223M24.778 10H27a3.333 3.333 0 0 1 3.333 3.333v2.223M10.333 24.444v2.223A3.333 3.333 0 0 0 13.667 30h2.222M10.333 15.556v-2.223A3.333 3.333 0 0 1 13.667 10h2.222"/></svg>