<svg data-token-name="e_wallet_colored" width="24" height="24" viewBox="0 0 24 24" fill="none" xmlns="http://www.w3.org/2000/svg">
<rect width="24" height="24" rx="12" fill="#C55FE8"/>
<path d="M15.3337 13.0606V14C15.3337 14.3536 15.1932 14.6927 14.9431 14.9428C14.6931 15.1928 14.3539 15.3333 14.0003 15.3333H10.0003C9.6467 15.3333 9.30756 15.1928 9.05752 14.9428C8.80747 14.6927 8.66699 14.3536 8.66699 14V9.99999C8.66699 9.64637 8.80747 9.30723 9.05752 9.05718C9.30756 8.80713 9.6467 8.66666 10.0003 8.66666H14.0003C14.3539 8.66666 14.6931 8.80713 14.9431 9.05718C15.1932 9.30723 15.3337 9.64637 15.3337 9.99999V10.9394" stroke="white" fill="none" stroke-linecap="round" stroke-linejoin="round"/>
<path d="M14.7276 10.9394H15.5761C15.6886 10.9394 15.7965 10.9841 15.8761 11.0636C15.9556 11.1432 16.0003 11.2511 16.0003 11.3636V12.6364C16.0003 12.7489 15.9556 12.8568 15.8761 12.9363C15.7965 13.0159 15.6886 13.0606 15.5761 13.0606H14.7276C14.4463 13.0606 14.1765 12.9489 13.9776 12.75C13.7787 12.5511 13.667 12.2813 13.667 12V12C13.667 11.8607 13.6944 11.7228 13.7477 11.5941C13.801 11.4654 13.8792 11.3485 13.9776 11.25C14.0761 11.1516 14.193 11.0734 14.3217 11.0201C14.4504 10.9668 14.5883 10.9394 14.7276 10.9394V10.9394Z" stroke="white" fill="none" stroke-linecap="round" stroke-linejoin="round"/>
<path d="M14.667 18H16.0003C16.5308 18 17.0395 17.7893 17.4145 17.4142C17.7896 17.0391 18.0003 16.5304 18.0003 16V14.6667" stroke="white" fill="none" stroke-linecap="round" stroke-linejoin="round"/>
<path d="M14.667 6H16.0003C16.5308 6 17.0395 6.21071 17.4145 6.58579C17.7896 6.96086 18.0003 7.46957 18.0003 8V9.33333" stroke="white" fill="none" stroke-linecap="round" stroke-linejoin="round"/>
<path d="M6 14.6667V16C6 16.5304 6.21071 17.0391 6.58579 17.4142C6.96086 17.7893 7.46957 18 8 18H9.33333" stroke="white" fill="none" stroke-linecap="round" stroke-linejoin="round"/>
<path d="M6 9.33333V8C6 7.46957 6.21071 6.96086 6.58579 6.58579C6.96086 6.21071 7.46957 6 8 6H9.33333" stroke="white" fill="none" stroke-linecap="round" stroke-linejoin="round"/>
</svg>
