<svg data-token-name="edit_solid" width="24" height="24" viewBox="0 0 24 24" xmlns="http://www.w3.org/2000/svg">
<path d="M14.4072 5.51307L14.4101 5.51592L18.0701 9.17592L18.0722 9.17807L20.2919 6.95825C20.6829 6.56825 20.6829 5.93525 20.2919 5.54425L18.0409 3.29325C17.6509 2.90225 17.0179 2.90225 16.6269 3.29325L14.4072 5.51307Z" />
<path d="M3.7 20.5863H6.251C6.516 20.5863 6.771 20.4813 6.958 20.2933L17.0117 10.2388L17.0096 10.2366L13.3496 6.57659L13.3467 6.57376L3.293 16.6283C3.105 16.8153 3 17.0703 3 17.3353V19.8863C3 20.2729 3.3134 20.5863 3.7 20.5863Z"/>
</svg>
