<?xml version="1.0" encoding="utf-8"?>
<!-- Generator: Adobe Illustrator 23.1.0, SVG Export Plug-In . SVG Version: 6.00 Build 0)  -->
<svg version="1.1" id="Layer_1" xmlns="http://www.w3.org/2000/svg" xmlns:xlink="http://www.w3.org/1999/xlink" x="0px" y="0px"
	 viewBox="0 0 24 24" style="enable-background:new 0 0 24 24;" xml:space="preserve">
<style type="text/css">
	.st0{fill:none;}
</style>
<path class="st0" d="M0,0h24v24H0V0z"/>
<g>
	<g>
		<path d="M12,14.7l-2.3-2l-6.7,5.6c0.3,0.3,0.5,0.4,0.9,0.4h16c0.4,0,0.7-0.1,0.9-0.4l-6.7-5.6L12,14.7z"/>
		<path d="M20.9,5.7c-0.3-0.3-0.5-0.4-0.9-0.4H4c-0.4,0-0.7,0.1-0.9,0.4l8.9,7.6L20.9,5.7z"/>
		<polygon points="2.7,6.5 2.7,17.6 9.1,12.1 		"/>
		<polygon points="14.9,12.1 21.3,17.6 21.3,6.5 		"/>
	</g>
</g>
</svg>
