<svg data-token-name="email_colored" width="24" height="24" viewBox="0 0 24 24" fill="none" xmlns="http://www.w3.org/2000/svg">
<path d="M0 12C0 5.37258 5.37258 0 12 0C18.6274 0 24 5.37258 24 12C24 18.6274 18.6274 24 12 24C5.37258 24 0 18.6274 0 12Z" fill="#8B55F6"/>
<path d="M5.00354 8.88006C5.00119 8.91974 5 8.95973 5 9V15C5 16.1046 5.89543 17 7 17H17C18.1046 17 19 16.1046 19 15V9C19 8.95933 18.9988 8.91893 18.9964 8.87886L13.3006 12.3253C12.5072 12.8926 11.4525 12.8913 10.6604 12.3228L5.00354 8.88006Z" fill="white"/>
<path d="M5.65447 7.52027L11.4669 11.0577C11.4866 11.0697 11.5057 11.0825 11.5242 11.0963C11.7997 11.3009 12.1634 11.3013 12.4391 11.0972C12.4578 11.0833 12.4772 11.0704 12.4971 11.0583L18.345 7.51979C17.9898 7.19684 17.5179 7 17 7H7C6.48186 7 6.00974 7.19704 5.65447 7.52027Z" fill="white"/>
</svg>
