<svg  data-token-name="email_circle" width="24" height="24" viewBox="0 0 64 64" xmlns="http://www.w3.org/2000/svg">
<path d="M0 32C0 14.3269 14.3269 0 32 0V0C49.6731 0 64 14.3269 64 32V32C64 49.6731 49.6731 64 32 64V64C14.3269 64 0 49.6731 0 32V32Z"/>
<path d="M13.3422 23.6801C13.3359 23.7859 13.3328 23.8926 13.3328 24V40C13.3328 42.9455 15.7206 45.3333 18.6661 45.3333H45.3328C48.2783 45.3333 50.6661 42.9455 50.6661 40V24C50.6661 23.8915 50.6629 23.7838 50.6565 23.6769L35.4676 32.8675C33.3519 34.3803 30.5393 34.3768 28.4272 32.8608L13.3422 23.6801Z" fill="white"/>
<path d="M15.078 20.054L30.5779 29.4871C30.6303 29.5191 30.6813 29.5534 30.7306 29.59C31.4654 30.1358 32.4351 30.1366 33.1704 29.5924C33.2203 29.5555 33.2718 29.5209 33.3249 29.4888L48.9194 20.0527C47.9722 19.1915 46.7138 18.6666 45.3328 18.6666H18.6661C17.2844 18.6666 16.0254 19.1921 15.078 20.054Z" fill="white"/>
</svg>
