<svg data-token-name="epayments_colored" width="24" height="24" viewBox="0 0 24 24" fill="none" xmlns="http://www.w3.org/2000/svg">
<rect width="24" height="24" fill="#EDF0F3"/>
<path d="M13.3342 18.2815C14.906 18.3995 16.4184 18.0901 17.3793 17.4532C17.4583 17.3961 17.5341 17.3314 17.6068 17.2624C17.6662 17.1997 17.7249 17.1369 17.7799 17.0704C18.025 16.7748 18.2031 16.468 18.3074 16.1755C18.3426 16.074 18.3701 15.9699 18.3895 15.8643L18.3952 15.8266C18.404 15.7676 18.4091 15.7105 18.4116 15.6541C18.4129 15.6164 18.4142 15.5788 18.4123 15.5424C18.4094 15.4696 18.3994 15.3973 18.3826 15.3265C18.1716 15.5424 17.9454 15.7438 17.7091 15.9308C15.6856 17.5605 13.47 17.6816 12.2564 17.5906C11.8489 17.5627 11.4447 17.499 11.0485 17.4005C10.1135 17.1313 9.30291 16.7271 8.62945 16.2094C9.03363 16.6221 9.49024 16.9807 9.98774 17.2762C10.931 17.8397 12.0883 18.1874 13.3342 18.2815ZM6.93191 7.26648C5.88698 8.21531 5.22174 9.40448 5.05306 10.5861C5.04093 10.6737 5.03124 10.7616 5.024 10.8497V10.856L5.02337 10.8603C5.01389 10.9859 5.00694 11.1164 5.00441 11.2494C4.93785 13.1799 5.6266 15.061 6.92617 16.498C8.22574 17.935 10.0351 18.8162 11.9746 18.9568L12.0277 18.9593L12.0795 18.9618L12.1193 18.9655C12.1433 18.9687 12.1679 18.9718 12.1945 18.9731C13.6507 19.0829 15.0014 18.8538 16.0905 18.3411C15.2566 18.5702 14.2932 18.6599 13.3108 18.5859C12.017 18.4886 10.8128 18.1259 9.82853 17.5379C7.90293 16.3864 7.23705 14.8351 6.95213 14.1731L6.92244 14.1041C6.4701 13.1414 6.27362 12.0269 6.36775 10.802L6.37912 10.6501H6.38986C6.60656 8.48514 7.97242 6.6402 9.83169 5.70142C8.7577 6.02773 7.74752 6.55988 6.93191 7.26648ZM13.6785 9.69816C13.645 10.1299 13.3841 11.1201 11.6777 10.9915C11.6191 10.9872 11.5605 10.9817 11.5021 10.9752C11.6695 11.3862 12.1528 12.1085 13.4921 12.2095C15.129 12.3325 16.3199 11.2243 16.4045 10.113C16.4166 9.95844 16.407 9.80301 16.3761 9.6511C16.366 9.62537 16.354 9.60152 16.3432 9.57705C16.3287 9.54567 16.3154 9.51241 16.3003 9.48292C16.2877 9.45782 16.2731 9.4346 16.2592 9.41012C16.2434 9.38314 16.2289 9.3549 16.2125 9.32855C16.1973 9.30533 16.1809 9.28462 16.1657 9.26203C16.1487 9.23818 16.1329 9.21308 16.1152 9.19049C16.0981 9.16915 16.0804 9.1497 16.0627 9.12899C16.0451 9.10828 16.028 9.08695 16.0097 9.06749C15.9907 9.04804 15.9718 9.03047 15.9528 9.01227C15.9345 8.99407 15.9162 8.97525 15.8972 8.9583C15.8783 8.94073 15.8574 8.92567 15.8372 8.90936C15.8183 8.89367 15.7993 8.87735 15.7797 8.86292C15.7589 8.84723 15.7374 8.83405 15.7165 8.81962C15.6976 8.80644 15.6774 8.79201 15.6578 8.77946L15.5915 8.7418C15.5725 8.73051 15.5529 8.71859 15.5327 8.70792C15.5112 8.69662 15.4891 8.68658 15.4676 8.67654C15.4468 8.6665 15.4272 8.65583 15.407 8.64705L15.3419 8.62132C15.3217 8.61316 15.3008 8.60375 15.2806 8.59622L15.2124 8.57363L15.1555 8.5548C15.1344 8.54844 15.1131 8.54258 15.0917 8.53723L15.033 8.52091L14.9786 8.50899L14.9142 8.49456L14.8599 8.48514L14.8011 8.4751C14.7689 8.47008 14.7379 8.46632 14.7076 8.46255L14.6944 8.4613C14.5673 8.44649 14.4393 8.44124 14.3115 8.44561L14.2433 8.44749C14.1485 8.45126 14.0537 8.45816 13.959 8.46946L13.9318 8.47385C13.843 8.48589 13.7548 8.50117 13.6671 8.51966L13.6008 8.53409C13.5072 8.55519 13.4145 8.57989 13.3228 8.60814L13.2811 8.62257C13.199 8.64893 13.1187 8.67905 13.0398 8.71043L12.9816 8.73427L12.9437 8.75247C13.3816 8.86919 13.7107 9.27395 13.6785 9.69816ZM13.2369 13.8436C13.1422 13.8332 13.0476 13.8215 12.9532 13.8085V13.8116C10.3504 13.4633 9.2549 12.2848 8.79434 11.358C8.66375 11.0939 8.56779 10.8142 8.50879 10.5259L8.49552 10.4631C8.49173 10.4455 8.4892 10.428 8.48668 10.411C8.4601 10.2602 8.44406 10.1078 8.43866 9.95482C8.30945 10.3154 8.22935 10.6915 8.20049 11.0731C8.02296 13.3981 9.77799 15.4325 12.1142 15.6082L12.1439 15.6089C12.1587 15.6087 12.1734 15.6091 12.1882 15.6101H12.1945L12.2128 15.6133C12.343 15.6257 12.4737 15.6311 12.6045 15.6296C14.3096 15.4131 15.4506 14.6494 16.2144 13.7533C16.4345 13.4913 16.6331 13.2122 16.8082 12.9186C16.9163 12.7354 17.011 12.5522 17.0957 12.3727C16.6255 12.9162 16.0267 13.3351 15.3532 13.5919C14.6796 13.8486 13.9524 13.9351 13.2369 13.8436ZM11.1281 10.7775C11.1805 10.0948 11.4837 9.42958 11.9197 9.04051C11.9194 9.04069 11.9192 9.0409 11.919 9.04114C11.919 9.04114 11.979 8.9878 11.9948 8.97525C12.638 8.4318 13.5635 8.11741 14.4435 8.13812C14.5623 8.14084 14.6808 8.14985 14.7986 8.1651C14.8182 8.16761 14.8371 8.17138 14.8567 8.17452C14.8953 8.18079 14.9344 8.18581 14.9723 8.19334L15.0399 8.20778C15.0734 8.21531 15.1069 8.22221 15.1397 8.23037L15.2092 8.24982L15.3002 8.2768C15.3236 8.28433 15.3463 8.29312 15.3697 8.30128C15.3975 8.31132 15.4266 8.32136 15.4537 8.33265C15.4771 8.34144 15.4986 8.35148 15.5213 8.36089C15.5479 8.37282 15.575 8.38411 15.6009 8.39666C15.623 8.4067 15.6439 8.418 15.6654 8.42929L15.7412 8.46946L15.8025 8.50711L15.853 8.5366C15.3255 7.87644 14.3987 7.31292 12.9678 7.20624C11.2734 7.07822 9.79884 7.73964 8.92006 9.01917C8.84299 9.15409 8.78234 9.36055 8.7577 9.61282L8.75517 9.63164L8.75201 9.68498C8.73933 9.89146 8.74907 10.0987 8.78108 10.3031C8.82656 10.5999 8.92006 10.9181 9.08053 11.235C9.44063 11.9472 10.2126 12.8044 11.8495 13.2688C11.4022 12.8446 11.027 12.096 11.1281 10.7775ZM12.8856 5.04376C12.7188 5.03121 12.5521 5.02494 12.3865 5.02117H12.341C12.2273 5.01929 12.1136 5.01866 12.0012 5.02117L11.8868 5.02494C11.7996 5.02808 11.7131 5.03121 11.6265 5.03749C11.5633 5.04125 11.5002 5.0469 11.4364 5.05192C11.377 5.05694 11.3176 5.06134 11.2595 5.06761C11.171 5.07702 11.0838 5.08832 10.9967 5.10024C10.9632 5.10464 10.9291 5.1084 10.8956 5.11342C10.7857 5.12974 10.6776 5.14856 10.5702 5.16864L10.5342 5.17492C8.43045 5.57842 6.76071 6.72743 5.75621 8.13247C7.05321 5.47362 9.87718 3.7818 13.089 4.02277L13.1143 4.02654L13.156 4.03156L13.3114 4.04223C14.5762 4.16836 15.8448 4.68356 16.8126 5.46735L16.8468 5.49559C18.344 6.72555 19.1236 8.4751 18.984 10.2962C18.7989 12.7166 17.1102 14.6368 14.7765 15.3447C15.3577 15.0216 15.8788 14.602 16.3173 14.1041C16.6017 13.791 16.8527 13.4497 17.0666 13.0856C17.8645 11.7715 17.9808 10.6482 17.9902 10.5353C18.0332 10.2855 18.0471 10.123 18.0496 10.0885C18.2284 7.75972 16.3755 5.63427 13.736 5.1448C13.614 5.12534 13.3828 5.09459 13.2299 5.07389V5.0651L13.0764 5.05381C13.0423 5.0513 13.0082 5.05004 12.9747 5.04878C12.9452 5.04793 12.9157 5.04647 12.8863 5.04439" fill="#E5353E"/>
</svg>
