<svg data-token-name="epidemic-sound" width="24" height="24" version="1.1" id="Layer_1" xmlns="http://www.w3.org/2000/svg" xmlns:xlink="http://www.w3.org/1999/xlink" x="0px" y="0px"
	 viewBox="0 0 24 24" style="enable-background:new 0 0 24 24;" xml:space="preserve">
<path fill="none" d="M0,0h24v24H0V0z"/>
<g>
	<path d="M1.4,14.5c0-0.2,0.1-0.4,0.1-0.6C1.8,13.1,2.3,12.4,3,12c0.3-0.2,0.6-0.3,0.9-0.5c0,0-0.1,0-0.1-0.1
		c-0.6-0.4-0.9-0.9-1-1.6C2.8,9.2,3,8.6,3.4,8.1c0.4-0.6,1-0.9,1.7-1c0.6-0.1,1.2,0,1.8,0.4c0.5,0.4,0.7,1,0.6,1.5
		C7.4,9.3,7.1,9.6,6.8,9.7c0-0.2,0-0.3,0-0.5c0-0.8-0.5-1.3-1.3-1.3c-0.9,0-1.5,0.5-1.6,1.4c-0.2,0.9,0.5,1.8,1.4,1.9
		c0.1,0,0.2,0,0.3,0c0.1,0.2,0,0.4-0.1,0.5c-0.1,0.1-0.3,0.2-0.4,0.3c-0.5,0.3-1,0.5-1.4,0.8c-0.4,0.2-0.7,0.5-0.9,0.9
		c-0.2,0.5-0.3,1.1,0,1.6c0.2,0.6,0.8,0.9,1.4,0.8c0.7-0.1,1.2-0.5,1.7-1c0.1-0.1,0.1-0.2,0.3-0.3c0,0.1,0,0.2,0,0.3
		c0,1-0.7,1.8-1.7,2.1c-0.1,0-0.2,0-0.4,0.1c-0.2,0-0.3,0-0.5,0c-0.1,0-0.1,0-0.2,0c-1-0.2-1.6-0.8-1.8-1.8c0-0.1,0-0.2-0.1-0.3
		C1.4,14.9,1.4,14.7,1.4,14.5z"/>
	<path d="M16.9,10.3c0.1-0.1,0.1-0.2,0.2-0.3c0.2-0.2,0.4-0.4,0.7-0.4c0.3,0,0.4,0.1,0.5,0.4c0.1,0.3,0,0.6-0.1,0.9
		c-0.1,0.2-0.1,0.4-0.2,0.6c0,0.1,0,0.1,0,0.2c0,0.2,0.1,0.2,0.2,0.2c0.2-0.1,0.4-0.2,0.5-0.5c0.1-0.5,0.3-1.1,0.4-1.6
		c0-0.1,0.1-0.1,0.2-0.1c0.2,0,0.3,0,0.5-0.1c0,0.1,0,0.1,0,0.2c-0.2,0.6-0.3,1.2-0.5,1.9c0,0.1,0,0.1,0.1,0.2
		c0.2,0,0.5-0.2,0.6-0.4c0,0,0-0.1,0-0.1c-0.1-0.7,0.2-1.3,0.7-1.7C21,9.1,21.3,9,21.6,9C22,9.1,22.1,9.5,22,9.8
		c0,0.1-0.1,0.2-0.3,0.1c-0.1,0-0.1-0.1-0.1-0.1c-0.1-0.1-0.2-0.2-0.3-0.2c-0.1,0-0.1,0-0.2,0.1c-0.3,0.2-0.5,0.7-0.4,1.1
		c0.1,0.4,0.5,0.6,0.8,0.4c0.2-0.1,0.4-0.2,0.5-0.4c0-0.1,0.1-0.1,0.1-0.2c0.2,0.3,0,0.8-0.4,1.1c-0.4,0.3-1.1,0.4-1.5-0.2
		c-0.1,0.1-0.2,0.3-0.3,0.4c-0.2,0.2-0.5,0.3-0.9,0.3c-0.2,0-0.3-0.1-0.5-0.3c0,0,0,0.1-0.1,0.1c-0.2,0.2-0.4,0.3-0.7,0.4
		c-0.4,0.1-0.6-0.2-0.6-0.5c0.1-0.3,0.2-0.6,0.2-0.9c0-0.1,0-0.2,0.1-0.4c0-0.2-0.1-0.3-0.3-0.2c-0.1,0.1-0.2,0.2-0.3,0.3
		c-0.1,0.3-0.2,0.7-0.3,1c-0.1,0.2-0.1,0.5-0.2,0.7c0,0,0,0.1-0.1,0.1c-0.2,0-0.4,0-0.6,0.1c0,0,0-0.1,0-0.1c0.1-0.5,0.2-1,0.4-1.5
		c0-0.1,0-0.1,0-0.2c0-0.2-0.1-0.3-0.3-0.2c-0.1,0-0.1,0.1-0.2,0.2c-0.2,0.2-0.3,0.5-0.3,0.8c-0.1,0.3-0.2,0.7-0.3,1
		c0,0.1,0,0.1-0.1,0.1c-0.2,0-0.3,0-0.5,0.1c0-0.1,0.1-0.3,0.1-0.4c-0.1,0.1-0.2,0.1-0.3,0.2C14,12.8,13.6,13,13.1,13
		c-0.4,0-0.7-0.1-0.9-0.4c0,0.1-0.1,0.1-0.1,0.1c-0.2,0.2-0.4,0.5-0.7,0.5c-0.3,0.1-0.5,0-0.6-0.3c0,0-0.1,0.1-0.1,0.1
		c-0.2,0.2-0.4,0.3-0.6,0.3c-0.3,0-0.5-0.1-0.6-0.4c0,0,0,0.1-0.1,0.1c-0.2,0.3-0.6,0.5-1,0.4c-0.1,0-0.3-0.1-0.3-0.2c0,0,0,0,0,0
		c-0.2,0.2-0.5,0.3-0.7,0.3c-0.3,0-0.7,0.1-1,0.2c0,0-0.1,0-0.1,0c0-0.1,0-0.3,0.1-0.4c0.1-0.2,0.2-0.3,0.3-0.4
		c0.2-0.3,0.4-0.5,0.5-0.8c0-0.1,0-0.2,0-0.3c0-0.2-0.2-0.2-0.4-0.1c-0.2,0.1-0.3,0.3-0.3,0.4c-0.2,0.5-0.4,1.1-0.6,1.6
		c-0.1,0.3-0.2,0.6-0.3,1c-0.1,0.3-0.3,0.4-0.6,0.5c-0.1,0-0.1,0-0.2,0c0-0.1,0-0.1,0-0.2c0.4-1.3,0.9-2.6,1.3-3.9
		C6,11.1,6,11,6.1,11c0.2,0,0.4,0,0.6-0.1c0,0.1,0,0.1-0.1,0.2c0,0,0.1,0,0.1-0.1C6.9,11,7,10.9,7.1,10.9c0.4-0.2,0.8,0.1,0.8,0.5
		c0,0.6-0.2,1-0.5,1.4c-0.1,0.1-0.2,0.2-0.3,0.3c0.4,0.1,0.9-0.1,1-0.5c0.1-0.3,0.2-0.6,0.3-1c0.1-0.3,0.2-0.6,0.2-0.9
		c0-0.1,0-0.1,0.1-0.1c0.2,0,0.4,0,0.5-0.1c-0.1,0.5-0.3,1-0.4,1.5c0,0.2-0.1,0.4-0.1,0.5c0,0.1,0,0.1,0.1,0.1c0.1,0,0.1,0,0.2,0
		c0.2-0.1,0.4-0.2,0.5-0.5c0.1-0.5,0.2-1,0.5-1.4c0.2-0.3,0.4-0.5,0.8-0.6c0.2,0,0.4,0,0.6,0.1c0.1-0.3,0.1-0.6,0.2-1
		c-0.2,0-0.3,0-0.5,0c-0.3,0-0.6-0.1-0.9-0.2C9.9,9,9.7,8.7,9.7,8.2c0.1-0.5,0.4-0.9,0.9-0.9c0.4-0.1,0.9,0,1.2,0.3
		c0.3,0.3,0.4,0.6,0.4,1c0,0.1,0,0.2,0,0.3c2.4-0.3,4.6-1,6.7-2.1c0,0.4-0.1,0.8-0.4,1.1c-0.3,0.3-0.7,0.4-1.1,0.6
		C16.7,8.8,16,9,15.3,9.1c-1,0.2-2,0.3-3,0.3c-0.1,0-0.1,0-0.1,0.1c-0.2,0.9-0.5,1.9-0.7,2.8c0,0.1,0,0.2,0.1,0.2c0.1,0,0.1,0,0.2,0
		c0.2-0.1,0.4-0.3,0.4-0.6c0.1-0.5,0.2-1,0.6-1.4c0.3-0.3,0.6-0.5,1.1-0.5c0.4,0,0.7,0.3,0.7,0.7c0,0.6-0.2,0.9-0.8,1.1
		c-0.2,0.1-0.5,0.1-0.7,0.2c-0.1,0-0.1,0-0.1,0.1c0,0.2,0.2,0.4,0.4,0.4c0.6,0,1.4-0.4,1.5-1c0.1-0.4,0.2-0.9,0.4-1.4
		c0-0.1,0.1-0.2,0.2-0.2c0.2,0,0.3,0,0.5-0.1c0,0.1,0,0.2-0.1,0.3c0.1-0.1,0.2-0.2,0.3-0.3c0.1-0.1,0.2-0.1,0.3-0.2
		c0.2-0.1,0.5,0.1,0.5,0.3C16.8,10.1,16.8,10.2,16.9,10.3z M11.7,8.9c0-0.1,0-0.2,0-0.3c-0.1-0.4-0.4-0.7-0.7-0.7
		c-0.4,0-0.6,0.2-0.6,0.5c0,0.2,0.2,0.3,0.3,0.4C10.9,8.9,11.3,8.9,11.7,8.9z M11.2,11.1c-0.2-0.1-0.4,0-0.6,0.1
		c-0.2,0.2-0.4,0.4-0.5,0.7c0,0.2-0.1,0.3,0,0.5c0.1,0.2,0.3,0.3,0.4,0.2c0.1-0.1,0.2-0.2,0.3-0.3c0.1-0.2,0.2-0.5,0.2-0.7
		C11.1,11.4,11.1,11.3,11.2,11.1z M12.9,11.6c0.3-0.1,0.5-0.1,0.7-0.3c0.1-0.1,0.2-0.2,0.2-0.3c0-0.1-0.1-0.2-0.2-0.2
		c-0.1,0-0.1,0-0.2,0C13.1,10.9,13,11.2,12.9,11.6z"/>
	<path d="M6.1,16.9c0-0.3,0.1-0.6,0.2-0.8c0.3-0.7,0.8-1.2,1.6-1.5c0.7-0.3,1.4-0.4,2.1-0.5c0.7-0.1,1.4-0.2,2.1-0.3
		c0.6-0.1,1.2-0.1,1.8-0.2c0.8,0,1.6-0.1,2.4-0.1c0,0,0,0,0.1,0c0-0.2,0-0.4,0.2-0.6c0.2-0.2,0.5-0.2,0.8-0.1
		c0.2,0.1,0.3,0.3,0.2,0.5c0,0.2-0.1,0.3-0.3,0.4c0,0-0.1,0-0.1,0c0.1,0.2,0.2,0.4,0.1,0.6c-0.1,0.5-0.6,0.8-1.1,0.5
		c-0.2-0.1-0.3-0.4-0.1-0.6c0.1,0.1,0.1,0.2,0.3,0.3c0.1,0,0.3,0,0.4-0.1c0.1-0.1,0.2-0.3,0-0.4c-0.1-0.1-0.2-0.2-0.4-0.2
		c-1.3,0.2-2.6,0.4-3.9,0.6c-1.7,0.4-3.3,0.8-4.8,1.5c-0.5,0.2-0.9,0.4-1.3,0.7C6.3,16.8,6.2,16.8,6.1,16.9z M17.1,13.1
		c-0.1,0-0.3,0.1-0.3,0.2c0,0.1,0.1,0.3,0.2,0.3c0.1,0,0.3-0.2,0.3-0.3C17.3,13.2,17.2,13.1,17.1,13.1z"/>
	<path d="M20.6,12.9c0.1,0,0.2-0.1,0.3-0.1c0.1,0,0.2,0,0.2,0.2c0,0.2-0.1,0.3-0.1,0.4c0,0.1,0,0.1,0,0.2c0,0.1,0,0.1,0.1,0.1
		c0.1,0,0.2-0.1,0.2-0.2c0-0.3,0.2-0.5,0.4-0.7c0.1-0.1,0.3-0.2,0.4-0.2c0.1,0,0.1,0,0.1-0.1c0-0.2,0.1-0.3,0.1-0.5
		c0.1-0.2,0.1-0.2,0.4-0.2c-0.1,0.2-0.1,0.5-0.2,0.7c-0.1,0.4-0.2,0.8-0.3,1.2c0,0.1,0,0.1-0.1,0.1c-0.1,0-0.1,0-0.2,0
		c-0.3,0.2-0.4,0.2-0.6-0.1c0,0-0.1,0.1-0.1,0.1c-0.1,0-0.2,0.1-0.3,0.1c-0.1,0-0.2-0.1-0.2-0.2c0-0.2,0-0.3,0.1-0.5
		c0-0.1,0-0.2,0-0.2c0,0-0.1,0.1-0.2,0.1c-0.1,0.1-0.1,0.3-0.2,0.5c0,0,0,0.1,0,0.1c-0.1,0.3-0.1,0.3-0.4,0.3c0,0,0-0.1,0-0.1
		c-0.1,0-0.2,0.1-0.2,0.1c-0.1,0-0.2,0-0.2-0.1c0,0-0.1,0.1-0.1,0.1c-0.1,0-0.1,0.1-0.2,0.1c-0.3,0.1-0.4-0.1-0.4-0.3
		c0,0,0-0.1,0-0.1c-0.1,0.1-0.2,0.1-0.2,0.2c-0.1,0.1-0.1,0.2-0.2,0.2c-0.1,0.1-0.3,0.2-0.5,0.2c-0.2,0-0.3-0.1-0.3-0.3
		c-0.1-0.4,0.3-0.9,0.6-1c0.3-0.1,0.5,0.1,0.5,0.4c0,0.1,0,0.1,0,0.2c0.1,0,0.2-0.1,0.2-0.2c0-0.1,0.1-0.2,0.1-0.3
		c0-0.1,0-0.1,0.1-0.1c0.1,0,0.2,0,0.2,0c-0.1,0.2-0.1,0.4-0.1,0.6c0,0.1,0,0.2,0,0.2c0,0,0,0.1,0,0.1c0,0,0.1,0,0.1,0
		c0-0.1,0.1-0.1,0.1-0.2c0.1-0.2,0.1-0.4,0.2-0.6c0-0.1,0-0.1,0.1-0.1c0.1,0,0.1,0,0.2,0c0,0.1-0.1,0.2-0.1,0.3
		c0,0.2-0.1,0.4-0.1,0.5c0,0,0,0.1,0,0.1c0,0,0.1,0,0.1,0c0.1-0.1,0.2-0.2,0.2-0.3c0-0.2,0.1-0.4,0.1-0.6c0-0.1,0.1-0.1,0.1-0.1
		C20.4,12.9,20.4,12.9,20.6,12.9C20.5,12.9,20.5,12.9,20.6,12.9z M18.1,13.5C18.1,13.5,18.1,13.5,18.1,13.5c-0.2,0-0.4,0.3-0.3,0.5
		c0,0.1,0.1,0.2,0.2,0.1c0.2-0.1,0.2-0.2,0.3-0.4C18.3,13.6,18.2,13.5,18.1,13.5z M22,13c-0.1,0-0.1,0-0.2,0
		c-0.2,0.1-0.3,0.3-0.3,0.5c0,0,0,0.1,0.1,0.1c0.1,0,0.2-0.1,0.2-0.2C21.9,13.3,21.9,13.2,22,13z"/>
	<path d="M20.2,8.4c0,0.3-0.3,0.7-0.7,0.7c-0.2,0-0.3-0.1-0.3-0.3c0-0.3,0.3-0.8,0.6-0.8C20.1,8.1,20.2,8.2,20.2,8.4z"/>
	<path d="M9.7,9.7c0,0.3-0.3,0.7-0.6,0.7c-0.2,0-0.3-0.1-0.3-0.3c0-0.3,0.3-0.7,0.6-0.7C9.5,9.3,9.7,9.5,9.7,9.7z"/>
</g>
</svg>
