<svg data-token-name="epidemic_sound_circle" width="24" height="24" viewBox="0 0 24 24" fill="none" xmlns="http://www.w3.org/2000/svg">
<path d="M0 12C0 5.37258 5.37258 0 12 0C18.6274 0 24 5.37258 24 12C24 18.6274 18.6274 24 12 24C5.37258 24 0 18.6274 0 12Z" fill="#213139"/>
<path fill-rule="evenodd" clip-rule="evenodd" d="M7.71302 6.5761C4.10105 10.0061 4.09644 15.5656 7.69457 19H13.3086L10.5177 16.3511C8.4511 14.3874 8.4511 11.2062 10.5177 9.24242C12.5843 7.27868 15.9334 7.27868 18 9.24242V4.74765C14.6048 3.32503 10.4947 3.9316 7.71302 6.5761ZM17.9993 9.24238V15.3867H11.5319L17.9993 9.24238Z" fill="white"/>
</svg>
