<svg data-token-name="ethereum_colored" width="24" height="24" viewBox="0 0 24 24" fill="none" xmlns="http://www.w3.org/2000/svg">
<path d="M0 12C0 5.37258 5.37258 0 12 0C18.6274 0 24 5.37258 24 12C24 18.6274 18.6274 24 12 24C5.37258 24 0 18.6274 0 12Z" fill="#E1EDFF"/>
<path d="M11.9983 10.4625V5L7.5 12.523L11.9983 10.4625Z" fill="#8A92B2"/>
<path d="M11.9983 15.2034V10.4625L7.5 12.523L11.9983 15.2034ZM11.9983 10.4625L16.4974 12.523L11.9983 5V10.4625Z" fill="#62688F"/>
<path d="M11.998 10.4625V15.2034L16.4972 12.523L11.998 10.4625Z" fill="#454A75"/>
<path d="M11.9983 16.0619L7.5 13.3831L11.9983 19.7721V16.0619Z" fill="#8A92B2"/>
<path d="M16.4997 13.3831L11.998 16.0619V19.7721L16.4997 13.3831Z" fill="#62688F"/>
</svg>
