<svg data-token-name="euro_usd_exchange" viewBox="0 0 32 32" fill="none" xmlns="http://www.w3.org/2000/svg">
<path d="M19.4463 25.5965H21.4716C24.2665 25.5965 26.533 23.33 26.533 20.5352" stroke="currentColor" fill="none" stroke-linecap="round" stroke-linejoin="round"/>
<path d="M20.9643 27.1162L19.4463 25.5981L20.9643 24.0801" stroke="currentColor" fill="none" stroke-linecap="round" stroke-linejoin="round"/>
<path d="M12.3581 6.02539H10.3329C7.53797 6.02539 5.27148 8.29188 5.27148 11.0868" stroke="currentColor" fill="none" stroke-linecap="round" stroke-linejoin="round"/>
<path d="M10.8418 4.50586L12.3598 6.02514L10.8418 7.54318" stroke="currentColor" fill="none" stroke-linecap="round" stroke-linejoin="round"/>
<path d="M22.4172 7.25505V6.36735M22.4172 12.58V13.4677M20.8767 11.9459C21.1067 12.3226 21.4996 12.5824 21.9733 12.5824H22.9455C23.6343 12.5824 24.1913 12.0242 24.1913 11.3367C24.1913 10.7647 23.8021 10.2662 23.2476 10.1269L21.5841 9.70921C21.0309 9.56996 20.6405 9.07141 20.6405 8.4995C20.6405 7.81073 21.1987 7.25374 21.8862 7.25374H22.8585C23.3322 7.25374 23.7238 7.51234 23.9538 7.88781M22.4148 15.8347C25.6697 15.8347 28.3328 13.1716 28.3328 9.91799C28.3328 6.66434 25.6697 4 22.4148 4C19.1599 4 16.498 6.66309 16.498 9.91799C16.498 11.2458 16.9469 12.4704 17.6916 13.4601C18.7745 14.8973 20.489 15.8347 22.4148 15.8347Z" stroke="currentColor" fill="none" stroke-linecap="round" stroke-linejoin="round"/>
<path d="M6.13358 21.7045H9.67691M10.836 24.3974C9.75937 24.8636 8.4701 24.6721 7.58986 23.7919C6.4361 22.6381 6.4361 20.7695 7.58986 19.6157C8.4701 18.7355 9.76062 18.544 10.836 19.0103M13.5488 25.8809C11.2425 28.1871 7.50278 28.1871 5.1965 25.8809C2.89023 23.5746 2.89023 19.8348 5.1965 17.5285C7.50278 15.2223 11.2425 15.2223 13.5488 17.5285C15.8551 19.8361 15.8551 23.5746 13.5488 25.8809Z" stroke="currentColor" fill="none" stroke-linecap="round" stroke-linejoin="round"/>
</svg>
