<svg data-token-name="euro_usd_exchange" width="24" height="24" viewBox="0 0 24 24" fill="none" xmlns="http://www.w3.org/2000/svg">
<path d="M14.585 19.1977H16.1039C18.2001 19.1977 19.9 17.4978 19.9 15.4017" stroke="currentColor" fill="none"  stroke-linecap="round" stroke-linejoin="round"/>
<path d="M15.7235 20.3371L14.585 19.1986L15.7235 18.06" stroke="currentColor" fill="none"  stroke-linecap="round" stroke-linejoin="round"/>
<path d="M9.2691 4.5191H7.75013C5.65397 4.5191 3.9541 6.21897 3.9541 8.31513" stroke="currentColor" fill="none"  stroke-linecap="round" stroke-linejoin="round"/>
<path d="M8.13184 3.37958L9.27036 4.51904L8.13184 5.65757" stroke="currentColor" fill="none"  stroke-linecap="round" stroke-linejoin="round"/>
<path d="M16.8134 5.44129V4.77551M16.8134 9.43499V10.1008M15.658 8.95939C15.8305 9.24193 16.1252 9.43681 16.4804 9.43681H17.2096C17.7262 9.43681 18.1439 9.01814 18.1439 8.50249C18.1439 8.07356 17.8521 7.69965 17.4362 7.59521L16.1886 7.28191C15.7736 7.17747 15.4808 6.80356 15.4808 6.37463C15.4808 5.85805 15.8995 5.44031 16.4152 5.44031H17.1443C17.4996 5.44031 17.7933 5.63426 17.9658 5.91586M16.8116 11.876C19.2527 11.876 21.2501 9.87873 21.2501 7.43849C21.2501 4.99825 19.2527 3 16.8116 3C14.3704 3 12.374 4.99732 12.374 7.43849C12.374 8.43435 12.7106 9.35282 13.2692 10.0951C14.0813 11.173 15.3672 11.876 16.8116 11.876Z" stroke="currentColor" fill="none"  stroke-linecap="round" stroke-linejoin="round"/>
<path d="M4.60067 16.2781H7.25817M8.12752 18.2978C7.32002 18.6475 6.35306 18.5039 5.69288 17.8437C4.82756 16.9784 4.82756 15.5769 5.69288 14.7116C6.35306 14.0514 7.32095 13.9078 8.12752 14.2575M10.1621 19.4104C8.4324 21.1401 5.62757 21.1401 3.89786 19.4104C2.16816 17.6807 2.16816 14.8759 3.89786 13.1462C5.62757 11.4165 8.4324 11.4165 10.1621 13.1462C11.8918 14.8768 11.8918 17.6807 10.1621 19.4104Z" stroke="currentColor" fill="none"  stroke-linecap="round" stroke-linejoin="round"/>
</svg>
