<?xml version="1.0" encoding="utf-8"?>
<!-- Generator: Adobe Illustrator 23.1.0, SVG Export Plug-In . SVG Version: 6.00 Build 0)  -->
<svg version="1.1" id="Layer_1" xmlns="http://www.w3.org/2000/svg" xmlns:xlink="http://www.w3.org/1999/xlink" x="0px" y="0px"
	 viewBox="0 0 24 24" style="enable-background:new 0 0 24 24;" xml:space="preserve">
<style type="text/css">
	.st0{fill:none;}
	.st1{display:none;}
</style>
<path class="st0" d="M0,0h24v24H0V0z"/>
<path class="st1" d="M17.2,10.2v7L6.3,20.8l8.6-6v-4.8h0V2c0,0-6.2,4.9-8.1,6.4c-2.3,1.7-2.4,2.5-2.4,3.6v8.6C4.4,21.3,5,22,5.9,22
	h13.8V10.2H17.2z M11,9.8c0.5-0.6,1.2-0.8,1.6-0.5c0.4,0.3,0.3,1.1-0.2,1.7s-1.2,0.8-1.6,0.5C10.4,11.2,10.5,10.4,11,9.8z"/>
<g>
	<path d="M9.2,4.1C9.1,4.2,9,4.2,9,4.2C6.7,5.5,5.2,7.5,4.7,10c-0.4,1.9-0.2,3.7,0.6,5.5c0.5,1.2,1.1,2.3,2.1,3.3
		c1.5,1.5,3.3,2.4,5.3,2.8c1.1,0.2,2.2,0.3,3.4,0.2c0.6-0.1,1.1-0.2,1.7-0.3c-0.1,0.1-0.2,0.1-0.3,0.1c-1,0.4-2,0.6-3.1,0.7
		c-2,0.1-3.9-0.1-5.8-0.9c-3.2-1.5-5.1-4-5.8-7.4c-0.3-1.4-0.3-2.7,0.1-4.1C3.5,8,4.6,6.6,6.1,5.5C7,4.9,8,4.5,9,4.1
		C9,4.1,9.1,4.1,9.2,4.1C9.1,4.1,9.2,4.1,9.2,4.1z"/>
	<path d="M3.7,7.3C3.8,7.1,3.9,6.9,4,6.7c1.6-2.7,3.9-4.3,7-4.8c2.2-0.4,4.4-0.2,6.4,0.9C19.4,4,20.9,5.7,21.5,8
		c0.8,3.1-0.5,6.3-3.1,8.1c-0.7,0.4-1.4,0.8-2.1,1.1c-0.1,0-0.1,0-0.2,0c0.1,0,0.1-0.1,0.2-0.1c2.2-1.4,3.5-3.4,4-5.9
		c0.1-0.4,0.2-0.9,0.2-1.3c0.1-1.6-0.5-3-1.5-4.1c-1.2-1.4-2.8-2.2-4.6-2.4c-2.6-0.4-5.1,0-7.4,1.3c-1.2,0.7-2.2,1.5-3,2.6
		C3.8,7.2,3.8,7.3,3.7,7.3C3.7,7.3,3.7,7.3,3.7,7.3z"/>
	<path d="M11.9,14.5c-0.3-0.1-0.7-0.2-1-0.4c-1.2-0.5-2.2-1.3-2.8-2.5C7.8,10.8,7.6,10,7.8,9.1c0-0.2,0.1-0.5,0.3-0.6
		c1-1.3,2.3-2.1,3.9-2.3c1.3-0.2,2.6,0,3.8,0.5c0.6,0.3,1.1,0.6,1.5,1.1c0.1,0.1,0.1,0.1,0.2,0.2c-0.3-0.1-0.6-0.3-0.8-0.3
		c-1.7-0.4-3.3,0-4.6,1.2c-0.5,0.5-0.8,1.2-0.9,1.9c-0.1,0.9-0.1,1.9,0.2,2.7C11.5,13.7,11.7,14.1,11.9,14.5z"/>
	<path d="M7.3,9.9c0.1,0.4,0.1,0.7,0.2,1.1c0.4,1.5,1.4,2.5,2.8,3.2c1,0.5,2.1,0.8,3.2,0.9c0.7,0.1,1.5,0.1,2.2,0
		c1.3-0.2,2.4-0.8,3.3-1.8c0-0.1,0.1-0.1,0.1-0.2c0,0,0,0,0.1,0c0,0.1,0,0.1-0.1,0.2c-1.2,2.4-3.1,3.8-5.8,4.2
		c-1.5,0.2-2.8-0.2-4-1.1C7.8,15.3,7,13.8,7,11.9C7,11.2,7.1,10.3,7.3,9.9z"/>
	<path d="M11.5,11.3c0.2,0,0.4,0,0.6,0c0.5,0,0.9,0,1.3-0.2c0.7-0.3,1.2-1.1,1-1.8c-0.1-0.5-0.4-0.7-0.7-0.9c0,0-0.1,0-0.1,0
		c0,0-0.1,0-0.1,0c0,0,0-0.1,0-0.1c1.1-0.4,2.2-0.6,3.3-0.1c0.2,0.1,0.4,0.2,0.6,0.4c0.8,0.6,1,1.4,0.7,2.3
		c-0.2,0.7-0.7,1.2-1.3,1.6c-1.3,0.8-2.6,0.9-4,0.2c-0.5-0.2-0.9-0.6-1.1-1.1C11.5,11.4,11.5,11.4,11.5,11.3z"/>
	<path d="M7.7,18.5c2,1.5,4.3,2,6.8,1.8c2.5-0.3,4.6-1.3,6.4-3c0,0.2,0.1,0.4,0,0.5c-0.2,1.1-0.7,1.9-1.6,2.5
		c-0.9,0.6-1.9,0.8-2.9,1c-1.8,0.2-3.5,0.1-5.3-0.5c-1.3-0.4-2.4-1.1-3.4-2C7.8,18.6,7.7,18.6,7.7,18.5z"/>
</g>
</svg>
