<svg data-token-name="express_all" width="24" height="24" viewBox="0 0 24 24" fill="none" xmlns="http://www.w3.org/2000/svg">
<path d="M16 10H18C18.5304 10 19.0391 10.2107 19.4142 10.5858C19.7893 10.9609 20 11.4696 20 12V19C20 19.5304 19.7893 20.0391 19.4142 20.4142C19.0391 20.7893 18.5304 21 18 21H10C9.46957 21 8.96086 20.7893 8.58579 20.4142C8.21071 20.0391 8 19.5304 8 19V17" stroke="currentColor" fill="none" stroke-linecap="round" stroke-linejoin="round"/>
<path d="M12.5 4.5L10 2L7.5 4.5" stroke="currentColor" fill="none" stroke-linecap="round" stroke-linejoin="round"/>
<path d="M10 11V2" stroke="currentColor" fill="none" stroke-linecap="round" stroke-linejoin="round"/>
<path d="M13 7H14C14.5304 7 15.0391 7.21071 15.4142 7.58579C15.7893 7.96086 16 8.46957 16 9V15C16 15.5304 15.7893 16.0391 15.4142 16.4142C15.0391 16.7893 14.5304 17 14 17H6C5.46957 17 4.96086 16.7893 4.58579 16.4142C4.21071 16.0391 4 15.5304 4 15V9C4 8.46957 4.21071 7.96086 4.58579 7.58579C4.96086 7.21071 5.46957 7 6 7H7" stroke="currentColor" fill="none" stroke-linecap="round" stroke-linejoin="round"/>
</svg>
