<svg data-token-name="express_payment" width="24" height="24" viewBox="0 0 24 24" fill="none" xmlns="http://www.w3.org/2000/svg">
<path d="M16.8736 11.9165C16.9531 11.7856 16.9966 11.6356 16.9998 11.482C17.003 11.3284 16.9657 11.1767 16.8917 11.0425C16.8178 10.9084 16.7098 10.7967 16.5791 10.7189C16.4483 10.6411 16.2994 10.6001 16.1477 10.6H13.2501V3L7.12653 13.0844C7.04701 13.2152 7.0034 13.3651 7.00019 13.5187C6.99698 13.6723 7.0343 13.824 7.10829 13.9581C7.18227 14.0922 7.29025 14.2039 7.42106 14.2816C7.55187 14.3592 7.70078 14.4001 7.8524 14.4H10.75V22L16.8736 11.9165Z" stroke="currentColor" fill="none"  stroke-linecap="round" stroke-linejoin="round"/>
</svg>
