<svg data-token-name="file_import" width="24" height="24" viewBox="0 0 24 24" fill="none" xmlns="http://www.w3.org/2000/svg">
<path d="M13 21H17C17.7956 21 18.5587 20.6839 19.1213 20.1213C19.6839 19.5587 20 18.7956 20 18V8.50931C20 7.71366 19.6839 6.95061 19.1213 6.388L16.612 3.87868C16.0494 3.31607 15.2863 3 14.4907 3H7C6.20435 3 5.44129 3.31607 4.87868 3.87868C4.31607 4.44129 4 5.20435 4 6V12M20 8.5H16.5C15.9696 8.5 15.4609 8.28929 15.0858 7.91421C14.7107 7.53914 14.5 7.03043 14.5 6.5V3M5 20L9 16M9 16H6M9 16V19" stroke="currentColor" fill="none" stroke-linecap="round" stroke-linejoin="round"/>
</svg>
