<svg data-token-name="file_eye" width="24" height="24" viewBox="0 0 24 24" fill="none" xmlns="http://www.w3.org/2000/svg">
<path d="M19 11V5C19 3.895 18.105 3 17 3H5C3.895 3 3 3.895 3 5V18C3 19.105 3.895 20 5 20H11M7 11H13M7 7H15M7 15H9M13.767 17.691C13.493 17.275 13.493 16.727 13.767 16.311C14.615 15.028 15.947 14 17.28 14C18.613 14 19.944 15.028 20.793 16.31C21.068 16.726 21.068 17.275 20.793 17.69C19.943 18.972 18.612 20 17.28 20C15.947 20.001 14.615 18.973 13.767 17.691ZM17.8 17C17.8 17.2761 17.5762 17.5 17.3 17.5C17.0239 17.5 16.8 17.2761 16.8 17C16.8 16.7239 17.0239 16.5 17.3 16.5C17.5762 16.5 17.8 16.7239 17.8 17Z" stroke="currentColor" stroke-width="1.5" stroke-linecap="round" stroke-linejoin="bevel"/>
</svg>
