<svg data-token-name="no__offers" width="24" height="24" viewBox="0 0 24 24" fill="none" xmlns="http://www.w3.org/2000/svg">
    <path d="M7 16H13" stroke="currentColor" fill="none" stroke-linecap="round" stroke-linejoin="round"/>
    <path d="M7 12H13" stroke="currentColor" fill="none" stroke-linecap="round" stroke-linejoin="round"/>
    <path d="M12.5029 20.8981C12.3468 20.8208 12.1746 20.7806 12 20.7806C11.8254 20.7806 11.6532 20.8208 11.4971 20.8981L9.5025 21.8825C9.34641 21.9598 9.17422 22 8.99963 22C8.82503 22 8.65284 21.9598 8.49675 21.8825L6.50213 20.8981C6.34604 20.8208 6.17385 20.7806 5.99925 20.7806C5.82465 20.7806 5.65246 20.8208 5.49637 20.8981L4.629 21.3269C4.45749 21.4119 4.26683 21.4521 4.07514 21.4438C3.88346 21.4354 3.69712 21.3788 3.53386 21.2792C3.37059 21.1797 3.23583 21.0405 3.14239 20.875C3.04895 20.7095 2.99993 20.5231 3 20.3336V3.66639C2.99996 3.47701 3.04896 3.29077 3.14232 3.12537C3.23569 2.95996 3.37033 2.82088 3.53345 2.72135C3.69657 2.62181 3.88276 2.56512 4.07431 2.55667C4.26586 2.54822 4.45642 2.58828 4.62788 2.67306L5.4975 3.10194C5.65379 3.17921 5.82616 3.21945 6.00094 3.21945C6.17571 3.21945 6.34809 3.17921 6.50437 3.10194L8.49675 2.1175C8.65304 2.04023 8.82541 2 9.00019 2C9.17496 2 9.34734 2.04023 9.50363 2.1175L11.4983 3.10194C11.6543 3.17868 11.8262 3.21861 12.0006 3.21861C12.1749 3.21861 12.3468 3.17868 12.5029 3.10194L14.4975 2.1175C14.6536 2.04023 14.8258 2 15.0004 2C15.175 2 15.3472 2.04023 15.5033 2.1175L17.4979 3.10194C17.654 3.17921 17.8262 3.21944 18.0008 3.21944C18.1753 3.21944 18.3475 3.17921 18.5036 3.10194L19.371 2.67306C19.5425 2.58809 19.7332 2.54787 19.9249 2.55622C20.1165 2.56458 20.3029 2.62122 20.4661 2.72078C20.6294 2.82033 20.7642 2.95949 20.8576 3.125C20.9511 3.29051 21.0001 3.47688 21 3.66639V12.8996" stroke="currentColor" fill="none" stroke-linecap="round" stroke-linejoin="round"/>
    <path d="M21.9004 21.6L15.9004 15.6M15.9004 21.6L21.9004 15.6" stroke="currentColor" fill="none" stroke-linecap="round" stroke-linejoin="round"/>
    <path d="M16.9004 12.6C16.9993 12.6 17.096 12.5707 17.1782 12.5157C17.2604 12.4608 17.3245 12.3827 17.3623 12.2913C17.4002 12.2 17.4101 12.0995 17.3908 12.0025C17.3715 11.9055 17.3239 11.8164 17.2539 11.7465C17.184 11.6765 17.0949 11.6289 16.9979 11.6096C16.9009 11.5903 16.8004 11.6002 16.709 11.6381C16.6177 11.6759 16.5396 11.74 16.4847 11.8222C16.4297 11.9044 16.4004 12.0011 16.4004 12.1C16.4004 12.2326 16.4531 12.3598 16.5468 12.4536C16.6406 12.5473 16.7678 12.6 16.9004 12.6Z" stroke="currentColor" fill="none" stroke-linecap="round" stroke-linejoin="round"/>
    <path d="M7 8H13" stroke="currentColor" fill="none" stroke-linecap="round" stroke-linejoin="round"/>
    <path d="M16.9004 8.60001C16.9993 8.60001 17.096 8.57068 17.1782 8.51574C17.2604 8.4608 17.3245 8.38271 17.3623 8.29135C17.4002 8.19998 17.4101 8.09945 17.3908 8.00246C17.3715 7.90547 17.3239 7.81638 17.2539 7.74645C17.184 7.67653 17.0949 7.62891 16.9979 7.60961C16.9009 7.59032 16.8004 7.60022 16.709 7.63807C16.6177 7.67591 16.5396 7.74 16.4847 7.82222C16.4297 7.90445 16.4004 8.00112 16.4004 8.10001C16.4004 8.23261 16.4531 8.35979 16.5468 8.45356C16.6406 8.54733 16.7678 8.60001 16.9004 8.60001Z" stroke="currentColor" fill="none" stroke-linecap="round" stroke-linejoin="round"/>
</svg>
