<svg data-token-name="file_check" viewBox="0 0 19 21" fill="none" xmlns="http://www.w3.org/2000/svg">
    <path d="M15 8V5.828C15 5.298 14.789 4.789 14.414 4.414L11.586 1.586C11.211 1.211 10.702 1 10.172 1H3C1.895 1 1 1.895 1 3V17C1 18.105 1.895 19 3 19H7M15 6H11C10.448 6 10 5.552 10 5V1M15.157 14.672L13.085 16.744L11.843 15.5M13.5 20C11.015 20 9 17.985 9 15.5C9 13.015 11.015 11 13.5 11C15.986 11 18 13.015 18 15.5C18 17.985 15.986 20 13.5 20Z" stroke="currentColor" fill="none" stroke-linecap="round" stroke-linejoin="round"/>
</svg>
