<svg data-token-name="file_check" width="24" height="24" viewBox="0 0 24 24" fill="none" xmlns="http://www.w3.org/2000/svg">
<path d="M18 10V7.828C18 7.298 17.789 6.789 17.414 6.414L14.586 3.586C14.211 3.211 13.702 3 13.172 3H6C4.895 3 4 3.895 4 5V19C4 20.105 4.895 21 6 21H10M18 8H14C13.448 8 13 7.552 13 7V3M18.157 16.672L16.085 18.744L14.843 17.5M16.5 22C14.015 22 12 19.985 12 17.5C12 15.015 14.015 13 16.5 13C18.986 13 21 15.015 21 17.5C21 19.985 18.986 22 16.5 22Z" stroke="currentColor" fill="none" stroke-linecap="round" stroke-linejoin="round"/>
</svg>
