<svg data-token-name="fire_colored" width="24" height="24" viewBox="0 0 24 24" fill="none" xmlns="http://www.w3.org/2000/svg">
<mask id="path-1-outside-1" maskUnits="userSpaceOnUse" x="5" y="2" width="16" height="20" fill="black">
<rect fill="white" x="5" y="2" width="16" height="20"/>
<path d="M11.562 3.11095C11.3782 3.01628 11.1678 2.98085 10.9616 3.00985C10.7555 3.03884 10.5643 3.13073 10.416 3.27211C10.2677 3.41349 10.1701 3.59695 10.1374 3.79571C10.1047 3.99447 10.1387 4.19813 10.2343 4.37694C10.8017 5.45078 11.1001 6.63839 11.1052 7.84405C11.1104 9.0497 10.8222 10.2397 10.2639 11.318C10.2469 11.3474 10.2219 11.3718 10.1917 11.3887C10.1614 11.4056 10.127 11.4143 10.0921 11.4139C10.0572 11.4135 10.0231 11.404 9.99324 11.3865C9.96341 11.369 9.93903 11.344 9.92264 11.3142C9.71646 10.9432 9.56903 10.5444 9.48526 10.1312C9.46498 10.0362 9.41989 9.94782 9.35427 9.8744C9.28866 9.80098 9.2047 9.74498 9.11037 9.71174C9.0161 9.67837 8.9145 9.6691 8.81542 9.68483C8.71635 9.70056 8.62316 9.74076 8.54491 9.80152C7.45179 10.6435 6.6559 11.7922 6.26689 13.0894C5.87788 14.3865 5.91491 15.7683 6.37287 17.0443C6.80521 18.2454 7.62834 19.2791 8.71922 19.9909C9.81011 20.7027 11.1102 21.0543 12.4251 20.9932C15.728 20.9932 18.0375 19.3749 18.7639 16.5555C19.8409 12.3931 17.1979 5.99601 11.562 3.11095ZM15.2617 16.5992C15.1678 17.2231 14.8333 17.7897 14.3252 18.1855C13.8171 18.5813 13.173 18.7771 12.5219 18.7336C11.8968 18.7338 11.2915 18.5214 10.8124 18.1336C10.3332 17.7458 10.0108 17.2074 9.90155 16.6128C9.8901 16.5512 9.89469 16.4878 9.91491 16.4284C9.93512 16.3689 9.97033 16.3153 10.0174 16.2723C10.0644 16.2292 10.1218 16.1982 10.1843 16.1819C10.2468 16.1656 10.3126 16.1646 10.3756 16.179C10.7671 16.173 11.1508 16.0725 11.4918 15.8867C11.8329 15.7009 12.1204 15.4357 12.3282 15.1152C12.5663 14.8718 12.7264 14.567 12.7891 14.2377C12.8519 13.9084 12.8147 13.5686 12.682 13.2592C12.6429 13.1918 12.6261 13.1144 12.634 13.0375C12.6419 12.9606 12.674 12.8879 12.7261 12.8292C12.7781 12.7705 12.8476 12.7287 12.9251 12.7094C13.0025 12.6901 13.0843 12.6942 13.1592 12.7213C13.9063 13.0497 14.5186 13.6093 14.8994 14.3117C15.2803 15.014 15.4077 15.819 15.2617 16.5992Z"/>
</mask>
<path d="M11.562 3.11095C11.3782 3.01628 11.1678 2.98085 10.9616 3.00985C10.7555 3.03884 10.5643 3.13073 10.416 3.27211C10.2677 3.41349 10.1701 3.59695 10.1374 3.79571C10.1047 3.99447 10.1387 4.19813 10.2343 4.37694C10.8017 5.45078 11.1001 6.63839 11.1052 7.84405C11.1104 9.0497 10.8222 10.2397 10.2639 11.318C10.2469 11.3474 10.2219 11.3718 10.1917 11.3887C10.1614 11.4056 10.127 11.4143 10.0921 11.4139C10.0572 11.4135 10.0231 11.404 9.99324 11.3865C9.96341 11.369 9.93903 11.344 9.92264 11.3142C9.71646 10.9432 9.56903 10.5444 9.48526 10.1312C9.46498 10.0362 9.41989 9.94782 9.35427 9.8744C9.28866 9.80098 9.2047 9.74498 9.11037 9.71174C9.0161 9.67837 8.9145 9.6691 8.81542 9.68483C8.71635 9.70056 8.62316 9.74076 8.54491 9.80152C7.45179 10.6435 6.6559 11.7922 6.26689 13.0894C5.87788 14.3865 5.91491 15.7683 6.37287 17.0443C6.80521 18.2454 7.62834 19.2791 8.71922 19.9909C9.81011 20.7027 11.1102 21.0543 12.4251 20.9932C15.728 20.9932 18.0375 19.3749 18.7639 16.5555C19.8409 12.3931 17.1979 5.99601 11.562 3.11095ZM15.2617 16.5992C15.1678 17.2231 14.8333 17.7897 14.3252 18.1855C13.8171 18.5813 13.173 18.7771 12.5219 18.7336C11.8968 18.7338 11.2915 18.5214 10.8124 18.1336C10.3332 17.7458 10.0108 17.2074 9.90155 16.6128C9.8901 16.5512 9.89469 16.4878 9.91491 16.4284C9.93512 16.3689 9.97033 16.3153 10.0174 16.2723C10.0644 16.2292 10.1218 16.1982 10.1843 16.1819C10.2468 16.1656 10.3126 16.1646 10.3756 16.179C10.7671 16.173 11.1508 16.0725 11.4918 15.8867C11.8329 15.7009 12.1204 15.4357 12.3282 15.1152C12.5663 14.8718 12.7264 14.567 12.7891 14.2377C12.8519 13.9084 12.8147 13.5686 12.682 13.2592C12.6429 13.1918 12.6261 13.1144 12.634 13.0375C12.6419 12.9606 12.674 12.8879 12.7261 12.8292C12.7781 12.7705 12.8476 12.7287 12.9251 12.7094C13.0025 12.6901 13.0843 12.6942 13.1592 12.7213C13.9063 13.0497 14.5186 13.6093 14.8994 14.3117C15.2803 15.014 15.4077 15.819 15.2617 16.5992Z" fill="#F5563D"/>
<path d="M11.562 3.11095L11.1042 4L11.1063 4.0011L11.562 3.11095ZM10.2343 4.37694L11.1184 3.90971L11.1161 3.90544L10.2343 4.37694ZM10.2639 11.318L11.1286 11.8204L11.1408 11.7994L11.152 11.7777L10.2639 11.318ZM9.99324 11.3865L9.48634 12.2485L9.99324 11.3865ZM9.92264 11.3142L10.7988 10.8321L10.7967 10.8285L9.92264 11.3142ZM9.48526 10.1312L10.4654 9.93253L10.4632 9.92239L9.48526 10.1312ZM9.11037 9.71174L8.77672 10.6544L8.77794 10.6549L9.11037 9.71174ZM8.54491 9.80152L9.15512 10.5938L9.15817 10.5914L8.54491 9.80152ZM6.37287 17.0443L5.43165 17.3822L5.43197 17.383L6.37287 17.0443ZM12.4251 20.9932V19.9932H12.4018L12.3786 19.9943L12.4251 20.9932ZM18.7639 16.5555L17.7958 16.3049L17.7955 16.306L18.7639 16.5555ZM12.5219 18.7336L12.5885 17.7358L12.5551 17.7336L12.5215 17.7336L12.5219 18.7336ZM9.90155 16.6128L10.8851 16.4321L10.8847 16.43L9.90155 16.6128ZM10.3756 16.179L10.1533 17.154L10.2706 17.1807L10.3909 17.1789L10.3756 16.179ZM12.3282 15.1152L11.6133 14.416L11.5435 14.4874L11.4891 14.5711L12.3282 15.1152ZM12.682 13.2592L13.601 12.865L13.5772 12.8094L13.5468 12.7571L12.682 13.2592ZM13.1592 12.7213L13.5616 11.8058L13.5305 11.7921L13.4985 11.7806L13.1592 12.7213ZM12.0198 2.22191C11.6509 2.03191 11.2318 1.96202 10.8224 2.01959L11.1009 4.0001C11.102 3.99995 11.1031 3.99997 11.1041 4.00014C11.1051 4.00031 11.1051 4.00047 11.1042 4L12.0198 2.22191ZM10.8224 2.01959C10.4129 2.07718 10.0281 2.26029 9.72594 2.54837L11.1061 3.99585C11.1005 4.00117 11.0981 4.0005 11.1009 4.0001L10.8224 2.01959ZM9.72594 2.54837C9.42331 2.83693 9.2193 3.21631 9.15069 3.63339L11.1242 3.95803C11.121 3.97759 11.1122 3.99005 11.1061 3.99585L9.72594 2.54837ZM9.15069 3.63339C9.08203 4.05076 9.15383 4.47703 9.3524 4.84844L11.1161 3.90544C11.1235 3.91922 11.1274 3.93818 11.1242 3.95803L9.15069 3.63339ZM9.35013 4.84417C9.84278 5.7764 10.1008 6.80531 10.1053 7.84832L12.1052 7.83977C12.0994 6.47147 11.7607 5.12516 11.1184 3.90971L9.35013 4.84417ZM10.1053 7.84832C10.1097 8.89133 9.86051 9.9222 9.3759 10.8582L11.152 11.7777C11.7839 10.5571 12.1111 9.20807 12.1052 7.83977L10.1053 7.84832ZM9.39931 10.8156C9.47409 10.6869 9.58069 10.5845 9.70428 10.5155L10.679 12.2619C10.8631 12.1592 11.0196 12.0079 11.1286 11.8204L9.39931 10.8156ZM9.70428 10.5155C9.82765 10.4466 9.9653 10.4124 10.1032 10.4139L10.0811 12.4138C10.2888 12.4161 10.4952 12.3645 10.679 12.2619L9.70428 10.5155ZM10.1032 10.4139C10.2411 10.4155 10.3781 10.4527 10.5001 10.5245L9.48634 12.2485C9.66802 12.3553 9.87337 12.4115 10.0811 12.4138L10.1032 10.4139ZM10.5001 10.5245C10.6224 10.5964 10.7268 10.7014 10.7987 10.8321L9.04653 11.7963C9.15121 11.9866 9.30444 12.1415 9.48634 12.2485L10.5001 10.5245ZM10.7967 10.8285C10.6401 10.5465 10.5286 10.2445 10.4653 9.93254L8.5052 10.3299C8.60949 10.8444 8.79287 11.3399 9.04854 11.8L10.7967 10.8285ZM10.4632 9.92239C10.4061 9.65484 10.2798 9.40929 10.0999 9.20803L8.60865 10.5408C8.56001 10.4863 8.52387 10.4176 8.50731 10.34L10.4632 9.92239ZM10.0999 9.20803C9.92022 9.00699 9.69336 8.85692 9.4428 8.76861L8.77794 10.6549C8.71604 10.633 8.65709 10.595 8.60865 10.5408L10.0999 9.20803ZM9.44402 8.76904C9.19205 8.67986 8.92183 8.65541 8.65861 8.6972L8.97223 10.6725C8.90717 10.6828 8.84014 10.6769 8.77672 10.6544L9.44402 8.76904ZM8.65861 8.6972C8.39533 8.73901 8.14469 8.84622 7.93164 9.01164L9.15817 10.5914C9.10164 10.6353 9.03736 10.6621 8.97223 10.6725L8.65861 8.6972ZM7.93469 9.00928C6.67904 9.97644 5.75939 11.3003 5.30903 12.8021L7.22474 13.3766C7.5524 12.284 8.22455 11.3105 9.15512 10.5938L7.93469 9.00928ZM5.30903 12.8021C4.85854 14.3043 4.90156 15.9052 5.43165 17.3822L7.31408 16.7065C6.92826 15.6315 6.89721 14.4688 7.22474 13.3766L5.30903 12.8021ZM5.43197 17.383C5.93961 18.7933 6.90364 20.0003 8.17278 20.8284L9.26566 19.1534C8.35303 18.5579 7.6708 17.6975 7.31377 16.7057L5.43197 17.383ZM8.17278 20.8284C9.44143 21.6562 10.9493 22.0628 12.4715 21.9921L12.3786 19.9943C11.271 20.0457 10.1788 19.7492 9.26566 19.1534L8.17278 20.8284ZM12.4251 21.9932C14.238 21.9932 15.8526 21.5483 17.1343 20.6507C18.4243 19.7474 19.3139 18.4288 19.7323 16.8049L17.7955 16.306C17.4875 17.5016 16.8591 18.4018 15.9871 19.0125C15.1068 19.6289 13.915 19.9932 12.4251 19.9932V21.9932ZM19.732 16.806C20.3458 14.4336 19.8834 11.5444 18.5761 8.90975C17.2606 6.25851 15.046 3.77101 12.0177 2.22081L11.1063 4.0011C13.7139 5.33595 15.6388 7.48953 16.7845 9.79868C17.9385 12.1244 18.2589 14.5149 17.7958 16.3049L19.732 16.806ZM14.2729 16.4503C14.218 16.815 14.0212 17.1547 13.7107 17.3966L14.9397 18.9744C15.6453 18.4248 16.1176 17.6312 16.2506 16.7481L14.2729 16.4503ZM13.7107 17.3966C13.3991 17.6393 12.9982 17.7632 12.5885 17.7358L12.4553 19.7314C13.3478 19.791 14.2352 19.5233 14.9397 18.9744L13.7107 17.3966ZM12.5215 17.7336C12.122 17.7337 11.7398 17.5977 11.4415 17.3563L10.1833 18.9109C10.8433 19.4451 11.6715 19.7339 12.5223 19.7336L12.5215 17.7336ZM11.4415 17.3563C11.1439 17.1154 10.9502 16.7869 10.8851 16.4321L8.918 16.7934C9.07126 17.6279 9.52254 18.3761 10.1833 18.9109L11.4415 17.3563ZM10.8847 16.43C10.9047 16.5374 10.8965 16.6479 10.8617 16.7503L8.96815 16.1064C8.89287 16.3278 8.87553 16.565 8.9184 16.7956L10.8847 16.43ZM10.8617 16.7503C10.8269 16.8526 10.7675 16.9413 10.6924 17.01L9.34228 15.5345C9.17314 15.6893 9.04337 15.8852 8.96815 16.1064L10.8617 16.7503ZM10.6924 17.01C10.6175 17.0785 10.5291 17.1255 10.4362 17.1496L9.93235 15.2141C9.71441 15.2709 9.51123 15.3799 9.34228 15.5345L10.6924 17.01ZM10.4362 17.1496C10.3435 17.1738 10.2466 17.1752 10.1533 17.154L10.598 15.204C10.3786 15.154 10.1502 15.1574 9.93235 15.2141L10.4362 17.1496ZM10.3909 17.1789C10.943 17.1704 11.4858 17.0288 11.9703 16.7649L11.0134 15.0086C10.8158 15.1163 10.5912 15.1756 10.3604 15.1791L10.3909 17.1789ZM11.9703 16.7649C12.4549 16.5008 12.8673 16.1218 13.1673 15.6592L11.4891 14.5711C11.3734 14.7496 11.2108 14.9011 11.0134 15.0086L11.9703 16.7649ZM13.0431 15.8144C13.4164 15.4327 13.6712 14.9507 13.7714 14.425L11.8068 14.0505C11.7815 14.1834 11.7161 14.3109 11.6133 14.416L13.0431 15.8144ZM13.7714 14.425C13.8717 13.899 13.812 13.3567 13.601 12.865L11.763 13.6534C11.8175 13.7804 11.8321 13.9178 11.8068 14.0505L13.7714 14.425ZM13.5468 12.7571C13.6128 12.8707 13.6426 13.0045 13.6288 13.1395L11.6392 12.9356C11.6096 13.2243 11.673 13.513 11.8172 13.7613L13.5468 12.7571ZM13.6288 13.1395C13.615 13.2743 13.559 13.3972 13.4741 13.4928L11.978 12.1656C11.7891 12.3785 11.6688 12.6469 11.6392 12.9356L13.6288 13.1395ZM13.4741 13.4928C13.3898 13.588 13.2815 13.6512 13.1669 13.6797L12.6833 11.7391C12.4137 11.8063 12.1665 11.9531 11.978 12.1656L13.4741 13.4928ZM13.1669 13.6797C13.0524 13.7083 12.9318 13.7023 12.8199 13.662L13.4985 11.7806C13.2367 11.6862 12.9527 11.6719 12.6833 11.7391L13.1669 13.6797ZM12.7568 13.6367C13.3054 13.8779 13.7478 14.2856 14.0203 14.7883L15.7786 13.8351C15.2895 12.9331 14.5072 12.2215 13.5616 11.8058L12.7568 13.6367ZM14.0203 14.7883C14.2925 15.2904 14.3823 15.8623 14.2788 16.4153L16.2447 16.7831C16.4332 15.7757 16.268 14.7377 15.7786 13.8351L14.0203 14.7883Z" fill="white" mask="url(#path-1-outside-1)"/>
</svg>
