<svg data-token-name="fire" width="24" height="24" viewBox="0 0 24 24" fill="none" xmlns="http://www.w3.org/2000/svg">
<path d="M11.562 3.11095C11.3782 3.01628 11.1678 2.98085 10.9616 3.00985C10.7555 3.03884 10.5643 3.13073 10.416 3.27211C10.2677 3.41349 10.1701 3.59695 10.1374 3.79571C10.1047 3.99447 10.1387 4.19813 10.2343 4.37694C10.8017 5.45078 11.1001 6.63839 11.1052 7.84405C11.1104 9.0497 10.8222 10.2397 10.2639 11.318C10.2469 11.3474 10.2219 11.3718 10.1917 11.3887C10.1614 11.4056 10.127 11.4143 10.0921 11.4139C10.0572 11.4135 10.0231 11.404 9.99324 11.3865C9.96341 11.369 9.93903 11.344 9.92264 11.3142C9.71647 10.9432 9.56903 10.5444 9.48526 10.1312C9.46498 10.0362 9.41989 9.94782 9.35427 9.8744C9.28866 9.80098 9.2047 9.74498 9.11037 9.71174C9.0161 9.67837 8.9145 9.6691 8.81542 9.68483C8.71635 9.70056 8.62316 9.74076 8.54491 9.80152C7.45179 10.6435 6.6559 11.7922 6.26689 13.0894C5.87788 14.3866 5.91491 15.7683 6.37287 17.0443C6.80521 18.2454 7.62834 19.2791 8.71922 19.9909C9.81011 20.7027 11.1102 21.0543 12.4251 20.9932C15.728 20.9932 18.0375 19.3749 18.7639 16.5555C19.8409 12.3931 17.1979 5.99601 11.562 3.11095ZM15.2617 16.5992C15.1678 17.2231 14.8333 17.7897 14.3252 18.1855C13.8171 18.5813 13.173 18.7771 12.5219 18.7336C11.8968 18.7338 11.2915 18.5214 10.8124 18.1336C10.3332 17.7458 10.0108 17.2074 9.90155 16.6128C9.8901 16.5512 9.89469 16.4878 9.91491 16.4284C9.93512 16.3689 9.97033 16.3153 10.0174 16.2723C10.0644 16.2292 10.1218 16.1982 10.1843 16.1819C10.2468 16.1656 10.3126 16.1646 10.3756 16.179C10.7671 16.173 11.1508 16.0725 11.4918 15.8867C11.8329 15.7009 12.1204 15.4357 12.3282 15.1152C12.5663 14.8718 12.7264 14.567 12.7891 14.2377C12.8519 13.9084 12.8147 13.5686 12.682 13.2592C12.6429 13.1918 12.6261 13.1144 12.634 13.0375C12.6419 12.9606 12.674 12.8879 12.7261 12.8292C12.7781 12.7705 12.8476 12.7287 12.9251 12.7094C13.0025 12.6901 13.0843 12.6942 13.1592 12.7213C13.9063 13.0497 14.5186 13.6093 14.8994 14.3117C15.2803 15.014 15.4077 15.819 15.2617 16.5992V16.5992Z" stroke="currentColor" fill="none"/>
</svg>
