<svg data-token-name="flag_ar" width="24" height="24" viewBox="0 0 24 24" fill="none" xmlns="http://www.w3.org/2000/svg">
<g fill="none">
    <path fill-rule="evenodd" clip-rule="evenodd" d="M0.75 4H23.25V19H0.75V4Z" fill="#199D00"/>
    <path fill-rule="evenodd" clip-rule="evenodd" d="M6.41915 8.25098C6.39571 8.60254 6.36055 9.21778 6.66231 9.28223C7.02266 9.31738 6.82345 8.67285 6.95528 8.55567C6.97872 8.49707 7.02266 8.49707 7.02559 8.57031V9.11817C7.02559 9.29395 7.14278 9.34668 7.23067 9.38184C7.32442 9.37598 7.38888 9.38184 7.42403 9.46973L7.47091 10.416C7.47091 10.416 7.6877 10.4805 7.69942 9.88574C7.70821 9.53418 7.62911 9.24414 7.67598 9.17676C7.67598 9.10938 7.76388 9.10645 7.82247 9.13867C7.91622 9.20313 7.95723 9.28516 8.10372 9.25586C8.32638 9.19141 8.46114 9.08301 8.46407 8.91309C8.45967 8.7461 8.42493 8.58131 8.36153 8.42676C8.37325 8.39746 8.32052 8.31836 8.33223 8.28906C8.37032 8.35352 8.43184 8.34766 8.44356 8.28906C8.40548 8.16602 8.34688 8.0459 8.25313 7.9961C8.17403 7.92578 8.05684 7.9375 8.01876 8.08399C7.99532 8.25098 8.07735 8.44727 8.19747 8.61133C8.22384 8.67285 8.25899 8.77832 8.24434 8.87207C8.17989 8.91016 8.11544 8.89258 8.05977 8.83692C8.05977 8.83692 7.88399 8.70508 7.88399 8.67285C7.93087 8.37403 7.89278 8.33887 7.86641 8.25391C7.84884 8.13965 7.79317 8.10156 7.74923 8.02539C7.70528 7.97852 7.64669 7.97852 7.61739 8.02539C7.53829 8.16016 7.57638 8.4502 7.63204 8.58203C7.67305 8.70215 7.73458 8.77832 7.70528 8.77832C7.68184 8.84571 7.63204 8.82813 7.59395 8.74903C7.55108 8.58256 7.53039 8.41115 7.53243 8.23926C7.51778 8.10449 7.5002 7.81738 7.40938 7.74121C7.35665 7.6709 7.27755 7.70606 7.24825 7.77051C7.24051 7.90139 7.24345 8.03268 7.25704 8.16309C7.31563 8.37989 7.33614 8.57324 7.36544 8.79297C7.37423 9.08887 7.19552 8.92188 7.2043 8.77246C7.24274 8.58462 7.23974 8.39066 7.19552 8.2041C7.16622 8.12793 7.13399 8.11035 7.06075 8.12207C7.00509 8.12207 6.86153 8.27735 6.82052 8.54102C6.82052 8.54102 6.78536 8.67578 6.77071 8.7959C6.7502 8.93067 6.66231 9.03028 6.59786 8.77832C6.54512 8.59375 6.50997 8.14551 6.42208 8.25098H6.41915Z" fill="white"/>
    <path fill-rule="evenodd" clip-rule="evenodd" d="M7.40039 9.68945L6.46289 10.1406C6.47168 9.92676 6.90527 9.54297 7.2041 9.54004C7.39453 9.54297 7.34766 9.61328 7.39746 9.68945H7.40039Z" fill="white"/>
    <path fill-rule="evenodd" clip-rule="evenodd" d="M7.2332 9.98242C6.74101 11.2568 8.39042 11.4355 8.57499 10.0352C8.59257 9.97656 8.66288 9.9209 8.6746 10.0146C8.63652 11.2832 7.39726 11.3682 7.18632 10.9697C7.1367 10.8326 7.1119 10.6878 7.11308 10.542C7.08378 10.293 6.95195 10.3896 6.93144 10.6357C6.91093 10.7734 6.91679 10.8115 6.91679 10.9434C6.98124 11.9453 8.57792 11.5146 8.83867 10.6885C8.97636 10.2314 8.81523 9.89453 8.88847 9.89453C9.04667 10.0645 9.26933 9.91797 9.31913 9.85938C9.33964 9.83008 9.39238 9.80957 9.42753 9.84766C9.55058 9.93555 9.76738 9.89453 9.81425 9.73926C9.84062 9.58399 9.86113 9.42578 9.86699 9.26465C9.76445 9.29395 9.6912 9.31445 9.68242 9.3584L9.66191 9.49317C9.65312 9.53711 9.56816 9.53711 9.5623 9.48145C9.52421 9.30567 9.36601 9.28516 9.26933 9.55469C9.20781 9.60742 9.09062 9.61914 9.0789 9.54004C9.09355 9.3584 9.02031 9.33496 8.87382 9.41992L8.7332 8.35938C8.79179 8.35938 8.85038 8.40332 8.90605 8.33301C8.84745 8.14258 8.71562 7.75586 8.64238 7.72656C8.61015 7.68555 8.58085 7.71192 8.53398 7.72363C8.45781 7.74707 8.38749 7.81152 8.41093 7.94043C8.49882 8.49121 8.55742 8.91016 8.64824 9.46387C8.66288 9.52539 8.61015 9.61035 8.53984 9.60156C8.42265 9.52246 8.39335 9.36133 8.18827 9.36719C8.04179 9.36719 7.87773 9.52832 7.85722 9.68066C7.83085 9.80371 7.82206 9.93555 7.85722 10.041C7.95976 10.1641 8.08281 10.1523 8.1912 10.126C8.2791 10.0879 8.35234 10 8.38456 10.0205C8.40507 10.0469 8.38749 10.3398 7.96562 10.5625C7.71074 10.6797 7.50566 10.7031 7.39726 10.4951C7.32988 10.3633 7.40312 9.86816 7.2332 9.98242Z" fill="white"/>
    <path fill-rule="evenodd" clip-rule="evenodd" d="M9.33381 8.6875C9.43049 8.65235 9.89924 8.11328 9.89924 8.11328L9.82892 8.05469C9.80256 8.03418 9.80548 8.01074 9.82892 7.99024C9.94611 7.91992 9.90802 7.77344 9.84943 7.70313C9.80965 7.68374 9.76589 7.6739 9.72164 7.67441C9.67739 7.67492 9.63387 7.68576 9.59455 7.70606C9.51252 7.78516 9.49494 7.91113 9.55939 7.98731C9.62091 8.0166 9.68244 8.08106 9.64142 8.11621C9.44806 8.32129 8.92365 8.67578 8.98517 8.6875C8.99689 8.70508 9.32209 8.70508 9.33088 8.6875H9.33381ZM6.49201 10.5918C6.31623 10.873 6.30158 11.292 6.39826 11.418C6.45099 11.4766 6.53595 11.5029 6.59748 11.4824C6.70881 11.4355 6.75861 11.21 6.73224 11.1309C6.69416 11.0723 6.66486 11.0635 6.62677 11.1104C6.5506 11.2686 6.51838 11.1602 6.50959 11.0723C6.50119 10.9234 6.50905 10.7741 6.53302 10.627C6.55353 10.5039 6.53302 10.5391 6.49201 10.5918ZM14.0242 10.1436C13.8543 9.77442 13.617 9.41113 13.5438 9.27344C13.3155 8.91251 13.0731 8.56068 12.8172 8.21875C12.6356 8.00195 13.116 8.30957 12.7586 7.87598L12.4979 7.65625C12.4393 7.61524 12.2986 7.53906 12.2752 7.66211C12.2635 7.77344 12.2694 7.83203 12.2869 7.92285C12.3016 7.98145 12.3895 8.08399 12.4334 8.14258C13.034 8.93812 13.5616 9.7863 14.0096 10.6768C14.0858 10.6387 14.0682 10.2051 14.0242 10.1436Z" fill="white"/>
    <path fill-rule="evenodd" clip-rule="evenodd" d="M13.2778 11.3682C13.2426 11.4063 13.3598 11.5674 13.5121 11.5674C13.7641 11.5381 13.9867 11.3975 14.1918 11.0225C14.2752 10.8977 14.3283 10.7553 14.3471 10.6064C14.3719 9.89524 14.3149 9.18354 14.1772 8.48535C14.1684 8.42676 14.1772 8.35645 14.183 8.33887C14.2006 8.31836 14.2563 8.33887 14.2856 8.28907C14.3295 8.24512 14.1684 7.87891 14.0805 7.74121C14.0512 7.67676 14.0366 7.63575 13.9838 7.74707C13.9202 7.86991 13.8899 8.0073 13.8959 8.14551C14.016 8.98047 14.0541 9.70996 14.1303 10.5449C14.1391 10.627 14.1274 10.7441 14.0717 10.791C13.8506 11.0372 13.5801 11.2338 13.2778 11.3682ZM16.6908 11.3652C16.5092 11.4707 16.5092 11.5908 16.6557 11.5938C16.9076 11.5645 17.2065 11.5439 17.4116 11.2334C17.484 11.0871 17.5259 10.9276 17.5346 10.7647C17.5715 10.0644 17.5253 9.36223 17.3969 8.67285C17.391 8.61426 17.3647 8.47657 17.3735 8.45899C17.391 8.41797 17.4731 8.46192 17.5024 8.41504C17.5434 8.3711 17.2885 8.04297 17.1977 7.90235C17.1684 7.83789 17.1567 7.79688 17.101 7.90821C17.042 8.03218 17.0235 8.17159 17.0483 8.30664C17.183 9.21485 17.2826 9.89453 17.3032 10.6973C17.2914 10.7734 17.2885 10.8145 17.2533 10.9111C17.1742 11.0107 17.0864 11.1397 17.0043 11.2012C16.9223 11.2598 16.7465 11.3184 16.6908 11.3652Z" fill="white"/>
    <path fill-rule="evenodd" clip-rule="evenodd" d="M16.8255 10.5537C16.8255 10.3398 16.8284 10.1582 16.8225 9.99707C16.8206 9.86061 16.7907 9.72599 16.7346 9.60157C16.6819 9.48145 16.7141 9.38477 16.6878 9.25586C16.6643 9.12696 16.6702 8.9336 16.635 8.78418C16.6233 8.72559 16.594 8.53516 16.6028 8.51465C16.6175 8.47364 16.6731 8.51465 16.7024 8.46778C16.7434 8.42383 16.5559 7.94043 16.4622 7.80274C16.43 7.74122 16.3655 7.76172 16.2923 7.86133C16.219 7.92872 16.2454 8.07813 16.2747 8.22168C16.4534 9.16797 16.5911 10.0264 16.5618 10.9258C16.5501 11.002 16.8255 10.6973 16.8255 10.5537ZM15.4866 9.38184C15.3723 9.37598 15.135 9.15625 15.0647 9.03028C15.0532 8.99949 15.0483 8.96662 15.0503 8.93382C15.0524 8.90101 15.0612 8.86899 15.0764 8.83985C15.1204 8.81055 15.1848 8.78125 15.2346 8.81055C15.2346 8.81055 15.2845 8.88086 15.2757 8.88965C15.3343 8.91895 15.3636 8.9043 15.3694 8.87793C15.3723 8.83399 15.3518 8.80762 15.3518 8.76075C15.3782 8.62598 15.5276 8.60547 15.5862 8.69043C15.6272 8.74317 15.6448 8.85157 15.6477 8.92481C15.6477 8.9629 15.5891 8.91895 15.5511 8.92481C15.5188 8.93653 15.51 8.97754 15.5071 9.0127C15.5013 9.10938 15.4895 9.26465 15.4866 9.37891V9.38184ZM13.3831 10.7881C13.4124 10.501 13.3714 9.98829 13.3684 9.81836C13.3528 9.38136 13.3166 8.94533 13.26 8.51172C13.2249 8.26563 13.3596 8.53809 13.3421 8.39454C13.2981 8.15137 13.1634 7.98438 13.0022 7.76465C12.9524 7.69141 12.9524 7.67676 12.8733 7.78223C12.7854 7.97852 12.8616 8.11622 12.885 8.27149C12.9993 8.7754 13.0667 9.23829 13.0989 9.69825C13.1326 10.1761 13.1366 10.6555 13.1106 11.1338C13.1985 11.1367 13.3333 10.9961 13.3831 10.7881Z" fill="white"/>
    <path fill-rule="evenodd" clip-rule="evenodd" d="M17.2149 10.3281C17.0128 9.98828 16.711 9.625 16.629 9.4873C16.3573 9.10793 16.072 8.73855 15.7735 8.37988C15.5245 8.11621 15.8907 8.33593 15.7266 8.13086C15.5889 7.98144 15.5509 7.93164 15.4307 7.84082C15.3721 7.80273 15.337 7.72949 15.3135 7.85547C15.3042 7.96458 15.3022 8.07421 15.3077 8.18359C15.3077 8.2334 15.3604 8.33008 15.4073 8.38867C16.0137 9.13574 16.6788 9.89746 17.212 10.8555C17.2882 10.8174 17.2618 10.3867 17.212 10.3281H17.2149Z" fill="white"/>
    <path fill-rule="evenodd" clip-rule="evenodd" d="M8.09138 9.7041C8.07673 9.73047 8.04451 9.7627 8.05623 9.79492C8.07673 9.82422 8.09724 9.83301 8.1324 9.83301C8.16462 9.83301 8.2115 9.8418 8.22029 9.82422C8.23787 9.80371 8.24959 9.76563 8.23787 9.72754C8.20271 9.63965 8.10896 9.67481 8.09138 9.7041Z" fill="#1BA400"/>
    <path fill-rule="evenodd" clip-rule="evenodd" d="M14.877 14.6201C15.1465 14.6318 15.3223 14.6348 15.5596 14.6611L15.8408 14.6318C16.1514 14.6025 16.1631 15.0742 16.1631 15.0742C16.1631 15.3525 16.0547 15.3672 15.917 15.3965C15.8379 15.4082 15.7998 15.3496 15.7559 15.291C15.6896 15.3123 15.619 15.3163 15.5508 15.3027C15.4365 15.2969 15.3252 15.2969 15.2139 15.2881C15.0967 15.2793 15.0322 15.3027 14.9121 15.291C14.8887 15.3291 14.8535 15.3818 14.7832 15.3672C14.7246 15.3584 14.6514 15.1914 14.6719 15.0596C14.7158 14.9658 14.7012 14.998 14.7012 14.957C13.5996 14.9277 12.4893 14.8779 11.4111 14.8926C10.5674 14.8955 9.73535 14.9307 8.90039 14.9658C8.45508 14.96 8.11523 14.8896 7.88086 14.5469C7.9043 14.5469 9.01758 14.6084 9.34277 14.5879C9.94336 14.582 10.4941 14.5322 11.1064 14.5146C12.3135 14.5352 13.5117 14.5352 14.7187 14.6201C14.6016 14.541 14.6016 14.3564 14.7773 14.3096C14.792 14.2978 14.8008 14.4004 14.8271 14.3975C14.9707 14.3887 14.9062 14.582 14.877 14.6201ZM10.0254 7.96386C9.84375 8.48535 10.1309 9.05957 10.3301 9.0039C10.4766 9.0625 10.5645 8.78711 10.623 8.48828C10.667 8.40332 10.6963 8.39453 10.7168 8.43847C10.7109 8.83691 10.7461 8.92773 10.8486 9.04785C11.0771 9.22363 11.2676 9.07129 11.2822 9.05664L11.458 8.87793C11.499 8.83398 11.5518 8.83398 11.6074 8.86914C11.6631 8.91894 11.6543 9.0039 11.7715 9.0625C11.8711 9.10351 12.0791 9.07422 12.1289 8.98925C12.1934 8.875 12.2109 8.83691 12.2402 8.7959C12.2871 8.73437 12.3662 8.76074 12.3662 8.78125C12.3574 8.8164 12.3105 8.84863 12.3428 8.91308C12.4014 8.9541 12.4131 8.92773 12.4453 8.91894C12.5625 8.86035 12.6504 8.6084 12.6504 8.6084C12.6533 8.51465 12.6006 8.5205 12.5654 8.54394L12.4746 8.60547C12.416 8.61425 12.3076 8.65234 12.252 8.56738C12.1963 8.46777 12.1963 8.32422 12.1553 8.22168C12.1553 8.21582 12.0791 8.06054 12.1494 8.05175C12.1846 8.05761 12.2578 8.07812 12.2695 8.0166C12.3047 7.95508 12.1934 7.78222 12.1143 7.69433C12.0469 7.62109 11.9531 7.6123 11.8623 7.68847C11.7979 7.74707 11.8066 7.81152 11.7949 7.87304C11.7838 7.91713 11.7833 7.96323 11.7935 8.00754C11.8037 8.05186 11.8243 8.09312 11.8535 8.12793C11.918 8.25097 12.0322 8.41211 11.9941 8.64062C11.9941 8.64062 11.9268 8.74609 11.8096 8.73144C11.7598 8.72265 11.6807 8.70215 11.6396 8.38574C11.6074 8.15136 11.6455 7.81738 11.5459 7.66211C11.5078 7.56543 11.4814 7.47461 11.3936 7.63574C11.3701 7.70019 11.2676 7.79687 11.3408 7.99316C11.4101 8.17004 11.4304 8.36236 11.3994 8.5498C11.3555 8.61425 11.3467 8.63476 11.291 8.69629C11.2148 8.78418 11.1299 8.76074 11.0654 8.72851C11.0068 8.69043 10.96 8.66992 10.9307 8.53808C10.9365 8.333 10.9482 7.99609 10.9102 7.92578C10.8545 7.81445 10.7637 7.85547 10.7256 7.89062C10.5513 8.08423 10.4346 8.32269 10.3887 8.5791C10.3359 8.74902 10.2803 8.69922 10.2422 8.63183C10.1484 8.54394 10.1396 7.84961 10.0254 7.96386Z" fill="white"/>
    <path fill-rule="evenodd" clip-rule="evenodd" d="M10.5757 9.10059C10.6607 9.04199 10.6226 9.00098 10.7456 9.12402C10.9045 9.40504 10.9967 9.71876 11.0152 10.041C11.0093 10.1172 11.062 10.1641 11.0884 10.1465C11.1001 9.9707 11.5308 9.72461 11.9263 9.68945C11.9849 9.67481 11.9556 9.56055 11.9644 9.50195C11.941 9.28223 12.0874 9.08301 12.2925 9.06836C12.5738 9.10938 12.6675 9.25879 12.6734 9.48438C12.6411 9.92383 12.1841 9.99707 11.9292 10.0322C11.8911 10.0469 11.8736 10.0645 11.9292 10.085L13.0015 10.0908L13.0572 10.1201C13.063 10.1494 13.0396 10.126 12.9986 10.1963C12.9396 10.2999 12.9027 10.4146 12.8902 10.5332C12.5708 10.6387 12.2398 10.6797 11.9058 10.7236C11.7886 10.7822 11.73 10.8613 11.7535 10.9492C11.7945 11.0459 12.0523 11.1455 12.0523 11.1484C12.1021 11.1777 12.1577 11.251 12.0376 11.4004C11.5161 11.377 11.1089 11.1543 10.9683 10.8408C10.9273 10.8086 10.8804 10.8408 10.8511 10.8818C10.646 11.1455 10.4468 11.3799 10.0982 11.5088C9.8931 11.5615 9.67923 11.4766 9.57962 11.3418C9.51224 11.2627 9.51517 11.1777 9.49173 11.1602C9.37748 11.21 8.41068 11.6201 8.53373 11.4268C8.7681 11.1777 9.17826 10.9902 9.53568 10.7441C9.56205 10.6592 9.60892 10.3779 9.74955 10.2871C9.75833 10.2871 9.72904 10.4512 9.73197 10.5215C9.73197 10.5801 9.72611 10.6006 9.73783 10.5859C9.76419 10.5713 10.1978 10.2285 10.2359 10.123C10.2769 10.0645 10.2447 9.91211 10.2447 9.90625C10.1626 9.69531 10.0484 9.67774 10.0074 9.57227C9.96927 9.43457 9.98685 9.27637 10.066 9.22949C10.1363 9.16797 10.2183 9.17383 10.2974 9.24414C10.3853 9.32324 10.4615 9.47852 10.4849 9.59277C10.4702 9.63672 10.3677 9.56348 10.3384 9.58399C10.3948 9.64879 10.4323 9.72784 10.4468 9.8125C10.5054 10.0527 10.4878 10.1465 10.4292 10.3018C10.2359 10.709 9.98978 10.8291 9.77298 10.9814C9.76712 10.9814 9.76419 11.084 9.8433 11.1396C9.87259 11.1689 9.98685 11.1836 10.1187 11.1396C10.4003 10.9832 10.6281 10.7453 10.772 10.457C10.7969 10.2377 10.7729 10.0156 10.7017 9.80664C10.6167 9.61035 10.5171 9.33203 10.5171 9.32617C10.5142 9.20313 10.523 9.16211 10.5757 9.10059ZM7.76908 7.96973C7.89212 8.02832 8.1265 8.00195 8.11478 7.80274L8.10892 7.71191C8.08548 7.65332 8.01517 7.66797 8.00052 7.72656C7.99466 7.74707 8.00931 7.7793 7.99173 7.78809C7.98001 7.79981 7.94193 7.79395 7.94193 7.73828C7.94193 7.7207 7.93021 7.70313 7.92142 7.69141C7.91556 7.68555 7.9097 7.68555 7.89505 7.68555C7.87748 7.68555 7.87748 7.68848 7.86869 7.70313C7.86576 7.71777 7.8599 7.73242 7.8599 7.75C7.8599 7.77051 7.84818 7.77637 7.83646 7.7793C7.81888 7.7793 7.82181 7.7793 7.80716 7.77344C7.8013 7.76465 7.79251 7.76172 7.79251 7.74414L7.78373 7.69727C7.77787 7.68848 7.76615 7.68262 7.75443 7.67969C7.68705 7.67969 7.68119 7.75879 7.68705 7.78809C7.68119 7.79395 7.67826 7.93164 7.76908 7.96973Z" fill="white"/>
    <path fill-rule="evenodd" clip-rule="evenodd" d="M11.3877 9.49902C11.5108 9.55761 11.8067 9.52539 11.7334 9.33496L11.7276 9.24121C11.7012 9.18261 11.6338 9.19726 11.6192 9.25879C11.6133 9.27636 11.628 9.30859 11.6075 9.31738C11.5987 9.3291 11.5577 9.32324 11.5606 9.27051C11.5606 9.25293 11.5489 9.23242 11.5401 9.2207C11.5313 9.21777 11.5284 9.21484 11.5108 9.21484C11.4961 9.21484 11.4961 9.2207 11.4873 9.23535C11.4815 9.25 11.4786 9.26465 11.4786 9.28222C11.4756 9.2998 11.4668 9.30566 11.4522 9.31152C11.4375 9.31152 11.4405 9.31152 11.4288 9.30273C11.42 9.29394 11.4112 9.29101 11.4112 9.27637L11.4024 9.22949C11.3965 9.2207 11.3848 9.21484 11.3731 9.21191C11.3057 9.21191 11.2998 9.28808 11.3028 9.31738C11.2998 9.32324 11.2969 9.46386 11.3907 9.49902H11.3877ZM13.4971 8.86621C13.6202 8.9248 13.8516 8.89844 13.8428 8.70215L13.837 8.6084C13.8106 8.5498 13.7432 8.56445 13.7286 8.62304C13.7227 8.64355 13.7373 8.67578 13.7168 8.6875C13.7081 8.69629 13.667 8.69043 13.67 8.63476C13.67 8.61719 13.6582 8.59961 13.6495 8.58789C13.6407 8.58203 13.6377 8.58203 13.6202 8.58203C13.6055 8.58203 13.6055 8.58789 13.5967 8.60254L13.5879 8.64648C13.585 8.66699 13.5762 8.67578 13.5616 8.67578C13.5469 8.67578 13.5498 8.67578 13.5381 8.66992C13.5293 8.66113 13.5206 8.6582 13.5206 8.64355C13.5206 8.6289 13.5176 8.60547 13.5118 8.59375C13.5059 8.58496 13.4942 8.58203 13.4825 8.5791C13.4151 8.5791 13.4092 8.65527 13.4122 8.68457C13.4092 8.69043 13.4063 8.82812 13.5 8.86621H13.4971ZM14.5899 10.457C14.376 10.7002 14.4698 11.1016 14.5196 11.1895C14.5899 11.3301 14.6456 11.4209 14.7832 11.4912C14.9092 11.582 15.0088 11.5264 15.0616 11.4619C15.1875 11.3301 15.1905 10.9932 15.2491 10.9287C15.2901 10.8057 15.3956 10.8262 15.4454 10.8818C15.492 10.948 15.5544 11.0014 15.627 11.0371C15.7442 11.1396 15.8848 11.1602 16.0254 11.0664C16.1192 11.0107 16.1807 10.9434 16.2364 10.8057C16.295 10.6416 16.2657 9.87988 16.251 9.42871L16.128 8.79883C16.128 8.79297 16.1133 8.5 16.0987 8.43262C16.0987 8.40332 16.0899 8.39453 16.1192 8.39746C16.1514 8.42676 16.1543 8.42676 16.1778 8.43554C16.2071 8.4414 16.2364 8.38574 16.2159 8.33887L15.9229 7.79394C15.8995 7.77051 15.8672 7.74707 15.8291 7.7998C15.8067 7.82014 15.7888 7.84503 15.7767 7.87281C15.7645 7.90059 15.7585 7.93063 15.7588 7.96094C15.7676 8.08984 15.7881 8.22168 15.7969 8.35058L15.9141 9.01269C15.9522 9.48144 15.961 9.86816 15.9991 10.3398C15.9932 10.5391 15.9317 10.7119 15.8731 10.7383C15.8731 10.7383 15.7852 10.7881 15.7266 10.7324C15.6827 10.7148 15.5098 10.4424 15.5098 10.4424C15.4219 10.3633 15.3633 10.3838 15.3018 10.4424C15.126 10.6123 15.0498 10.9228 14.9297 11.1396C14.9004 11.1895 14.8125 11.2275 14.7188 11.1367C14.4786 10.8057 14.6192 10.3369 14.5899 10.457ZM13.5528 7.71191C13.6641 7.75586 13.7403 7.98144 13.7168 8.09277C13.6934 8.22461 13.6348 8.37109 13.5938 8.35351C13.5469 8.33594 13.6231 8.21875 13.5791 8.0957C13.5557 8.01367 13.4034 7.86719 13.4209 7.82617C13.3916 7.73535 13.4854 7.69433 13.5528 7.70898V7.71191Z" fill="white"/>
    <path fill-rule="evenodd" clip-rule="evenodd" d="M14.9475 10.5918C14.968 10.3223 14.9299 10.1582 14.924 10C14.9182 9.8418 14.7453 8.63477 14.7102 8.51758C14.6662 8.28907 14.8772 8.48828 14.8537 8.35352C14.7805 8.18946 14.6018 7.94629 14.5461 7.80274C14.5109 7.74414 14.5256 7.68555 14.4494 7.78809C14.3838 7.96787 14.3608 8.1604 14.382 8.35059C14.5637 9.29688 14.7482 10.082 14.7189 10.9814C14.8068 10.9814 14.9035 10.7852 14.9475 10.5918ZM16.8342 8.09278C16.9367 8.14258 16.9953 8.42383 16.9836 8.50293C16.9631 8.64942 16.9104 8.80762 16.8723 8.78711C16.8283 8.76953 16.8811 8.57032 16.8605 8.50879C16.8371 8.4209 16.6994 8.2627 16.7141 8.21582C16.6848 8.11621 16.7727 8.0752 16.8342 8.09278ZM9.34297 10.082C9.43965 10.1201 9.49824 10.3252 9.48946 10.3838C9.46602 10.4922 9.41621 10.6094 9.37813 10.5918C9.34004 10.5801 9.38692 10.4336 9.36934 10.3867C9.36055 10.2783 9.22578 10.2197 9.22871 10.1729C9.20528 10.085 9.28731 10.0703 9.3459 10.082H9.34297Z" fill="white"/>
    <path fill-rule="evenodd" clip-rule="evenodd" d="M11.6749 10.3926C11.798 10.3984 11.8595 10.498 11.7452 10.5391C11.6281 10.5771 11.5197 10.6094 11.5167 10.7734C11.5607 11.0078 11.4581 10.9258 11.3995 10.8965C11.3292 10.8438 11.13 10.7207 11.1007 10.457C11.0978 10.3955 11.1476 10.3398 11.2267 10.3398C11.3439 10.3721 11.5197 10.375 11.6749 10.3926Z" fill="#1B9D00"/>
    <path fill-rule="evenodd" clip-rule="evenodd" d="M6.76764 7.64453C6.90827 7.68555 6.91706 7.89648 6.90827 7.95801C6.88776 8.06933 6.83796 8.18945 6.8028 8.1748C6.76178 8.16015 6.8028 8.00781 6.78229 7.96094C6.76178 7.89648 6.64167 7.77344 6.65339 7.73828C6.62702 7.66504 6.71198 7.62988 6.76764 7.64453ZM9.57721 8.6289C9.46589 8.6875 9.42487 8.86328 9.49225 8.96875C9.55671 9.05664 9.65632 9.02441 9.66803 9.02441C9.77643 9.03613 9.84089 8.82226 9.84089 8.82226C9.84089 8.82226 9.84382 8.76367 9.71784 8.87793C9.66217 8.88672 9.65925 8.86621 9.6446 8.83691C9.63118 8.78114 9.63633 8.72251 9.65925 8.66992C9.67975 8.61719 9.63874 8.59375 9.57721 8.6289ZM10.3975 7.5625C10.3389 7.60058 10.2305 7.71484 10.2276 7.84375C10.2247 7.91699 10.21 7.91699 10.2569 7.96094C10.295 8.01367 10.3272 8.01074 10.3975 7.97265C10.415 7.96163 10.4301 7.94708 10.4417 7.92993C10.4533 7.91278 10.4612 7.89341 10.4649 7.87305C10.4825 7.79101 10.377 7.91406 10.3653 7.82031C10.3419 7.73242 10.4092 7.69726 10.4737 7.61523C10.4737 7.55664 10.4737 7.51855 10.3946 7.5625H10.3975ZM11.0538 7.67969C11.0279 7.78637 11.0123 7.89525 11.0069 8.00488C10.9893 8.08691 11.0948 8.12207 11.1387 8.0166C11.2091 7.82617 11.209 7.74414 11.2149 7.66504C11.1944 7.53906 11.1094 7.54199 11.0538 7.67969ZM15.2139 9.79785C15.2257 9.7832 15.7999 9.37598 15.7999 9.37598C15.8585 9.35547 15.8438 9.58691 15.8174 9.58398C15.6394 9.75561 15.4345 9.89711 15.211 10.0029C15.1817 10.0234 15.1553 9.84765 15.211 9.79785H15.2139ZM15.7325 9.79199C15.835 9.8418 15.876 10.1377 15.8643 10.2168C15.8643 10.375 15.7676 10.498 15.7266 10.4805C15.6856 10.46 15.7325 10.2842 15.712 10.2227C15.6885 10.1348 15.6036 9.97363 15.6182 9.92676C15.5889 9.82715 15.671 9.77441 15.7354 9.79199H15.7325ZM12.334 11.0635C12.3816 11.008 12.4368 10.9597 12.4981 10.9199C12.5567 10.8906 12.6094 10.9434 12.6065 10.9404C12.6153 10.999 12.5714 11.0488 12.586 11.125C12.5977 11.1543 12.6065 11.1895 12.6622 11.1777C12.753 11.1045 12.838 11.0986 12.9258 11.0957C12.9991 11.0986 13.002 11.2187 12.9551 11.2187C12.7882 11.2539 12.7149 11.3008 12.5948 11.3447C12.5362 11.3799 12.4893 11.3359 12.4893 11.333C12.4893 11.3301 12.4571 11.3008 12.4776 11.2246C12.4835 11.166 12.46 11.1309 12.4073 11.1367C12.3721 11.1602 12.337 11.1719 12.3194 11.1279C12.3106 11.0986 12.3077 11.0811 12.334 11.0635ZM16.336 11.2217C16.3594 11.251 16.377 11.2803 16.3331 11.333L16.2247 11.4268C16.2071 11.4561 16.1954 11.5088 16.254 11.5234C16.3594 11.5527 16.6055 11.3916 16.6055 11.3887C16.6465 11.3594 16.6348 11.3008 16.629 11.3008C16.6055 11.2744 16.5528 11.292 16.5176 11.2861C16.5001 11.2861 16.4444 11.2803 16.4708 11.2275C16.4904 11.2016 16.5062 11.173 16.5176 11.1426C16.5323 11.1074 16.5176 11.084 16.459 11.0635C16.3975 11.0518 16.3712 11.0576 16.3038 11.0635C16.2686 11.0693 16.2569 11.0869 16.2481 11.1309C16.251 11.1982 16.2921 11.1953 16.336 11.2187V11.2217Z" fill="white"/>
    <path fill-rule="evenodd" clip-rule="evenodd" d="M12.3547 9.55761C12.3401 9.58691 12.2873 9.58691 12.2375 9.55761C12.1877 9.52832 12.1584 9.48144 12.176 9.45508C12.1936 9.42871 12.2434 9.42871 12.2932 9.45508C12.343 9.48144 12.3694 9.53125 12.3547 9.55761ZM9.7473 7.9873C9.718 7.99609 9.67699 7.96972 9.65941 7.92871C9.64183 7.88769 9.65062 7.85254 9.67992 7.84375C9.70921 7.83496 9.7473 7.86426 9.76781 7.90234C9.78832 7.94043 9.7766 7.98144 9.74437 7.99023L9.7473 7.9873Z" fill="#259F00"/>
    <path fill-rule="evenodd" clip-rule="evenodd" d="M14.9059 14.9863C15.1813 14.998 15.4391 14.9863 15.7116 15.001C15.7614 15.0449 15.7262 15.1475 15.694 15.1416L15.4655 15.1328C15.4625 15.0449 15.2399 15.0596 15.2457 15.1357C15.1256 15.1504 15.0172 15.1328 14.8942 15.127C14.859 15.083 14.8649 15.0039 14.9059 14.9863Z" fill="#209000"/>
</g>
</svg>
