<svg data-token-name="flag_pt" width="24" height="24" viewBox="0 0 24 24" fill="none" xmlns="http://www.w3.org/2000/svg">
<path d="M10 4H22V19H10V4Z" fill="#FF0000"/>
<path d="M2 4H10V19H2V4Z" fill="#006600"/>
<path fill-rule="evenodd" clip-rule="evenodd" d="M12.6104 13.4042C11.601 13.372 6.98535 10.4034 6.9541 9.9269L7.20723 9.49224C7.6666 10.178 12.3854 13.0661 12.851 12.9631L12.6104 13.4042Z" fill="#FFFF00" stroke="black" stroke-width="0.136364" stroke-linecap="round" stroke-linejoin="round"/>
<path fill-rule="evenodd" clip-rule="evenodd" d="M7.15248 9.43106C7.06186 9.6822 8.35873 10.5064 9.91498 11.4852C11.4744 12.4608 12.8181 13.0629 12.915 12.9792L12.9619 12.889C12.9431 12.9212 12.8994 12.9309 12.8275 12.9083C12.4056 12.7828 11.3087 12.2644 9.94936 11.4144C8.58686 10.5644 7.40561 9.78201 7.22124 9.45038C7.20686 9.41929 7.20041 9.38494 7.20249 9.35057H7.19624L7.15874 9.4214L7.15248 9.43106ZM12.6306 13.417C12.615 13.4492 12.5806 13.4492 12.5212 13.4428C12.1462 13.4009 11.0025 12.8278 9.64936 11.9939C8.07436 11.0216 6.77436 10.1394 6.91811 9.90758L6.95561 9.83674L6.96186 9.83996C6.83686 10.2328 9.52748 11.8169 9.68686 11.9199C11.2431 12.9116 12.5556 13.4943 12.6712 13.343L12.6306 13.417Z" fill="#FFFF00" stroke="black" stroke-width="0.136364" stroke-linecap="round" stroke-linejoin="round"/>
<path fill-rule="evenodd" clip-rule="evenodd" d="M10.0066 10.2167C11.0129 10.207 12.2566 10.075 12.9754 9.77879L12.8191 9.52121C12.3973 9.76269 11.1473 9.92367 9.99727 9.94621C8.64102 9.93333 7.68164 9.80132 7.20039 9.4697L7.05664 9.74659C7.93789 10.133 8.84414 10.2134 10.0066 10.2167Z" fill="#FFFF00"/>
<path d="M10.0066 10.2167C11.0129 10.207 12.2566 10.075 12.9754 9.77879L12.8191 9.52121C12.3973 9.76269 11.1473 9.92367 9.99727 9.94621C8.64102 9.93333 7.68164 9.80132 7.20039 9.4697L7.05664 9.74659C7.93789 10.133 8.84414 10.2134 10.0066 10.2167" stroke="black" stroke-width="0.136364" stroke-linecap="round" stroke-linejoin="round"/>
<path fill-rule="evenodd" clip-rule="evenodd" d="M13.0152 9.78523C12.9902 9.82708 12.5215 9.99129 11.834 10.1136C11.2279 10.2083 10.6157 10.2545 10.0027 10.2521C9.41545 10.2544 8.82869 10.2156 8.24648 10.1362C7.52461 10.0203 7.15273 9.85928 7.01211 9.80133L7.04648 9.73049C7.44336 9.89148 7.81836 9.98807 8.25586 10.0589C8.83382 10.1393 9.41641 10.1791 9.99961 10.178C10.6094 10.1787 11.2184 10.1324 11.8215 10.0396C12.5246 9.92045 12.909 9.76913 12.9652 9.70151L13.0152 9.78845V9.78523ZM12.8777 9.52443C12.8027 9.58883 12.4215 9.72727 11.7527 9.83674C11.1752 9.92282 10.5925 9.96586 10.009 9.96553C9.32148 9.96553 8.75586 9.91401 8.32773 9.84962C7.64648 9.75947 7.28398 9.59204 7.15273 9.54697L7.19336 9.47614C7.29648 9.53087 7.64336 9.67576 8.33398 9.77557C8.88916 9.85219 9.44886 9.88876 10.009 9.88504C10.5883 9.88522 11.1669 9.84218 11.7402 9.75625C12.4121 9.65966 12.7746 9.4858 12.8309 9.44072L12.8777 9.52443ZM6.69648 11.4659C7.31523 11.8104 8.69336 11.9811 9.99648 11.9939C11.184 11.9972 12.7277 11.8072 13.3059 11.4917L13.2902 11.1472C13.109 11.4369 11.4527 11.717 9.98398 11.7074C8.51523 11.6945 7.14961 11.4627 6.69336 11.16V11.4659" fill="#FFFF00"/>
<path d="M6.69648 11.4659C7.31523 11.8104 8.69336 11.9811 9.99648 11.9939C11.184 11.9972 12.7277 11.8072 13.3059 11.4917L13.2902 11.1472C13.109 11.4369 11.4527 11.717 9.98398 11.7074C8.51523 11.6945 7.14961 11.4627 6.69336 11.16V11.4659M13.0152 9.78523C12.9902 9.82708 12.5215 9.99129 11.834 10.1136C11.2279 10.2083 10.6157 10.2545 10.0027 10.2521C9.41545 10.2544 8.82869 10.2156 8.24648 10.1362C7.52461 10.0203 7.15273 9.85928 7.01211 9.80133L7.04648 9.73049C7.44336 9.89148 7.81836 9.98807 8.25586 10.0589C8.83381 10.1393 9.41641 10.1791 9.99961 10.178C10.6094 10.1787 11.2184 10.1324 11.8215 10.0396C12.5246 9.92045 12.909 9.76913 12.9652 9.70151L13.0152 9.78845V9.78523ZM12.8777 9.52443C12.8027 9.58883 12.4215 9.72727 11.7527 9.83674C11.1752 9.92282 10.5925 9.96586 10.009 9.96553C9.32148 9.96553 8.75586 9.91401 8.32773 9.84962C7.64648 9.75947 7.28398 9.59204 7.15273 9.54697L7.19336 9.47614C7.29648 9.53087 7.64336 9.67576 8.33398 9.77557C8.88916 9.85219 9.44886 9.88876 10.009 9.88504C10.5883 9.88522 11.1669 9.84218 11.7402 9.75625C12.4121 9.65966 12.7746 9.4858 12.8309 9.44072L12.8777 9.52443V9.52443Z" stroke="black" stroke-width="0.136364" stroke-linecap="round" stroke-linejoin="round"/>
<path fill-rule="evenodd" clip-rule="evenodd" d="M13.3375 11.4176V11.4981C13.25 11.6076 12.7062 11.7686 12.025 11.8845C11.3482 11.9847 10.665 12.0321 9.98125 12.0261C9.33291 12.0318 8.68512 11.9855 8.04375 11.8877C7.56517 11.8307 7.09753 11.7005 6.65625 11.5013V11.408C6.95937 11.614 7.77812 11.7686 8.05312 11.8136C8.54687 11.8909 9.18125 11.9489 9.98125 11.9489C10.8219 11.9489 11.4937 11.8877 12.0125 11.8072C12.5031 11.7331 13.2 11.5432 13.3375 11.4176ZM13.3375 11.1278V11.2083C13.25 11.3146 12.7062 11.4756 12.025 11.5915C11.3483 11.6928 10.6651 11.7412 9.98125 11.7364C9.33296 11.7403 8.6853 11.694 8.04375 11.5979C7.56517 11.5409 7.09753 11.4107 6.65625 11.2116V11.115C6.95937 11.3242 7.78125 11.4756 8.05312 11.5206C8.69151 11.617 9.33607 11.6633 9.98125 11.6591C10.8219 11.6591 11.4969 11.5947 12.0125 11.5142C12.5031 11.4434 13.2 11.2534 13.3375 11.1278ZM9.99375 13.343C8.56875 13.3366 7.34688 12.9438 7.0875 12.8794L7.275 13.182C8.15153 13.5019 9.07648 13.6578 10.0063 13.6424C11.0906 13.6102 12.0375 13.5233 12.7031 13.1885L12.8969 12.8729C12.4438 13.0951 10.8969 13.343 9.99062 13.343" fill="#FFFF00"/>
<path d="M9.99375 13.343C8.56875 13.3366 7.34688 12.9438 7.0875 12.8794L7.275 13.182C8.15153 13.5019 9.07648 13.6578 10.0063 13.6424C11.0906 13.6102 12.0375 13.5233 12.7031 13.1885L12.8969 12.8729C12.4438 13.0951 10.8969 13.343 9.99062 13.343M13.3375 11.4176V11.4981C13.25 11.6076 12.7062 11.7686 12.025 11.8845C11.3482 11.9847 10.665 12.0321 9.98125 12.0261C9.33291 12.0318 8.68512 11.9855 8.04375 11.8877C7.56517 11.8307 7.09753 11.7005 6.65625 11.5013V11.408C6.95937 11.614 7.77812 11.7686 8.05312 11.8136C8.54687 11.8909 9.18125 11.9489 9.98125 11.9489C10.8219 11.9489 11.4937 11.8877 12.0125 11.8072C12.5031 11.7331 13.2 11.5432 13.3375 11.4176V11.4176ZM13.3375 11.1278V11.2083C13.25 11.3146 12.7062 11.4756 12.025 11.5915C11.3483 11.6928 10.6651 11.7412 9.98125 11.7364C9.33296 11.7403 8.6853 11.694 8.04375 11.5979C7.56517 11.5409 7.09753 11.4107 6.65625 11.2116V11.115C6.95937 11.3242 7.78125 11.4756 8.05312 11.5206C8.69151 11.617 9.33607 11.6633 9.98125 11.6591C10.8219 11.6591 11.4969 11.5947 12.0125 11.5142C12.5031 11.4434 13.2 11.2534 13.3375 11.1278V11.1278Z" stroke="black" stroke-width="0.136364" stroke-linecap="round" stroke-linejoin="round"/>
<path fill-rule="evenodd" clip-rule="evenodd" d="M12.7791 13.1176C12.7506 13.1611 12.7215 13.204 12.6916 13.2464C12.3791 13.3623 11.8791 13.4847 11.6729 13.5169C11.1194 13.6231 10.5577 13.677 9.99473 13.6778C8.73223 13.6585 7.69785 13.4042 7.21348 13.1852L7.17285 13.1176L7.1791 13.1047L7.24473 13.1337C8.13411 13.4369 9.06418 13.5945 10.001 13.6006C10.5885 13.6006 11.1729 13.533 11.6447 13.446C12.3697 13.2947 12.6635 13.182 12.7541 13.1305L12.776 13.1176H12.7791ZM12.9447 12.8343C12.9242 12.872 12.9033 12.9096 12.8822 12.947C12.7135 13.0114 12.2572 13.1466 11.5916 13.2432C11.1541 13.3044 10.8822 13.3655 10.0104 13.3816C9.01367 13.3713 8.02312 13.2196 7.0666 12.9309L7.03223 12.8504C8.00405 13.1271 9.00546 13.2785 10.0135 13.3011C10.8104 13.285 11.151 13.2239 11.5854 13.1627C12.3604 13.0403 12.751 12.9051 12.8666 12.8697C12.8667 12.8675 12.8667 12.8654 12.8666 12.8633L12.9479 12.8311L12.9447 12.8343Z" fill="#FFFF00" stroke="black" stroke-width="0.136364" stroke-linecap="round" stroke-linejoin="round"/>
<path fill-rule="evenodd" clip-rule="evenodd" d="M12.9621 11.1955C12.9652 12.1614 12.484 13.0307 12.0996 13.4106C11.5319 13.9811 10.7738 14.306 9.98086 14.3186C9.03399 14.3347 8.14336 13.7004 7.90274 13.4203C7.36444 12.8321 7.05806 12.0585 7.04336 11.2502C7.09961 10.1941 7.50274 9.46004 8.08399 8.95455C8.64863 8.47564 9.35892 8.21688 10.0902 8.22368C10.5172 8.245 10.935 8.35797 11.3171 8.55536C11.6992 8.75274 12.037 9.03017 12.309 9.36989C12.6996 9.85928 12.8715 10.3905 12.9621 11.1955ZM9.98711 7.89205C10.8613 7.89202 11.7001 8.24805 12.3206 8.88253C12.9411 9.51701 13.293 10.3785 13.2996 11.2792C13.2996 11.7261 13.2142 12.1686 13.0482 12.5815C12.8822 12.9944 12.6389 13.3696 12.3322 13.6856C12.0254 14.0016 11.6613 14.2523 11.2605 14.4233C10.8598 14.5944 10.4303 14.6824 9.99649 14.6824C9.56272 14.6824 9.13319 14.5944 8.73244 14.4233C8.33168 14.2523 7.96755 14.0016 7.66083 13.6856C7.3541 13.3696 7.1108 12.9944 6.9448 12.5815C6.7788 12.1686 6.69336 11.7261 6.69336 11.2792C6.69024 9.41174 8.17149 7.89205 9.98711 7.89205Z" fill="#FFFF00"/>
<path d="M9.98711 7.89205C10.8613 7.89202 11.7001 8.24805 12.3206 8.88253C12.9411 9.51701 13.293 10.3785 13.2996 11.2792C13.2996 11.7261 13.2142 12.1686 13.0482 12.5815C12.8822 12.9944 12.6389 13.3696 12.3322 13.6856C12.0254 14.0016 11.6613 14.2523 11.2605 14.4233C10.8598 14.5944 10.4303 14.6824 9.99649 14.6824C9.56272 14.6824 9.13319 14.5944 8.73244 14.4233C8.33168 14.2523 7.96755 14.0016 7.66083 13.6856C7.3541 13.3696 7.1108 12.9944 6.9448 12.5815C6.7788 12.1686 6.69336 11.7261 6.69336 11.2792C6.69024 9.41174 8.17149 7.89205 9.98711 7.89205M12.9621 11.1955C12.9652 12.1614 12.484 13.0307 12.0996 13.4106C11.5319 13.9811 10.7738 14.306 9.98086 14.3186C9.03399 14.3347 8.14336 13.7004 7.90274 13.4203C7.36444 12.8321 7.05806 12.0585 7.04336 11.2502C7.09961 10.1941 7.50274 9.46004 8.08399 8.95455C8.64863 8.47564 9.35892 8.21688 10.0902 8.22368C10.5172 8.245 10.935 8.35797 11.3171 8.55536C11.6992 8.75274 12.037 9.03017 12.309 9.36989C12.6996 9.85928 12.8715 10.3905 12.9621 11.1955V11.1955Z" stroke="black" stroke-width="0.136364" stroke-linecap="round" stroke-linejoin="round"/>
<path fill-rule="evenodd" clip-rule="evenodd" d="M9.99707 7.87595C11.8158 7.87595 13.2971 9.40208 13.2971 11.2759C13.2971 13.1498 11.8158 14.6759 10.0002 14.6759C8.18457 14.6759 6.7002 13.1498 6.7002 11.2759C6.7002 9.40208 8.18145 7.87595 10.0002 7.87595H9.99707ZM6.76895 11.2727C6.76895 13.1015 8.22832 14.5987 9.99707 14.5987C11.7658 14.5987 13.2252 13.1015 13.2252 11.2727C13.2252 9.44394 11.7658 7.94678 9.99707 7.94678C8.22832 7.94678 6.76895 9.44394 6.76895 11.2727Z" fill="#FFFF00" stroke="black" stroke-width="0.136364" stroke-linecap="round" stroke-linejoin="round"/>
<path fill-rule="evenodd" clip-rule="evenodd" d="M10.0004 8.15928C10.8011 8.16183 11.5683 8.49067 12.1344 9.074C12.7006 9.65734 13.0198 10.4478 13.0223 11.2727C13.0198 12.098 12.7007 12.8888 12.1346 13.4726C11.5686 14.0564 10.8014 14.386 10.0004 14.3894C8.34414 14.3894 6.97852 12.9856 6.97852 11.2727C6.98181 10.448 7.30124 9.65809 7.86724 9.07494C8.43324 8.49178 9.19995 8.16267 10.0004 8.15928ZM7.05039 11.2727C7.05039 12.947 8.38164 14.3121 10.0004 14.3121C11.6191 14.3121 12.9504 12.9438 12.9504 11.2727C12.9504 9.59849 11.6191 8.23334 10.0004 8.23334C9.21902 8.23673 8.47058 8.55803 7.91806 9.1273C7.36554 9.69656 7.05368 10.4677 7.05039 11.2727Z" fill="#FFFF00" stroke="black" stroke-width="0.136364" stroke-linecap="round" stroke-linejoin="round"/>
<path fill-rule="evenodd" clip-rule="evenodd" d="M10.134 7.85985H9.84961V14.6953H10.1309L10.134 7.85985Z" fill="#FFFF00" stroke="black" stroke-width="0.136364" stroke-linecap="round" stroke-linejoin="round"/>
<path fill-rule="evenodd" clip-rule="evenodd" d="M10.1035 7.82121H10.1754V14.7339H10.1066V7.82121H10.1035ZM9.82227 7.82121H9.89727V14.7339H9.82539V7.82121H9.82227Z" fill="#FFFF00" stroke="black" stroke-width="0.136364" stroke-linecap="round" stroke-linejoin="round"/>
<path fill-rule="evenodd" clip-rule="evenodd" d="M13.2992 11.408V11.1568L13.0992 10.9636L11.9648 10.6545L10.3336 10.4839L8.36484 10.5869L6.96484 10.9282L6.68359 11.1439V11.3983L7.39922 11.0667L9.09922 10.793H10.7336L11.9336 10.9282L12.7648 11.1343L13.2992 11.408Z" fill="#FFFF00" stroke="black" stroke-width="0.136364" stroke-linecap="round" stroke-linejoin="round"/>
<path fill-rule="evenodd" clip-rule="evenodd" d="M10 10.7511C10.7781 10.7511 11.5312 10.8252 12.1344 10.9443C12.7531 11.0731 13.1875 11.2341 13.3375 11.4112V11.5013C13.1562 11.276 12.5719 11.115 12.1187 11.0184C11.525 10.9025 10.775 10.8252 9.99687 10.8252C9.18125 10.8252 8.41875 10.9089 7.83125 11.0248C7.3625 11.1214 6.73438 11.3146 6.65625 11.5013V11.408C6.69687 11.2792 7.16563 11.086 7.82188 10.9475C8.4125 10.8284 9.175 10.7511 9.99687 10.7511H10ZM10 10.4581C10.7156 10.4567 11.43 10.5213 12.1344 10.6513C12.7531 10.7801 13.1875 10.9411 13.3375 11.1214V11.2083C13.1562 10.9862 12.5719 10.822 12.1187 10.7286C11.525 10.6095 10.775 10.5354 9.99687 10.5354C9.27161 10.5331 8.54768 10.5999 7.83437 10.735C7.38125 10.822 6.72812 11.0216 6.65625 11.2083V11.1182C6.7 10.9894 7.175 10.7866 7.82188 10.6578C8.41563 10.5386 9.175 10.4581 10 10.4581ZM9.98125 8.97065C11.2094 8.96421 12.2813 9.14773 12.7719 9.40531L12.95 9.72728C12.525 9.48902 11.3688 9.24432 9.98438 9.27652C8.85625 9.28618 7.65 9.40531 7.04688 9.74015L7.25938 9.37311C7.75625 9.10587 8.925 8.97065 9.98125 8.97065Z" fill="#FFFF00"/>
<path d="M9.98125 8.97065C11.2094 8.96421 12.2813 9.14773 12.7719 9.40531L12.95 9.72728C12.525 9.48902 11.3687 9.24432 9.98438 9.27652C8.85625 9.28618 7.65 9.40531 7.04688 9.74015L7.25938 9.37311C7.75625 9.10587 8.925 8.97065 9.98125 8.97065M10 10.7511C10.7781 10.7511 11.5312 10.8252 12.1344 10.9443C12.7531 11.0731 13.1875 11.2341 13.3375 11.4112V11.5013C13.1562 11.276 12.5719 11.115 12.1187 11.0184C11.525 10.9025 10.775 10.8252 9.99687 10.8252C9.18125 10.8252 8.41875 10.9089 7.83125 11.0248C7.3625 11.1214 6.73438 11.3146 6.65625 11.5013V11.408C6.69687 11.2792 7.16563 11.086 7.82188 10.9475C8.4125 10.8284 9.175 10.7511 9.99687 10.7511H10ZM10 10.4581C10.7156 10.4567 11.43 10.5213 12.1344 10.6513C12.7531 10.7801 13.1875 10.9411 13.3375 11.1214V11.2083C13.1562 10.9862 12.5719 10.822 12.1187 10.7286C11.525 10.6095 10.775 10.5354 9.99687 10.5354C9.27161 10.5331 8.54768 10.5999 7.83437 10.735C7.38125 10.822 6.72812 11.0216 6.65625 11.2083V11.1182C6.7 10.9894 7.175 10.7866 7.82188 10.6578C8.41563 10.5386 9.175 10.4581 10 10.4581V10.4581Z" stroke="black" stroke-width="0.136364" stroke-linecap="round" stroke-linejoin="round"/>
<path fill-rule="evenodd" clip-rule="evenodd" d="M9.99941 9.23466C10.6406 9.22351 11.2816 9.26984 11.915 9.37311C12.415 9.4697 12.8932 9.61137 12.9619 9.68864L13.015 9.78523C12.8494 9.67576 12.4338 9.55019 11.9025 9.44716C11.3713 9.34413 10.6932 9.30871 9.99629 9.31193C9.20566 9.30871 8.59004 9.35057 8.06504 9.44716C7.70313 9.49942 7.35176 9.6114 7.02441 9.77879L7.07754 9.67898C7.26504 9.58239 7.55566 9.46326 8.04941 9.36989C8.59629 9.26686 9.21816 9.23788 9.99941 9.23466ZM9.99941 8.94489C10.6682 8.93845 11.3307 8.97709 11.8463 9.07368C12.1804 9.12478 12.5037 9.23363 12.8025 9.39565L12.8807 9.52443C12.7494 9.37311 12.2557 9.22822 11.815 9.15095C11.3025 9.05758 10.6682 9.02216 9.99941 9.01572C9.37689 9.01 8.75498 9.05739 8.14004 9.15739C7.8185 9.20355 7.50621 9.30247 7.21504 9.45038L7.28379 9.34413C7.46504 9.24754 7.75879 9.15739 8.12754 9.08334C8.74653 8.98202 9.3727 8.93463 9.99941 8.94167V8.94489ZM11.6369 12.6894C11.0953 12.5928 10.5459 12.5497 9.99629 12.5606C7.94941 12.5864 7.29004 12.9953 7.20879 13.1176L7.05254 12.86C7.57754 12.4737 8.69004 12.2547 10.0088 12.2741C10.6932 12.2869 11.2838 12.3352 11.7775 12.435L11.6369 12.6926" fill="#FFFF00"/>
<path d="M11.6369 12.6894C11.0953 12.5928 10.5459 12.5497 9.99629 12.5606C7.94941 12.5864 7.29004 12.9953 7.20879 13.1176L7.05254 12.86C7.57754 12.4737 8.69004 12.2547 10.0088 12.2741C10.6932 12.2869 11.2838 12.3352 11.7775 12.435L11.6369 12.6926M9.99941 9.23466C10.6406 9.22351 11.2816 9.26984 11.915 9.37311C12.415 9.4697 12.8932 9.61137 12.9619 9.68864L13.015 9.78523C12.8494 9.67576 12.4338 9.55019 11.9025 9.44716C11.3713 9.34413 10.6932 9.30871 9.99629 9.31193C9.20566 9.30871 8.59004 9.35057 8.06504 9.44716C7.70313 9.49942 7.35176 9.6114 7.02441 9.77879L7.07754 9.67898C7.26504 9.58239 7.55566 9.46326 8.04941 9.36989C8.59629 9.26686 9.21816 9.23788 9.99941 9.23466V9.23466ZM9.99941 8.94489C10.6682 8.93845 11.3307 8.97709 11.8463 9.07368C12.1804 9.12478 12.5037 9.23363 12.8025 9.39565L12.8807 9.52443C12.7494 9.37311 12.2557 9.22822 11.815 9.15095C11.3025 9.05758 10.6682 9.02216 9.99941 9.01572C9.37689 9.01 8.75498 9.05739 8.14004 9.15739C7.8185 9.20355 7.50621 9.30247 7.21504 9.45038L7.28379 9.34413C7.46504 9.24754 7.75879 9.15739 8.12754 9.08334C8.74653 8.98202 9.3727 8.93463 9.99941 8.94167V8.94489Z" stroke="black" stroke-width="0.136364" stroke-linecap="round" stroke-linejoin="round"/>
<path fill-rule="evenodd" clip-rule="evenodd" d="M9.98672 12.5252C10.5555 12.5349 11.1117 12.5574 11.6523 12.6604L11.6148 12.7313C11.1148 12.6347 10.5773 12.6025 9.98984 12.6025C9.23047 12.596 8.46797 12.6701 7.80234 12.8665C7.59297 12.9277 7.24609 13.0661 7.20859 13.182L7.17109 13.1176C7.18359 13.0468 7.38984 12.9051 7.78359 12.7956C8.54609 12.5703 9.25859 12.5284 9.98672 12.5252ZM10.0117 12.229C10.612 12.2283 11.2112 12.2822 11.8023 12.39L11.7617 12.464C11.1845 12.3549 10.5986 12.3021 10.0117 12.3063C9.25547 12.3063 8.45234 12.3642 7.72109 12.5831C7.48672 12.654 7.07734 12.8085 7.06484 12.9277L7.02734 12.8568C7.03359 12.7474 7.38672 12.6025 7.70547 12.5091C8.43984 12.2869 9.24609 12.2322 10.0117 12.229Z" fill="#FFFF00" stroke="black" stroke-width="0.136364" stroke-linecap="round" stroke-linejoin="round"/>
<path fill-rule="evenodd" clip-rule="evenodd" d="M12.9182 12.8987L12.6744 13.2947L11.965 12.6475L10.1338 11.3758L8.06504 10.207L6.99316 9.83031L7.22129 9.39243L7.29941 9.35057L7.96504 9.52121L10.165 10.69L11.4338 11.5142L12.4994 12.303L12.9338 12.8182L12.9182 12.8987Z" fill="#FFFF00" stroke="black" stroke-width="0.136364" stroke-linecap="round" stroke-linejoin="round"/>
<path fill-rule="evenodd" clip-rule="evenodd" d="M6.95566 9.83996C7.14316 9.71117 8.52441 10.3422 9.97441 11.2438C11.415 12.1453 12.7963 13.1627 12.6713 13.3527L12.6307 13.4203L12.6119 13.4364C12.615 13.4331 12.6369 13.4042 12.6119 13.3366C12.5494 13.1273 11.5682 12.3223 9.94629 11.3114C8.36191 10.3422 7.04316 9.75625 6.91504 9.92368L6.95566 9.83996ZM12.9682 12.8955C13.0869 12.6508 11.8057 11.6559 10.215 10.6867C8.59004 9.73693 7.41504 9.17671 7.19941 9.34413L7.15566 9.4375C7.15566 9.44072 7.15566 9.43106 7.16816 9.4214C7.20566 9.38921 7.27129 9.38921 7.29941 9.38921C7.66816 9.39564 8.72129 9.8947 10.1994 10.7672C10.8494 11.1536 12.9369 12.5381 12.9275 12.9244C12.9275 12.9566 12.9307 12.9631 12.9182 12.9824L12.9713 12.8987L12.9682 12.8955Z" fill="#FFFF00" stroke="black" stroke-width="0.136364" stroke-linecap="round" stroke-linejoin="round"/>
<path d="M8.02051 11.6516C8.021 11.9182 8.07281 12.182 8.17294 12.4279C8.27307 12.6737 8.41953 12.8966 8.60384 13.0837C8.78591 13.2742 9.00275 13.4257 9.24189 13.5294C9.48102 13.6331 9.73771 13.6871 9.99718 13.6882C10.5223 13.6881 11.0259 13.4732 11.3972 13.0906C11.5808 12.9024 11.7266 12.6788 11.8262 12.4324C11.9257 12.1861 11.977 11.9219 11.9772 11.655V8.93503L8.02051 8.92816V11.6516Z" fill="white" stroke="black" stroke-width="0.169697"/>
<path d="M8.0918 11.655C8.0925 11.9108 8.14235 12.1638 8.23846 12.3996C8.33458 12.6354 8.47506 12.8492 8.6518 13.0288C9.00669 13.3963 9.4886 13.6038 9.9918 13.6057C10.4941 13.606 10.976 13.401 11.3318 13.0356C11.5079 12.8558 11.6478 12.6418 11.7433 12.4061C11.8389 12.1703 11.8882 11.9174 11.8885 11.6619V9.01745H8.09846V11.655H8.0918ZM11.1318 9.81079V11.4902L11.1285 11.6653C11.1296 11.8188 11.1007 11.9708 11.0434 12.1125C10.9861 12.2541 10.9017 12.3824 10.7951 12.4896C10.5832 12.7087 10.2954 12.8323 9.99514 12.833C9.6818 12.833 9.40513 12.6956 9.19847 12.4827C8.98576 12.2643 8.86587 11.9679 8.86513 11.6585V9.80392L11.1318 9.81079Z" fill="#FF0000" stroke="black" stroke-width="0.121212"/>
<path d="M8.33984 9.70775C8.34318 9.51887 8.47318 9.47422 8.47318 9.47422C8.47651 9.47422 8.61651 9.5223 8.61651 9.71119H8.33984" fill="#FFFF00"/>
<path d="M8.22619 9.47765L8.20285 9.69402H8.34285C8.34285 9.51543 8.47619 9.48796 8.47619 9.48796C8.47952 9.48796 8.60952 9.52574 8.61285 9.69402H8.75285L8.72619 9.47422H8.22619V9.47765ZM8.19285 9.69745H8.75952C8.76952 9.69745 8.77952 9.70776 8.77952 9.72149C8.77952 9.73867 8.76952 9.74897 8.75952 9.74897H8.19285C8.18285 9.74897 8.17285 9.73867 8.17285 9.72149C8.17285 9.70776 8.18285 9.69745 8.19618 9.69745H8.19285Z" fill="#FFFF00" stroke="black" stroke-width="0.121212"/>
<path d="M8.40083 9.69402C8.40083 9.58068 8.4775 9.54978 8.4775 9.54978C8.4775 9.54978 8.55417 9.58412 8.55417 9.69402H8.40083ZM8.2075 9.38493H8.75083C8.76083 9.38493 8.77083 9.39866 8.77083 9.4124C8.77083 9.4227 8.76083 9.43301 8.75083 9.43301H8.2075C8.1975 9.43301 8.1875 9.4227 8.1875 9.40897C8.1875 9.39866 8.1975 9.38836 8.2075 9.38836V9.38493ZM8.22083 9.43644H8.73417C8.74417 9.43644 8.75417 9.44674 8.75417 9.46048C8.75417 9.47422 8.74417 9.48452 8.73417 9.48452H8.2175C8.20417 9.48452 8.1975 9.47422 8.1975 9.46048C8.1975 9.44674 8.20417 9.43644 8.2175 9.43644H8.22083ZM8.3875 9.0724H8.4275V9.09987H8.4575V9.0724H8.50083V9.10331H8.53083V9.06897H8.57083V9.13765C8.57083 9.15139 8.56417 9.15826 8.55417 9.15826H8.4075C8.3975 9.15826 8.3875 9.15139 8.3875 9.14109V9.0724ZM8.54083 9.16513L8.55083 9.38493H8.4075L8.4175 9.16169H8.54083" fill="#FFFF00"/>
<path d="M8.54083 9.16513L8.55083 9.38493H8.4075L8.4175 9.16169H8.54083M8.40083 9.69402C8.40083 9.58068 8.4775 9.54978 8.4775 9.54978C8.4775 9.54978 8.55417 9.58412 8.55417 9.69402H8.40083ZM8.2075 9.38493H8.75083C8.76083 9.38493 8.77083 9.39866 8.77083 9.4124C8.77083 9.4227 8.76083 9.43301 8.75083 9.43301H8.2075C8.1975 9.43301 8.1875 9.4227 8.1875 9.40897C8.1875 9.39866 8.1975 9.38836 8.2075 9.38836V9.38493ZM8.22083 9.43644H8.73417C8.74417 9.43644 8.75417 9.44674 8.75417 9.46048C8.75417 9.47422 8.74417 9.48452 8.73417 9.48452H8.2175C8.20417 9.48452 8.1975 9.47422 8.1975 9.46048C8.1975 9.44674 8.20417 9.43644 8.2175 9.43644H8.22083ZM8.3875 9.0724H8.4275V9.09987H8.4575V9.0724H8.50083V9.10331H8.53083V9.06897H8.57083V9.13765C8.57083 9.15139 8.56417 9.15826 8.55417 9.15826H8.4075C8.3975 9.15826 8.3875 9.15139 8.3875 9.14109V9.0724Z" stroke="black" stroke-width="0.121212"/>
<path d="M8.36673 9.26816V9.38492H8.2334V9.26816H8.36673Z" fill="#FFFF00" stroke="black" stroke-width="0.121212"/>
<path d="M8.20898 9.17887H8.24899V9.21321H8.27899V9.17887H8.31899V9.21321H8.34899V9.17887H8.38899V9.24755C8.38899 9.26129 8.38232 9.26816 8.37232 9.26816H8.22898C8.22368 9.26816 8.21859 9.26599 8.21484 9.26213C8.21109 9.25826 8.20898 9.25302 8.20898 9.24755V9.17887Z" fill="#FFFF00" stroke="black" stroke-width="0.121212"/>
<path d="M8.46191 9.23382C8.46191 9.21321 8.49191 9.21321 8.49191 9.23382V9.28877H8.46191V9.23382Z" fill="black"/>
<path d="M8.28613 9.30937C8.28613 9.28876 8.3128 9.28876 8.3128 9.30937V9.35058H8.28613V9.30937Z" fill="black"/>
<path d="M9.75294 11.3562C9.75234 11.4287 9.77856 11.4987 9.82627 11.552C9.84853 11.5776 9.87575 11.5982 9.90617 11.6124C9.93659 11.6266 9.96955 11.6341 10.0029 11.6344C10.0729 11.6344 10.1363 11.6001 10.1796 11.552C10.2273 11.4987 10.2535 11.4287 10.2529 11.3562V10.9853H9.75294V11.3562Z" fill="#003399"/>
<path d="M9.86934 11.1777C9.89695 11.1777 9.91934 11.1546 9.91934 11.1261C9.91934 11.0977 9.89695 11.0746 9.86934 11.0746C9.84172 11.0746 9.81934 11.0977 9.81934 11.1261C9.81934 11.1546 9.84172 11.1777 9.86934 11.1777Z" fill="white"/>
<path d="M10.1457 11.1777C10.1733 11.1777 10.1957 11.1546 10.1957 11.1261C10.1957 11.0977 10.1733 11.0746 10.1457 11.0746C10.1181 11.0746 10.0957 11.0977 10.0957 11.1261C10.0957 11.1546 10.1181 11.1777 10.1457 11.1777Z" fill="white"/>
<path d="M10.0051 11.315C10.0327 11.315 10.0551 11.292 10.0551 11.2635C10.0551 11.2351 10.0327 11.212 10.0051 11.212C9.97746 11.212 9.95508 11.2351 9.95508 11.2635C9.95508 11.292 9.97746 11.315 10.0051 11.315Z" fill="white"/>
<path d="M9.86934 11.4593C9.89695 11.4593 9.91934 11.4362 9.91934 11.4078C9.91934 11.3793 9.89695 11.3562 9.86934 11.3562C9.84172 11.3562 9.81934 11.3793 9.81934 11.4078C9.81934 11.4362 9.84172 11.4593 9.86934 11.4593Z" fill="white"/>
<path d="M10.1457 11.4593C10.1733 11.4593 10.1957 11.4362 10.1957 11.4078C10.1957 11.3793 10.1733 11.3562 10.1457 11.3562C10.1181 11.3562 10.0957 11.3793 10.0957 11.4078C10.0957 11.4362 10.1181 11.4593 10.1457 11.4593Z" fill="white"/>
</svg>
