<svg width="24" height="24" viewBox="0 0 24 24" fill="none" xmlns="http://www.w3.org/2000/svg">
<path d="M9.79999 4H23V19H9.79999V4Z" fill="#FF0000"/>
<path d="M1 4H9.8V19H1V4Z" fill="#006600"/>
<path fill-rule="evenodd" clip-rule="evenodd" d="M12.6715 13.4042C11.5611 13.372 6.4839 10.4034 6.44952 9.92691L6.72797 9.49225C7.23327 10.178 12.424 13.0661 12.9361 12.9631L12.6715 13.4042Z" fill="#FFFF00" stroke="black" stroke-width="0.136364" stroke-linecap="round" stroke-linejoin="round"/>
<path fill-rule="evenodd" clip-rule="evenodd" d="M6.66773 9.43108C6.56805 9.68222 7.9946 10.5064 9.70648 11.4852C11.4218 12.4608 12.8999 13.0629 13.0065 12.9792L13.0581 12.889C13.0374 12.9212 12.9893 12.9309 12.9102 12.9083C12.4462 12.7828 11.2396 12.2644 9.7443 11.4144C8.24555 10.5644 6.94617 9.78203 6.74336 9.4504C6.72755 9.41931 6.72045 9.38496 6.72274 9.35059H6.71586L6.67461 9.42142L6.66773 9.43108ZM12.6937 13.417C12.6765 13.4492 12.6387 13.4492 12.5733 13.4428C12.1608 13.4009 10.9027 12.8278 9.4143 11.9939C7.6818 11.0216 6.2518 10.1394 6.40992 9.9076L6.45117 9.83676L6.45805 9.83998C6.32055 10.2328 9.28023 11.8169 9.45555 11.9199C11.1674 12.9116 12.6112 13.4943 12.7383 13.343L12.6937 13.417Z" fill="#FFFF00" stroke="black" stroke-width="0.136364" stroke-linecap="round" stroke-linejoin="round"/>
<path fill-rule="evenodd" clip-rule="evenodd" d="M9.80727 10.2167C10.9142 10.207 12.2823 10.075 13.073 9.77882L12.901 9.52124C12.437 9.76272 11.062 9.9237 9.79701 9.94624C8.30513 9.93336 7.24982 9.80135 6.72044 9.46973L6.56232 9.74662C7.53169 10.133 8.52857 10.2134 9.80727 10.2167Z" fill="#FFFF00"/>
<path d="M9.80727 10.2167C10.9142 10.207 12.2823 10.075 13.073 9.77882L12.901 9.52124C12.437 9.76272 11.062 9.9237 9.79701 9.94624C8.30513 9.93336 7.24982 9.80135 6.72044 9.46973L6.56232 9.74662C7.53169 10.133 8.52857 10.2134 9.80727 10.2167Z" stroke="black" stroke-width="0.136364" stroke-linecap="round" stroke-linejoin="round"/>
<path fill-rule="evenodd" clip-rule="evenodd" d="M13.1167 9.78524C13.0892 9.82709 12.5736 9.99131 11.8174 10.1136C11.1507 10.2083 10.4773 10.2545 9.80296 10.2521C9.15699 10.2544 8.51155 10.2156 7.87112 10.1362C7.07706 10.0203 6.668 9.85929 6.51331 9.80134L6.55112 9.7305C6.98769 9.89149 7.40019 9.98809 7.88144 10.0589C8.5172 10.1393 9.15804 10.1791 9.79956 10.178C10.4703 10.1787 11.1402 10.1324 11.8036 10.0396C12.5771 9.92047 12.9999 9.76915 13.0617 9.70153L13.1167 9.78847V9.78524ZM12.9655 9.52445C12.883 9.58885 12.4636 9.72728 11.728 9.83675C11.0927 9.92283 10.4517 9.96588 9.80989 9.96555C9.05362 9.96555 8.43144 9.91403 7.9605 9.84964C7.21112 9.75949 6.81237 9.59206 6.668 9.54699L6.71269 9.47616C6.82612 9.53089 7.20769 9.67578 7.96737 9.77559C8.57807 9.85221 9.19374 9.88878 9.80989 9.88506C10.4471 9.88524 11.0836 9.8422 11.7142 9.75627C12.4533 9.65968 12.8521 9.48581 12.914 9.44073L12.9655 9.52445ZM6.16612 11.4659C6.84675 11.8104 8.36269 11.9811 9.79612 11.9939C11.1024 11.9972 12.8005 11.8072 13.4365 11.4917L13.4192 11.1472C13.2199 11.4369 11.398 11.717 9.78237 11.7074C8.16675 11.6945 6.66456 11.4627 6.16269 11.16V11.4659" fill="#FFFF00"/>
<path d="M6.16612 11.4659C6.84675 11.8104 8.36269 11.9811 9.79612 11.9939C11.1024 11.9972 12.8005 11.8072 13.4365 11.4917L13.4192 11.1472C13.2199 11.4369 11.398 11.717 9.78237 11.7074C8.16675 11.6945 6.66456 11.4627 6.16269 11.16V11.4659M13.1167 9.78524C13.0892 9.82709 12.5736 9.99131 11.8174 10.1136C11.1507 10.2083 10.4773 10.2545 9.80296 10.2521C9.15699 10.2544 8.51155 10.2156 7.87112 10.1362C7.07706 10.0203 6.668 9.85929 6.51331 9.80134L6.55112 9.7305C6.98769 9.89149 7.40019 9.98809 7.88144 10.0589C8.51718 10.1393 9.15804 10.1791 9.79956 10.178C10.4703 10.1787 11.1402 10.1324 11.8036 10.0396C12.5771 9.92047 12.9999 9.76915 13.0617 9.70153L13.1167 9.78847V9.78524ZM12.9655 9.52445C12.883 9.58885 12.4636 9.72728 11.728 9.83675C11.0927 9.92283 10.4517 9.96588 9.80989 9.96555C9.05362 9.96555 8.43144 9.91403 7.9605 9.84964C7.21112 9.75949 6.81237 9.59206 6.668 9.54699L6.71269 9.47616C6.82612 9.53089 7.20769 9.67578 7.96737 9.77559C8.57807 9.85221 9.19374 9.88878 9.80989 9.88506C10.4471 9.88524 11.0836 9.8422 11.7142 9.75627C12.4533 9.65968 12.8521 9.48581 12.914 9.44073L12.9655 9.52445Z" stroke="black" stroke-width="0.136364" stroke-linecap="round" stroke-linejoin="round"/>
<path fill-rule="evenodd" clip-rule="evenodd" d="M13.4713 11.4176V11.4981C13.375 11.6076 12.7768 11.7686 12.0275 11.8845C11.283 11.9847 10.5315 12.0321 9.77939 12.0261C9.06621 12.0318 8.35364 11.9855 7.64814 11.8877C7.1217 11.8307 6.6073 11.7005 6.12189 11.5013V11.408C6.45532 11.614 7.35594 11.7686 7.65844 11.8136C8.20157 11.8909 8.89939 11.9489 9.77939 11.9489C10.7041 11.9489 11.4431 11.8877 12.0138 11.8072C12.5534 11.7331 13.32 11.5432 13.4713 11.4176ZM13.4713 11.1278V11.2083C13.375 11.3146 12.7768 11.4756 12.0275 11.5915C11.2831 11.6928 10.5316 11.7412 9.77939 11.7364C9.06627 11.7403 8.35384 11.694 7.64814 11.5979C7.1217 11.5409 6.6073 11.4107 6.12189 11.2116V11.115C6.45532 11.3242 7.35939 11.4756 7.65844 11.5206C8.36067 11.617 9.06969 11.6633 9.77939 11.6591C10.7041 11.6591 11.4466 11.5947 12.0138 11.5142C12.5534 11.4434 13.32 11.2534 13.4713 11.1278ZM9.79314 13.343C8.22564 13.3366 6.88158 12.9438 6.59626 12.8794L6.80251 13.182C7.7667 13.5019 8.78414 13.6578 9.80694 13.6424C10.9997 13.6102 12.0413 13.5233 12.7734 13.1885L12.9866 12.8729C12.4882 13.0951 10.7866 13.343 9.78969 13.343" fill="#FFFF00"/>
<path d="M9.79314 13.343C8.22564 13.3366 6.88158 12.9438 6.59626 12.8794L6.80251 13.182C7.7667 13.5019 8.78414 13.6578 9.80694 13.6424C10.9997 13.6102 12.0413 13.5233 12.7734 13.1885L12.9866 12.8729C12.4882 13.0951 10.7866 13.343 9.78969 13.343M13.4713 11.4176V11.4981C13.375 11.6076 12.7768 11.7686 12.0275 11.8845C11.283 11.9847 10.5315 12.0321 9.77939 12.0261C9.06621 12.0318 8.35364 11.9855 7.64814 11.8877C7.1217 11.8307 6.6073 11.7005 6.12189 11.5013V11.408C6.45532 11.614 7.35594 11.7686 7.65844 11.8136C8.20157 11.8909 8.89939 11.9489 9.77939 11.9489C10.7041 11.9489 11.4431 11.8877 12.0138 11.8072C12.5534 11.7331 13.32 11.5432 13.4713 11.4176ZM13.4713 11.1278V11.2083C13.375 11.3146 12.7768 11.4756 12.0275 11.5915C11.2831 11.6928 10.5316 11.7412 9.77939 11.7364C9.06627 11.7403 8.35384 11.694 7.64814 11.5979C7.1217 11.5409 6.6073 11.4107 6.12189 11.2116V11.115C6.45532 11.3242 7.35939 11.4756 7.65844 11.5206C8.36067 11.617 9.06969 11.6633 9.77939 11.6591C10.7041 11.6591 11.4466 11.5947 12.0138 11.5142C12.5534 11.4434 13.32 11.2534 13.4713 11.1278Z" stroke="black" stroke-width="0.136364" stroke-linecap="round" stroke-linejoin="round"/>
<path fill-rule="evenodd" clip-rule="evenodd" d="M12.857 13.1176C12.8257 13.1611 12.7937 13.204 12.7608 13.2464C12.417 13.3623 11.867 13.4847 11.6402 13.5169C11.0313 13.6231 10.4135 13.677 9.79421 13.6778C8.40546 13.6585 7.26764 13.4042 6.73484 13.1852L6.69014 13.1176L6.69702 13.1047L6.76921 13.1337C7.74753 13.4369 8.77061 13.5945 9.80111 13.6006C10.4474 13.6006 11.0902 13.533 11.6092 13.446C12.4067 13.2947 12.7299 13.182 12.8295 13.1305L12.8536 13.1176H12.857ZM13.0392 12.8343C13.0166 12.872 12.9936 12.9096 12.9704 12.947C12.7849 13.0114 12.2829 13.1466 11.5508 13.2432C11.0695 13.3044 10.7704 13.3655 9.81145 13.3816C8.71505 13.3713 7.62544 13.2196 6.57327 12.9309L6.53546 12.8504C7.60446 13.1271 8.70601 13.2785 9.81486 13.3011C10.6914 13.285 11.0661 13.2239 11.5439 13.1627C12.3964 13.0403 12.8261 12.9051 12.9533 12.8697C12.9534 12.8675 12.9534 12.8654 12.9533 12.8633L13.0427 12.8311L13.0392 12.8343Z" fill="#FFFF00" stroke="black" stroke-width="0.136364" stroke-linecap="round" stroke-linejoin="round"/>
<path fill-rule="evenodd" clip-rule="evenodd" d="M13.0583 11.1955C13.0617 12.1614 12.5324 13.0307 12.1096 13.4106C11.4851 13.9811 10.6512 14.306 9.77894 14.3186C8.73739 14.3347 7.75769 13.7004 7.49301 13.4203C6.90088 12.8321 6.56387 12.0585 6.5477 11.2502C6.60957 10.1941 7.05301 9.46002 7.69239 8.95453C8.31349 8.47562 9.09481 8.21686 9.89922 8.22366C10.3689 8.24498 10.8285 8.35795 11.2488 8.55534C11.6691 8.75272 12.0407 9.03015 12.3399 9.36987C12.7696 9.85926 12.9586 10.3905 13.0583 11.1955ZM9.78582 7.89203C10.7474 7.892 11.6701 8.24803 12.3527 8.88251C13.0352 9.51699 13.4223 10.3785 13.4296 11.2792C13.4296 11.7261 13.3356 12.1686 13.153 12.5815C12.9704 12.9944 12.7028 13.3696 12.3654 13.6856C12.0279 14.0016 11.6274 14.2523 11.1865 14.4233C10.7458 14.5944 10.2733 14.6824 9.79614 14.6824C9.31899 14.6824 8.84651 14.5944 8.40568 14.4233C7.96485 14.2523 7.5643 14.0016 7.22691 13.6856C6.88951 13.3696 6.62188 12.9944 6.43928 12.5815C6.25668 12.1686 6.16269 11.7261 6.16269 11.2792C6.15926 9.41172 7.78864 7.89203 9.78582 7.89203Z" fill="#FFFF00"/>
<path d="M9.78582 7.89203C10.7474 7.892 11.6701 8.24803 12.3527 8.88251C13.0352 9.51699 13.4223 10.3785 13.4296 11.2792C13.4296 11.7261 13.3356 12.1686 13.153 12.5815C12.9704 12.9944 12.7028 13.3696 12.3654 13.6856C12.0279 14.0016 11.6274 14.2523 11.1865 14.4233C10.7458 14.5944 10.2733 14.6824 9.79614 14.6824C9.31899 14.6824 8.84651 14.5944 8.40568 14.4233C7.96485 14.2523 7.5643 14.0016 7.22691 13.6856C6.88951 13.3696 6.62188 12.9944 6.43928 12.5815C6.25668 12.1686 6.16269 11.7261 6.16269 11.2792C6.15926 9.41172 7.78864 7.89203 9.78582 7.89203ZM13.0583 11.1955C13.0617 12.1614 12.5324 13.0307 12.1096 13.4106C11.4851 13.9811 10.6512 14.306 9.77894 14.3186C8.73739 14.3347 7.75769 13.7004 7.49301 13.4203C6.90088 12.8321 6.56387 12.0585 6.5477 11.2502C6.60957 10.1941 7.05301 9.46002 7.69239 8.95453C8.31349 8.47562 9.09481 8.21686 9.89922 8.22366C10.3689 8.24498 10.8285 8.35795 11.2488 8.55534C11.6691 8.75272 12.0407 9.03015 12.3399 9.36987C12.7696 9.85926 12.9586 10.3905 13.0583 11.1955Z" stroke="black" stroke-width="0.136364" stroke-linecap="round" stroke-linejoin="round"/>
<path fill-rule="evenodd" clip-rule="evenodd" d="M9.79678 7.87598C11.7974 7.87598 13.4268 9.40211 13.4268 11.2759C13.4268 13.1498 11.7974 14.6759 9.80023 14.6759C7.80303 14.6759 6.17023 13.1498 6.17023 11.2759C6.17023 9.40211 7.7996 7.87598 9.80023 7.87598H9.79678ZM6.24585 11.2727C6.24585 13.1015 7.85116 14.5987 9.79678 14.5987C11.7424 14.5987 13.3477 13.1015 13.3477 11.2727C13.3477 9.44397 11.7424 7.94681 9.79678 7.94681C7.85116 7.94681 6.24585 9.44397 6.24585 11.2727Z" fill="#FFFF00" stroke="black" stroke-width="0.136364" stroke-linecap="round" stroke-linejoin="round"/>
<path fill-rule="evenodd" clip-rule="evenodd" d="M9.80045 8.1593C10.6812 8.16185 11.5251 8.49069 12.1478 9.07402C12.7707 9.65736 13.1218 10.4478 13.1245 11.2727C13.1218 12.098 12.7708 12.8888 12.1481 13.4726C11.5255 14.0564 10.6815 14.386 9.80045 14.3894C7.97856 14.3894 6.47638 12.9856 6.47638 11.2727C6.48 10.448 6.83137 9.65811 7.45397 9.07496C8.07657 8.4918 8.91995 8.16269 9.80045 8.1593ZM6.55544 11.2727C6.55544 12.947 8.01981 14.3121 9.80045 14.3121C11.581 14.3121 13.0454 12.9438 13.0454 11.2727C13.0454 9.59851 11.581 8.23336 9.80045 8.23336C8.94093 8.23675 8.11765 8.55805 7.50987 9.12732C6.9021 9.69658 6.55906 10.4677 6.55544 11.2727Z" fill="#FFFF00" stroke="black" stroke-width="0.136364" stroke-linecap="round" stroke-linejoin="round"/>
<path fill-rule="evenodd" clip-rule="evenodd" d="M9.94741 7.85986H9.63458V14.6953H9.944L9.94741 7.85986Z" fill="#FFFF00" stroke="black" stroke-width="0.136364" stroke-linecap="round" stroke-linejoin="round"/>
<path fill-rule="evenodd" clip-rule="evenodd" d="M9.91385 7.82123H9.99293V14.7339H9.91725V7.82123H9.91385ZM9.60449 7.82123H9.68699V14.7339H9.60792V7.82123H9.60449Z" fill="#FFFF00" stroke="black" stroke-width="0.136364" stroke-linecap="round" stroke-linejoin="round"/>
<path fill-rule="evenodd" clip-rule="evenodd" d="M13.4291 11.408V11.1568L13.2091 10.9636L11.9613 10.6545L10.167 10.4839L8.00132 10.5869L6.46132 10.9282L6.15195 11.1439V11.3983L6.93914 11.0667L8.80914 10.793H10.607L11.927 10.9282L12.8413 11.1343L13.4291 11.408Z" fill="#FFFF00" stroke="black" stroke-width="0.136364" stroke-linecap="round" stroke-linejoin="round"/>
<path fill-rule="evenodd" clip-rule="evenodd" d="M9.80001 10.7511C10.6559 10.7511 11.4843 10.8252 12.1479 10.9443C12.8284 11.0731 13.3063 11.2341 13.4713 11.4112V11.5013C13.2718 11.276 12.6291 11.115 12.1306 11.0184C11.4775 10.9025 10.6525 10.8252 9.79657 10.8252C8.89939 10.8252 8.06064 10.9089 7.41439 11.0248C6.89876 11.1214 6.20783 11.3146 6.12189 11.5013V11.408C6.16657 11.2792 6.68221 11.086 7.40408 10.9475C8.05376 10.8284 8.89251 10.7511 9.79657 10.7511H9.80001ZM9.80001 10.4581C10.5872 10.4567 11.373 10.5213 12.1479 10.6513C12.8284 10.7801 13.3063 10.9411 13.4713 11.1214V11.2083C13.2718 10.9862 12.6291 10.822 12.1306 10.7286C11.4775 10.6095 10.6525 10.5354 9.79657 10.5354C8.99878 10.5331 8.20246 10.5999 7.41782 10.735C6.91939 10.822 6.20094 11.0216 6.12189 11.2083V11.1182C6.17001 10.9894 6.69251 10.7866 7.40408 10.6578C8.05721 10.5386 8.89251 10.4581 9.80001 10.4581ZM9.77939 8.97062C11.1304 8.96418 12.3094 9.1477 12.8491 9.40528L13.045 9.72725C12.5775 9.48899 11.3057 9.24429 9.78283 9.27649C8.54189 9.28615 7.21501 9.40528 6.55158 9.74012L6.78533 9.37308C7.33189 9.10584 8.61751 8.97062 9.77939 8.97062Z" fill="#FFFF00"/>
<path d="M9.77939 8.97062C11.1304 8.96418 12.3094 9.1477 12.8491 9.40528L13.045 9.72725C12.5775 9.48899 11.3056 9.24429 9.78283 9.27649C8.54189 9.28615 7.21501 9.40528 6.55158 9.74012L6.78533 9.37308C7.33189 9.10584 8.61751 8.97062 9.77939 8.97062ZM9.80001 10.7511C10.6559 10.7511 11.4843 10.8252 12.1479 10.9443C12.8284 11.0731 13.3063 11.2341 13.4713 11.4112V11.5013C13.2718 11.276 12.6291 11.115 12.1306 11.0184C11.4775 10.9025 10.6525 10.8252 9.79657 10.8252C8.89939 10.8252 8.06064 10.9089 7.41439 11.0248C6.89876 11.1214 6.20783 11.3146 6.12189 11.5013V11.408C6.16657 11.2792 6.68221 11.086 7.40408 10.9475C8.05376 10.8284 8.89251 10.7511 9.79657 10.7511H9.80001ZM9.80001 10.4581C10.5872 10.4567 11.373 10.5213 12.1479 10.6513C12.8284 10.7801 13.3063 10.9411 13.4713 11.1214V11.2083C13.2718 10.9862 12.6291 10.822 12.1306 10.7286C11.4775 10.6095 10.6525 10.5354 9.79657 10.5354C8.99878 10.5331 8.20246 10.5999 7.41782 10.735C6.91939 10.822 6.20094 11.0216 6.12189 11.2083V11.1182C6.17001 10.9894 6.69251 10.7866 7.40408 10.6578C8.05721 10.5386 8.89251 10.4581 9.80001 10.4581Z" stroke="black" stroke-width="0.136364" stroke-linecap="round" stroke-linejoin="round"/>
<path fill-rule="evenodd" clip-rule="evenodd" d="M9.79936 9.23465C10.5047 9.2235 11.2098 9.26983 11.9065 9.3731C12.4565 9.46969 12.9825 9.61136 13.0581 9.68863L13.1165 9.78522C12.9343 9.67575 12.4772 9.55018 11.8928 9.44715C11.3084 9.34412 10.5625 9.3087 9.79592 9.31192C8.92623 9.3087 8.24905 9.35056 7.67155 9.44715C7.27345 9.49941 6.88694 9.61139 6.52686 9.77878L6.5853 9.67897C6.79155 9.58238 7.11123 9.46325 7.65436 9.36988C8.25592 9.26685 8.93998 9.23787 9.79936 9.23465ZM9.79936 8.94488C10.535 8.93844 11.2638 8.97708 11.8309 9.07367C12.1984 9.12477 12.5541 9.23362 12.8828 9.39564L12.9688 9.52442C12.8243 9.3731 12.2813 9.22821 11.7965 9.15094C11.2328 9.05757 10.535 9.02215 9.79936 9.01571C9.11458 9.00999 8.43048 9.05738 7.75405 9.15738C7.40036 9.20354 7.05684 9.30246 6.73655 9.45037L6.81217 9.34412C7.01155 9.24753 7.33467 9.15738 7.7403 9.08333C8.42119 8.98201 9.10997 8.93462 9.79936 8.94166V8.94488ZM11.6006 12.6894C11.0048 12.5928 10.4005 12.5497 9.79592 12.5606C7.54436 12.5864 6.81905 12.9953 6.72967 13.1176L6.5578 12.86C7.1353 12.4737 8.35905 12.2547 9.80968 12.2741C10.5625 12.2869 11.2122 12.3352 11.7553 12.435L11.6006 12.6926" fill="#FFFF00"/>
<path d="M11.6006 12.6894C11.0048 12.5928 10.4005 12.5497 9.79592 12.5606C7.54436 12.5864 6.81905 12.9953 6.72967 13.1176L6.5578 12.86C7.1353 12.4737 8.35905 12.2547 9.80968 12.2741C10.5625 12.2869 11.2122 12.3352 11.7553 12.435L11.6006 12.6926M9.79936 9.23465C10.5047 9.2235 11.2098 9.26983 11.9065 9.3731C12.4565 9.46969 12.9825 9.61136 13.0581 9.68863L13.1165 9.78522C12.9343 9.67575 12.4772 9.55018 11.8928 9.44715C11.3084 9.34412 10.5625 9.3087 9.79592 9.31192C8.92623 9.3087 8.24905 9.35056 7.67155 9.44715C7.27345 9.49941 6.88694 9.61139 6.52686 9.77878L6.5853 9.67897C6.79155 9.58238 7.11123 9.46325 7.65436 9.36988C8.25592 9.26685 8.93998 9.23787 9.79936 9.23465ZM9.79936 8.94488C10.535 8.93844 11.2638 8.97708 11.8309 9.07367C12.1984 9.12477 12.5541 9.23362 12.8828 9.39564L12.9688 9.52442C12.8243 9.3731 12.2813 9.22821 11.7965 9.15094C11.2328 9.05757 10.535 9.02215 9.79936 9.01571C9.11458 9.00999 8.43048 9.05738 7.75405 9.15738C7.40036 9.20354 7.05684 9.30246 6.73655 9.45037L6.81217 9.34412C7.01155 9.24753 7.33467 9.15738 7.7403 9.08333C8.42119 8.98201 9.10997 8.93462 9.79936 8.94166V8.94488Z" stroke="black" stroke-width="0.136364" stroke-linecap="round" stroke-linejoin="round"/>
<path fill-rule="evenodd" clip-rule="evenodd" d="M9.78541 12.5252C10.4111 12.5349 11.0229 12.5574 11.6175 12.6604L11.5763 12.7313C11.0263 12.6347 10.435 12.6025 9.78884 12.6025C8.95353 12.596 8.11478 12.6701 7.38259 12.8665C7.15228 12.9277 6.77072 13.0661 6.72947 13.182L6.68822 13.1176C6.70197 13.0468 6.92884 12.9051 7.36197 12.7956C8.20072 12.5703 8.98447 12.5284 9.78541 12.5252ZM9.81289 12.229C10.4732 12.2283 11.1323 12.2822 11.7825 12.39L11.7379 12.464C11.103 12.3549 10.4585 12.3021 9.81289 12.3063C8.98103 12.3063 8.09759 12.3642 7.29322 12.5831C7.03541 12.654 6.58509 12.8085 6.57134 12.9277L6.53009 12.8568C6.53697 12.7474 6.92541 12.6025 7.27603 12.5091C8.08384 12.2869 8.97072 12.2322 9.81289 12.229Z" fill="#FFFF00" stroke="black" stroke-width="0.136364" stroke-linecap="round" stroke-linejoin="round"/>
<path fill-rule="evenodd" clip-rule="evenodd" d="M13.01 12.8987L12.7419 13.2947L11.9615 12.6475L9.9472 11.3758L7.67156 10.207L6.49249 9.83033L6.74344 9.39245L6.82937 9.35059L7.56156 9.52123L9.98152 10.69L11.3772 11.5142L12.5494 12.303L13.0272 12.8182L13.01 12.8987Z" fill="#FFFF00" stroke="black" stroke-width="0.136364" stroke-linecap="round" stroke-linejoin="round"/>
<path fill-rule="evenodd" clip-rule="evenodd" d="M6.45124 9.83996C6.65749 9.71117 8.17686 10.3422 9.77186 11.2438C11.3565 12.1453 12.8759 13.1627 12.7384 13.3527L12.6938 13.4203L12.6731 13.4364C12.6765 13.4331 12.7006 13.4042 12.6731 13.3366C12.6044 13.1273 11.525 12.3223 9.74093 11.3114C7.99811 10.3422 6.54749 9.75625 6.40656 9.92368L6.45124 9.83996ZM13.065 12.8955C13.1956 12.6508 11.7863 11.6559 10.0365 10.6867C8.24906 9.73693 6.95656 9.1767 6.71936 9.34412L6.67124 9.4375C6.67124 9.44072 6.67124 9.43106 6.68499 9.4214C6.72624 9.38921 6.79843 9.3892 6.82936 9.3892C7.23499 9.39563 8.39343 9.8947 10.0194 10.7672C10.7344 11.1536 13.0306 12.5381 13.0203 12.9244C13.0203 12.9566 13.0238 12.9631 13.01 12.9824L13.0684 12.8987L13.065 12.8955Z" fill="#FFFF00" stroke="black" stroke-width="0.136364" stroke-linecap="round" stroke-linejoin="round"/>
<path d="M7.62256 11.6516C7.6231 11.9182 7.68009 12.182 7.79023 12.4279C7.90038 12.6737 8.06148 12.8966 8.26422 13.0837C8.4645 13.2742 8.70302 13.4257 8.96608 13.5294C9.22912 13.6331 9.51148 13.6871 9.7969 13.6882C10.3745 13.6881 10.9285 13.4732 11.3369 13.0906C11.5389 12.9024 11.6993 12.6788 11.8088 12.4324C11.9183 12.1861 11.9747 11.9219 11.9749 11.655V8.93503L7.62256 8.92816V11.6516Z" fill="white" stroke="black" stroke-width="0.169697"/>
<path d="M7.70099 11.655C7.70176 11.9108 7.75659 12.1638 7.86231 12.3996C7.96805 12.6354 8.12258 12.8492 8.31699 13.0288C8.70737 13.3963 9.23747 13.6038 9.79099 13.6057C10.3435 13.606 10.8736 13.401 11.265 13.0356C11.4587 12.8558 11.6126 12.6418 11.7176 12.4061C11.8228 12.1703 11.877 11.9174 11.8774 11.6619V9.01746H7.70832V11.655H7.70099ZM11.045 9.8108V11.4902L11.0414 11.6653C11.0426 11.8188 11.0108 11.9708 10.9477 12.1125C10.8847 12.2541 10.7919 12.3824 10.6746 12.4896C10.4415 12.7087 10.1249 12.8323 9.79466 12.833C9.44999 12.833 9.14565 12.6956 8.91833 12.4827C8.68435 12.2643 8.55247 11.9679 8.55165 11.6585V9.80393L11.045 9.8108Z" fill="#FF0000" stroke="black" stroke-width="0.121212"/>
<path d="M7.97382 9.70777C7.97749 9.51889 8.12049 9.47424 8.12049 9.47424C8.12415 9.47424 8.27815 9.52232 8.27815 9.71121H7.97382" fill="#FFFF00"/>
<path d="M7.8488 9.47767L7.82313 9.69404H7.97713C7.97713 9.51545 8.1238 9.48798 8.1238 9.48798C8.12747 9.48798 8.27047 9.52576 8.27413 9.69404H8.42813L8.3988 9.47424H7.8488V9.47767ZM7.81213 9.69747H8.43547C8.44647 9.69747 8.45747 9.70778 8.45747 9.72151C8.45747 9.73869 8.44647 9.74899 8.43547 9.74899H7.81213C7.80113 9.74899 7.79013 9.73869 7.79013 9.72151C7.79013 9.70778 7.80113 9.69747 7.81579 9.69747H7.81213Z" fill="#FFFF00" stroke="black" stroke-width="0.121212"/>
<path d="M8.04091 9.69402C8.04091 9.58068 8.12524 9.54978 8.12524 9.54978C8.12524 9.54978 8.20958 9.58412 8.20958 9.69402H8.04091ZM7.82824 9.38493H8.42591C8.43691 9.38493 8.44791 9.39866 8.44791 9.4124C8.44791 9.4227 8.43691 9.43301 8.42591 9.43301H7.82824C7.81724 9.43301 7.80624 9.4227 7.80624 9.40897C7.80624 9.39866 7.81724 9.38836 7.82824 9.38836V9.38493ZM7.84291 9.43644H8.40758C8.41858 9.43644 8.42958 9.44674 8.42958 9.46048C8.42958 9.47422 8.41858 9.48452 8.40758 9.48452H7.83924C7.82458 9.48452 7.81724 9.47422 7.81724 9.46048C7.81724 9.44674 7.82458 9.43644 7.83924 9.43644H7.84291ZM8.02624 9.0724H8.07024V9.09987H8.10324V9.0724H8.15091V9.10331H8.18391V9.06897H8.22791V9.13765C8.22791 9.15139 8.22058 9.15826 8.20958 9.15826H8.04824C8.03724 9.15826 8.02624 9.15139 8.02624 9.14109V9.0724ZM8.19491 9.16513L8.20591 9.38493H8.04824L8.05924 9.16169H8.19491" fill="#FFFF00"/>
<path d="M8.19491 9.16513L8.20591 9.38493H8.04824L8.05924 9.16169H8.19491M8.04091 9.69402C8.04091 9.58068 8.12524 9.54978 8.12524 9.54978C8.12524 9.54978 8.20958 9.58412 8.20958 9.69402H8.04091ZM7.82824 9.38493H8.42591C8.43691 9.38493 8.44791 9.39866 8.44791 9.4124C8.44791 9.4227 8.43691 9.43301 8.42591 9.43301H7.82824C7.81724 9.43301 7.80624 9.4227 7.80624 9.40897C7.80624 9.39866 7.81724 9.38836 7.82824 9.38836V9.38493ZM7.84291 9.43644H8.40758C8.41858 9.43644 8.42958 9.44674 8.42958 9.46048C8.42958 9.47422 8.41858 9.48452 8.40758 9.48452H7.83924C7.82458 9.48452 7.81724 9.47422 7.81724 9.46048C7.81724 9.44674 7.82458 9.43644 7.83924 9.43644H7.84291ZM8.02624 9.0724H8.07024V9.09987H8.10324V9.0724H8.15091V9.10331H8.18391V9.06897H8.22791V9.13765C8.22791 9.15139 8.22058 9.15826 8.20958 9.15826H8.04824C8.03724 9.15826 8.02624 9.15139 8.02624 9.14109V9.0724Z" stroke="black" stroke-width="0.121212"/>
<path d="M8.00341 9.26819V9.38495H7.85675V9.26819H8.00341Z" fill="#FFFF00" stroke="black" stroke-width="0.121212"/>
<path d="M7.8299 9.17889H7.87391V9.21323H7.90691V9.17889H7.95091V9.21323H7.98391V9.17889H8.02791V9.24757C8.02791 9.26131 8.02057 9.26818 8.00957 9.26818H7.8519C7.84607 9.26818 7.84047 9.26601 7.83634 9.26215C7.83222 9.25828 7.8299 9.25304 7.8299 9.24757V9.17889Z" fill="#FFFF00" stroke="black" stroke-width="0.121212"/>
<path d="M8.10809 9.23384C8.10809 9.21323 8.14109 9.21323 8.14109 9.23384V9.28879H8.10809V9.23384Z" fill="black"/>
<path d="M7.91473 9.30934C7.91473 9.28873 7.94407 9.28873 7.94407 9.30934V9.35055H7.91473V9.30934Z" fill="black"/>
<path d="M9.52824 11.3562C9.52758 11.4287 9.55642 11.4987 9.6089 11.552C9.63339 11.5776 9.66333 11.5982 9.69679 11.6124C9.73025 11.6266 9.76651 11.6341 9.8032 11.6344C9.8802 11.6344 9.94994 11.6001 9.99757 11.552C10.05 11.4987 10.0789 11.4287 10.0782 11.3562V10.9853H9.52824V11.3562Z" fill="#003399"/>
<path d="M9.65626 11.1777C9.68663 11.1777 9.71126 11.1546 9.71126 11.1261C9.71126 11.0977 9.68663 11.0746 9.65626 11.0746C9.62588 11.0746 9.60126 11.0977 9.60126 11.1261C9.60126 11.1546 9.62588 11.1777 9.65626 11.1777Z" fill="white"/>
<path d="M9.96027 11.1777C9.99063 11.1777 10.0153 11.1546 10.0153 11.1261C10.0153 11.0977 9.99063 11.0746 9.96027 11.0746C9.92991 11.0746 9.90527 11.0977 9.90527 11.1261C9.90527 11.1546 9.92991 11.1777 9.96027 11.1777Z" fill="white"/>
<path d="M9.8056 11.315C9.83596 11.315 9.8606 11.292 9.8606 11.2635C9.8606 11.2351 9.83596 11.212 9.8056 11.212C9.7752 11.212 9.75058 11.2351 9.75058 11.2635C9.75058 11.292 9.7752 11.315 9.8056 11.315Z" fill="white"/>
<path d="M9.65626 11.4593C9.68663 11.4593 9.71126 11.4362 9.71126 11.4078C9.71126 11.3793 9.68663 11.3562 9.65626 11.3562C9.62588 11.3562 9.60126 11.3793 9.60126 11.4078C9.60126 11.4362 9.62588 11.4593 9.65626 11.4593Z" fill="white"/>
<path d="M9.96027 11.4593C9.99063 11.4593 10.0153 11.4362 10.0153 11.4078C10.0153 11.3793 9.99063 11.3562 9.96027 11.3562C9.92991 11.3562 9.90527 11.3793 9.90527 11.4078C9.90527 11.4362 9.92991 11.4593 9.96027 11.4593Z" fill="white"/>
</svg>
