<svg width="24" height="24" viewBox="0 0 24 24" fill="none" xmlns="http://www.w3.org/2000/svg">
<path fill-rule="evenodd" clip-rule="evenodd" d="M1 4H23V5.1543H1V4ZM1 6.30859H23V7.46289H1V6.30859ZM1 8.61426H23V9.77148H1V8.61426ZM1 10.9229H23V12.0771H1V10.9229ZM1 13.2314H23V14.3857H1V13.2314ZM1 15.5371H23V16.6914H1V15.5371ZM1 17.8457H23V19H1V17.8457Z" fill="#BD3D44"/>
<path fill-rule="evenodd" clip-rule="evenodd" d="M1 5.1543H23V6.30859H1V5.1543ZM1 7.46289H23V8.61426H1V7.46289ZM1 9.76855H23V10.9229H1V9.76855ZM1 12.0771H23V13.2314H1V12.0771ZM1 14.3857H23V15.54H1V14.3857ZM1 16.6914H23V17.8457H1V16.6914Z" fill="white"/>
<path fill-rule="evenodd" clip-rule="evenodd" d="M1 4H13.5393V12.0771H1V4Z" fill="#192F5D"/>
<path fill-rule="evenodd" clip-rule="evenodd" d="M2.04414 4.3457L2.16016 4.66504H2.52754L2.23105 4.86133L2.34385 5.18359L2.04414 4.98437L1.74766 5.18066L1.86045 4.86133L1.56075 4.66504H1.93457L2.04414 4.3457ZM4.13565 4.3457L4.24843 4.66504H4.61904L4.31934 4.86133L4.43213 5.18359L4.13565 4.98437L3.83593 5.18066L3.94872 4.86133L3.65224 4.66504H4.01963L4.13565 4.3457ZM6.22392 4.3457L6.33994 4.66504H6.7041L6.40762 4.86133L6.5204 5.18359L6.2207 4.98437L5.92421 5.18066L6.03701 4.86133L5.7373 4.66504H6.1079L6.22392 4.3457ZM8.31543 4.3457L8.42822 4.66504H8.79882L8.49912 4.86133L8.61513 5.18359L8.31543 4.98437L8.01572 5.18066L8.13174 4.86133L7.83203 4.66504H8.19941L8.31543 4.3457ZM10.4037 4.3457L10.5197 4.66504H10.8871L10.5907 4.86133L10.7034 5.18359L10.4037 4.98437L10.1072 5.18066L10.22 4.86133L9.92353 4.66504H10.2909L10.4037 4.3457ZM12.4952 4.3457L12.608 4.66504H12.9786L12.6789 4.86133L12.795 5.18359L12.4952 4.98437L12.1955 5.18066L12.3115 4.86133L12.0118 4.66504H12.3825L12.4952 4.3457ZM3.09151 5.1543L3.2043 5.47363H3.5749L3.27519 5.66992L3.38477 5.98926L3.09473 5.79297L2.79502 5.98926L2.90137 5.66992L2.61132 5.47363H2.97871L3.09151 5.1543ZM5.17978 5.1543L5.2958 5.47363H5.66318L5.36348 5.66992L5.4795 5.98926L5.17978 5.79297L4.88007 5.98926L4.99609 5.66992L4.69638 5.47363H5.067L5.17978 5.1543ZM7.27129 5.1543L7.38408 5.47363H7.75468L7.45497 5.66992L7.56777 5.98926L7.27129 5.79297L6.97158 5.98926L7.08437 5.66992L6.78789 5.47363H7.15527L7.27129 5.1543ZM9.35957 5.1543L9.47559 5.47363H9.84301L9.54326 5.66992L9.65928 5.98926L9.35957 5.79297L9.06309 5.98926L9.17588 5.66992L8.87617 5.47363H9.25L9.35957 5.1543ZM11.4511 5.1543L11.5638 5.47363H11.9344L11.6348 5.66992L11.7475 5.98926L11.4511 5.79297L11.1513 5.98926L11.2642 5.66992L10.9676 5.47363H11.335L11.4511 5.1543ZM2.04414 5.95996L2.16016 6.28516H2.52754L2.23105 6.48144L2.34385 6.80078L2.04414 6.60156L1.74766 6.80078L1.86045 6.47851L1.56075 6.28223H1.93457L2.04414 5.95996ZM4.13565 5.95996L4.24843 6.28223H4.61904L4.31934 6.47851L4.43213 6.79785L4.13565 6.59863L3.83593 6.79785L3.94872 6.47558L3.65224 6.2793H4.01963L4.13565 5.95996ZM6.22392 5.95996L6.33994 6.28223H6.7041L6.40762 6.47851L6.5204 6.79785L6.2207 6.59863L5.92421 6.79785L6.03701 6.47558L5.7373 6.2793H6.1079L6.22392 5.95996ZM8.31543 5.95996L8.42822 6.28223H8.79882L8.49912 6.47851L8.61513 6.79785L8.31543 6.59863L8.01572 6.79785L8.13174 6.47558L7.83203 6.2793H8.19941L8.31543 5.95996ZM10.4037 5.95996L10.5197 6.28223H10.8871L10.5907 6.47851L10.7034 6.79785L10.4037 6.59863L10.1072 6.79785L10.22 6.47558L9.92353 6.2793H10.2909L10.4037 5.95996ZM12.4952 5.95996L12.608 6.28223H12.9786L12.6789 6.47851L12.795 6.79785L12.4952 6.59863L12.1955 6.79785L12.3115 6.47558L12.0118 6.2793H12.3825L12.4952 5.95996ZM3.09151 6.76855L3.2043 7.08789H3.5749L3.27519 7.28418L3.38799 7.60644L3.09151 7.40723L2.7918 7.60351L2.90459 7.28418L2.6081 7.08789H2.97549L3.09151 6.76855ZM5.17978 6.76855L5.2958 7.08789H5.66318L5.36348 7.28418L5.4795 7.60644L5.17978 7.40723L4.88007 7.60351L4.99609 7.28418L4.69638 7.08789H5.067L5.17978 6.76855ZM7.27129 6.76855L7.38408 7.08789H7.75468L7.45497 7.28418L7.56777 7.60644L7.27129 7.40723L6.97158 7.60351L7.08437 7.28418L6.78789 7.08789H7.15527L7.27129 6.76855ZM9.35957 6.76855L9.47559 7.08789H9.84301L9.54648 7.28418L9.65928 7.60644L9.35957 7.40723L9.06309 7.60351L9.17588 7.28418L8.87617 7.08789H9.25L9.35957 6.76855ZM11.4511 6.76855L11.5638 7.08789H11.9344L11.6348 7.28418L11.7475 7.60644L11.4511 7.40723L11.1513 7.60351L11.2642 7.28418L10.9676 7.08789H11.335L11.4511 6.76855ZM2.04414 7.57715L2.16016 7.89648H2.52754L2.23105 8.09277L2.34385 8.41504L2.04414 8.21582L1.74766 8.41211L1.86045 8.09277L1.56075 7.89648H1.93457L2.04414 7.57715ZM4.13565 7.57715L4.24843 7.89648H4.61904L4.31934 8.09277L4.43213 8.41211L4.13565 8.21582L3.83593 8.41211L3.94872 8.09277L3.65224 7.89648H4.01963L4.13565 7.57715ZM6.22392 7.57715L6.33994 7.89648H6.7041L6.40762 8.09277L6.5204 8.41504L6.2207 8.21582L5.92421 8.41211L6.03701 8.09277L5.7373 7.89648H6.1079L6.22392 7.57715ZM8.31543 7.57715L8.42822 7.89648H8.79882L8.49912 8.09277L8.61513 8.41504L8.31543 8.21582L8.01572 8.41211L8.13174 8.09277L7.83203 7.89648H8.19941L8.31543 7.57715ZM10.4037 7.57715L10.5197 7.89648H10.8871L10.5907 8.09277L10.7034 8.41504L10.4037 8.21582L10.1072 8.41211L10.22 8.09277L9.92353 7.89648H10.2909L10.4037 7.57715ZM12.4952 7.57715L12.608 7.89648H12.9786L12.6789 8.09277L12.795 8.41504L12.4952 8.21582L12.1955 8.41211L12.3115 8.09277L12.0118 7.89648H12.3825L12.4952 7.57715ZM3.09151 8.38574L3.2043 8.70508H3.5749L3.27519 8.90137L3.38799 9.2207L3.09151 9.02148L2.7918 9.2207L2.90459 8.89844L2.6081 8.70215H2.97549L3.09151 8.38574ZM5.17978 8.38574L5.2958 8.70508H5.66318L5.36348 8.90137L5.4795 9.2207L5.17978 9.02148L4.88007 9.2207L4.99609 8.89844L4.69638 8.70215H5.067L5.17978 8.38574ZM7.27129 8.38574L7.38408 8.70508H7.75468L7.45497 8.90137L7.56777 9.2207L7.27129 9.02148L6.97158 9.2207L7.08437 8.89844L6.78789 8.70215H7.15527L7.27129 8.38574ZM9.35957 8.38574L9.47559 8.70508H9.84301L9.54648 8.90137L9.65928 9.2207L9.35957 9.02148L9.06309 9.2207L9.17588 8.89844L8.87617 8.70215H9.25L9.35957 8.38574ZM11.4511 8.38574L11.5638 8.70508H11.9344L11.6348 8.90137L11.7475 9.2207L11.4511 9.02148L11.1513 9.2207L11.2642 8.89844L10.9676 8.70215H11.335L11.4511 8.38574ZM2.04414 9.1914L2.16016 9.51367H2.52754L2.23105 9.70996L2.34385 10.0264L2.04414 9.83008L1.74766 10.0264L1.86045 9.70703L1.56075 9.51074H1.93457L2.04414 9.1914ZM4.13565 9.1914L4.24843 9.51367H4.61904L4.31934 9.70996L4.43535 10.0264L4.13565 9.83008L3.83593 10.0264L3.95195 9.70703L3.65224 9.51074H4.01963L4.13565 9.1914ZM6.22392 9.1914L6.33994 9.51367H6.7041L6.40762 9.70996L6.5204 10.0264L6.2207 9.83008L5.92421 10.0264L6.03701 9.70703L5.7373 9.51074H6.1079L6.22392 9.1914ZM8.31543 9.1914L8.42822 9.51367H8.79882L8.49912 9.70996L8.61513 10.0264L8.31543 9.83008L8.01572 10.0264L8.13174 9.70703L7.83203 9.51074H8.19941L8.31543 9.1914ZM10.4037 9.1914L10.5197 9.51367H10.8871L10.5907 9.70996L10.7034 10.0264L10.4037 9.83008L10.1072 10.0264L10.22 9.70703L9.92353 9.51074H10.2909L10.4037 9.1914ZM12.4952 9.1914L12.608 9.51367H12.9786L12.6789 9.70996L12.795 10.0264L12.4952 9.83008L12.1955 10.0264L12.3115 9.70703L12.0118 9.51074H12.3825L12.4952 9.1914ZM3.09151 10L3.2043 10.3193H3.5749L3.27519 10.5156L3.38799 10.8379L3.09151 10.6387L2.7918 10.835L2.90459 10.5156L2.6081 10.3193H2.97549L3.09151 10ZM5.17978 10L5.2958 10.3193H5.66318L5.36348 10.5156L5.4795 10.8379L5.17978 10.6387L4.88007 10.835L4.99609 10.5156L4.69638 10.3193H5.067L5.17978 10ZM7.27129 10L7.38408 10.3193H7.75468L7.45497 10.5156L7.56777 10.8379L7.27129 10.6387L6.97158 10.835L7.08437 10.5156L6.78789 10.3193H7.15527L7.27129 10ZM9.35957 10L9.47559 10.3193H9.84301L9.54648 10.5156L9.65928 10.8379L9.35957 10.6387L9.06309 10.835L9.17588 10.5156L8.87617 10.3193H9.25L9.35957 10ZM11.4511 10L11.5638 10.3193H11.9344L11.6348 10.5156L11.7475 10.8379L11.4511 10.6387L11.1513 10.835L11.2642 10.5156L10.9676 10.3193H11.335L11.4511 10ZM2.04414 10.8086L2.16016 11.1279H2.52754L2.23105 11.3242L2.34385 11.6436L2.04414 11.4473L1.74766 11.6436L1.86045 11.3213L1.56075 11.125H1.93457L2.04414 10.8086ZM4.13565 10.8086L4.24843 11.1279H4.61904L4.31934 11.3242L4.43535 11.6436L4.13565 11.4473L3.83593 11.6436L3.95195 11.3213L3.65224 11.125H4.01963L4.13565 10.8086ZM6.22392 10.8086L6.33994 11.1279H6.7041L6.41407 11.3242L6.52685 11.6436L6.22714 11.4473L5.93066 11.6436L6.04345 11.3213L5.74375 11.125H6.11435L6.22392 10.8086ZM8.31543 10.8086L8.42822 11.1279H8.79882L8.49912 11.3242L8.61513 11.6436L8.31543 11.4473L8.01572 11.6436L8.13174 11.3213L7.83203 11.125H8.19941L8.31543 10.8086ZM10.4037 10.8086L10.5197 11.1279H10.8871L10.5907 11.3242L10.7034 11.6436L10.4037 11.4473L10.1072 11.6436L10.22 11.3213L9.92353 11.125H10.2909L10.4037 10.8086ZM12.4952 10.8086L12.608 11.1279H12.9786L12.6789 11.3242L12.795 11.6436L12.4952 11.4473L12.1955 11.6436L12.3115 11.3213L12.0118 11.125H12.3825L12.4952 10.8086Z" fill="white"/>
</svg>
