<svg width="24" height="24" viewBox="0 0 24 24" fill="none" xmlns="http://www.w3.org/2000/svg">
<path fill-rule="evenodd" clip-rule="evenodd" d="M1 4H23V19H1V4Z" fill="#199D00"/>
<path fill-rule="evenodd" clip-rule="evenodd" d="M6.54316 8.251C6.52025 8.60256 6.48587 9.2178 6.78092 9.28225C7.13326 9.3174 6.93848 8.67287 7.06738 8.55569C7.0903 8.49709 7.13326 8.49709 7.13613 8.57033V9.11819C7.13613 9.29397 7.25071 9.3467 7.33665 9.38186C7.42832 9.376 7.49134 9.38186 7.52571 9.46975L7.57155 10.416C7.57155 10.416 7.78352 10.4805 7.79498 9.88576C7.80358 9.5342 7.72624 9.24416 7.77207 9.17678C7.77207 9.1094 7.85801 9.10647 7.9153 9.13869C8.00697 9.20315 8.04706 9.28518 8.1903 9.25588C8.40801 9.19143 8.53978 9.08303 8.54264 8.91311C8.53834 8.74612 8.50437 8.58133 8.44238 8.42678C8.45384 8.39748 8.40228 8.31838 8.41373 8.28908C8.45097 8.35354 8.51113 8.34768 8.52259 8.28908C8.48535 8.16604 8.42806 8.04592 8.33639 7.99612C8.25905 7.9258 8.14446 7.93752 8.10723 8.08401C8.08431 8.251 8.16452 8.44729 8.28197 8.61135C8.30775 8.67287 8.34212 8.77834 8.32779 8.87209C8.26478 8.91018 8.20176 8.8926 8.14733 8.83694C8.14733 8.83694 7.97545 8.7051 7.97545 8.67287C8.02129 8.37405 7.98405 8.33889 7.95826 8.25393C7.94108 8.13967 7.88665 8.10158 7.84369 8.02541C7.80071 7.97854 7.74343 7.97854 7.71478 8.02541C7.63743 8.16018 7.67468 8.45022 7.7291 8.58205C7.7692 8.70217 7.82936 8.77834 7.80071 8.77834C7.77779 8.84573 7.7291 8.82815 7.69186 8.74905C7.64994 8.58258 7.62971 8.41117 7.63171 8.23928C7.61738 8.10451 7.60019 7.8174 7.51139 7.74123C7.45983 7.67092 7.38249 7.70608 7.35384 7.77053C7.34627 7.90141 7.34915 8.0327 7.36243 8.16311C7.41972 8.37991 7.43978 8.57326 7.46843 8.79299C7.47702 9.08889 7.30228 8.9219 7.31087 8.77248C7.34845 8.58464 7.34552 8.39068 7.30228 8.20412C7.27363 8.12795 7.24212 8.11037 7.17051 8.12209C7.11608 8.12209 6.97571 8.27737 6.93562 8.54104C6.93562 8.54104 6.90124 8.6758 6.88691 8.79592C6.86686 8.93069 6.78092 9.0303 6.7179 8.77834C6.66634 8.59377 6.63197 8.14553 6.54603 8.251H6.54316Z" fill="white"/>
<path fill-rule="evenodd" clip-rule="evenodd" d="M7.5026 9.68945L6.58594 10.1406C6.59453 9.92676 7.01849 9.54297 7.31068 9.54004C7.49687 9.54297 7.45105 9.61328 7.49974 9.68945H7.5026Z" fill="white"/>
<path fill-rule="evenodd" clip-rule="evenodd" d="M7.33913 9.98245C6.85788 11.2568 8.47063 11.4355 8.6511 10.0352C8.66829 9.97659 8.73704 9.92093 8.7485 10.0146C8.71126 11.2832 7.49954 11.3682 7.29329 10.9697C7.24477 10.8326 7.22052 10.6878 7.22168 10.542C7.19303 10.293 7.06413 10.3896 7.04407 10.6357C7.02402 10.7734 7.02975 10.8115 7.02975 10.9434C7.09277 11.9453 8.65397 11.5146 8.90892 10.6885C9.04355 10.2314 8.886 9.89456 8.95761 9.89456C9.1123 10.0645 9.33001 9.918 9.3787 9.85941C9.39876 9.83011 9.45033 9.8096 9.4847 9.84769C9.60501 9.93558 9.81699 9.89456 9.86282 9.73929C9.88861 9.58402 9.90866 9.42581 9.91439 9.26468C9.81413 9.29398 9.74251 9.31448 9.73392 9.35843L9.71387 9.4932C9.70527 9.53714 9.6222 9.53714 9.61647 9.48148C9.57923 9.3057 9.42454 9.28519 9.33001 9.55472C9.26986 9.60745 9.15527 9.61917 9.14381 9.54007C9.15814 9.35843 9.08652 9.33499 8.94329 9.41995L8.80579 8.35941C8.86308 8.35941 8.92037 8.40335 8.9748 8.33304C8.91751 8.14261 8.78861 7.75589 8.71699 7.72659C8.68548 7.68558 8.65683 7.71195 8.611 7.72366C8.53652 7.7471 8.46777 7.81155 8.49069 7.94046C8.57662 8.49124 8.63392 8.91019 8.72272 9.4639C8.73704 9.52542 8.68548 9.61038 8.61673 9.60159C8.50215 9.52249 8.4735 9.36136 8.27297 9.36722C8.12975 9.36722 7.96934 9.52835 7.94928 9.68069C7.9235 9.80374 7.9149 9.93558 7.94928 10.041C8.04954 10.1641 8.16986 10.1523 8.27584 10.126C8.36179 10.0879 8.4334 10 8.4649 10.0205C8.48496 10.0469 8.46777 10.3398 8.05527 10.5625C7.80606 10.6797 7.60553 10.7031 7.49954 10.4951C7.43366 10.3633 7.50527 9.86819 7.33913 9.98245Z" fill="white"/>
<path fill-rule="evenodd" clip-rule="evenodd" d="M9.39306 8.68752C9.48759 8.65237 9.94593 8.1133 9.94593 8.1133L9.87717 8.05471C9.8514 8.0342 9.85425 8.01076 9.87717 7.99026C9.99176 7.91994 9.95451 7.77346 9.89722 7.70315C9.85833 7.68376 9.81554 7.67392 9.77227 7.67443C9.72901 7.67494 9.68645 7.68578 9.64801 7.70608C9.5678 7.78518 9.55061 7.91115 9.61363 7.98733C9.67378 8.01662 9.73395 8.08108 9.69384 8.11623C9.50477 8.32131 8.99202 8.6758 9.05217 8.68752C9.06363 8.7051 9.3816 8.7051 9.3902 8.68752H9.39306ZM6.61441 10.5918C6.44254 10.873 6.42822 11.292 6.52275 11.418C6.57431 11.4766 6.65738 11.5029 6.71754 11.4824C6.8264 11.4355 6.87509 11.21 6.84931 11.1309C6.81207 11.0723 6.78342 11.0635 6.74618 11.1104C6.6717 11.2686 6.6402 11.1602 6.6316 11.0723C6.62339 10.9234 6.63108 10.7741 6.65451 10.627C6.67457 10.5039 6.65451 10.5391 6.61441 10.5918ZM13.9792 10.1436C13.8131 9.77444 13.5811 9.41115 13.5095 9.27346C13.2863 8.91253 13.0493 8.5607 12.799 8.21877C12.6215 8.00197 13.0912 8.30959 12.7417 7.876L12.4868 7.65627C12.4295 7.61526 12.292 7.53908 12.2691 7.66213C12.2576 7.77346 12.2634 7.83205 12.2805 7.92287C12.2949 7.98147 12.3808 8.08401 12.4238 8.1426C13.011 8.93814 13.5269 9.78632 13.9649 10.6768C14.0395 10.6387 14.0222 10.2051 13.9792 10.1436Z" fill="white"/>
<path fill-rule="evenodd" clip-rule="evenodd" d="M13.2494 11.3682C13.215 11.4063 13.3296 11.5674 13.4785 11.5674C13.7249 11.5381 13.9426 11.3975 14.1431 11.0225C14.2246 10.8977 14.2766 10.7553 14.2949 10.6064C14.3192 9.89527 14.2635 9.18357 14.1288 8.48538C14.1202 8.42679 14.1288 8.35648 14.1345 8.3389C14.1517 8.31839 14.2062 8.3389 14.2348 8.2891C14.2777 8.24515 14.1202 7.87894 14.0343 7.74124C14.0056 7.67679 13.9913 7.63578 13.9397 7.7471C13.8775 7.86994 13.8479 8.00733 13.8538 8.14554C13.9712 8.9805 14.0085 9.70999 14.083 10.5449C14.0916 10.627 14.0801 10.7441 14.0257 10.791C13.8095 11.0372 13.545 11.2338 13.2494 11.3682ZM16.5866 11.3652C16.409 11.4707 16.409 11.5908 16.5522 11.5938C16.7985 11.5645 17.0908 11.5439 17.2913 11.2334C17.3621 11.0871 17.4031 10.9276 17.4116 10.7647C17.4477 10.0644 17.4025 9.36226 17.277 8.67288C17.2712 8.61429 17.2455 8.4766 17.2541 8.45902C17.2712 8.418 17.3515 8.46195 17.3801 8.41507C17.4202 8.37113 17.171 8.043 17.0822 7.90238C17.0536 7.83792 17.0421 7.79691 16.9876 7.90824C16.93 8.03221 16.9119 8.17162 16.9361 8.30667C17.0678 9.21488 17.1652 9.89456 17.1854 10.6973C17.1738 10.7734 17.171 10.8145 17.1366 10.9111C17.0592 11.0107 16.9734 11.1397 16.8931 11.2012C16.8129 11.2598 16.641 11.3184 16.5866 11.3652Z" fill="white"/>
<path fill-rule="evenodd" clip-rule="evenodd" d="M16.7183 10.5537C16.7183 10.3398 16.7211 10.1582 16.7153 9.99707C16.7135 9.86061 16.6842 9.72599 16.6294 9.60157C16.5779 9.48145 16.6093 9.38477 16.5836 9.25586C16.5606 9.12696 16.5664 8.9336 16.532 8.78418C16.5206 8.72559 16.4919 8.53516 16.5005 8.51465C16.5149 8.47364 16.5693 8.51465 16.5979 8.46778C16.638 8.42383 16.4547 7.94043 16.363 7.80274C16.3316 7.74122 16.2685 7.76172 16.1969 7.86133C16.1252 7.92872 16.1511 8.07813 16.1797 8.22168C16.3544 9.16797 16.4891 10.0264 16.4604 10.9258C16.449 11.002 16.7183 10.6973 16.7183 10.5537ZM15.4091 9.38184C15.2974 9.37598 15.0653 9.15625 14.9966 9.03028C14.9854 8.99949 14.9806 8.96662 14.9825 8.93382C14.9846 8.90101 14.9932 8.86899 15.008 8.83985C15.0511 8.81055 15.114 8.78125 15.1627 8.81055C15.1627 8.81055 15.2115 8.88086 15.2029 8.88965C15.2602 8.91895 15.2889 8.9043 15.2945 8.87793C15.2974 8.83399 15.2773 8.80762 15.2773 8.76075C15.3031 8.62598 15.4492 8.60547 15.5065 8.69043C15.5466 8.74317 15.5638 8.85157 15.5666 8.92481C15.5666 8.9629 15.5093 8.91895 15.4722 8.92481C15.4406 8.93653 15.432 8.97754 15.4292 9.0127C15.4235 9.10938 15.412 9.26465 15.4091 9.37891V9.38184ZM13.3524 10.7881C13.381 10.501 13.3409 9.98829 13.338 9.81836C13.3227 9.38136 13.2873 8.94533 13.232 8.51172C13.1977 8.26563 13.3294 8.53809 13.3123 8.39454C13.2693 8.15137 13.1375 7.98438 12.9799 7.76465C12.9312 7.69141 12.9312 7.67676 12.8539 7.78223C12.7679 7.97852 12.8425 8.11622 12.8653 8.27149C12.9771 8.7754 13.043 9.23829 13.0745 9.69825C13.1074 10.1761 13.1113 10.6555 13.0859 11.1338C13.1719 11.1367 13.3037 10.9961 13.3524 10.7881Z" fill="white"/>
<path fill-rule="evenodd" clip-rule="evenodd" d="M17.099 10.3281C16.9014 9.98827 16.6063 9.62499 16.5261 9.48729C16.2605 9.10792 15.9815 8.73854 15.6896 8.37987C15.4462 8.1162 15.8042 8.33592 15.6438 8.13085C15.5091 7.98143 15.472 7.93163 15.3545 7.84081C15.2972 7.80272 15.2628 7.72948 15.2399 7.85546C15.2308 7.96457 15.2288 8.0742 15.2342 8.18358C15.2342 8.23339 15.2857 8.33007 15.3316 8.38866C15.9245 9.13573 16.5748 9.89745 17.0962 10.8555C17.1707 10.8174 17.1449 10.3867 17.0962 10.3281H17.099Z" fill="white"/>
<path fill-rule="evenodd" clip-rule="evenodd" d="M8.17823 9.70408C8.16391 9.73045 8.1324 9.76268 8.14386 9.7949C8.16391 9.8242 8.18396 9.83299 8.21834 9.83299C8.24984 9.83299 8.29568 9.84178 8.30428 9.8242C8.32147 9.80369 8.33293 9.76561 8.32147 9.72752C8.28709 9.63963 8.19542 9.67479 8.17823 9.70408Z" fill="#1BA400"/>
<path fill-rule="evenodd" clip-rule="evenodd" d="M14.8131 14.6201C15.0766 14.6318 15.2485 14.6348 15.4805 14.6611L15.7554 14.6318C16.0591 14.6025 16.0706 15.0742 16.0706 15.0742C16.0706 15.3525 15.9646 15.3672 15.83 15.3965C15.7526 15.4082 15.7154 15.3496 15.6724 15.291C15.6076 15.3123 15.5386 15.3163 15.4719 15.3027C15.3601 15.2969 15.2513 15.2969 15.1425 15.2881C15.0279 15.2793 14.9648 15.3027 14.8474 15.291C14.8245 15.3291 14.7901 15.3818 14.7214 15.3672C14.6641 15.3584 14.5925 15.1914 14.6125 15.0596C14.6554 14.9658 14.6412 14.998 14.6412 14.957C13.5641 14.9277 12.4784 14.8779 11.4242 14.8926C10.5992 14.8955 9.78568 14.9307 8.96927 14.9658C8.53386 14.96 8.20156 14.8896 7.9724 14.5469C7.99532 14.5469 9.08386 14.6084 9.40182 14.5879C9.98906 14.582 10.5276 14.5322 11.1263 14.5146C12.3065 14.5352 13.4781 14.5352 14.6583 14.6201C14.5438 14.541 14.5438 14.3564 14.7156 14.3096C14.73 14.2978 14.7386 14.4004 14.7643 14.3975C14.9047 14.3887 14.8416 14.582 14.8131 14.6201ZM10.0693 7.96384C9.89167 8.48533 10.1724 9.05955 10.3672 9.00388C10.5105 9.06248 10.5964 8.78709 10.6536 8.48826C10.6966 8.4033 10.7253 8.39451 10.7453 8.43845C10.7395 8.83689 10.774 8.92771 10.8742 9.04783C11.0976 9.22361 11.2839 9.07127 11.2982 9.05662L11.47 8.87791C11.5101 8.83396 11.5618 8.83396 11.6161 8.86912C11.6706 8.91892 11.662 9.00388 11.7766 9.06248C11.874 9.10349 12.0773 9.0742 12.126 8.98923C12.1891 8.87498 12.2062 8.83689 12.2349 8.79588C12.2807 8.73435 12.3581 8.76072 12.3581 8.78123C12.3495 8.81638 12.3036 8.84861 12.3352 8.91306C12.3925 8.95408 12.4039 8.92771 12.4354 8.91892C12.55 8.86033 12.6359 8.60838 12.6359 8.60838C12.6388 8.51463 12.5873 8.52048 12.5528 8.54392L12.4641 8.60545C12.4068 8.61423 12.3008 8.65232 12.2464 8.56736C12.1919 8.46775 12.1919 8.3242 12.1518 8.22166C12.1518 8.2158 12.0773 8.06052 12.1461 8.05173C12.1805 8.05759 12.2521 8.0781 12.2635 8.01658C12.2979 7.95506 12.1891 7.7822 12.1118 7.69431C12.0459 7.62107 11.9541 7.61228 11.8654 7.68845C11.8024 7.74705 11.8109 7.8115 11.7995 7.87302C11.7886 7.91711 11.7881 7.96321 11.7981 8.00752C11.8081 8.05184 11.8282 8.0931 11.8568 8.12791C11.9198 8.25095 12.0315 8.41209 11.9942 8.6406C11.9942 8.6406 11.9284 8.74607 11.8138 8.73142C11.7651 8.72263 11.6878 8.70213 11.6476 8.38572C11.6161 8.15134 11.6534 7.81736 11.556 7.66209C11.5187 7.56541 11.4929 7.47459 11.4071 7.63572C11.3841 7.70017 11.2839 7.79685 11.3554 7.99314C11.4232 8.17002 11.4431 8.36234 11.4127 8.54978C11.3698 8.61423 11.3612 8.63474 11.3068 8.69627C11.2322 8.78416 11.1492 8.76072 11.0862 8.72849C11.0289 8.69041 10.9831 8.6699 10.9545 8.53806C10.9601 8.33298 10.9716 7.99607 10.9344 7.92576C10.88 7.81443 10.7912 7.85545 10.7539 7.8906C10.5835 8.08421 10.4694 8.32267 10.4245 8.57908C10.3729 8.749 10.3185 8.6992 10.2813 8.63181C10.1895 8.54392 10.1809 7.84959 10.0693 7.96384Z" fill="white"/>
<path fill-rule="evenodd" clip-rule="evenodd" d="M10.6074 9.1006C10.6905 9.042 10.6532 9.00099 10.7735 9.12403C10.9288 9.40505 11.019 9.71877 11.0371 10.041C11.0313 10.1172 11.0828 10.1641 11.1087 10.1465C11.1201 9.97071 11.5412 9.72462 11.9279 9.68946C11.9852 9.67482 11.9566 9.56056 11.9652 9.50196C11.9423 9.28224 12.0855 9.08302 12.286 9.06837C12.561 9.10939 12.6527 9.2588 12.6584 9.48439C12.6269 9.92384 12.18 9.99708 11.9308 10.0322C11.8935 10.0469 11.8764 10.0645 11.9308 10.085L12.9792 10.0908L13.0337 10.1201C13.0394 10.1494 13.0165 10.126 12.9764 10.1963C12.9187 10.2999 12.8826 10.4146 12.8704 10.5332C12.5581 10.6387 12.2345 10.6797 11.9079 10.7236C11.7933 10.7822 11.736 10.8613 11.759 10.9492C11.7991 11.0459 12.0511 11.1455 12.0511 11.1484C12.0998 11.1777 12.1542 11.251 12.0368 11.4004C11.5269 11.377 11.1287 11.1543 10.9912 10.8408C10.9511 10.8086 10.9053 10.8408 10.8766 10.8818C10.6761 11.1455 10.4813 11.3799 10.1405 11.5088C9.93992 11.5615 9.7308 11.4766 9.63341 11.3418C9.56752 11.2627 9.57039 11.1777 9.54747 11.1602C9.43576 11.21 8.49044 11.6201 8.61076 11.4268C8.83992 11.1777 9.24096 10.9902 9.59044 10.7441C9.61623 10.6592 9.66205 10.3779 9.79956 10.2871C9.80814 10.2871 9.77951 10.4512 9.78237 10.5215C9.78237 10.5801 9.77664 10.6006 9.7881 10.5859C9.81387 10.5713 10.2378 10.2285 10.2751 10.123C10.3152 10.0645 10.2837 9.91212 10.2837 9.90626C10.2034 9.69532 10.0918 9.67775 10.0517 9.57228C10.0144 9.43458 10.0316 9.27638 10.109 9.2295C10.1777 9.16798 10.2579 9.17384 10.3352 9.24415C10.4212 9.32325 10.4957 9.47853 10.5186 9.59278C10.5042 9.63673 10.404 9.56349 10.3753 9.584C10.4305 9.6488 10.4671 9.72785 10.4813 9.81251C10.5386 10.0527 10.5214 10.1465 10.4641 10.3018C10.2751 10.709 10.0345 10.8291 9.82247 10.9814C9.81674 10.9814 9.81387 11.084 9.89123 11.1396C9.91987 11.1689 10.0316 11.1836 10.1605 11.1396C10.4358 10.9832 10.6586 10.7453 10.7993 10.457C10.8236 10.2377 10.8002 10.0156 10.7306 9.80665C10.6474 9.61036 10.5501 9.33204 10.5501 9.32618C10.5472 9.20314 10.5558 9.16212 10.6074 9.1006ZM7.8631 7.96974C7.98341 8.02833 8.21258 8.00196 8.20112 7.80275L8.19539 7.71192C8.17247 7.65333 8.10372 7.66798 8.0894 7.72657C8.08367 7.74708 8.09799 7.77931 8.0808 7.7881C8.06934 7.79982 8.03211 7.79396 8.03211 7.73829C8.03211 7.72071 8.02065 7.70314 8.01205 7.69142C8.00633 7.68556 8.0006 7.68556 7.98627 7.68556C7.96909 7.68556 7.96909 7.68849 7.9605 7.70314C7.95763 7.71778 7.9519 7.73243 7.9519 7.75001C7.9519 7.77052 7.94044 7.77638 7.92898 7.77931C7.91179 7.77931 7.91466 7.77931 7.90033 7.77345C7.8946 7.76466 7.88601 7.76173 7.88601 7.74415L7.87742 7.69728C7.87169 7.68849 7.86024 7.68263 7.84878 7.6797C7.78289 7.6797 7.77716 7.7588 7.78289 7.7881C7.77716 7.79396 7.7743 7.93165 7.8631 7.96974Z" fill="white"/>
<path fill-rule="evenodd" clip-rule="evenodd" d="M11.4013 9.499C11.5217 9.55759 11.811 9.52537 11.7393 9.33494L11.7337 9.24119C11.7078 9.18259 11.6419 9.19724 11.6277 9.25877C11.6219 9.27634 11.6363 9.30857 11.6162 9.31736C11.6076 9.32908 11.5675 9.32322 11.5704 9.27049C11.5704 9.25291 11.5589 9.2324 11.5503 9.22068C11.5417 9.21775 11.5389 9.21482 11.5217 9.21482C11.5073 9.21482 11.5073 9.22068 11.4987 9.23533C11.493 9.24998 11.4902 9.26463 11.4902 9.2822C11.4873 9.29978 11.4787 9.30564 11.4644 9.3115C11.45 9.3115 11.4529 9.3115 11.4415 9.30271C11.4329 9.29392 11.4243 9.29099 11.4243 9.27635L11.4157 9.22947C11.4099 9.22068 11.3985 9.21482 11.387 9.21189C11.3211 9.21189 11.3154 9.28806 11.3183 9.31736C11.3154 9.32322 11.3125 9.46384 11.4042 9.499H11.4013ZM13.4638 8.86619C13.5842 8.92478 13.8105 8.89842 13.8019 8.70213L13.7962 8.60838C13.7704 8.54978 13.7045 8.56443 13.6902 8.62302C13.6844 8.64353 13.6987 8.67576 13.6787 8.68748C13.6701 8.69627 13.63 8.69041 13.6329 8.63474C13.6329 8.61717 13.6214 8.59959 13.6129 8.58787C13.6042 8.58201 13.6013 8.58201 13.5842 8.58201C13.5698 8.58201 13.5698 8.58787 13.5612 8.60252L13.5526 8.64646C13.5498 8.66697 13.5412 8.67576 13.5269 8.67576C13.5125 8.67576 13.5154 8.67576 13.5039 8.6699C13.4953 8.66111 13.4868 8.65818 13.4868 8.64353C13.4868 8.62888 13.4839 8.60545 13.4782 8.59373C13.4724 8.58494 13.461 8.58201 13.4496 8.57908C13.3837 8.57908 13.3779 8.65525 13.3808 8.68455C13.3779 8.69041 13.3751 8.8281 13.4667 8.86619H13.4638ZM14.5324 10.457C14.3232 10.7002 14.4149 11.1016 14.4636 11.1895C14.5324 11.3301 14.5868 11.4209 14.7214 11.4912C14.8446 11.582 14.9419 11.5264 14.9936 11.4619C15.1167 11.3301 15.1196 10.9932 15.1769 10.9287C15.217 10.8057 15.3201 10.8262 15.3688 10.8818C15.4144 10.948 15.4754 11.0014 15.5464 11.0371C15.661 11.1396 15.7985 11.1602 15.936 11.0664C16.0277 11.0107 16.0878 10.9434 16.1423 10.8057C16.1996 10.6416 16.1709 9.87986 16.1565 9.42869L16.0363 8.79881C16.0363 8.79295 16.0219 8.49998 16.0076 8.4326C16.0076 8.4033 15.999 8.39451 16.0277 8.39744C16.0592 8.42674 16.062 8.42674 16.085 8.43552C16.1136 8.44138 16.1423 8.38572 16.1222 8.33885L15.8357 7.79392C15.8129 7.77049 15.7813 7.74705 15.744 7.79978C15.7221 7.82012 15.7046 7.84501 15.6928 7.87279C15.6809 7.90057 15.675 7.93061 15.6753 7.96092C15.6839 8.08982 15.7039 8.22166 15.7125 8.35056L15.8271 9.01267C15.8644 9.48142 15.873 9.86814 15.9102 10.3398C15.9045 10.5391 15.8443 10.7119 15.787 10.7383C15.787 10.7383 15.7011 10.7881 15.6438 10.7324C15.6009 10.7148 15.4318 10.4424 15.4318 10.4424C15.3459 10.3633 15.2886 10.3838 15.2284 10.4424C15.0565 10.6123 14.982 10.9228 14.8646 11.1396C14.836 11.1895 14.75 11.2275 14.6584 11.1367C14.4235 10.8057 14.561 10.3369 14.5324 10.457ZM13.5183 7.71189C13.6271 7.75584 13.7016 7.98142 13.6787 8.09275C13.6558 8.22459 13.5985 8.37107 13.5584 8.35349C13.5125 8.33592 13.587 8.21873 13.544 8.09568C13.5211 8.01365 13.3722 7.86717 13.3893 7.82615C13.3607 7.73533 13.4524 7.69431 13.5183 7.70896V7.71189Z" fill="white"/>
<path fill-rule="evenodd" clip-rule="evenodd" d="M14.882 10.5918C14.902 10.3223 14.8648 10.1582 14.859 9.99999C14.8534 9.84179 14.6843 8.63476 14.65 8.51757C14.607 8.28906 14.8133 8.48827 14.7903 8.35351C14.7187 8.18945 14.544 7.94628 14.4895 7.80273C14.4551 7.74413 14.4695 7.68554 14.395 7.78808C14.3308 7.96786 14.3083 8.16039 14.3291 8.35058C14.5067 9.29687 14.6871 10.082 14.6585 10.9814C14.7444 10.9814 14.839 10.7852 14.882 10.5918ZM16.7268 8.09277C16.827 8.14257 16.8843 8.42382 16.8729 8.50292C16.8528 8.64941 16.8013 8.80761 16.764 8.7871C16.721 8.76952 16.7726 8.57031 16.7525 8.50878C16.7296 8.42089 16.595 8.26269 16.6093 8.21581C16.5807 8.1162 16.6666 8.07519 16.7268 8.09277ZM9.40202 10.082C9.49655 10.1201 9.55384 10.3252 9.54525 10.3838C9.52233 10.4922 9.47363 10.6094 9.4364 10.5918C9.39915 10.5801 9.44499 10.4336 9.4278 10.3867C9.41921 10.2783 9.28743 10.2197 9.2903 10.1729C9.26739 10.085 9.34759 10.0703 9.40488 10.082H9.40202Z" fill="white"/>
<path fill-rule="evenodd" clip-rule="evenodd" d="M11.6821 10.3926C11.8025 10.3984 11.8626 10.498 11.7509 10.5391C11.6364 10.5771 11.5304 10.6094 11.5274 10.7734C11.5705 11.0078 11.4701 10.9258 11.4129 10.8965C11.3441 10.8438 11.1493 10.7207 11.1207 10.457C11.1179 10.3955 11.1665 10.3398 11.2439 10.3398C11.3585 10.3721 11.5304 10.375 11.6821 10.3926Z" fill="#1B9D00"/>
<path fill-rule="evenodd" clip-rule="evenodd" d="M6.88391 7.64455C7.02142 7.68557 7.03001 7.8965 7.02142 7.95803C7.00137 8.06935 6.95267 8.18947 6.91829 8.17482C6.87819 8.16017 6.91829 8.00783 6.89824 7.96096C6.87819 7.8965 6.76074 7.77346 6.7722 7.7383C6.74642 7.66506 6.82949 7.6299 6.88391 7.64455ZM9.63105 8.62892C9.5222 8.68752 9.4821 8.8633 9.54798 8.96877C9.61101 9.05666 9.7084 9.02443 9.71985 9.02443C9.82584 9.03615 9.88887 8.82228 9.88887 8.82228C9.88887 8.82228 9.89174 8.76369 9.76855 8.87795C9.71412 8.88674 9.71127 8.86623 9.69694 8.83693C9.68382 8.78116 9.68886 8.72253 9.71127 8.66994C9.73131 8.61721 9.69121 8.59377 9.63105 8.62892ZM10.4331 7.56252C10.3758 7.6006 10.2698 7.71486 10.267 7.84377C10.2642 7.91701 10.2498 7.91701 10.2956 7.96096C10.3329 8.01369 10.3644 8.01076 10.4331 7.97267C10.4502 7.96165 10.465 7.9471 10.4763 7.92995C10.4877 7.9128 10.4954 7.89343 10.499 7.87307C10.5162 7.79103 10.4131 7.91408 10.4016 7.82033C10.3787 7.73244 10.4446 7.69728 10.5076 7.61525C10.5076 7.55666 10.5076 7.51857 10.4303 7.56252H10.4331ZM11.0748 7.67971C11.0495 7.78639 11.0342 7.89527 11.029 8.0049C11.0118 8.08693 11.1149 8.12209 11.1578 8.01662C11.2267 7.82619 11.2266 7.74416 11.2323 7.66506C11.2123 7.53908 11.1292 7.54201 11.0748 7.67971ZM15.1425 9.79787C15.154 9.78322 15.7155 9.376 15.7155 9.376C15.7728 9.35549 15.7584 9.58693 15.7326 9.584C15.5585 9.75563 15.3582 9.89713 15.1396 10.0029C15.111 10.0234 15.0852 9.84767 15.1396 9.79787H15.1425ZM15.6496 9.79201C15.7498 9.84182 15.7899 10.1377 15.7784 10.2168C15.7784 10.375 15.6839 10.498 15.6438 10.4805C15.6037 10.46 15.6496 10.2842 15.6295 10.2227C15.6065 10.1348 15.5235 9.97365 15.5378 9.92678C15.5091 9.82717 15.5894 9.77443 15.6524 9.79201H15.6496ZM12.3266 11.0635C12.3731 11.008 12.4271 10.9597 12.487 10.9199C12.5443 10.8906 12.5959 10.9434 12.593 10.9404C12.6016 10.999 12.5587 11.0488 12.573 11.125C12.5844 11.1543 12.593 11.1895 12.6475 11.1777C12.7363 11.1045 12.8194 11.0986 12.9052 11.0957C12.9769 11.0986 12.9797 11.2187 12.9339 11.2187C12.7707 11.2539 12.699 11.3008 12.5816 11.3447C12.5243 11.3799 12.4784 11.3359 12.4784 11.333C12.4784 11.3301 12.4469 11.3008 12.467 11.2246C12.4728 11.166 12.4498 11.1309 12.3982 11.1367C12.3638 11.1602 12.3295 11.1719 12.3123 11.1279C12.3037 11.0986 12.3009 11.0811 12.3266 11.0635ZM16.2396 11.2217C16.2625 11.251 16.2797 11.2803 16.2368 11.333L16.1308 11.4268C16.1136 11.4561 16.1022 11.5088 16.1595 11.5234C16.2625 11.5527 16.5032 11.3916 16.5032 11.3887C16.5432 11.3594 16.5318 11.3008 16.5261 11.3008C16.5032 11.2744 16.4516 11.292 16.4172 11.2861C16.4001 11.2861 16.3456 11.2803 16.3714 11.2275C16.3906 11.2016 16.4061 11.173 16.4172 11.1426C16.4316 11.1074 16.4172 11.084 16.3599 11.0635C16.2998 11.0518 16.2741 11.0576 16.2082 11.0635C16.1737 11.0693 16.1623 11.0869 16.1537 11.1309C16.1565 11.1982 16.1967 11.1953 16.2396 11.2187V11.2217Z" fill="white"/>
<path fill-rule="evenodd" clip-rule="evenodd" d="M12.3468 9.55759C12.3325 9.58689 12.2809 9.58689 12.2322 9.55759C12.1835 9.5283 12.1549 9.48142 12.1721 9.45506C12.1893 9.42869 12.238 9.42869 12.2867 9.45506C12.3354 9.48142 12.3612 9.53123 12.3468 9.55759ZM9.79736 7.98728C9.76871 7.99607 9.72862 7.9697 9.71143 7.92869C9.69424 7.88767 9.70283 7.85252 9.73148 7.84373C9.76012 7.83494 9.79736 7.86424 9.81742 7.90232C9.83747 7.94041 9.82601 7.98142 9.7945 7.99021L9.79736 7.98728Z" fill="#259F00"/>
<path fill-rule="evenodd" clip-rule="evenodd" d="M14.8413 14.9863C15.1106 14.998 15.3627 14.9863 15.6291 15.001C15.6778 15.0449 15.6434 15.1475 15.6119 15.1416L15.3885 15.1328C15.3856 15.0449 15.1679 15.0596 15.1736 15.1357C15.0561 15.1504 14.9502 15.1328 14.8299 15.127C14.7955 15.083 14.8012 15.0039 14.8413 14.9863Z" fill="#209000"/>
</svg>
