<svg width="24" height="24" viewBox="0 0 24 24" fill="none" xmlns="http://www.w3.org/2000/svg">
<path fill-rule="evenodd" clip-rule="evenodd" d="M2 4H22V5.1543H2V4ZM2 6.30859H22V7.46289H2V6.30859ZM2 8.61426H22V9.77148H2V8.61426ZM2 10.9229H22V12.0771H2V10.9229ZM2 13.2314H22V14.3857H2V13.2314ZM2 15.5371H22V16.6914H2V15.5371ZM2 17.8457H22V19H2V17.8457Z" fill="#BD3D44"/>
<path fill-rule="evenodd" clip-rule="evenodd" d="M2 5.1543H22V6.30859H2V5.1543ZM2 7.46289H22V8.61426H2V7.46289ZM2 9.76855H22V10.9229H2V9.76855ZM2 12.0771H22V13.2314H2V12.0771ZM2 14.3857H22V15.54H2V14.3857ZM2 16.6914H22V17.8457H2V16.6914Z" fill="white"/>
<path fill-rule="evenodd" clip-rule="evenodd" d="M2 4H13.3994V12.0771H2V4Z" fill="#192F5D"/>
<path fill-rule="evenodd" clip-rule="evenodd" d="M2.94922 4.3457L3.05469 4.66504H3.38867L3.11914 4.86133L3.22168 5.18359L2.94922 4.98437L2.67969 5.18066L2.78223 4.86133L2.50977 4.66504H2.84961L2.94922 4.3457ZM4.85059 4.3457L4.95312 4.66504H5.29004L5.01758 4.86133L5.12012 5.18359L4.85059 4.98437L4.57812 5.18066L4.68066 4.86133L4.41113 4.66504H4.74512L4.85059 4.3457ZM6.74902 4.3457L6.85449 4.66504H7.18555L6.91602 4.86133L7.01855 5.18359L6.74609 4.98437L6.47656 5.18066L6.5791 4.86133L6.30664 4.66504H6.64355L6.74902 4.3457ZM8.65039 4.3457L8.75293 4.66504H9.08984L8.81738 4.86133L8.92285 5.18359L8.65039 4.98437L8.37793 5.18066L8.4834 4.86133L8.21094 4.66504H8.54492L8.65039 4.3457ZM10.5488 4.3457L10.6543 4.66504H10.9883L10.7188 4.86133L10.8213 5.18359L10.5488 4.98437L10.2793 5.18066L10.3818 4.86133L10.1123 4.66504H10.4463L10.5488 4.3457ZM12.4502 4.3457L12.5527 4.66504H12.8896L12.6172 4.86133L12.7227 5.18359L12.4502 4.98437L12.1777 5.18066L12.2832 4.86133L12.0107 4.66504H12.3477L12.4502 4.3457ZM3.90137 5.1543L4.00391 5.47363H4.34082L4.06836 5.66992L4.16797 5.98926L3.9043 5.79297L3.63184 5.98926L3.72852 5.66992L3.46484 5.47363H3.79883L3.90137 5.1543ZM5.7998 5.1543L5.90527 5.47363H6.23926L5.9668 5.66992L6.07227 5.98926L5.7998 5.79297L5.52734 5.98926L5.63281 5.66992L5.36035 5.47363H5.69727L5.7998 5.1543ZM7.70117 5.1543L7.80371 5.47363H8.14062L7.86816 5.66992L7.9707 5.98926L7.70117 5.79297L7.42871 5.98926L7.53125 5.66992L7.26172 5.47363H7.5957L7.70117 5.1543ZM9.59961 5.1543L9.70508 5.47363H10.0391L9.7666 5.66992L9.87207 5.98926L9.59961 5.79297L9.33008 5.98926L9.43262 5.66992L9.16016 5.47363H9.5L9.59961 5.1543ZM11.501 5.1543L11.6035 5.47363H11.9404L11.668 5.66992L11.7705 5.98926L11.501 5.79297L11.2285 5.98926L11.3311 5.66992L11.0615 5.47363H11.3955L11.501 5.1543ZM2.94922 5.95996L3.05469 6.28516H3.38867L3.11914 6.48144L3.22168 6.80078L2.94922 6.60156L2.67969 6.80078L2.78223 6.47851L2.50977 6.28223H2.84961L2.94922 5.95996ZM4.85059 5.95996L4.95312 6.28223H5.29004L5.01758 6.47851L5.12012 6.79785L4.85059 6.59863L4.57812 6.79785L4.68066 6.47558L4.41113 6.2793H4.74512L4.85059 5.95996ZM6.74902 5.95996L6.85449 6.28223H7.18555L6.91602 6.47851L7.01855 6.79785L6.74609 6.59863L6.47656 6.79785L6.5791 6.47558L6.30664 6.2793H6.64355L6.74902 5.95996ZM8.65039 5.95996L8.75293 6.28223H9.08984L8.81738 6.47851L8.92285 6.79785L8.65039 6.59863L8.37793 6.79785L8.4834 6.47558L8.21094 6.2793H8.54492L8.65039 5.95996ZM10.5488 5.95996L10.6543 6.28223H10.9883L10.7188 6.47851L10.8213 6.79785L10.5488 6.59863L10.2793 6.79785L10.3818 6.47558L10.1123 6.2793H10.4463L10.5488 5.95996ZM12.4502 5.95996L12.5527 6.28223H12.8896L12.6172 6.47851L12.7227 6.79785L12.4502 6.59863L12.1777 6.79785L12.2832 6.47558L12.0107 6.2793H12.3477L12.4502 5.95996ZM3.90137 6.76855L4.00391 7.08789H4.34082L4.06836 7.28418L4.1709 7.60644L3.90137 7.40723L3.62891 7.60351L3.73145 7.28418L3.46191 7.08789H3.7959L3.90137 6.76855ZM5.7998 6.76855L5.90527 7.08789H6.23926L5.9668 7.28418L6.07227 7.60644L5.7998 7.40723L5.52734 7.60351L5.63281 7.28418L5.36035 7.08789H5.69727L5.7998 6.76855ZM7.70117 6.76855L7.80371 7.08789H8.14062L7.86816 7.28418L7.9707 7.60644L7.70117 7.40723L7.42871 7.60351L7.53125 7.28418L7.26172 7.08789H7.5957L7.70117 6.76855ZM9.59961 6.76855L9.70508 7.08789H10.0391L9.76953 7.28418L9.87207 7.60644L9.59961 7.40723L9.33008 7.60351L9.43262 7.28418L9.16016 7.08789H9.5L9.59961 6.76855ZM11.501 6.76855L11.6035 7.08789H11.9404L11.668 7.28418L11.7705 7.60644L11.501 7.40723L11.2285 7.60351L11.3311 7.28418L11.0615 7.08789H11.3955L11.501 6.76855ZM2.94922 7.57715L3.05469 7.89648H3.38867L3.11914 8.09277L3.22168 8.41504L2.94922 8.21582L2.67969 8.41211L2.78223 8.09277L2.50977 7.89648H2.84961L2.94922 7.57715ZM4.85059 7.57715L4.95312 7.89648H5.29004L5.01758 8.09277L5.12012 8.41211L4.85059 8.21582L4.57812 8.41211L4.68066 8.09277L4.41113 7.89648H4.74512L4.85059 7.57715ZM6.74902 7.57715L6.85449 7.89648H7.18555L6.91602 8.09277L7.01855 8.41504L6.74609 8.21582L6.47656 8.41211L6.5791 8.09277L6.30664 7.89648H6.64355L6.74902 7.57715ZM8.65039 7.57715L8.75293 7.89648H9.08984L8.81738 8.09277L8.92285 8.41504L8.65039 8.21582L8.37793 8.41211L8.4834 8.09277L8.21094 7.89648H8.54492L8.65039 7.57715ZM10.5488 7.57715L10.6543 7.89648H10.9883L10.7188 8.09277L10.8213 8.41504L10.5488 8.21582L10.2793 8.41211L10.3818 8.09277L10.1123 7.89648H10.4463L10.5488 7.57715ZM12.4502 7.57715L12.5527 7.89648H12.8896L12.6172 8.09277L12.7227 8.41504L12.4502 8.21582L12.1777 8.41211L12.2832 8.09277L12.0107 7.89648H12.3477L12.4502 7.57715ZM3.90137 8.38574L4.00391 8.70508H4.34082L4.06836 8.90137L4.1709 9.2207L3.90137 9.02148L3.62891 9.2207L3.73145 8.89844L3.46191 8.70215H3.7959L3.90137 8.38574ZM5.7998 8.38574L5.90527 8.70508H6.23926L5.9668 8.90137L6.07227 9.2207L5.7998 9.02148L5.52734 9.2207L5.63281 8.89844L5.36035 8.70215H5.69727L5.7998 8.38574ZM7.70117 8.38574L7.80371 8.70508H8.14062L7.86816 8.90137L7.9707 9.2207L7.70117 9.02148L7.42871 9.2207L7.53125 8.89844L7.26172 8.70215H7.5957L7.70117 8.38574ZM9.59961 8.38574L9.70508 8.70508H10.0391L9.76953 8.90137L9.87207 9.2207L9.59961 9.02148L9.33008 9.2207L9.43262 8.89844L9.16016 8.70215H9.5L9.59961 8.38574ZM11.501 8.38574L11.6035 8.70508H11.9404L11.668 8.90137L11.7705 9.2207L11.501 9.02148L11.2285 9.2207L11.3311 8.89844L11.0615 8.70215H11.3955L11.501 8.38574ZM2.94922 9.1914L3.05469 9.51367H3.38867L3.11914 9.70996L3.22168 10.0264L2.94922 9.83008L2.67969 10.0264L2.78223 9.70703L2.50977 9.51074H2.84961L2.94922 9.1914ZM4.85059 9.1914L4.95312 9.51367H5.29004L5.01758 9.70996L5.12305 10.0264L4.85059 9.83008L4.57812 10.0264L4.68359 9.70703L4.41113 9.51074H4.74512L4.85059 9.1914ZM6.74902 9.1914L6.85449 9.51367H7.18555L6.91602 9.70996L7.01855 10.0264L6.74609 9.83008L6.47656 10.0264L6.5791 9.70703L6.30664 9.51074H6.64355L6.74902 9.1914ZM8.65039 9.1914L8.75293 9.51367H9.08984L8.81738 9.70996L8.92285 10.0264L8.65039 9.83008L8.37793 10.0264L8.4834 9.70703L8.21094 9.51074H8.54492L8.65039 9.1914ZM10.5488 9.1914L10.6543 9.51367H10.9883L10.7188 9.70996L10.8213 10.0264L10.5488 9.83008L10.2793 10.0264L10.3818 9.70703L10.1123 9.51074H10.4463L10.5488 9.1914ZM12.4502 9.1914L12.5527 9.51367H12.8896L12.6172 9.70996L12.7227 10.0264L12.4502 9.83008L12.1777 10.0264L12.2832 9.70703L12.0107 9.51074H12.3477L12.4502 9.1914ZM3.90137 10L4.00391 10.3193H4.34082L4.06836 10.5156L4.1709 10.8379L3.90137 10.6387L3.62891 10.835L3.73145 10.5156L3.46191 10.3193H3.7959L3.90137 10ZM5.7998 10L5.90527 10.3193H6.23926L5.9668 10.5156L6.07227 10.8379L5.7998 10.6387L5.52734 10.835L5.63281 10.5156L5.36035 10.3193H5.69727L5.7998 10ZM7.70117 10L7.80371 10.3193H8.14062L7.86816 10.5156L7.9707 10.8379L7.70117 10.6387L7.42871 10.835L7.53125 10.5156L7.26172 10.3193H7.5957L7.70117 10ZM9.59961 10L9.70508 10.3193H10.0391L9.76953 10.5156L9.87207 10.8379L9.59961 10.6387L9.33008 10.835L9.43262 10.5156L9.16016 10.3193H9.5L9.59961 10ZM11.501 10L11.6035 10.3193H11.9404L11.668 10.5156L11.7705 10.8379L11.501 10.6387L11.2285 10.835L11.3311 10.5156L11.0615 10.3193H11.3955L11.501 10ZM2.94922 10.8086L3.05469 11.1279H3.38867L3.11914 11.3242L3.22168 11.6436L2.94922 11.4473L2.67969 11.6436L2.78223 11.3213L2.50977 11.125H2.84961L2.94922 10.8086ZM4.85059 10.8086L4.95312 11.1279H5.29004L5.01758 11.3242L5.12305 11.6436L4.85059 11.4473L4.57812 11.6436L4.68359 11.3213L4.41113 11.125H4.74512L4.85059 10.8086ZM6.74902 10.8086L6.85449 11.1279H7.18555L6.92188 11.3242L7.02441 11.6436L6.75195 11.4473L6.48242 11.6436L6.58496 11.3213L6.3125 11.125H6.64941L6.74902 10.8086ZM8.65039 10.8086L8.75293 11.1279H9.08984L8.81738 11.3242L8.92285 11.6436L8.65039 11.4473L8.37793 11.6436L8.4834 11.3213L8.21094 11.125H8.54492L8.65039 10.8086ZM10.5488 10.8086L10.6543 11.1279H10.9883L10.7188 11.3242L10.8213 11.6436L10.5488 11.4473L10.2793 11.6436L10.3818 11.3213L10.1123 11.125H10.4463L10.5488 10.8086ZM12.4502 10.8086L12.5527 11.1279H12.8896L12.6172 11.3242L12.7227 11.6436L12.4502 11.4473L12.1777 11.6436L12.2832 11.3213L12.0107 11.125H12.3477L12.4502 10.8086Z" fill="white"/>
</svg>
