<svg data-token-name="flag_vi" width="24" height="24" viewBox="0 0 24 24" xmlns="http://www.w3.org/2000/svg" xml:space="preserve" version="1.1">
 <g>
  <title>Layer 1</title>
  <g stroke="null" id="svg_1">
   <path stroke="null" id="svg_2" fill="#DA251D" d="m0.24427,3.87499l23.38896,0c0.78962,0.00417 1.43178,0.57152 1.43178,1.26401l0,13.48698c0,0.6925 -0.64216,1.25984 -1.43178,1.26401l-23.38896,0c-0.78962,0 -1.43178,-0.56735 -1.43178,-1.25984l0,-13.49116c0,-0.6925 0.64216,-1.25984 1.43178,-1.26401l0,0z" class="st0"/>
   <path stroke="null" id="svg_3" fill="#FFFF00" d="m11.94113,8.61946l-1.12735,3.20087l2.31654,0.69279l-1.18919,-3.89366l0,0zm0,0l0,0l0,0l0,0z" class="st1"/>
   <path stroke="null" id="svg_4" fill="#FFFF00" d="m11.94113,8.61946l1.12735,3.20087l-2.31654,0.69279l1.18919,-3.89366l0,0zm0,0l0,0l0,0l0,0z" class="st1"/>
   <path stroke="null" id="svg_5" fill="#FFFF00" d="m15.41356,10.94776l-3.65319,0l0,2.24499l3.65319,-2.24499l0,0zm0,0l0,0l0,0l0,0z" class="st1"/>
   <path stroke="null" id="svg_6" fill="#FFFF00" d="m15.41356,10.94776l-2.95394,1.97752l-1.43178,-1.81529l4.38573,-0.16224l0,0zm0,0l0,0l0,0l0,0z" class="st1"/>
   <path stroke="null" id="svg_7" fill="#FFFF00" d="m14.08642,14.70987l-1.12735,-3.20087l-2.31654,0.69279l3.44389,2.50808l0,0zm0,0l0,0l0,0l0,0z" class="st1"/>
   <path stroke="null" id="svg_8" fill="#FFFF00" d="m14.08642,14.70987l-2.95394,-1.97752l1.43178,-1.81529l1.52216,3.79281l0,0zm0,0l0,0l0,0l0,0z" class="st1"/>
   <path stroke="null" id="svg_9" fill="#FFFF00" d="m8.4687,10.94776l3.65319,0l0,2.24499l-3.65319,-2.24499l0,0zm0,0l0,0l0,0l0,0z" class="st1"/>
   <path stroke="null" id="svg_10" fill="#FFFF00" d="m8.4687,10.94776l2.95394,1.97752l1.43178,-1.81529l-4.38573,-0.16224l0,0zm0,0l0,0l0,0l0,0z" class="st1"/>
   <path stroke="null" id="svg_11" fill="#FFFF00" d="m9.79583,14.70987l1.12735,-3.20087l2.31654,0.69279l-3.44389,2.50808l0,0zm0,0l0,0l0,0l0,0z" class="st1"/>
   <path stroke="null" id="svg_12" fill="#FFFF00" d="m9.79583,14.70987l2.95394,-1.97752l-1.43178,-1.81529l-1.52216,3.79281l0,0zm0,0l0,0l0,0l0,0z" class="st1"/>
  </g>
 </g>
</svg>