<svg data-token-name="fly_dollar" width="24" height="24" viewBox="0 0 24 24" fill="none" xmlns="http://www.w3.org/2000/svg">
<path d="M23.7305 11.3262C22.0073 8.92112 18.4447 12.4607 11.9428 13.1801C9.53552 13.4461 7.36646 15.3723 4.57003 15.1887C3.42343 15.1133 1.82233 11.9523 0.623675 12.4562C0.00699442 12.7158 -0.275985 13.5823 0.358049 14.2333L7.39782 22.282C7.39782 22.282 7.75555 22.6772 8.96088 22.4035C9.25788 22.4872 13.7228 20.7728 16.3043 17.3406C16.9223 16.5189 17.6592 15.8346 18.422 15.2629C20.8987 13.5082 23.591 12.8968 23.591 12.8968C23.9354 12.6244 24.0162 12.3347 23.9975 12.0834C24.0202 11.6639 23.7305 11.3262 23.7305 11.3262Z" fill="#218321"/>
<path d="M7.53588 6.97545C4.94703 10.3899 0.413302 12.0074 0.413302 12.0074C-0.432538 12.6883 0.281909 13.4909 0.281909 13.4909L7.42502 21.5288C7.42502 21.5288 7.78224 21.9301 8.9853 21.6517C8.9853 21.6517 13.519 20.0375 16.1072 16.623C18.7754 13.1045 23.587 11.9937 23.587 11.9937C24.4322 11.3128 23.7184 10.5089 23.7184 10.5089L16.5753 2.47229C16.5753 2.47229 16.2181 2.07036 15.015 2.34742C15.015 2.34742 10.2041 3.45565 7.53588 6.97545Z" fill="#A7D28B"/>
<path d="M14.625 13.5C16.489 13.5 18 11.8211 18 9.75C18 7.67893 16.489 6 14.625 6C12.761 6 11.25 7.67893 11.25 9.75C11.25 11.8211 12.761 13.5 14.625 13.5Z" fill="#218321"/>
<path d="M8.71135 21C8.13894 21 7.92907 20.7881 7.90048 20.7558L1.78711 13.659C1.77542 13.6455 1.46549 13.2927 1.50318 12.8442C1.52592 12.5722 1.66756 12.3299 1.92356 12.1238L1.96449 12.0992C2.00412 12.0837 5.96882 10.4631 8.19092 7.53413L8.32086 7.63105L8.19092 7.53413C10.5417 4.43517 14.5967 3.10538 14.637 3.09246C15.7707 2.83012 16.1417 3.20489 16.1814 3.24882L22.2142 10.385C22.2252 10.3966 22.5345 10.7507 22.4968 11.1998C22.4741 11.4711 22.3324 11.7135 22.0764 11.9196L22.0121 11.9512C21.9725 11.9609 18.0299 12.9353 15.7461 15.9451C13.4726 18.9433 9.50403 20.883 9.4644 20.9018C9.16292 20.9729 8.91472 21 8.71135 21ZM8.14543 20.5432C8.14608 20.5432 8.43911 20.812 9.35719 20.6C9.36239 20.5929 13.2615 18.6861 15.4881 15.7513C17.7213 12.808 21.4819 11.7568 21.8991 11.6475C22.066 11.5047 22.1583 11.3464 22.1732 11.1765C22.2005 10.8663 21.9705 10.5995 21.9686 10.5969L15.9358 3.46012C15.9345 3.46012 15.6434 3.19196 14.7247 3.4039C14.698 3.41295 10.7385 4.71301 8.45081 7.72862C6.2638 10.6111 2.44789 12.2485 2.11068 12.3893C1.93655 12.5347 1.84169 12.6969 1.82674 12.8707C1.80075 13.1783 2.02946 13.4439 2.03141 13.4464L8.14543 20.5432Z" fill="#218321"/>
<path d="M14.2537 15.0185L14.25 19.0951L14.5591 19.5C15.1617 18.8933 15.7407 18.2111 16.2413 17.4439C16.7606 16.6492 17.3638 15.969 18 15.3946L17.6996 15L14.2537 15.0185Z" fill="#FCB100"/>
<path d="M17.9881 14.8637L9.68807 5.25C9.01377 5.79257 8.36602 6.42535 7.81517 7.17366C7.27692 7.90444 6.65041 8.54761 6 9.11484L6.9703 10.2383L6.96964 10.2389L14.3199 18.75C14.9703 18.1821 15.5895 17.5325 16.1284 16.801C16.6793 16.0534 17.3264 15.4212 18 14.8787L17.9874 14.8637H17.9881Z" fill="#FCB100"/>
<path d="M9.35578 15.2815C8.31886 14.0527 6.12382 16.0465 5.49781 15.3048C5.19479 14.9456 5.38992 14.4798 5.78817 14.144C6.45747 13.5775 6.9403 13.9074 7.24332 13.6508C7.45843 13.4696 7.44711 13.2477 7.31924 13.0951C7.02222 12.7439 6.26301 12.9272 5.67296 13.2683L5.38593 12.9285C5.20678 12.7166 4.88978 12.6893 4.678 12.8685C4.46622 13.0484 4.43958 13.3643 4.61873 13.5762L4.91575 13.9287C4.46489 14.5271 4.31171 15.3215 4.84516 15.9525C5.84145 17.132 8.0638 15.1715 8.76307 16.0005C9.00548 16.2884 8.93755 16.8375 8.42742 17.2679C7.66288 17.915 6.97027 17.6118 6.65926 17.8744C6.50742 18.0016 6.48012 18.2442 6.64195 18.4368C6.89968 18.7413 7.72082 18.676 8.51 18.1842C8.51133 18.1856 8.51133 18.1869 8.51133 18.1882L8.83566 18.5721C9.0148 18.784 9.33247 18.8099 9.54425 18.632C9.7567 18.4521 9.78267 18.1349 9.60352 17.923L9.27919 17.5392C9.27587 17.5352 9.27054 17.5325 9.26654 17.5285C9.79865 16.8768 9.97846 16.0178 9.35578 15.2815Z" fill="#218321"/>
<path d="M21.7465 21.9552C21.7527 21.9497 21.7596 21.9456 21.7659 21.9407C21.8129 21.8937 21.8495 21.8398 21.891 21.788C21.92 21.7521 21.9525 21.7175 21.9794 21.6809C22.0036 21.6463 22.0237 21.6111 22.0458 21.5758C23.0273 20.0644 22.3845 17.5019 20.4415 15.5586C18.4977 13.6152 15.934 12.9725 14.423 13.9545C14.387 13.976 14.3518 13.996 14.3172 14.0209C14.2806 14.0478 14.2453 14.0803 14.2108 14.1087C14.1596 14.1508 14.1057 14.1868 14.058 14.2344C14.0518 14.2407 14.0476 14.2476 14.0428 14.2538C14.0352 14.2614 14.0262 14.2662 14.0179 14.2745L14.0221 14.278C13.3308 15.0119 13.3225 16.1474 14.0179 16.8433C14.7147 17.5399 15.8497 17.5302 16.5844 16.8391L16.592 16.8474C16.5775 16.8613 16.5616 16.8702 16.5478 16.8841C15.8158 17.6159 15.7985 18.7832 16.507 19.4929C17.2162 20.2013 18.3851 20.184 19.1164 19.4521C19.1302 19.4383 19.1392 19.4224 19.153 19.4079L19.1606 19.4162C18.4694 20.1501 18.4604 21.2856 19.1572 21.9822C19.8532 22.6774 20.9882 22.6691 21.7223 21.978L21.7265 21.9822C21.7334 21.9725 21.7389 21.9635 21.7465 21.9552Z" fill="white"/>
<path d="M13.991 17.2777C14.5882 17.855 15.5209 17.9022 16.2123 17.4442C16.5017 16.9658 16.5848 16.511 16.5848 16.3687C15.13 17.4187 13.8314 16.3745 13.5408 15.75C13.4201 16.2896 13.5665 16.8663 13.991 17.2777ZM18.8022 19.7271C18.9986 19.4599 19.1509 19.2015 19.2221 19.0268C18.296 19.8483 16.5255 19.2468 15.9889 17.9437C15.7529 18.5496 15.8735 19.2475 16.3653 19.7233C17.0258 20.3625 18.1015 20.3574 18.8022 19.7271ZM21.3426 22.0203L21.3618 21.9973C21.3683 21.9922 21.3749 21.9884 21.3802 21.9833C21.4257 21.9399 21.4606 21.8902 21.4995 21.843C21.5279 21.8092 21.5582 21.7779 21.5839 21.7435C21.6076 21.7122 21.6267 21.679 21.6478 21.6465C21.6907 21.5827 21.7137 21.5075 21.75 21.4398C20.0836 22.1613 18.8398 20.9372 18.4911 20.3268C18.2966 20.9117 18.4232 21.5668 18.8925 22.0216C19.5556 22.6639 20.638 22.6563 21.3387 22.0178L21.3426 22.0203Z" fill="#C7CCD1"/>
<path d="M9.05953 8.50202L9.07727 8.48808C9.12098 8.445 9.15456 8.39558 9.19194 8.3487C9.21855 8.31576 9.24769 8.28471 9.2724 8.2505C9.29521 8.21882 9.31358 8.18651 9.33385 8.1542C10.2335 6.76862 9.64365 4.41878 7.86276 2.63787C6.08124 0.856327 3.73206 0.266492 2.3465 1.16613C2.31419 1.18641 2.28125 1.20478 2.24957 1.22759C2.21536 1.2523 2.18431 1.28144 2.15137 1.30805C2.10449 1.34606 2.05507 1.37901 2.01199 1.42272C2.00629 1.42842 2.00249 1.43539 1.99805 1.44046C1.99108 1.4468 1.98221 1.4525 1.97525 1.45947L1.97841 1.46264C1.34487 2.13547 1.33727 3.17639 1.97525 3.81438C2.61322 4.45236 3.65414 4.44476 4.32696 3.81121L4.33393 3.81818C4.32062 3.83022 4.30605 3.83909 4.29338 3.85176C3.62246 4.52269 3.60662 5.59275 4.25664 6.24341C4.90665 6.89407 5.97734 6.8776 6.64826 6.20667C6.66093 6.19399 6.66917 6.17942 6.68184 6.16612L6.68881 6.17309C6.05526 6.84592 6.04703 7.88684 6.68564 8.52483C7.32362 9.16281 8.3639 9.15521 9.03672 8.52103L9.03989 8.52483C9.04686 8.51786 9.05256 8.50962 9.05953 8.50202Z" fill="white"/>
<path d="M1.991 3.7787C2.58825 4.3565 3.52105 4.4037 4.21257 3.94451C4.50196 3.4662 4.58437 3.01212 4.58437 2.8699C3.13013 3.919 1.83081 2.87436 1.54075 2.25C1.42012 2.79018 1.56646 3.36735 1.991 3.7787ZM6.80395 6.2264C6.99974 5.95918 7.15202 5.70216 7.22256 5.52742C6.2957 6.34885 4.52504 5.74681 3.98909 4.44387C3.75309 5.04974 3.87373 5.74744 4.36485 6.22321C5.0267 6.86288 6.1032 6.85714 6.80395 6.2264ZM9.3426 8.5204C9.34985 8.51338 9.35579 8.50509 9.36238 8.49744L9.38084 8.48341C9.42632 8.44004 9.46126 8.3903 9.50016 8.3431C9.52784 8.30994 9.55817 8.27869 9.58388 8.24425C9.60761 8.21236 9.62673 8.17984 9.64782 8.14731C9.69067 8.08354 9.71374 8.00764 9.75 7.94004C8.0835 8.66134 6.83955 7.43813 6.49082 6.8278C6.29636 7.41262 6.42292 8.06759 6.89229 8.52167C7.55612 9.16389 8.63856 9.15624 9.33865 8.51785L9.3426 8.5204Z" fill="#C7CCD1"/>
</svg>
