<svg data-token-name="fly_euro" width="24" height="24" viewBox="0 0 24 24" fill="none" xmlns="http://www.w3.org/2000/svg">
<path d="M9.25488 12.001H12.7479" stroke="currentColor" stroke-width="1.5" stroke-linecap="round" stroke-linejoin="round"/>
<path d="M13.8906 14.655C12.8296 15.115 11.5576 14.926 10.6906 14.058C9.55364 12.921 9.55364 11.078 10.6906 9.941C11.5586 9.073 12.8306 8.884 13.8906 9.344" stroke="currentColor" stroke-width="1.5" stroke-linecap="round" stroke-linejoin="round"/>
<path fill-rule="evenodd" clip-rule="evenodd" d="M19.804 18.213V18.213C17.299 17.712 14.715 17.774 12.237 18.393L12 18.453C9.366 19.111 6.619 19.177 3.957 18.644L3.804 18.613C3.336 18.52 3 18.109 3 17.633V6.79399C3 6.16299 3.577 5.68999 4.196 5.81299V5.81299C6.701 6.31399 9.285 6.25199 11.763 5.63299L12.236 5.51499C14.714 4.89599 17.299 4.83399 19.803 5.33499L20.195 5.41299C20.664 5.50699 21 5.91699 21 6.39399V17.233C21 17.864 20.423 18.337 19.804 18.213V18.213Z" stroke="currentColor" stroke-width="1.5" stroke-linecap="round" stroke-linejoin="round"/>
</svg>
