<svg width="56" height="56" data-token-name="flydollar-circled" viewBox="0 0 56 56" fill="none" xmlns="http://www.w3.org/2000/svg">
<circle cx="28.0013" cy="27.9998" r="23.3333" fill="currentColor"/>
<path d="M40.551 37.8778C36.3426 37.0362 32.0015 37.1403 27.8385 38.1802L27.4403 38.281C23.0152 39.3865 18.4002 39.4974 13.9281 38.6019L13.671 38.5499C12.8848 38.3936 12.3203 37.7031 12.3203 36.9034V18.6939C12.3203 17.6338 13.2897 16.8392 14.3296 17.0459C18.538 17.8875 22.8791 17.7834 27.0422 16.7434L27.8368 16.5452C31.9998 15.5053 36.3426 15.4011 40.5494 16.2428L41.2079 16.3738C41.9958 16.5318 42.5603 17.2206 42.5603 18.0219V36.2314C42.5603 37.2915 41.591 38.0862 40.551 37.8778Z" fill="white"/>
<path d="M24.8937 30.7932C25.275 31.4164 25.9252 31.8482 26.7097 31.8482H27.4456H28.3209C29.4616 31.8482 30.3839 30.9242 30.3839 29.7852C30.3839 28.8376 29.7388 28.0128 28.8215 27.7809L26.0663 27.0888C25.1507 26.8586 24.5039 26.032 24.5039 25.0845C24.5039 23.9438 25.4279 23.0215 26.5669 23.0215H27.4422H28.1781C28.9626 23.0215 29.6111 23.4499 29.9925 24.0715" fill="none" stroke="currentColor" stroke-width="2" stroke-linecap="round" stroke-linejoin="round"/>
<path d="M27.4414 23.0301V21.5601" fill="none" stroke="currentColor" stroke-width="2" stroke-linecap="round" stroke-linejoin="round"/>
<path d="M27.4414 31.8501V33.3201" fill="none" stroke="currentColor" stroke-width="2" stroke-linecap="round" stroke-linejoin="round"/>
<path d="M14.5625 35.2798C16.2997 36.1201 18.1611 36.5853 20.7225 35.8398" fill="none" stroke="currentColor" stroke-width="1.5" stroke-linecap="round"/>
<path d="M14.5625 19.6001C16.9378 20.8985 17.4647 20.3882 20.1625 20.1601" fill="none" stroke="currentColor" stroke-width="1.5" stroke-linecap="round"/>
<path d="M33.6016 19.0394C35.2816 17.9201 37.5216 18.4784 39.7616 19.0391" fill="none" stroke="currentColor" stroke-width="1.5" stroke-linecap="round"/>
<path d="M33.6016 34.718C35.8416 33.5993 38.0816 34.1598 39.7616 34.718" fill="none" stroke="currentColor" stroke-width="1.5" stroke-linecap="round"/>
</svg>
