<svg width="24" height="24" viewBox="0 0 24 24" fill="none" xmlns="http://www.w3.org/2000/svg">
<path d="M11.9871 3.00008C11.5326 3.00912 11.1684 3.3588 11.1749 3.78383V5.0077L10.9331 4.78161C10.7784 4.63089 10.5657 4.5495 10.3401 4.54649C10.0048 4.5495 9.70509 4.73941 9.57616 5.0288C9.45046 5.3212 9.52459 5.65279 9.76633 5.87284L11.1749 7.19015V10.1624L8.41904 8.67928L7.90333 6.87966C7.81308 6.54205 7.49398 6.3039 7.12654 6.29486C6.86224 6.28883 6.61405 6.40037 6.45289 6.59329C6.29173 6.78923 6.24016 7.04244 6.31107 7.27757L6.40132 7.58504L5.26676 6.97612C5.1475 6.90679 5.01213 6.87062 4.87353 6.86459C4.84775 6.86459 4.81874 6.86459 4.79295 6.8676C4.42873 6.88871 4.11931 7.12986 4.03873 7.46446C3.95815 7.79907 4.12253 8.14271 4.44162 8.30851L5.57619 8.92044L5.2442 9.00484C4.95411 9.07116 4.72526 9.27915 4.64468 9.55045C4.56733 9.81874 4.64791 10.1081 4.86064 10.3041C5.07337 10.5 5.38279 10.5723 5.66966 10.497L7.59712 10.0147L10.3497 11.5008L7.59712 12.9869L5.66966 12.5046C5.5923 12.4835 5.51172 12.4745 5.42792 12.4775C5.01213 12.4835 4.67047 12.7759 4.62212 13.1617C4.577 13.5446 4.8413 13.9033 5.2442 13.9967L5.57619 14.0812L4.44162 14.6931C4.1741 14.8227 4.00327 15.0819 4.00005 15.3653C3.99682 15.6487 4.15798 15.9109 4.42228 16.0496C4.68659 16.1852 5.01213 16.1792 5.26676 16.0255L6.40132 15.4165L6.31107 15.724C6.22727 15.9923 6.30785 16.2817 6.51736 16.4806C6.72686 16.6796 7.03307 16.758 7.32315 16.6826C7.61002 16.6103 7.83242 16.3962 7.90333 16.1219L8.41904 14.3223L11.1749 12.8392V15.8114L9.76633 17.1287C9.55038 17.3217 9.46335 17.6111 9.54071 17.8793C9.61484 18.1506 9.84046 18.3617 10.1306 18.431C10.4174 18.5033 10.7268 18.4219 10.9331 18.22L11.1749 17.9939V19.2178C11.1716 19.4951 11.3264 19.7543 11.5842 19.896C11.8421 20.0347 12.1579 20.0347 12.4158 19.896C12.6736 19.7543 12.8284 19.4951 12.8251 19.2178V17.9939L13.0669 18.22C13.2732 18.4219 13.5826 18.5033 13.8694 18.431C14.1595 18.3617 14.3852 18.1506 14.4593 17.8793C14.5366 17.6111 14.4496 17.3217 14.2337 17.1287L12.8251 15.8114V12.8392L15.581 14.3223L16.0967 16.1219C16.1676 16.3962 16.39 16.6103 16.6768 16.6826C16.9669 16.758 17.2731 16.6796 17.4826 16.4806C17.6922 16.2817 17.7727 15.9923 17.6889 15.724L17.5987 15.4165L18.7332 16.0255C18.9879 16.1792 19.3134 16.1852 19.5777 16.0496C19.842 15.9109 20.0032 15.6487 20 15.3653C19.9967 15.0819 19.8259 14.8227 19.5584 14.6931L18.4238 14.0812L18.7558 13.9967C19.1619 13.9033 19.4294 13.5386 19.3747 13.1497C19.3231 12.7608 18.9653 12.4714 18.5495 12.4775C18.4722 12.4775 18.4013 12.4865 18.3303 12.5046L16.4029 12.9869L13.6503 11.5008L16.4029 10.0147L18.3303 10.497C18.6172 10.5723 18.9266 10.5 19.1394 10.3041C19.3521 10.1081 19.4327 9.81874 19.3553 9.55045C19.2747 9.27915 19.0459 9.07116 18.7558 9.00484L18.4238 8.92044L19.5584 8.30851C19.8807 8.1397 20.0419 7.79002 19.9548 7.45542C19.8678 7.1178 19.5519 6.87966 19.1813 6.8676C19.0265 6.86158 18.8686 6.89775 18.7332 6.97612L17.5987 7.58504L17.6889 7.27757C17.7631 7.03641 17.705 6.78019 17.5407 6.58425C17.3731 6.39132 17.1184 6.2828 16.8509 6.29486C16.4899 6.31596 16.1837 6.55109 16.0967 6.87966L15.581 8.67928L12.8251 10.1624V7.19015L14.2337 5.87284C14.4786 5.65279 14.5528 5.31215 14.4238 5.01975C14.2917 4.72735 13.9823 4.53744 13.6406 4.54347C13.4246 4.5495 13.2184 4.63391 13.0669 4.78161L12.8251 5.0077V3.78383C12.8284 3.57584 12.7413 3.37387 12.5834 3.22616C12.4255 3.07846 12.2095 2.99707 11.9871 3.00008Z" fill="currentColor"/>
</svg>
