<svg data-token-name="gift_app" width="24" height="24" viewBox="0 0 24 24" fill="none" xmlns="http://www.w3.org/2000/svg">
<rect width="24" height="24" rx="12" fill="currentColor"/>
<path d="M13.5556 11.2222H17.8333C18.1428 11.2222 18.4395 11.0993 18.6583 10.8805C18.8771 10.6617 19 10.3649 19 10.0555V9.27775C19 8.96833 18.8771 8.67159 18.6583 8.45279C18.4395 8.234 18.1428 8.11108 17.8333 8.11108H6.16667C5.85725 8.11108 5.5605 8.234 5.34171 8.45279C5.12292 8.67159 5 8.96833 5 9.27775V10.0555C5 10.3649 5.12292 10.6617 5.34171 10.8805C5.5605 11.0993 5.85725 11.2222 6.16667 11.2222H10.4444" stroke="white" stroke-width="1" stroke-linecap="round" stroke-linejoin="round"/>
<path d="M18.2218 11.2222V17.4445C18.2218 17.857 18.0579 18.2527 17.7662 18.5444C17.4745 18.8361 17.0788 19 16.6662 19H7.3329C6.92034 19 6.52468 18.8361 6.23296 18.5444C5.94123 18.2527 5.77734 17.857 5.77734 17.4445V11.2222" stroke="white" stroke-width="1" stroke-linecap="round" stroke-linejoin="round"/>
<path d="M10.4442 5C10.8568 5 11.2524 5.16389 11.5442 5.45561C11.8359 5.74733 11.9998 6.143 11.9998 6.55556V8.11111H10.4442C10.0317 8.11111 9.63601 7.94722 9.34428 7.6555C9.05256 7.36378 8.88867 6.96811 8.88867 6.55556C8.88867 6.143 9.05256 5.74733 9.34428 5.45561C9.63601 5.16389 10.0317 5 10.4442 5Z" stroke="white" stroke-width="1" stroke-linecap="round" stroke-linejoin="round"/>
<path d="M13.5556 5C13.9681 5 14.3638 5.16389 14.6555 5.45561C14.9472 5.74733 15.1111 6.143 15.1111 6.55556C15.1111 6.96811 14.9472 7.36378 14.6555 7.6555C14.3638 7.94722 13.9681 8.11111 13.5556 8.11111H12V6.55556C12 6.143 12.1639 5.74733 12.4556 5.45561C12.7473 5.16389 13.143 5 13.5556 5Z" stroke="white" stroke-width="1" stroke-linecap="round" stroke-linejoin="round"/>
<path d="M12.7786 8.11108H11.2231C10.7935 8.11108 10.4453 8.45931 10.4453 8.88886V18.2222C10.4453 18.6518 10.7935 19 11.2231 19H12.7786C13.2082 19 13.5564 18.6518 13.5564 18.2222V8.88886C13.5564 8.45931 13.2082 8.11108 12.7786 8.11108Z" stroke="white" stroke-width="1" stroke-linecap="round" stroke-linejoin="round"/>
</svg>
