<svg data-token-name="glasses" width="24" height="24" viewBox="0 0 24 24" fill="none" xmlns="http://www.w3.org/2000/svg">
<path d="M17.903 4L19.574 5.142C20.056 5.471 20.37 5.995 20.434 6.576L21.464 16M9.50001 16.473C9.50001 15.161 10.619 14.098 12 14.098C13.381 14.098 14.5 15.161 14.5 16.473M6.09701 4L4.42601 5.142C3.94401 5.471 3.63001 5.995 3.56701 6.576L2.53601 16M20.4749 14.0251C21.8417 15.3919 21.8417 17.608 20.4749 18.9748C19.1081 20.3417 16.892 20.3417 15.5252 18.9748C14.1583 17.608 14.1583 15.3919 15.5252 14.0251C16.892 12.6583 19.1081 12.6583 20.4749 14.0251ZM8.47488 14.0251C9.84172 15.3919 9.84172 17.608 8.47488 18.9748C7.10804 20.3417 4.89197 20.3417 3.52513 18.9748C2.15829 17.608 2.15829 15.3919 3.52513 14.0251C4.89197 12.6583 7.10804 12.6583 8.47488 14.0251Z" stroke="currentColor" fill="none"  stroke-linecap="round" stroke-linejoin="round"/>
</svg>
