<svg data-token-name="googleplus_colored" width="24" height="24" viewBox="0 0 24 24" fill="none" xmlns="http://www.w3.org/2000/svg">
<path d="M0 12C0 5.37258 5.37258 0 12 0C18.6274 0 24 5.37258 24 12C24 18.6274 18.6274 24 12 24C5.37258 24 0 18.6274 0 12Z" fill="#EA4335"/>
<path d="M17.0945 9.858C17.5752 9.858 18.0556 9.858 18.5384 9.858C18.541 10.3331 18.5457 10.8105 18.5483 11.2854C19.0311 11.2901 19.5166 11.2925 19.9996 11.2949C19.9996 11.7699 19.9996 12.2424 19.9996 12.7175C19.5168 12.7198 19.0313 12.7222 18.5483 12.7246C18.5435 13.202 18.541 13.6769 18.5384 14.1543C18.0556 14.152 17.5723 14.1543 17.0919 14.1543C17.0873 13.6769 17.0873 13.202 17.0822 12.727C16.5994 12.722 16.1139 12.7198 15.6309 12.7173C15.6309 12.2422 15.6309 11.7697 15.6309 11.2946C16.1139 11.2923 16.597 11.2899 17.0822 11.2851C17.0846 10.8105 17.0895 10.3331 17.0945 9.858Z" fill="white"/>
<path d="M4.00312 12.0064C3.90357 9.42853 6.1995 7.04628 8.82332 7.01538C10.1606 6.9032 11.4616 7.41393 12.4737 8.24692C12.0585 8.69583 11.6361 9.13956 11.185 9.55497C10.294 9.02263 9.22132 8.61694 8.18005 8.97724C6.50058 9.44755 5.48349 11.3977 6.10499 13.0136C6.61969 14.7012 8.70684 15.6273 10.3426 14.9184C11.1896 14.6201 11.748 13.8515 11.993 13.0257C11.0223 13.0067 10.0514 13.0185 9.08067 12.9922C9.07825 12.4242 9.07583 11.8583 9.07825 11.2903C10.6971 11.2879 12.3183 11.2832 13.9395 11.2975C14.0391 12.6892 13.8303 14.1785 12.9104 15.2955C11.6506 16.89 9.32329 17.3579 7.42998 16.7324C5.42063 16.0834 3.95939 14.0925 4.00312 12.0064Z" fill="white"/>
</svg>
