<svg data-token-name="google_colored" width="24" height="24" viewBox="0 0 24 24" fill="none" xmlns="http://www.w3.org/2000/svg">
<path d="M22.0026 12.228C22.0035 11.5466 21.9447 10.8663 21.8269 10.1947H12.2051V14.046H17.716C17.6033 14.6611 17.3646 15.2474 17.0144 15.7697C16.6642 16.292 16.2097 16.7393 15.6783 17.0848V19.5847H18.9673C20.8931 17.8445 22.0026 15.271 22.0026 12.228Z" fill="#4285F4"/>
<path d="M12.1999 21.9999C14.9533 21.9999 17.2716 21.1139 18.9622 19.5861L15.6732 17.0862C14.7577 17.6945 13.5787 18.0418 12.1999 18.0418C9.5387 18.0418 7.2799 16.2835 6.47218 13.9141H3.08398V16.4904C3.93318 18.1466 5.23534 19.5388 6.84507 20.5117C8.4548 21.4846 10.3088 21.9999 12.1999 21.9999Z" fill="#34A853"/>
<path d="M6.47462 13.9142C6.0476 12.6726 6.0476 11.3281 6.47462 10.0865V7.51024H3.08642C2.37205 8.90346 2 10.4411 2 12.0004C2 13.5596 2.37205 15.0972 3.08642 16.4905L6.47462 13.9142Z" fill="#FBBC04"/>
<path d="M12.1999 5.95885C13.655 5.93555 15.0609 6.47435 16.1139 7.45879L19.0259 4.60473C17.1794 2.9049 14.7331 1.97166 12.1999 2.00066C10.3087 2.00074 8.4548 2.51599 6.84507 3.48888C5.23534 4.46178 3.93318 5.85402 3.08398 7.51018L6.47218 10.0865C7.2799 7.71711 9.5387 5.95885 12.1999 5.95885Z" fill="#EA4335"/>
</svg>
