<svg data-token-name="group" width="24" height="24" viewBox="0 0 24 24" fill="none" xmlns="http://www.w3.org/2000/svg">
<path d="M2 19C2 16.8 3.8 15 6 15H10C12.2 15 14 16.8 14 19M16 14H19C20.7 14 22 15.3 22 17M11.5 8.5C11.5 10.433 9.933 12 8 12C6.067 12 4.5 10.433 4.5 8.5C4.5 6.567 6.067 5 8 5C9.933 5 11.5 6.567 11.5 8.5ZM20 8.5C20 9.88071 18.8807 11 17.5 11C16.1193 11 15 9.88071 15 8.5C15 7.11929 16.1193 6 17.5 6C18.8807 6 20 7.11929 20 8.5Z" stroke="black" stroke-width="1.5" stroke-linecap="round" stroke-linejoin="round"/>
</svg>
