<svg data-token-name="help_invert" width="24" height="24" viewBox="0 0 24 24" fill="none" xmlns="http://www.w3.org/2000/svg">
<path d="M0 12C0 5.37258 5.37258 0 12 0C18.6274 0 24 5.37258 24 12C24 18.6274 18.6274 24 12 24C5.37258 24 0 18.6274 0 12Z" fill="url(#paint0_linear_8335_38758)"/>
<circle cx="12" cy="12" r="11" fill="white"/>
<path d="M7.92557 18.1585L7.02003 15.8001C6.9754 15.6839 7.00692 15.5498 7.09887 15.4692C9.32533 13.5173 10.808 13.7375 13.5414 15.2856C13.5712 15.3025 13.6046 15.3141 13.6382 15.3192C14.7269 15.4851 15.3922 15.7471 15.423 16.1643C15.4245 16.1845 15.4267 16.207 15.4298 16.227C15.5934 17.334 12.2035 16.0842 11.4599 16.5728C11.296 16.6806 11.5066 16.8328 11.6971 16.7956C12.7979 16.5809 14.67 17.4547 15.4241 16.9309C15.9518 16.4519 15.9265 16.1897 15.7318 15.8613C15.6471 15.7183 15.6794 15.5308 15.8143 15.4387C17.0174 14.6172 18.0411 13.7509 18.4136 14.0665C18.5216 14.1579 18.6362 14.259 18.7742 14.2776C19.0062 14.3088 19.0384 14.4731 18.9649 14.8319C18.9597 14.8571 18.951 14.8817 18.9393 14.9044C17.5301 17.6554 14.4907 19.0499 13.3332 18.9936C13.3134 18.9926 13.2955 18.9934 13.2758 18.9955C12.3366 19.0951 9.87766 17.5028 8.40762 18.3093C8.23372 18.4048 7.99857 18.3486 7.92557 18.1585Z" fill="#D7A37D"/>
<path d="M5.81639 15.0146L5.1419 15.3098C5.02874 15.3593 4.97095 15.5193 5.01457 15.6623L5.97986 18.8266C6.02754 18.9829 6.17355 19.0475 6.28571 18.9619L6.89776 18.4947C6.98564 18.4277 7.02276 18.2893 6.98576 18.1666L6.0829 15.1742C6.04183 15.0381 5.92395 14.9675 5.81639 15.0146Z" fill="#100F0D"/>
<path fill-rule="evenodd" clip-rule="evenodd" d="M18.7 9H10.2998C11.3968 11.2202 14.1364 12.8763 14.3021 12.9566C14.3607 12.9851 14.4261 13 14.4927 13C14.5592 13 14.6247 12.9851 14.6833 12.9566C14.849 12.8763 17.603 11.2202 18.7 9Z" fill="#F9D548"/>
<path fill-rule="evenodd" clip-rule="evenodd" d="M18.7001 9H10.2999C10.143 8.63554 10.0396 8.25593 10.0106 7.86557C9.9177 6.61822 10.4389 5.6191 11.4053 5.1931C11.7192 5.07138 12.0509 5.00643 12.386 5.00109C12.7776 4.99465 13.1664 5.06974 13.5296 5.22194C13.8927 5.37414 14.2227 5.60035 14.5 5.88717C14.8973 5.47581 15.4003 5.19164 15.949 5.06857C16.4977 4.9455 17.0689 4.98873 17.5947 5.1931C18.5611 5.61906 19.0823 6.61822 18.9894 7.86557C18.9604 8.25593 18.857 8.63554 18.7001 9Z" fill="#215CB5"/>
<defs>
<linearGradient id="paint0_linear_8335_38758" x1="12" y1="0" x2="12" y2="24" gradientUnits="userSpaceOnUse">
<stop stop-color="#2860B2"/>
<stop offset="1" stop-color="#F2D24C"/>
</linearGradient>
</defs>
</svg>
