<svg data-token-name="help_solid" width="24" height="24" viewBox="0 0 24 24" fill="none" xmlns="http://www.w3.org/2000/svg">
<circle cx="12" cy="12" r="10" fill="none"/>
<path fill-rule="evenodd" clip-rule="evenodd" d="M2 12C2 17.5233 6.47667 22 12 22C17.5233 22 22 17.5233 22 12C22 6.47667 17.5233 2 12 2C6.47667 2 2 6.47667 2 12ZM12 6.25C10.2164 6.25 8.75 7.65203 8.75 9.4805C8.75 9.89471 9.08579 10.2305 9.5 10.2305C9.91421 10.2305 10.25 9.89471 10.25 9.4805C10.25 8.50408 11.0211 7.75 12 7.75C12.9789 7.75 13.75 8.50408 13.75 9.4805C13.75 10.1068 13.4076 10.462 12.8406 10.8501C12.157 11.3165 11.25 12.0745 11.25 13.5V14C11.25 14.4142 11.5858 14.75 12 14.75C12.4142 14.75 12.75 14.4142 12.75 14V13.5C12.75 12.852 13.1051 12.4855 13.6864 12.0889L13.6874 12.0882C14.3551 11.6312 15.25 10.8847 15.25 9.4805C15.25 7.65203 13.7836 6.25 12 6.25ZM12.75 16.5C12.75 16.0858 12.4142 15.75 12 15.75C11.5858 15.75 11.25 16.0858 11.25 16.5V17C11.25 17.4142 11.5858 17.75 12 17.75C12.4142 17.75 12.75 17.4142 12.75 17V16.5Z" fill="currentColor"/>
</svg>
