<svg data-token-name="envelope" width="24" height="24" viewBox="0 0 24 24" fill="none" xmlns="http://www.w3.org/2000/svg">
<path d="M19.842 8.299L19.3815 8.891L19.3818 8.89123L19.842 8.299ZM13.842 3.632L13.3813 4.22384L13.3815 4.224L13.842 3.632ZM10.158 3.632L9.69758 3.03995L9.69752 3.04L10.158 3.632ZM4.158 8.299L4.61818 8.89123L4.61848 8.891L4.158 8.299ZM9 16.25C8.58579 16.25 8.25 16.5858 8.25 17C8.25 17.4142 8.58579 17.75 9 17.75V16.25ZM15 17.75C15.4142 17.75 15.75 17.4142 15.75 17C15.75 16.5858 15.4142 16.25 15 16.25V17.75ZM20.3025 7.707L14.3025 3.04L13.3815 4.224L19.3815 8.891L20.3025 7.707ZM14.3027 3.04016C12.9486 1.98618 11.0523 1.98644 9.69758 3.03995L10.6184 4.22404C11.4317 3.59155 12.5694 3.59182 13.3813 4.22384L14.3027 3.04016ZM9.69752 3.04L3.69752 7.707L4.61848 8.891L10.6185 4.224L9.69752 3.04ZM3.69783 7.70677C2.78363 8.41711 2.25 9.50986 2.25 10.667H3.75C3.75 9.97213 4.07037 9.31688 4.61817 8.89123L3.69783 7.70677ZM2.25 10.667V18H3.75V10.667H2.25ZM2.25 18C2.25 20.0712 3.92879 21.75 6 21.75V20.25C4.75721 20.25 3.75 19.2428 3.75 18H2.25ZM6 21.75H18V20.25H6V21.75ZM18 21.75C20.0712 21.75 21.75 20.0712 21.75 18H20.25C20.25 19.2428 19.2428 20.25 18 20.25V21.75ZM21.75 18V10.667H20.25V18H21.75ZM21.75 10.667C21.75 9.50986 21.2164 8.41711 20.3022 7.70677L19.3818 8.89123C19.9296 9.31688 20.25 9.97213 20.25 10.667H21.75ZM9 17.75H15V16.25H9V17.75Z" fill="currentColor"/>
</svg>
