<svg width="24" height="24" viewBox="0 0 24 24" fill="none" xmlns="http://www.w3.org/2000/svg">
<rect width="24" height="24" rx="12" fill="#8756FF"/>
<path d="M4 11.2857L5.14286 10.1429L6.28571 11.2857" stroke="white" stroke-width="1.5" stroke-linecap="round" stroke-linejoin="round"/>
<path d="M19.9996 12.4286L18.8567 13.5714L17.7139 12.4286" stroke="white" stroke-width="1.5" stroke-linecap="round" stroke-linejoin="round"/>
<path d="M6.4209 7.88762C7.66433 6.14362 9.6948 5 11.9996 5C15.7862 5 18.8567 8.07048 18.8567 11.8571C18.8567 12.3783 18.7935 12.8842 18.6838 13.3718" stroke="white" stroke-width="1.5" stroke-linecap="round" stroke-linejoin="round"/>
<path d="M17.5782 7.88763C15.8243 8.47735 13.9523 8.80954 11.9996 8.80954C10.0468 8.80954 8.1748 8.47735 6.4209 7.88763" stroke="white" stroke-width="1.5" stroke-linecap="round" stroke-linejoin="round"/>
<path d="M17.5755 15.8236C16.3328 17.5676 14.3023 18.7112 11.9968 18.7112C8.21012 18.7112 5.13965 15.6407 5.13965 11.8541C5.13965 11.3329 5.20289 10.827 5.3126 10.3394" stroke="white" stroke-width="1.5" stroke-linecap="round" stroke-linejoin="round"/>
<path d="M6.41895 15.8236C8.17285 15.2339 10.0448 14.9017 11.9976 14.9017C13.9504 14.9017 15.8224 15.2339 17.5763 15.8236" stroke="white" stroke-width="1.5" stroke-linecap="round" stroke-linejoin="round"/>
<path d="M14.02 16.7059C15.1358 14.028 15.1358 9.68629 14.02 7.00841C12.9042 4.33053 11.0952 4.33053 9.97942 7.00841C8.86363 9.68628 8.86363 14.028 9.97942 16.7059C11.0952 19.3837 12.9042 19.3837 14.02 16.7059Z" stroke="white" stroke-width="1.5" stroke-linecap="round" stroke-linejoin="round"/>
</svg>
