<svg data-token-name="iban" width="24" height="24" viewBox="0 0 24 24" fill="none" xmlns="http://www.w3.org/2000/svg">
<path d="M2.64941 11.3333L3.98275 10L5.31608 11.3333" stroke="currentColor" stroke-width="1.5" stroke-linecap="round" stroke-linejoin="round"/>
<path d="M21.3151 12.6667L19.9818 14L18.6484 12.6667" stroke="currentColor" stroke-width="1.5" stroke-linecap="round" stroke-linejoin="round"/>
<path d="M5.47363 7.36889C6.9243 5.33422 9.29319 4 11.9821 4C16.3999 4 19.9821 7.58223 19.9821 12C19.9821 12.608 19.9083 13.1982 19.7803 13.7671" stroke="currentColor" stroke-width="1.5" stroke-linecap="round" stroke-linejoin="round"/>
<path d="M18.4905 7.36891C16.4443 8.05691 14.2603 8.44447 11.9821 8.44447C9.70386 8.44447 7.51986 8.05691 5.47363 7.36891" stroke="currentColor" stroke-width="1.5" stroke-linecap="round" stroke-linejoin="round"/>
<path d="M18.487 16.6276C17.0372 18.6622 14.6683 19.9964 11.9785 19.9964C7.56074 19.9964 3.97852 16.4142 3.97852 11.9964C3.97852 11.3884 4.05229 10.7982 4.18029 10.2293" stroke="currentColor" stroke-width="1.5" stroke-linecap="round" stroke-linejoin="round"/>
<path d="M5.47168 16.6276C7.5179 15.9396 9.70191 15.552 11.9801 15.552C14.2584 15.552 16.4424 15.9396 18.4886 16.6276" stroke="currentColor" stroke-width="1.5" stroke-linecap="round" stroke-linejoin="round"/>
<path d="M14.3388 17.6569C15.6406 14.5327 15.6406 9.46735 14.3388 6.34315C13.037 3.21895 10.9265 3.21895 9.62475 6.34315C8.323 9.46733 8.323 14.5327 9.62475 17.6569C10.9265 20.781 13.037 20.781 14.3388 17.6569Z" stroke="currentColor" stroke-width="1.5" stroke-linecap="round" stroke-linejoin="round"/>
</svg>
