<svg data-token-name="info_solid" width="24" height="24" viewBox="0 0 24 24" fill="none" xmlns="http://www.w3.org/2000/svg">
    <path fill-rule="evenodd" clip-rule="evenodd" d="M19.0711 19.0711C22.9763 15.1658 22.9763 8.83419 19.0711 4.92894C15.1658 1.02369 8.83418 1.02369 4.92894 4.92894C1.02369 8.83416 1.02369 15.1658 4.92894 19.0711C8.83416 22.9763 15.1658 22.9763 19.0711 19.0711ZM12 6.25C11.5858 6.25 11.25 6.5858 11.25 7C11.25 7.4142 11.5858 7.75 12 7.75C12.4142 7.75 12.75 7.4142 12.75 7C12.75 6.5858 12.4142 6.25 12 6.25ZM11.25 11C11.25 10.5858 11.5858 10.25 12 10.25C12.4142 10.25 12.75 10.5858 12.75 11V17C12.75 17.4142 12.4142 17.75 12 17.75C11.5858 17.75 11.25 17.4142 11.25 17V11Z" fill="currentColor"/>
</svg>
