<svg width="24" height="24" viewBox="0 0 24 24" fill="none" xmlns="http://www.w3.org/2000/svg">
<path d="M0 12C0 5.37258 5.37258 0 12 0C18.6274 0 24 5.37258 24 12C24 18.6274 18.6274 24 12 24C5.37258 24 0 18.6274 0 12Z" fill="url(#paint0_radial)"/>
<path d="M0 12C0 5.37258 5.37258 0 12 0C18.6274 0 24 5.37258 24 12C24 18.6274 18.6274 24 12 24C5.37258 24 0 18.6274 0 12Z" fill="url(#paint1_radial)"/>
<path d="M12.0007 5C10.0996 5 9.86097 5.00831 9.11429 5.04229C8.36908 5.07642 7.8604 5.1944 7.41532 5.3675C6.95492 5.54629 6.56437 5.78546 6.17528 6.17469C5.7859 6.56377 5.54673 6.95431 5.36736 7.41456C5.19381 7.85979 5.07569 8.3686 5.04215 9.11352C5.00875 9.86019 5 10.0989 5 12C5 13.9011 5.00846 14.1389 5.04229 14.8856C5.07656 15.6308 5.19454 16.1395 5.3675 16.5846C5.54644 17.045 5.78561 17.4355 6.17485 17.8246C6.56379 18.214 6.95433 18.4537 7.41444 18.6325C7.85982 18.8056 8.36864 18.9236 9.11371 18.9577C9.86038 18.9917 10.0988 19 11.9998 19C13.901 19 14.1389 18.9917 14.8856 18.9577C15.6308 18.9236 16.14 18.8056 16.5854 18.6325C17.0457 18.4537 17.4356 18.214 17.8246 17.8246C18.214 17.4355 18.4531 17.045 18.6325 16.5847C18.8046 16.1395 18.9227 15.6307 18.9577 14.8857C18.9912 14.1391 19 13.9011 19 12C19 10.0989 18.9912 9.86033 18.9577 9.11367C18.9227 8.36846 18.8046 7.85979 18.6325 7.41471C18.4531 6.95431 18.214 6.56377 17.8246 6.17469C17.4352 5.78531 17.0458 5.54615 16.585 5.3675C16.1387 5.1944 15.6298 5.07642 14.8845 5.04229C14.1379 5.00831 13.9002 5 11.9985 5H12.0007ZM11.3727 6.26146C11.5591 6.26117 11.767 6.26146 12.0007 6.26146C13.8697 6.26146 14.0912 6.26817 14.8293 6.30171C15.5118 6.33292 15.8822 6.44696 16.1289 6.54277C16.4556 6.66965 16.6885 6.82131 16.9334 7.06631C17.1784 7.31131 17.33 7.54465 17.4572 7.87131C17.553 8.11777 17.6672 8.48819 17.6983 9.17069C17.7318 9.9086 17.7391 10.1303 17.7391 11.9984C17.7391 13.8665 17.7318 14.0882 17.6983 14.8261C17.6671 15.5086 17.553 15.879 17.4572 16.1255C17.3303 16.4521 17.1784 16.6847 16.9334 16.9296C16.6884 17.1746 16.4558 17.3263 16.1289 17.4531C15.8825 17.5494 15.5118 17.6631 14.8293 17.6944C14.0913 17.7279 13.8697 17.7352 12.0007 17.7352C10.1315 17.7352 9.90997 17.7279 9.17204 17.6944C8.48954 17.6629 8.11912 17.5488 7.87222 17.453C7.54555 17.3261 7.31221 17.1745 7.06721 16.9295C6.82221 16.6845 6.67054 16.4517 6.54337 16.1249C6.44756 15.8784 6.33337 15.508 6.30231 14.8255C6.26876 14.0876 6.26205 13.8659 6.26205 11.9966C6.26205 10.1274 6.26876 9.90685 6.30231 9.16894C6.33351 8.48644 6.44756 8.11602 6.54337 7.86927C6.67025 7.5426 6.82221 7.30927 7.06721 7.06427C7.31221 6.81927 7.54555 6.6676 7.87222 6.54044C8.11897 6.44419 8.48954 6.33044 9.17204 6.29908C9.8178 6.26992 10.0681 6.26117 11.3727 6.25971V6.26146ZM15.7372 7.42375C15.2735 7.42375 14.8972 7.79956 14.8972 8.26346C14.8972 8.72721 15.2735 9.10346 15.7372 9.10346C16.201 9.10346 16.5772 8.72721 16.5772 8.26346C16.5772 7.79971 16.201 7.42346 15.7372 7.42346V7.42375ZM12.0007 8.40521C10.0154 8.40521 8.40583 10.0148 8.40583 12C8.40583 13.9852 10.0154 15.5941 12.0007 15.5941C13.9859 15.5941 15.5949 13.9852 15.5949 12C15.5949 10.0148 13.9858 8.40521 12.0005 8.40521H12.0007ZM12.0007 9.66667C13.2893 9.66667 14.334 10.7113 14.334 12C14.334 13.2886 13.2893 14.3333 12.0007 14.3333C10.7119 14.3333 9.6673 13.2886 9.6673 12C9.6673 10.7113 10.7119 9.66667 12.0007 9.66667Z" fill="white"/>
<defs>
<radialGradient id="paint0_radial" cx="0" cy="0" r="1" gradientUnits="userSpaceOnUse" gradientTransform="translate(6.37503 25.8485) rotate(-90) scale(23.7858 22.1226)">
<stop stop-color="#FFDD55"/>
<stop offset="0.1" stop-color="#FFDD55"/>
<stop offset="0.5" stop-color="#FF543E"/>
<stop offset="1" stop-color="#C837AB"/>
</radialGradient>
<radialGradient id="paint1_radial" cx="0" cy="0" r="1" gradientUnits="userSpaceOnUse" gradientTransform="translate(-4.02013 1.72892) rotate(78.6806) scale(10.6323 43.827)">
<stop stop-color="#3771C8"/>
<stop offset="0.128" stop-color="#3771C8"/>
<stop offset="1" stop-color="#6600FF" stop-opacity="0"/>
</radialGradient>
</defs>
</svg>
