<svg data-token-name="instagram" width="24" height="24" version="1.1" id="Layer_1" xmlns="http://www.w3.org/2000/svg" xmlns:xlink="http://www.w3.org/1999/xlink" x="0px" y="0px"
	 viewBox="0 0 24 24" style="enable-background:new 0 0 24 24;" xml:space="preserve">
<path fill="none" d="M0,0h24v24H0V0z"/>
<g>
	<g>
		<g>
			<path d="M15.8,2H8.2C4.8,2,2,4.8,2,8.2v7.5C2,19.2,4.8,22,8.2,22h7.5c3.5,0,6.3-2.8,6.3-6.3V8.2C22,4.8,19.2,2,15.8,2z
				 M20.1,15.8c0,2.4-2,4.4-4.4,4.4H8.2c-2.4,0-4.4-2-4.4-4.4V8.2c0-2.4,2-4.4,4.4-4.4h7.5c2.4,0,4.4,2,4.4,4.4V15.8z"/>
		</g>
	</g>
	<g>
		<g>
			<path d="M12,7c-2.8,0-5,2.2-5,5s2.2,5,5,5s5-2.2,5-5S14.8,7,12,7z M12,15.1c-1.7,0-3.1-1.4-3.1-3.1s1.4-3.1,3.1-3.1
				s3.1,1.4,3.1,3.1S13.7,15.1,12,15.1z"/>
		</g>
	</g>
	<g>
		<g>
			<circle cx="17.4" cy="6.6" r="0.7"/>
		</g>
	</g>
</g>
</svg>
