<svg width="24" height="24" viewBox="0 0 24 24" fill="none" xmlns="http://www.w3.org/2000/svg">
<g clip-path="url(#clip0_10709_44626)">
<path fill-rule="evenodd" clip-rule="evenodd" d="M12 24C18.6274 24 24 18.6274 24 12C24 5.37258 18.6274 0 12 0C5.37258 0 0 5.37258 0 12C0 18.6274 5.37258 24 12 24ZM15.5402 5.81061C14.2931 5.20277 12.8822 4.92815 11.4974 5.01603C9.87059 5.11123 8.28103 5.7154 7.01533 6.71869C6.17402 7.37779 5.47044 8.20165 4.96044 9.12805C4.33504 10.2632 4.00372 11.5484 4 12.8373V16.2463C4 16.5978 4.17496 16.9383 4.46905 17.136C4.87482 17.4436 5.50022 17.4253 5.88738 17.0921C6.14424 16.8834 6.29686 16.5575 6.29314 16.2316V12.8666C6.29314 12.6725 6.34526 12.4748 6.44577 12.3027C6.67657 11.8926 7.1903 11.6619 7.65563 11.7608C8.16563 11.8523 8.57139 12.321 8.57512 12.8336C8.5776 13.5245 8.57677 14.2153 8.57594 14.9061C8.57553 15.2515 8.57512 15.5969 8.57512 15.9424C8.57512 15.9767 8.57469 16.0112 8.57426 16.0457C8.57187 16.2398 8.56945 16.4364 8.64212 16.6198C8.79475 17.0592 9.25636 17.3814 9.73286 17.3557C10.1982 17.3667 10.6375 17.0518 10.7901 16.6234C10.8666 16.4352 10.864 16.2332 10.8614 16.032C10.8607 15.9788 10.86 15.9256 10.8608 15.8728V12.8702C10.8608 12.5663 10.9911 12.2661 11.2145 12.0574C11.4639 11.8194 11.825 11.7058 12.1675 11.7571C12.6961 11.823 13.1316 12.2954 13.1428 12.819C13.147 13.407 13.1464 13.9961 13.1458 14.5852C13.1454 15.0269 13.1449 15.4685 13.1465 15.9094C13.1464 15.921 13.1462 15.9326 13.1461 15.9443C13.1422 16.2345 13.1381 16.5422 13.2991 16.7992C13.5448 17.2422 14.1069 17.4546 14.5946 17.3228C14.9669 17.2239 15.2759 16.9273 15.3838 16.5612C15.4353 16.3999 15.4339 16.2304 15.4326 16.0621C15.4324 16.0356 15.4322 16.0091 15.4322 15.9826C15.4322 15.6374 15.4318 15.2921 15.4314 14.9467C15.4306 14.2554 15.4297 13.5636 15.4322 12.8702C15.4359 12.4235 15.7449 11.9988 16.173 11.8486C16.6793 11.6473 17.3047 11.8706 17.5653 12.343C17.7253 12.5993 17.7216 12.9105 17.7142 13.1998C17.7142 13.5418 17.7138 13.8834 17.7134 14.2248C17.7125 14.9067 17.7117 15.5874 17.7142 16.2682C17.7179 16.7772 18.1162 17.2496 18.6262 17.3411C18.8645 17.3777 19.1176 17.3667 19.3372 17.2642C19.6537 17.1251 19.8956 16.8321 19.9701 16.4989C20.0006 16.3791 20.0002 16.2562 19.9999 16.1331C19.9999 16.1208 19.9999 16.1085 19.9999 16.0961V12.8007C19.9999 11.9146 19.8361 11.0284 19.5308 10.1936C18.8384 8.30052 17.3754 6.69672 15.5402 5.81061Z" fill="#5248D1"/>
</g>
<defs>
<clipPath id="clip0_10709_44626">
<rect width="24" height="24" fill="white"/>
</clipPath>
</defs>
</svg>
