<svg data-token-name="language" width="24" height="24" viewBox="0 0 24 24" fill="none" xmlns="http://www.w3.org/2000/svg">
<path d="M4 8C8.89843 9.33333 15.1026 9.33333 20 8M20 16C15.1016 14.6667 8.89743 14.6667 4 16M12 3C16.982 3 21 7.018 21 12C21 16.982 16.982 21 12 21C7.018 21 3 16.982 3 12C3 7.018 7.018 3 12 3ZM10.1685 4.05999C7.27848 8.88499 7.27848 15.116 10.1685 19.941C11.0145 21.354 12.9875 21.354 13.8335 19.941C16.7235 15.116 16.7235 8.88499 13.8335 4.05999C12.9865 2.64699 11.0145 2.64699 10.1685 4.05999Z" stroke="currentColor" fill="none"  stroke-width="1.5" stroke-linecap="round" stroke-linejoin="round"/>
</svg>
