<svg data-token-name="lightning_circle_solid" width="24" height="24" viewBox="0 0 24 24" fill="none" xmlns="http://www.w3.org/2000/svg">
<path d="M0 12C0 5.37258 5.37258 0 12 0C18.6274 0 24 5.37258 24 12C24 18.6274 18.6274 24 12 24C5.37258 24 0 18.6274 0 12Z" fill="currentColor"/>
<path d="M15.8989 11.57C15.9625 11.4736 15.9973 11.3631 15.9998 11.2499C16.0024 11.1367 15.9725 11.0249 15.9134 10.9261C15.8542 10.8272 15.7679 10.7449 15.6632 10.6876C15.5586 10.6303 15.4395 10.6 15.3182 10.6H13.0001V5L8.10123 12.4306C8.03761 12.527 8.00272 12.6375 8.00015 12.7506C7.99759 12.8638 8.02744 12.9756 8.08663 13.0744C8.14582 13.1732 8.2322 13.2555 8.33685 13.3127C8.4415 13.37 8.56062 13.4001 8.68192 13.4H11V19L15.8989 11.57Z" fill="white"/>
</svg>
