<svg data-token-name="lightning" width="24" height="24" viewBox="0 0 24 24" fill="none" xmlns="http://www.w3.org/2000/svg">
<path d="M17.8478 11.306C17.9432 11.151 17.9955 10.9734 17.9993 10.7915C18.0031 10.6096 17.9583 10.4299 17.8696 10.2711C17.7808 10.1122 17.6513 9.97989 17.4944 9.88777C17.3375 9.79566 17.1588 9.74706 16.9768 9.747H13.4998V0.747002L6.15183 12.689C6.05642 12.8439 6.00408 13.0215 6.00023 13.2034C5.99638 13.3853 6.04116 13.5649 6.12994 13.7237C6.21872 13.8825 6.34828 14.0147 6.50525 14.1067C6.66222 14.1987 6.8409 14.2472 7.02283 14.247H10.4998V23.247L17.8478 11.306Z" fill="currentColor"/>
</svg>
