<svg width="40" height="40" data-token-name="lightning_circle_solid" viewBox="0 0 40 40" fill="none" xmlns="http://www.w3.org/2000/svg">
<rect width="40" height="40" rx="20" fill="currentColor"/>
<path d="M26.4981 19.2821C26.6041 19.1214 26.6622 18.9372 26.6664 18.7485C26.6706 18.5599 26.6209 18.3736 26.5223 18.2088C26.4237 18.0441 26.2797 17.9069 26.1054 17.8114C25.931 17.7158 25.7325 17.6654 25.5303 17.6654H21.6668V8.33203L13.502 20.7163C13.396 20.877 13.3378 21.0611 13.3336 21.2498C13.3293 21.4384 13.379 21.6247 13.4777 21.7894C13.5763 21.954 13.7203 22.0912 13.8947 22.1866C14.0691 22.282 14.2677 22.3322 14.4698 22.332H18.3333V31.6654L26.4981 19.2821Z" fill="none" stroke="white" stroke-width="2" stroke-linecap="round" stroke-linejoin="round"/>
</svg>
