<svg data-token-name="lightning_circle" width="24" height="24" viewBox="0 0 24 24" fill="none" xmlns="http://www.w3.org/2000/svg">
<path d="M12 22C17.5228 22 22 17.5228 22 12C22 6.47715 17.5228 2 12 2C6.47715 2 2 6.47715 2 12C2 17.5228 6.47715 22 12 22Z" stroke="currentColor" fill="none"  stroke-width="1.5" stroke-linecap="round" stroke-linejoin="round"/>
<path d="M11.6874 6.24141C11.7494 6.14178 11.8356 6.0677 11.9341 6.02934C12.0326 5.99097 12.1385 5.99022 12.2374 6.02718C12.3362 6.06413 12.4231 6.13699 12.4861 6.23572C12.5491 6.33445 12.5851 6.4542 12.5891 6.57852V10.4926H15.5066C15.5964 10.4943 15.6842 10.5249 15.7607 10.5812C15.8373 10.6376 15.8999 10.7177 15.9419 10.813C15.9838 10.9084 16.0037 11.0156 15.9994 11.1234C15.9951 11.2312 15.9668 11.3356 15.9174 11.4257L12.3106 17.7586C12.2486 17.8582 12.1624 17.9323 12.0639 17.9707C11.9654 18.009 11.8595 18.0098 11.7606 17.9728C11.6618 17.9359 11.5749 17.863 11.5119 17.7643C11.4489 17.6656 11.4129 17.5458 11.4089 17.4215V13.5074H8.49339C8.4036 13.5057 8.31583 13.4751 8.23926 13.4188C8.16269 13.3624 8.10014 13.2823 8.05815 13.187C8.01616 13.0916 7.99627 12.9844 8.00058 12.8766C8.00488 12.7688 8.03321 12.6644 8.08261 12.5743L11.6874 6.24141Z" stroke="currentColor" fill="none"  stroke-width="1.5" stroke-linecap="round" stroke-linejoin="round"/>
</svg>
