<svg data-token-name="like" width="24" height="24" viewBox="0 0 24 24" fill="none" xmlns="http://www.w3.org/2000/svg">
<path d="M8 10.572L11.649 5.821C12.328 4.936 13.654 4.914 14.363 5.775C14.628 6.096 14.772 6.5 14.772 6.916V10.187H17.868C18.469 10.187 19.03 10.487 19.364 10.986L19.693 11.477C19.988 11.918 20.074 12.467 19.927 12.976L18.568 17.698C18.346 18.469 17.641 19 16.839 19H10.55C10.05 19 9.572 18.792 9.232 18.426L8 17.1M6.944 19H5.056C4.473 19 4 18.527 4 17.944V10.556C4 9.973 4.473 9.5 5.056 9.5H6.944C7.527 9.5 8 9.973 8 10.556V17.944C8 18.527 7.527 19 6.944 19Z" stroke="#202427" stroke-width="1.5" stroke-linecap="round" stroke-linejoin="round"/>
</svg>
