<svg data-token-name="linkedin" width="24" height="24" version="1.1" id="Layer_1" xmlns="http://www.w3.org/2000/svg" xmlns:xlink="http://www.w3.org/1999/xlink" x="0px" y="0px"
	 viewBox="0 0 24 24" style="enable-background:new 0 0 24 24;" xml:space="preserve">
<path fill="none" d="M0,0h24v24H0V0z"/>
<path d="M20.2,2H3.8C2.8,2,2,2.8,2,3.8v16.3c0,1,0.8,1.8,1.8,1.8h16.3c1,0,1.8-0.8,1.8-1.8V3.8C22,2.8,21.2,2,20.2,2z M8.2,19.2
	c0,0.3-0.2,0.5-0.5,0.5H5.4c-0.3,0-0.5-0.2-0.5-0.5V9.9c0-0.3,0.2-0.5,0.5-0.5h2.2c0.3,0,0.5,0.2,0.5,0.5C8.2,9.9,8.2,19.2,8.2,19.2
	z M6.6,8.5c-1.2,0-2.1-0.9-2.1-2.1s0.9-2.1,2.1-2.1s2.1,0.9,2.1,2.1S7.7,8.5,6.6,8.5z M19.9,19.3c0,0.3-0.2,0.5-0.5,0.5H17
	c-0.3,0-0.5-0.2-0.5-0.5v-4.4c0-0.7,0.2-2.9-1.7-2.9c-1.5,0-1.8,1.5-1.8,2.2v5.1c0,0.3-0.2,0.5-0.5,0.5h-2.3c-0.3,0-0.5-0.2-0.5-0.5
	V9.8c0-0.3,0.2-0.5,0.5-0.5h2.3c0.3,0,0.5,0.2,0.5,0.5v0.8c0.5-0.8,1.4-1.5,3.1-1.5c3.8,0,3.8,3.6,3.8,5.6L19.9,19.3L19.9,19.3z"/>
</svg>
