<svg data-token-name="linkedin_colored" width="24" height="24" viewBox="0 0 24 24" fill="none" xmlns="http://www.w3.org/2000/svg">
<path d="M0 12C0 5.37258 5.37258 0 12 0C18.6274 0 24 5.37258 24 12C24 18.6274 18.6274 24 12 24C5.37258 24 0 18.6274 0 12Z" fill="#0077B5"/>
<path d="M18.792 17.4955C17.9978 17.4765 17.2225 17.4765 16.4283 17.4955C16.2581 17.4955 16.2202 17.4574 16.2202 17.2863C16.2202 15.879 16.2202 14.4526 16.2202 13.0453C16.2202 12.722 16.2013 12.3987 16.1068 12.0944C15.8231 11.1055 14.6885 10.7441 13.8754 11.4098C13.4405 11.7521 13.2703 12.2275 13.2703 12.7981C13.2703 14.1293 13.2703 15.4606 13.2703 16.7918C13.2703 16.963 13.2514 17.1341 13.2703 17.3243C13.2892 17.4765 13.2136 17.5145 13.0812 17.4955C12.2681 17.4955 11.4739 17.4955 10.6607 17.4955C10.5095 17.4955 10.4716 17.4574 10.4716 17.3053C10.4905 16.1072 10.4906 14.9091 10.4906 13.6919C10.4906 12.2085 10.4905 10.7251 10.4716 9.26075C10.4716 9.08959 10.5095 9.05156 10.6607 9.05156C11.4739 9.05156 12.2681 9.05156 13.0812 9.05156C13.2325 9.05156 13.2703 9.08959 13.2703 9.24174C13.2703 9.54602 13.2703 9.85031 13.2703 10.2116C13.327 10.1546 13.3459 10.1356 13.3649 10.1166C14.1023 9.03254 15.1424 8.72825 16.3715 8.91843C17.7898 9.14665 18.6974 10.1356 18.9244 11.657C18.9811 12.0183 19 12.3797 19 12.741C19 14.2624 19 15.7649 19 17.2863C19 17.4384 18.9622 17.4955 18.792 17.4955Z" fill="white"/>
<path d="M8.95895 13.2735C8.95895 14.6048 8.95895 15.936 8.95895 17.2673C8.95895 17.4384 8.92113 17.4955 8.75094 17.4955C7.95673 17.4765 7.16251 17.4955 6.3683 17.4955C6.21702 17.4955 6.1792 17.4574 6.1792 17.3053C6.1792 14.6238 6.1792 11.9233 6.1792 9.24173C6.1792 9.10861 6.21702 9.05156 6.3683 9.05156C7.18142 9.05156 7.99455 9.05156 8.80767 9.05156C8.97786 9.05156 8.99677 9.10861 8.99677 9.26075C8.95895 10.592 8.95895 11.9233 8.95895 13.2735Z" fill="white"/>
<path d="M9.09135 6.84548C8.90225 7.6062 8.12694 8.04361 7.23818 7.89147C6.29268 7.73932 5.7632 6.80745 6.10358 5.89459C6.3305 5.32406 6.87889 4.98174 7.57855 5.00075C8.63751 4.98174 9.33717 5.83754 9.09135 6.84548Z" fill="white"/>
</svg>
