<svg data-token-name="link" width="24" height="24" viewBox="0 0 24 24" fill="none" xmlns="http://www.w3.org/2000/svg">
<path d="M10.0001 13L10.9531 13.953C11.3246 14.3245 11.7655 14.6191 12.2509 14.8201C12.7362 15.0212 13.2563 15.1246 13.7816 15.1246C14.3069 15.1246 14.8271 15.0212 15.3124 14.8201C15.7977 14.6191 16.2387 14.3245 16.6101 13.953L19.6411 10.922C20.5114 10.0517 21.0003 8.87128 21.0003 7.6405C21.0003 6.40972 20.5114 5.22934 19.6411 4.359C18.7708 3.48875 17.5904 2.99986 16.3596 2.99986C15.1289 2.99986 13.9485 3.48875 13.0781 4.359L12.1911 5.247M14.0001 10L13.0471 9.047C12.6757 8.67554 12.2347 8.38089 11.7494 8.17985C11.2641 7.97882 10.7439 7.87535 10.2186 7.87535C9.69333 7.87535 9.17317 7.97882 8.68785 8.17985C8.20254 8.38089 7.76157 8.67554 7.39013 9.047L4.35914 12.078C3.48889 12.9483 3 14.1287 3 15.3595C3 16.5903 3.48889 17.7707 4.35914 18.641C5.22948 19.5112 6.40985 20.0001 7.64064 20.0001C8.87142 20.0001 10.0518 19.5112 10.9221 18.641L11.8091 17.753" stroke="black" stroke-width="1.5" stroke-linecap="round" stroke-linejoin="round"/>
</svg>
