<svg data-token-name="magic_blink" width="24" height="24" viewBox="0 0 24 24" fill="none" xmlns="http://www.w3.org/2000/svg">
<path d="M6 3C6 4.06087 5.57857 5.07828 4.82843 5.82843C4.07828 6.57857 3.06087 7 2 7C3.06087 7 4.07828 7.42143 4.82843 8.17157C5.57857 8.92172 6 9.93913 6 11M6 3C6 4.06087 6.42143 5.07828 7.17157 5.82843C7.92172 6.57857 8.93913 7 10 7C8.93913 7 7.92172 7.42143 7.17157 8.17157C6.42143 8.92172 6 9.93913 6 11M6 3V2M6 11V12M17 15C17 13.6739 16.4732 12.4021 15.5355 11.4645C14.5979 10.5268 13.3261 10 12 10C13.3261 10 14.5979 9.47322 15.5355 8.53553C16.4732 7.59785 17 6.32608 17 5M17 15C17 13.6739 17.5268 12.4021 18.4645 11.4645C19.4021 10.5268 20.6739 10 22 10C20.6739 10 19.4021 9.47322 18.4645 8.53553C17.5268 7.59785 17 6.32608 17 5M17 15V16M17 5V4M10 21V22M10 14V13M10 13.5C10 14.5609 9.57857 15.5783 8.82843 16.3284C8.07828 17.0786 7.06087 17.5 6 17.5C7.06087 17.5 8.07828 17.9214 8.82843 18.6716C9.57857 19.4217 10 20.4391 10 21.5C10 20.4391 10.4214 19.4217 11.1716 18.6716C11.9217 17.9214 12.9391 17.5 14 17.5C12.9391 17.5 11.9217 17.0786 11.1716 16.3284C10.4214 15.5783 10 14.5609 10 13.5Z" stroke="currentColor" fill="none"  stroke-linecap="round" stroke-linejoin="round"/>
</svg>
