<svg data-token-name="mail_close" width="24" height="24" viewBox="0 0 24 24" fill="none" xmlns="http://www.w3.org/2000/svg">
<path d="M11 18H6C5.20435 18 4.44129 17.6839 3.87868 17.1213C3.31607 16.5587 3 15.7956 3 15V7C3 6.20435 3.31607 5.44129 3.87868 4.87868C4.44129 4.31607 5.20435 4 6 4H18C18.7956 4 19.5587 4.31607 20.1213 4.87868C20.6839 5.44129 21 6.20435 21 7V12M21 15L15 21M15 15L21 21M20.9612 6.61505L13.5335 10.9539C13.0743 11.2221 12.5521 11.3634 12.0204 11.3634C11.4886 11.3634 10.9664 11.2221 10.5072 10.9539L3.04108 6.59265" stroke="currentColor" fill="none" stroke-linecap="round" stroke-linejoin="round"/>
</svg>
