<svg width="33" height="32" viewBox="0 0 33 32" fill="none" xmlns="http://www.w3.org/2000/svg">
<rect x="0.5" width="32" height="32" rx="16" fill="#3C88FA"/>
<rect x="4.5" y="7" width="24" height="18" rx="5" fill="white"/>
<path d="M21.9042 22.5023H18.4688V16.3301H21.9043L21.9042 22.5023Z" fill="#FF5F00"/>
<path d="M18.6849 19.4161C18.6849 18.1641 19.2713 17.0488 20.1844 16.33C19.4932 15.7851 18.6383 15.4894 17.7581 15.4907C15.5897 15.4907 13.832 17.2482 13.832 19.4161C13.832 21.5841 15.5897 23.3415 17.7581 23.3415C18.6383 23.3429 19.4932 23.0471 20.1845 22.5023C19.2714 21.7836 18.6849 20.6682 18.6849 19.4161Z" fill="#EB001B"/>
<path d="M26.5403 19.4161C26.5403 21.5841 24.7826 23.3416 22.6142 23.3416C21.7339 23.3428 20.8789 23.0471 20.1875 22.5023C21.1009 21.7835 21.6873 20.6682 21.6873 19.4161C21.6873 18.164 21.1009 17.0488 20.1875 16.33C20.8788 15.7852 21.7338 15.4894 22.6142 15.4907C24.7825 15.4907 26.5402 17.2482 26.5402 19.4161" fill="#F79E1B"/>
</svg>
