<svg data-token-name="mc_assist" width="24" height="24" viewBox="0 0 24 24" fill="none" xmlns="http://www.w3.org/2000/svg">
<path d="M13.6 2H10.4C5.8 2 2 5.8 2 10.4V20.7C2 21.4 2.6 22 3.3 22H13.6C18.2 22 22 18.2 22 13.6V10.4C22 5.8 18.2 2 13.6 2ZM16.9 13.7C16.9 14.8 16 15.6 15 15.6H11.3L8.8 18.1C8.7 18.2 8.7 18.2 8.6 18.2C8.4 18.2 8.3 18.1 8.3 17.9V15.6C7.3 15.5 6.5 14.7 6.5 13.7V9.5C6.5 8.4 7.4 7.6 8.4 7.6H15.2C16.1 7.6 16.9 8.4 16.9 9.3V13.7Z" fill="#E30040"/>
<path d="M15.0004 8.5H8.40039C7.80039 8.5 7.40039 9 7.40039 9.5V13.6C7.40039 14.2 7.90039 14.6 8.40039 14.6H9.10039V16V16.1C9.20039 16.2 9.30039 16.2 9.30039 16.1L10.8004 14.6H14.8004C15.4004 14.6 15.8004 14.1 15.8004 13.6V9.5C16.0004 9 15.5004 8.5 15.0004 8.5ZM11.7004 13.7C11.5004 13.7 11.3004 13.5 11.3004 13.3C11.3004 13.1 11.5004 12.9 11.7004 12.9C11.9004 12.9 12.1004 13.1 12.1004 13.3C12.1004 13.5 11.9004 13.7 11.7004 13.7ZM12.1004 11.8C12.1004 11.8 12.1004 11.9 12.1004 11.8V12.1V12.2C12.1004 12.4 11.9004 12.6 11.7004 12.5C11.5004 12.4 11.3004 12.3 11.4004 12.1V11.8C11.4004 11.5 11.6004 11.2 11.9004 11C12.1004 10.9 12.3004 10.7 12.3004 10.5C12.3004 10.2 12.1004 10 11.8004 10C11.7004 10 11.5004 10 11.4004 10.2C11.3004 10.3 11.2004 10.4 11.2004 10.6V10.7C11.2004 10.9 11.0004 11.1 10.8004 11C10.6004 10.9 10.4004 10.8 10.5004 10.6C10.5004 9.9 11.1004 9.3 11.8004 9.4C12.3004 9.4 12.8004 9.8 12.9004 10.3C13.1004 10.9 12.8004 11.6 12.1004 11.8Z" fill="#E30040"/>
</svg>
