<svg data-token-name="mc_id" width="24" height="24" viewBox="0 0 24 24" fill="none" xmlns="http://www.w3.org/2000/svg">
<path d="M13.6 2H10.4C5.8 2 2 5.8 2 10.4V20.7C2 21.4 2.6 22 3.3 22H13.6C18.2 22 22 18.2 22 13.6V10.4C22 5.8 18.2 2 13.6 2ZM9.2 6.3C9.8 5.7 10.6 5.4 11.5 5.4C12.4 5.4 13.1 5.7 13.8 6.3C14.4 6.9 14.7 7.7 14.7 8.6C14.7 9.5 14.4 10.2 13.8 10.9C13.2 11.5 12.4 11.8 11.5 11.8C10.6 11.8 9.9 11.5 9.2 10.9C8.6 10.3 8.3 9.5 8.3 8.6C8.3 7.7 8.6 6.9 9.2 6.3ZM16.5 18C16.1 18.4 15.5 18.6 14.8 18.6H8.4C7.7 18.6 7.1 18.4 6.7 18C6.3 17.6 6 17 6 16.3C6 16 6 15.8 6 15.5C6 15.2 6.1 15 6.1 14.7C6.2 14.4 6.2 14.1 6.3 13.9C6.4 13.6 6.5 13.4 6.6 13.1C6.7 12.8 6.9 12.6 7.1 12.4C7.3 12.2 7.6 12 7.9 11.9C8.2 11.8 8.5 11.7 8.9 11.7C9 11.7 9.2 11.8 9.4 11.9C9.6 12 9.7 12.1 9.9 12.3C10.1 12.4 10.3 12.5 10.6 12.6C10.9 12.7 11.2 12.7 11.5 12.7C11.8 12.7 12.1 12.7 12.4 12.6C12.7 12.5 12.9 12.4 13.1 12.3C13.3 12.2 13.5 12.1 13.6 12C13.9 11.8 14 11.8 14.1 11.8C14.4 11.8 14.8 11.9 15.1 12C15.4 12.1 15.6 12.3 15.9 12.5C16.1 12.7 16.3 12.9 16.4 13.2C16.5 13.5 16.7 13.7 16.7 14C16.8 14.3 16.9 14.5 16.9 14.8C17 15.1 17 15.4 17 15.6C17 15.9 17 16.1 17 16.4C17.1 17.1 16.9 17.6 16.5 18Z" fill="#E30040"/>
</svg>
