<svg data-token-name="mc_pay" width="24" height="24" viewBox="0 0 52 32" xmlns="http://www.w3.org/2000/svg">
    <path d="M23.7466 20.2882C23.2862 19.1645 23.0528 17.9607 23.0598 16.7462C23.0569 15.5641 23.2766 14.3922 23.7074 13.2916C23.7074 13.2735 23.7074 13.2584 23.7285 13.2403C23.7044 13.1499 23.6803 13.0564 23.6532 12.969C23.4299 12.2462 23.062 11.5765 22.5718 11.0006C22.0744 10.4335 21.457 9.98449 20.7644 9.68624C19.9332 9.34756 19.0407 9.18538 18.1436 9.20995C17.7078 9.21061 17.2741 9.27045 16.8544 9.3878C16.4418 9.50709 16.0453 9.67614 15.6735 9.89122C15.3058 10.1078 14.9633 10.3646 14.6523 10.6569C14.3474 10.944 14.0709 11.26 13.8269 11.6004C13.6189 11.2647 13.3644 10.9602 13.0708 10.6961C12.7539 10.4143 12.4051 10.1705 12.0316 9.9696C11.6271 9.75593 11.1996 9.58905 10.7574 9.47221C10.2826 9.34674 9.79344 9.28392 9.3024 9.28531C8.86329 9.28115 8.42593 9.34105 8.00408 9.46316C7.6329 9.57503 7.27681 9.73194 6.94374 9.93041C6.63813 10.1222 6.35344 10.3455 6.09425 10.5966C5.85206 10.8289 5.62183 11.0734 5.40443 11.3291C5.3743 11.1603 5.33514 10.9674 5.28393 10.7443C5.24034 10.5305 5.17576 10.3214 5.09114 10.1203C5.01894 9.94081 4.91712 9.77471 4.78991 9.62896C4.73779 9.56891 4.67348 9.52068 4.6013 9.4874C4.52911 9.45415 4.45067 9.43664 4.3712 9.43603H2.41317C2.20612 9.45605 2.01443 9.55411 1.87697 9.71035C1.79068 9.79422 1.72198 9.89445 1.67491 10.0052C1.62784 10.116 1.60334 10.2351 1.60285 10.3555V23.1972C1.59068 23.4176 1.66529 23.6341 1.8107 23.8001C1.89451 23.8818 1.99492 23.9446 2.1051 23.9842C2.21529 24.0237 2.33268 24.039 2.44932 24.0292H4.98571C5.08795 24.0355 5.19031 24.0187 5.2852 23.9801C5.38009 23.9415 5.4651 23.882 5.53396 23.8061C5.60424 23.7306 5.65879 23.6419 5.69449 23.5452C5.73015 23.4484 5.74627 23.3455 5.74181 23.2424V15.7062C5.73898 15.3544 5.81733 15.0068 5.97075 14.6903C6.27258 14.0724 6.7902 13.5866 7.42571 13.3247C7.7389 13.1944 8.07457 13.1268 8.41376 13.1258C8.74759 13.1227 9.07922 13.1799 9.39277 13.2946C9.67855 13.4028 9.93828 13.5703 10.1549 13.7859C10.377 14.0108 10.5494 14.2799 10.661 14.5757C10.7893 14.9176 10.8517 15.2807 10.8447 15.6459V23.1821C10.8293 23.4087 10.8979 23.6331 11.0375 23.8122C11.1189 23.8913 11.2167 23.9518 11.3238 23.9893C11.431 24.0268 11.5451 24.0404 11.6581 24.0292H14.1071C14.3377 24.038 14.563 23.9582 14.7367 23.8061C14.8218 23.724 14.888 23.6242 14.9307 23.5139C14.9733 23.4035 14.9914 23.2851 14.9837 23.167V15.7393C14.9837 15.3811 15.065 15.0275 15.2217 14.7054C15.5343 14.0707 16.0709 13.5745 16.7278 13.3127C17.0499 13.1799 17.3947 13.1112 17.743 13.1107C18.0593 13.1036 18.3731 13.1695 18.6599 13.3034C18.9467 13.4372 19.1988 13.6353 19.3968 13.8824C19.597 14.1335 19.7464 14.4212 19.8366 14.7295C19.9365 15.065 19.9863 15.4134 19.9842 15.7635V23.164C19.9842 23.7308 20.2854 24.0111 20.9331 24.0111H23.1743C23.4108 24.0222 23.6423 23.9399 23.8189 23.782C23.9082 23.7011 23.9782 23.6011 24.0236 23.4894C24.0689 23.3777 24.0886 23.2572 24.081 23.1369V20.9936C23.9575 20.7645 23.846 20.5324 23.7466 20.2882Z"
          fill="#1D1E26"/>
    <path d="M44.0948 3.6001H41.7723C40.152 3.6001 38.5982 4.24358 37.4514 5.38924C36.3049 6.53489 35.6596 8.08907 35.6572 9.71047V17.2105C35.6587 17.46 35.7587 17.6988 35.9353 17.8749C36.1118 18.051 36.3507 18.1503 36.6001 18.1511H44.0918C44.8946 18.1522 45.6895 17.9951 46.4318 17.6886C47.1737 17.3821 47.8482 16.9322 48.4163 16.3648C48.9845 15.7973 49.4354 15.1233 49.7433 14.3813C50.0508 13.6394 50.2096 12.844 50.2099 12.0407V9.71047C50.2075 8.08907 49.5622 6.53489 48.4157 5.38924C47.2692 4.24358 45.7152 3.6001 44.0948 3.6001Z"
          fill="#4B00FF"/>
    <path d="M36.8204 21.7289L35.6155 19.872C35.4941 19.6635 35.3079 19.5005 35.0853 19.4077C35.0356 19.3929 34.9838 19.3858 34.9317 19.3866H34.8443C34.7904 19.3879 34.7371 19.395 34.6847 19.4077C34.5672 19.4542 34.4561 19.5149 34.3533 19.5886C33.6861 20.101 32.8658 20.3729 32.0248 20.3603C31.5674 20.3661 31.1141 20.2725 30.6963 20.086C30.3017 19.9083 29.9502 19.6471 29.6661 19.3203C29.37 18.9858 29.14 18.5981 28.9883 18.1778C28.672 17.2722 28.672 16.286 28.9883 15.3804C29.1416 14.9555 29.368 14.5607 29.6571 14.2138C29.9425 13.8815 30.2932 13.6117 30.6873 13.421C31.1021 13.2226 31.556 13.1196 32.0158 13.1195C32.4375 13.116 32.8565 13.1864 33.2538 13.3275C33.3198 13.3544 33.3906 13.368 33.462 13.3673C33.5331 13.3667 33.6036 13.352 33.6692 13.3239C33.7346 13.2959 33.7939 13.2552 33.8436 13.204C33.8933 13.1529 33.9325 13.0924 33.9587 13.0261C33.9852 12.9631 33.9985 12.8954 33.9979 12.8271V9.96333C33.9976 9.8388 33.9542 9.71825 33.875 9.62212C33.796 9.52596 33.6861 9.46012 33.5641 9.43579C33.0674 9.34225 32.5634 9.29384 32.0579 9.2911C31.0619 9.2864 30.0751 9.48327 29.157 9.86988C28.2762 10.2436 27.4739 10.7806 26.7923 11.4525C25.9248 12.3226 25.2832 13.3919 24.9233 14.5672C24.5634 15.7424 24.4962 16.9878 24.7276 18.195C24.959 19.4021 25.4819 20.5343 26.2508 21.4929C27.0197 22.4514 28.0113 23.2072 29.139 23.6943C30.0536 24.0948 31.0415 24.3001 32.0399 24.2972C32.8366 24.3034 33.6283 24.1676 34.3774 23.8963C35.1064 23.6341 35.8014 23.2849 36.4469 22.8563C36.5713 22.7713 36.684 22.6699 36.7813 22.5549C36.8846 22.4412 36.9406 22.2924 36.9379 22.1389C36.9445 21.993 36.9033 21.8491 36.8204 21.7289Z"
          fill="#1D1E26"/>
    <path d="M43.3631 9.08059V6.50622C43.3631 6.45038 43.3451 6.39604 43.3116 6.35129C43.2782 6.30653 43.2315 6.27375 43.1779 6.25783C43.1246 6.24191 43.0673 6.2437 43.0149 6.26292C42.9625 6.28215 42.9176 6.31779 42.8872 6.36454L39.3085 11.9112C39.2841 11.949 39.2703 11.9928 39.2688 12.0378C39.2669 12.0828 39.2775 12.1274 39.2992 12.1669C39.3209 12.2064 39.3528 12.2394 39.3914 12.2623C39.4302 12.2852 39.4745 12.2972 39.5194 12.2971H42.2847C42.3157 12.2967 42.3468 12.3025 42.3757 12.3141C42.4043 12.3257 42.4305 12.343 42.4528 12.3649C42.4748 12.3867 42.4926 12.4128 42.5046 12.4415C42.5164 12.4702 42.5227 12.501 42.5227 12.5322V15.0463C42.5215 15.0992 42.5378 15.1511 42.5688 15.1939C42.5998 15.2367 42.6441 15.268 42.695 15.2832C42.7456 15.2982 42.7998 15.2962 42.8492 15.2774C42.8989 15.2585 42.9408 15.2239 42.9685 15.1789L46.514 9.71062C46.5397 9.67152 46.5541 9.62625 46.5559 9.57958C46.5577 9.53292 46.5472 9.48658 46.5249 9.44553C46.5026 9.40447 46.4698 9.37016 46.4297 9.34626C46.3896 9.32232 46.3438 9.30972 46.2972 9.30969H43.586C43.527 9.30668 43.471 9.28139 43.4297 9.23891C43.3884 9.19641 43.3646 9.13989 43.3631 9.08059Z"
          fill="white"/>
</svg>