<svg data-token-name="mc_pay_app" width="24" height="24" viewBox="0 0 24 24" fill="none" xmlns="http://www.w3.org/2000/svg">
<path d="M19 0H5C2.23858 0 0 2.23858 0 5V19C0 21.7614 2.23858 24 5 24H19C21.7614 24 24 21.7614 24 19V5C24 2.23858 21.7614 0 19 0Z" fill="#703CEE"/>
<path d="M9.52804 13.9614C9.3822 13.6299 9.3085 13.2746 9.31124 12.9162C9.30985 12.5674 9.37922 12.2214 9.51568 11.8968C9.51568 11.8915 9.51568 11.887 9.52233 11.8817C9.51473 11.855 9.50807 11.8274 9.49856 11.8016C9.42862 11.5873 9.31244 11.3887 9.15721 11.2181C9.00017 11.0508 8.80528 10.9183 8.5867 10.8303C8.3272 10.7306 8.04848 10.6821 7.76802 10.688C7.63011 10.6878 7.49283 10.7054 7.36011 10.7405C7.22992 10.7749 7.10498 10.8249 6.98833 10.889C6.87186 10.9527 6.76341 11.0285 6.66504 11.1149C6.56668 11.1997 6.47809 11.294 6.4007 11.396C6.33513 11.2969 6.25476 11.207 6.16204 11.1292C6.06245 11.0455 5.95228 10.9735 5.834 10.9148C5.70628 10.8531 5.57129 10.8057 5.43179 10.7734C5.28193 10.7363 5.12753 10.7178 4.97253 10.7182C4.83393 10.717 4.69587 10.7347 4.56272 10.7707C4.44536 10.8032 4.33289 10.8495 4.22802 10.9086C4.13009 10.9627 4.03889 11.0269 3.95608 11.0998C3.8793 11.1681 3.8066 11.2402 3.73833 11.316C3.72882 11.267 3.71646 11.2092 3.70125 11.1434C3.68625 11.0806 3.6659 11.019 3.64039 10.9593C3.61712 10.9065 3.58502 10.8576 3.54531 10.8143C3.5287 10.7957 3.50789 10.7808 3.48438 10.7706C3.46086 10.7605 3.43523 10.7553 3.40934 10.7556H2.79129C2.72587 10.7596 2.6646 10.787 2.62014 10.8321C2.5919 10.857 2.56961 10.8873 2.5547 10.9209C2.53979 10.9544 2.5326 10.9905 2.53361 11.0269V14.8162C2.52977 14.8812 2.55332 14.9451 2.59922 14.9941C2.62571 15.0182 2.65741 15.0366 2.69218 15.0483C2.72695 15.06 2.76399 15.0645 2.8008 15.0617H3.60426C3.63648 15.0631 3.66865 15.0579 3.69853 15.0466C3.72841 15.0352 3.7553 15.0179 3.77732 14.9959C3.8221 14.9508 3.84603 14.891 3.84388 14.8295V12.6057C3.84274 12.5019 3.86748 12.3993 3.91614 12.306C3.96357 12.2156 4.02799 12.134 4.10631 12.0649C4.18463 11.996 4.27585 11.9411 4.3754 11.903C4.47394 11.8632 4.57994 11.842 4.68728 11.8408C4.79265 11.8398 4.89734 11.8567 4.9963 11.8906C5.08662 11.9223 5.16864 11.9718 5.23687 12.0356C5.30701 12.1022 5.36143 12.1819 5.39661 12.2695C5.43672 12.3705 5.45639 12.4776 5.45461 12.5853V14.8091C5.44918 14.876 5.47091 14.9424 5.51546 14.995C5.54138 15.0183 5.5724 15.0361 5.60637 15.0472C5.64035 15.0582 5.67648 15.0623 5.71229 15.059H6.48438C6.55717 15.0616 6.62828 15.0381 6.6831 14.9932C6.71003 14.969 6.73096 14.9396 6.74443 14.907C6.7579 14.8744 6.76358 14.8395 6.76107 14.8046V12.6182C6.76073 12.5125 6.78644 12.4081 6.83619 12.3131C6.88533 12.2202 6.95201 12.1365 7.03302 12.0658C7.11447 11.9959 7.20888 11.9404 7.31161 11.9021C7.41308 11.8622 7.52196 11.8413 7.63205 11.8408C7.73595 11.839 7.83886 11.86 7.93252 11.9021C8.01845 11.9422 8.0943 11.9989 8.15501 12.0685C8.21781 12.1427 8.26463 12.2276 8.29289 12.3184C8.32451 12.418 8.34021 12.5214 8.33948 12.6253V14.8091C8.33948 14.9754 8.43456 15.0581 8.63995 15.0581H9.34643C9.42131 15.0609 9.49447 15.0367 9.55086 14.9905C9.57856 14.9663 9.60025 14.9367 9.61438 14.9038C9.62851 14.871 9.63474 14.8356 9.63263 14.8002V14.1677C9.5946 14.1001 9.55942 14.0325 9.52804 13.9614Z" fill="white"/>
<path d="M13.6188 14.3175L13.2499 13.7757C13.2127 13.7152 13.1561 13.6677 13.0884 13.6402C13.073 13.6355 13.0567 13.6335 13.0405 13.6341H13.0137C12.9974 13.6337 12.9812 13.6361 12.9658 13.6411C12.9289 13.6534 12.8944 13.6712 12.8634 13.6939C12.6585 13.8424 12.4076 13.9216 12.1503 13.919C12.0102 13.9206 11.8714 13.8929 11.7435 13.8381C11.6229 13.7864 11.5153 13.7105 11.4281 13.6156C11.3388 13.5172 11.2694 13.4039 11.2233 13.2814C11.1274 13.017 11.1274 12.7295 11.2233 12.4651C11.2697 12.3409 11.339 12.2256 11.4281 12.1248C11.5144 12.0266 11.6212 11.9466 11.7417 11.8899C11.8685 11.8314 12.0076 11.8013 12.1485 11.802C12.2776 11.8008 12.406 11.8213 12.5276 11.8627C12.5527 11.8723 12.5799 11.8759 12.6068 11.8732C12.6338 11.8705 12.6596 11.8615 12.682 11.8471C12.7045 11.8327 12.7229 11.8133 12.7357 11.7906C12.7485 11.7678 12.7553 11.7425 12.7555 11.7167V10.8846C12.7551 10.8476 12.7413 10.8119 12.7164 10.7835C12.6915 10.7551 12.6571 10.7358 12.6189 10.7289C12.4669 10.7013 12.3125 10.6874 12.1577 10.6876C11.8527 10.685 11.5503 10.7422 11.2694 10.8556C10.8544 11.024 10.5004 11.305 10.2516 11.6638C10.0028 12.0225 9.87012 12.4432 9.87012 12.8733C9.87012 13.3034 10.0028 13.724 10.2516 14.0827C10.5004 14.4415 10.8544 14.7226 11.2694 14.8909C11.5496 15.0059 11.8518 15.0643 12.1568 15.0625C12.4007 15.0634 12.6429 15.0238 12.8726 14.9455C13.0957 14.8686 13.3084 14.7667 13.5063 14.642C13.5446 14.6174 13.5791 14.5878 13.6087 14.5541C13.6403 14.5209 13.6575 14.4775 13.6567 14.4327C13.6567 14.3915 13.6435 14.3513 13.6188 14.3175Z" fill="white"/>
<path fill-rule="evenodd" clip-rule="evenodd" d="M13.6434 13.3125H19.4548C20.5658 13.3125 21.4664 12.4751 21.4664 11.4422V11.0266C21.4664 9.99362 20.5658 9.15625 19.4548 9.15625H15.4315C14.3206 9.15625 13.4199 9.99362 13.4199 11.0266V13.1047C13.4199 13.2195 13.52 13.3125 13.6434 13.3125ZM15.1443 12.0033C15.0561 12.0033 14.9845 11.9368 14.9845 11.8547V10.6109C14.9845 10.4962 15.0846 10.4031 15.208 10.4031H15.6926C15.845 10.4031 15.9753 10.426 16.0835 10.4717C16.1933 10.5174 16.2778 10.583 16.3368 10.6683C16.3958 10.7536 16.4253 10.855 16.4253 10.9723C16.4253 11.0897 16.3958 11.191 16.3368 11.2764C16.2778 11.3617 16.1933 11.4272 16.0835 11.4729C15.9753 11.5187 15.845 11.5415 15.6926 11.5415H15.3041V11.8547C15.3041 11.9368 15.2326 12.0033 15.1443 12.0033ZM15.6779 11.2901H15.3041V10.6546H15.6779C15.8188 10.6546 15.9245 10.682 15.995 10.7369C16.0671 10.7917 16.1032 10.8702 16.1032 10.9723C16.1032 11.0729 16.0671 11.1514 15.995 11.2078C15.9245 11.2626 15.8188 11.2901 15.6779 11.2901ZM16.6456 12.0033C16.5372 12.0033 16.4649 11.8994 16.5094 11.8075L17.1298 10.5257C17.1659 10.4511 17.2457 10.4031 17.3336 10.4031H17.3595C17.4473 10.4031 17.527 10.451 17.5632 10.5254L18.1842 11.8045C18.2295 11.8977 18.1561 12.0033 18.0462 12.0033C17.9856 12.0033 17.9309 11.9698 17.907 11.918L17.7664 11.6136C17.7467 11.6257 17.723 11.633 17.697 11.633H16.9467C16.9361 11.633 16.9258 11.6318 16.9161 11.6295L16.7828 11.9191C16.7593 11.9702 16.7053 12.0033 16.6456 12.0033ZM17.3441 10.6995L17.6676 11.3998H17.0218L17.3441 10.6995ZM18.8192 11.9087C18.8192 11.9609 18.8648 12.0033 18.921 12.0033H19.0343C19.0921 12.0033 19.1389 11.9598 19.1389 11.9061V11.4395L19.7071 10.5654C19.7534 10.4941 19.6982 10.4031 19.6086 10.4031H19.5736C19.5266 10.4031 19.4829 10.426 19.4585 10.4634L18.9893 11.1816L18.5275 10.4689C18.501 10.4281 18.4535 10.4031 18.4023 10.4031H18.3575C18.2633 10.4031 18.2053 10.4988 18.254 10.5737L18.8192 11.4433V11.9087Z" fill="white"/>
</svg>
