<svg data-token-name="mc_pay_text" width="52" height="32" viewBox="0 0 52 32" fill="none" xmlns="http://www.w3.org/2000/svg">
<path d="M23.7466 20.2882C23.2862 19.1645 23.0528 17.9607 23.0598 16.7462C23.0569 15.5641 23.2766 14.3922 23.7074 13.2916C23.7074 13.2735 23.7074 13.2584 23.7285 13.2403C23.7044 13.1499 23.6803 13.0564 23.6532 12.969C23.4299 12.2462 23.062 11.5765 22.5718 11.0006C22.0744 10.4335 21.457 9.98449 20.7644 9.68624C19.9332 9.34756 19.0407 9.18538 18.1436 9.20995C17.7078 9.21061 17.2741 9.27045 16.8544 9.3878C16.4418 9.50709 16.0453 9.67614 15.6735 9.89122C15.3058 10.1078 14.9633 10.3646 14.6523 10.6569C14.3474 10.944 14.0709 11.26 13.8269 11.6004C13.6189 11.2647 13.3644 10.9602 13.0708 10.6961C12.7539 10.4143 12.4051 10.1705 12.0316 9.9696C11.6271 9.75593 11.1996 9.58905 10.7574 9.47221C10.2826 9.34674 9.79344 9.28392 9.3024 9.28531C8.86329 9.28115 8.42593 9.34105 8.00408 9.46316C7.6329 9.57503 7.27681 9.73194 6.94374 9.93041C6.63813 10.1222 6.35344 10.3455 6.09425 10.5966C5.85206 10.8289 5.62183 11.0734 5.40443 11.3291C5.3743 11.1603 5.33514 10.9674 5.28393 10.7443C5.24034 10.5305 5.17576 10.3214 5.09114 10.1203C5.01894 9.94081 4.91712 9.77471 4.78991 9.62896C4.73779 9.56891 4.67348 9.52068 4.6013 9.4874C4.52911 9.45415 4.45067 9.43664 4.3712 9.43603H2.41317C2.20612 9.45605 2.01443 9.55411 1.87697 9.71035C1.79068 9.79422 1.72198 9.89445 1.67491 10.0052C1.62784 10.116 1.60334 10.2351 1.60285 10.3555V23.1972C1.59068 23.4176 1.66529 23.6341 1.8107 23.8001C1.89451 23.8818 1.99492 23.9446 2.1051 23.9842C2.21529 24.0237 2.33268 24.039 2.44932 24.0292H4.98571C5.08795 24.0355 5.19031 24.0187 5.2852 23.9801C5.38009 23.9415 5.4651 23.882 5.53396 23.8061C5.60424 23.7306 5.65879 23.6419 5.69449 23.5452C5.73015 23.4484 5.74627 23.3455 5.74181 23.2424V15.7062C5.73898 15.3544 5.81733 15.0068 5.97075 14.6903C6.27258 14.0724 6.7902 13.5866 7.42571 13.3247C7.7389 13.1944 8.07457 13.1268 8.41376 13.1258C8.74759 13.1227 9.07922 13.1799 9.39277 13.2946C9.67855 13.4028 9.93828 13.5703 10.1549 13.7859C10.377 14.0108 10.5494 14.2799 10.661 14.5757C10.7893 14.9176 10.8517 15.2807 10.8447 15.6459V23.1821C10.8293 23.4087 10.8979 23.6331 11.0375 23.8122C11.1189 23.8913 11.2167 23.9518 11.3238 23.9893C11.431 24.0268 11.5451 24.0404 11.6581 24.0292H14.1071C14.3377 24.038 14.563 23.9582 14.7367 23.8061C14.8218 23.724 14.888 23.6242 14.9307 23.5139C14.9733 23.4035 14.9914 23.2851 14.9837 23.167V15.7393C14.9837 15.3811 15.065 15.0275 15.2217 14.7054C15.5343 14.0707 16.0709 13.5745 16.7278 13.3127C17.0499 13.1799 17.3947 13.1112 17.743 13.1107C18.0593 13.1036 18.3731 13.1695 18.6599 13.3034C18.9467 13.4372 19.1988 13.6353 19.3968 13.8824C19.597 14.1335 19.7464 14.4212 19.8366 14.7295C19.9365 15.065 19.9863 15.4134 19.9842 15.7635V23.164C19.9842 23.7308 20.2854 24.0111 20.9331 24.0111H23.1743C23.4108 24.0222 23.6423 23.9399 23.8189 23.782C23.9082 23.7011 23.9782 23.6011 24.0236 23.4894C24.0689 23.3777 24.0886 23.2572 24.081 23.1369V20.9936C23.9575 20.7645 23.846 20.5324 23.7466 20.2882Z" fill="#1D1E26"/>
<path d="M44.0938 3.59998H41.7713C40.151 3.59997 38.5972 4.24346 37.4504 5.38911C36.3039 6.53477 35.6587 8.08895 35.6562 9.71035V17.2104C35.6578 17.4599 35.7578 17.6986 35.9343 17.8748C36.1108 18.0509 36.3497 18.1501 36.5991 18.1509H44.0908C44.8936 18.1521 45.6886 17.995 46.4308 17.6885C47.1728 17.382 47.8472 16.9321 48.4153 16.3646C48.9835 15.7972 49.4344 15.1232 49.7423 14.3812C50.0498 13.6393 50.2086 12.8439 50.2089 12.0406V9.71035C50.2065 8.08895 49.5612 6.53477 48.4147 5.38911C47.2682 4.24346 45.7142 3.59997 44.0938 3.59998Z" fill="#4B00FF"/>
<path d="M36.8214 21.7291L35.6165 19.8722C35.4951 19.6638 35.3089 19.5007 35.0863 19.408C35.0366 19.3932 34.9848 19.3861 34.9327 19.3869H34.8453C34.7914 19.3881 34.7381 19.3952 34.6857 19.408C34.5682 19.4544 34.457 19.5151 34.3543 19.5889C33.6871 20.1013 32.8668 20.3732 32.0258 20.3606C31.5683 20.3663 31.1151 20.2727 30.6973 20.0862C30.3027 19.9085 29.9512 19.6473 29.6671 19.3206C29.371 18.986 29.141 18.5983 28.9893 18.1781C28.673 17.2725 28.673 16.2862 28.9893 15.3806C29.1426 14.9557 29.3689 14.5609 29.6581 14.214C29.9435 13.8818 30.2942 13.6119 30.6883 13.4212C31.1031 13.2228 31.557 13.1198 32.0167 13.1197C32.4385 13.1163 32.8575 13.1867 33.2548 13.3277C33.3208 13.3546 33.3916 13.3682 33.463 13.3676C33.534 13.367 33.6045 13.3522 33.6702 13.3242C33.7356 13.2962 33.7949 13.2554 33.8446 13.2043C33.8943 13.1531 33.9335 13.0926 33.9597 13.0263C33.9862 12.9634 33.9995 12.8957 33.9989 12.8273V9.96357C33.9986 9.83905 33.9552 9.7185 33.8759 9.62236C33.797 9.5262 33.6871 9.46037 33.5651 9.43604C33.0683 9.3425 32.5644 9.29409 32.0589 9.29134C31.0628 9.28664 30.0761 9.48352 29.158 9.87012C28.2772 10.2439 27.4749 10.7808 26.7933 11.4527C25.9258 12.3229 25.2841 13.3922 24.9243 14.5674C24.5644 15.7426 24.4972 16.9881 24.7286 18.1952C24.96 19.4024 25.4829 20.5346 26.2518 21.4931C27.0207 22.4517 28.0122 23.2074 29.1399 23.6946C30.0545 24.0951 31.0425 24.3004 32.0408 24.2975C32.8376 24.3036 33.6292 24.1679 34.3784 23.8966C35.1074 23.6344 35.8023 23.2852 36.4479 22.8566C36.5723 22.7716 36.685 22.6702 36.7823 22.5551C36.8856 22.4415 36.9416 22.2927 36.9389 22.1391C36.9455 21.9933 36.9043 21.8493 36.8214 21.7291Z" fill="#1D1E26"/>
<path d="M43.3641 9.08035V6.50598C43.3641 6.45014 43.346 6.39579 43.3126 6.35104C43.2792 6.30629 43.2325 6.27351 43.1788 6.25759C43.1255 6.24167 43.0683 6.24345 43.0159 6.26268C42.9635 6.2819 42.9186 6.31754 42.8882 6.3643L39.3095 11.911C39.2851 11.9488 39.2712 11.9925 39.2697 12.0375C39.2679 12.0825 39.2785 12.1272 39.3002 12.1667C39.3218 12.2062 39.3538 12.2391 39.3923 12.262C39.4312 12.2849 39.4755 12.297 39.5204 12.2968H42.2857C42.3167 12.2964 42.3477 12.3022 42.3767 12.3138C42.4053 12.3255 42.4315 12.3427 42.4538 12.3646C42.4758 12.3865 42.4935 12.4125 42.5056 12.4413C42.5173 12.47 42.5237 12.5008 42.5237 12.5319V15.046C42.5225 15.099 42.5387 15.1508 42.5698 15.1936C42.6008 15.2365 42.6451 15.2678 42.696 15.2829C42.7466 15.298 42.8008 15.296 42.8502 15.2771C42.8999 15.2583 42.9418 15.2237 42.9695 15.1787L46.515 9.71038C46.5406 9.67128 46.5551 9.626 46.5569 9.57934C46.5587 9.53267 46.5482 9.48634 46.5259 9.44528C46.5036 9.40422 46.4707 9.36992 46.4307 9.34601C46.3906 9.32208 46.3448 9.30948 46.2981 9.30945H43.587C43.528 9.30643 43.4719 9.28114 43.4307 9.23867C43.3894 9.19616 43.3656 9.13964 43.3641 9.08035Z" fill="white"/>
</svg>
