<svg data-token-name="mc_pay_menu" width="24" height="24" viewBox="0 0 24 24" fill="none" xmlns="http://www.w3.org/2000/svg">
<path d="M13.5942 2H10.4058C5.76813 2 2 5.76813 2 10.4058V20.7163C2 21.4202 2.5797 22 3.28363 22H13.5942C18.2319 22 22 18.2319 22 13.5942V10.4058C22 5.76813 18.2733 2 13.5942 2Z" fill="#703CEE"/>
<path fill-rule="evenodd" clip-rule="evenodd" d="M6 13.6286C6 13.8337 6.18117 14 6.40465 14C6.62813 14 6.80929 13.8337 6.80929 13.6286V12.8457H7.7929C8.17887 12.8457 8.50881 12.7886 8.78272 12.6743C9.06077 12.56 9.27452 12.3962 9.42393 12.1829C9.57334 11.9695 9.64805 11.7162 9.64805 11.4229C9.64805 11.1295 9.57334 10.8762 9.42393 10.6629C9.27452 10.4495 9.06077 10.2857 8.78272 10.1714C8.50881 10.0571 8.17887 10 7.7929 10H6.56594C6.25339 10 6 10.2326 6 10.5195V13.6286ZM6.80929 12.2171H7.75555C8.11248 12.2171 8.38017 12.1486 8.55861 12.0114C8.74124 11.8705 8.83252 11.6743 8.83252 11.4229C8.83252 11.1676 8.74124 10.9714 8.55861 10.8343C8.38017 10.6971 8.11248 10.6286 7.75555 10.6286H6.80929V12.2171ZM9.86101 13.5105C9.74844 13.7402 9.93141 14 10.2058 14C10.3571 14 10.4938 13.9172 10.5534 13.7895L10.8908 13.0657C10.9155 13.0713 10.9414 13.0743 10.9683 13.0743H12.8681C12.934 13.0743 12.994 13.0563 13.0437 13.0259L13.3997 13.7869C13.4602 13.9162 13.5988 14 13.7521 14C14.0306 14 14.2163 13.7361 14.1017 13.5031L12.5293 10.3057C12.4377 10.1196 12.2359 10 12.0134 10H11.9479C11.7253 10 11.5233 10.1199 11.4319 10.3063L9.86101 13.5105ZM12.7936 12.4914L11.9745 10.7409L11.1585 12.4914H12.7936ZM15.9673 14C15.825 14 15.7096 13.8941 15.7096 13.7635V12.6001L14.2784 10.4264C14.1551 10.2391 14.302 10 14.5404 10H14.6538C14.7836 10 14.9039 10.0624 14.9709 10.1644L16.1402 11.9459L17.3282 10.1506C17.39 10.0571 17.5006 10 17.6198 10H17.7083C17.9351 10 18.0749 10.2275 17.9576 10.4057L16.5189 12.5906V13.757C16.5189 13.8912 16.4004 14 16.2542 14H15.9673Z" fill="white"/>
</svg>
