<svg data-token-name="mc_pay_compact" width="24" height="24" viewBox="0 0 24 24" fill="none" xmlns="http://www.w3.org/2000/svg">
<path d="M13.5959 2H10.4041C8.17719 2 6.04181 2.88445 4.46574 4.45913C2.89009 6.03382 2.00331 8.17 2 10.3986V20.7073C2.00207 21.0502 2.13952 21.3783 2.38212 21.6204C2.62472 21.8625 2.95301 21.9989 3.2958 22H13.5918C14.6951 22.0016 15.7876 21.7856 16.8077 21.3644C17.8274 20.9431 18.7543 20.3247 19.5351 19.5448C20.3159 18.7648 20.9356 17.8384 21.3587 16.8186C21.7814 15.7988 21.9996 14.7056 22 13.6014V10.3986C21.9967 8.17 21.1099 6.03382 19.5343 4.45913C17.9586 2.88445 15.8228 2 13.5959 2Z" fill="#4B00FF"/>
<path d="M12.6186 9.07202V5.37242C12.6186 5.29218 12.5938 5.21408 12.5479 5.14977C12.502 5.08545 12.4379 5.03835 12.3644 5.01546C12.2912 4.99259 12.2127 4.99515 12.1407 5.02278C12.0688 5.05041 12.0072 5.10163 11.9655 5.16881L7.05484 13.1399C7.02136 13.1942 7.00234 13.2571 7.00027 13.3218C6.99779 13.3864 7.01226 13.4505 7.04202 13.5073C7.07179 13.5641 7.1156 13.6114 7.16851 13.6444C7.22183 13.6773 7.28259 13.6946 7.34418 13.6944H11.1388C11.1814 13.6938 11.2239 13.7021 11.2636 13.7188C11.3029 13.7356 11.3388 13.7603 11.3694 13.7918C11.3996 13.8232 11.424 13.8607 11.4405 13.902C11.4566 13.9432 11.4653 13.9875 11.4653 14.0323V17.6452C11.4637 17.7213 11.486 17.7959 11.5286 17.8574C11.5711 17.9189 11.6319 17.9639 11.7018 17.9856C11.7712 18.0073 11.8456 18.0044 11.9134 17.9773C11.9816 17.9502 12.0391 17.9005 12.0771 17.8358L16.9423 9.97743C16.9774 9.92124 16.9972 9.85617 16.9997 9.78911C17.0022 9.72205 16.9877 9.65546 16.9572 9.59646C16.9266 9.53746 16.8815 9.48816 16.8265 9.45381C16.7716 9.41941 16.7087 9.4013 16.6447 9.40126H12.9245C12.8435 9.39693 12.7666 9.36058 12.7099 9.29954C12.6533 9.23846 12.6207 9.15723 12.6186 9.07202Z" fill="white"/>
</svg>
