<svg data-token-name="mc_vidwide" width="24" height="24" viewBox="0 0 24 24" fill="none" xmlns="http://www.w3.org/2000/svg">
<path d="M13.6 2H10.4C5.8 2 2 5.8 2 10.4V20.7C2 21.4 2.6 22 3.3 22H13.6C18.2 22 22 18.2 22 13.6V10.4C22 5.8 18.2 2 13.6 2Z" fill="url(#paint0_linear)"/>
<path d="M15.1999 17.852C14.7815 18.5766 13.7357 18.5766 13.3173 17.852L8.49588 9.50104C8.07751 8.7764 8.60047 7.87061 9.43721 7.87061H19.08C19.9167 7.87061 20.4397 8.7764 20.0213 9.50104L15.1999 17.852Z" fill="white"/>
<path d="M14.0555 17.852C13.6371 18.5766 12.5911 18.5766 12.1727 17.852L7.35135 9.50104C6.93298 8.7764 7.45594 7.87061 8.29267 7.87061H17.9354C18.7722 7.87061 19.2951 8.7764 18.8768 9.50104L14.0555 17.852Z" fill="url(#paint1_linear)"/>
<path d="M12.9089 17.852C12.4906 18.5766 11.4446 18.5766 11.0263 17.852L6.20486 9.50104C5.78649 8.7764 6.30945 7.87061 7.14619 7.87061H16.789C17.6258 7.87061 18.1487 8.7764 17.7303 9.50104L12.9089 17.852Z" fill="white"/>
<path d="M11.7654 17.852C11.347 18.5766 10.3011 18.5766 9.8827 17.852L5.06131 9.50104C4.64293 8.7764 5.1659 7.87061 6.00264 7.87061H15.6455C16.4822 7.87061 17.0052 8.7764 16.5868 9.50104L11.7654 17.852Z" fill="url(#paint2_linear)"/>
<path d="M10.6824 17.852C10.264 18.5766 9.21807 18.5766 8.7997 17.852L3.9783 9.50104C3.55993 8.7764 4.0829 7.87061 4.91964 7.87061H14.5625C15.3992 7.87061 15.9221 8.7764 15.5038 9.50104L10.6824 17.852Z" fill="white"/>
<defs>
<linearGradient id="paint0_linear" x1="12" y1="2" x2="12" y2="22" gradientUnits="userSpaceOnUse">
<stop stop-color="#26DFD5"/>
<stop offset="1" stop-color="#3580F8"/>
</linearGradient>
<linearGradient id="paint1_linear" x1="13.1094" y1="23.4889" x2="13.1094" y2="-0.330856" gradientUnits="userSpaceOnUse">
<stop stop-color="#3581F8"/>
<stop offset="1" stop-color="#26DED6"/>
</linearGradient>
<linearGradient id="paint2_linear" x1="10.8104" y1="23.5431" x2="10.8104" y2="-0.330857" gradientUnits="userSpaceOnUse">
<stop stop-color="#3582F8"/>
<stop offset="1" stop-color="#26DED6"/>
</linearGradient>
</defs>
</svg>
