<svg data-token-name="mcadslogo" width="24" height="24" version="1.1" id="Layer_1" xmlns="http://www.w3.org/2000/svg" x="0px" y="0px"
	 viewBox="0 0 230 230" style="enable-background:new 0 0 230 230;" xml:space="preserve">
<style type="text/css">
	.mcads0{fill:#111111;}
	.mcads1{fill:#E20E41;}
	.mcads2{fill:#F2F3F9;}
</style>
<path class="mcads0" d="M81.4,142.1c-1.6-4-2.5-8.2-2.5-12.6c0-4.2,0.7-8.3,2.4-12.3c0-0.1,0-0.1,0.1-0.2c-0.1-0.3-0.2-0.6-0.3-1
	c-0.7-2.6-2.1-4.9-3.8-6.9c-1.7-2-4-3.6-6.4-4.7c-2.9-1.2-6.1-1.8-9.3-1.7c-1.5,0-3.1,0.2-4.6,0.6c-1.5,0.4-2.9,1-4.2,1.8
	c-1.3,0.7-2.6,1.7-3.6,2.7c-1.1,1-2,2.1-2.9,3.3c-0.7-1.2-1.6-2.2-2.7-3.2c-1.1-1-2.4-1.9-3.7-2.6c-1.4-0.7-3-1.4-4.5-1.8
	c-1.7-0.4-3.4-0.6-5.1-0.6c-1.6,0-3.1,0.2-4.6,0.6c-1.3,0.4-2.6,1-3.7,1.6c-1.1,0.6-2.1,1.4-3,2.4c-0.9,0.9-1.7,1.7-2.5,2.6
	c-0.1-0.6-0.2-1.3-0.4-2c-0.2-0.7-0.4-1.5-0.6-2.1s-0.6-1.2-1.1-1.7c-0.4-0.4-1-0.6-1.5-0.6H5.8c-0.7,0-1.4,0.3-1.9,1
	c-0.6,0.6-1,1.5-1,2.4v45.5c0,0.7,0.2,1.5,0.7,2c0.6,0.6,1.4,0.9,2.2,0.9h9c0.7,0,1.4-0.2,1.9-0.7c0.5-0.5,0.7-1.3,0.7-2v-26.7
	c0-1.3,0.3-2.5,0.9-3.6c1.1-2.2,2.9-4,5.1-4.8c1.1-0.4,2.2-0.7,3.5-0.7c1.2,0,2.4,0.2,3.5,0.6c1.1,0.4,1.9,1,2.7,1.7
	c0.7,0.9,1.4,1.7,1.8,2.8c0.4,1.2,0.6,2.5,0.6,3.7v26.7c-0.1,0.9,0.2,1.6,0.6,2.2c0.6,0.5,1.4,0.9,2.2,0.7h8.4
	c0.9,0,1.6-0.2,2.2-0.7c0.6-0.6,1-1.4,0.9-2.2v-26.3c0-1.3,0.3-2.6,0.9-3.6s1.3-2.1,2.2-3c1-0.9,2-1.5,3.1-2
	c1.2-0.4,2.4-0.6,3.6-0.6c2.2,0,4.5,1,5.9,2.8c0.7,0.9,1.3,1.9,1.5,3c0.3,1.2,0.5,2.5,0.5,3.7v26.2c0,2,1.1,3,3.4,3h7.9
	c0.9,0,1.6-0.2,2.2-0.9c0.6-0.6,1-1.4,1-2.2v-7.6C82,143.7,81.7,143,81.4,142.1z"/>
<path class="mcads0" d="M127.7,147.1l-4.3-6.6c-0.4-0.7-1.1-1.3-1.9-1.7c-0.2,0-0.3-0.1-0.5-0.1h-0.3c-0.2,0-0.4,0-0.5,0.1
	c-0.4,0.1-0.9,0.3-1.2,0.6c-2.4,1.8-5.2,2.8-8.2,2.8c-1.6,0-3.2-0.3-4.7-1c-1.4-0.6-2.7-1.6-3.6-2.7c-1.1-1.2-1.8-2.6-2.4-4.1
	c-1.2-3.2-1.2-6.7,0-9.9c0.5-1.5,1.4-2.9,2.5-4.2c1-1.2,2.2-2.1,3.6-2.8c1.5-0.7,3.1-1.1,4.7-1.1c1.5,0,3,0.2,4.4,0.7l0,0
	c1,0.4,2.1-0.1,2.5-1.1c0.1-0.2,0.1-0.4,0.1-0.6v-10.2c0-1-0.6-1.7-1.6-1.9c-1.7-0.3-3.5-0.5-5.3-0.5c-3.5,0-7.1,0.6-10.3,2
	c-3.1,1.3-6,3.2-8.4,5.6c-10.4,10.5-10.4,27.4,0,37.7c2.5,2.4,5.2,4.3,8.3,5.7c3.2,1.4,6.7,2.1,10.3,2c2.8,0,5.7-0.4,8.3-1.4
	c2.6-1,5-2.1,7.4-3.6c0.4-0.3,0.9-0.6,1.2-1.1s0.5-1,0.5-1.5C128.2,148.1,128,147.6,127.7,147.1z"/>
<path class="mcads1" d="M205.7,82.4h-60.2c-12,0-21.7,9.7-21.7,21.7l0,0v26.8c0,1.8,1.5,3.3,3.3,3.4h78.5c12,0,21.7-9.7,21.7-21.7l0,0
	v-8.6C227.3,92.1,217.7,82.4,205.7,82.4z"/>
<path class="mcads2" d="M148.3,117.6c-1-0.5-1.4-1.7-0.9-2.7l7.6-15.1c0.5-1,1.7-1.4,2.7-1c0.4,0.2,0.7,0.5,1,1l7.5,15.1
	c0.2,0.4,0.3,1.1,0.1,1.5c-0.2,0.5-0.5,1-1,1.2c-0.3,0.1-0.5,0.2-0.9,0.2c-0.7,0-1.5-0.4-1.8-1.1l-1.3-2.7h-8.8l-1.4,2.6
	c-0.2,0.5-0.6,0.9-1.2,1C149.4,117.9,148.8,117.9,148.3,117.6z M154.4,110h4.8l-2.4-4.8L154.4,110z"/>
<path class="mcads2" d="M170.7,117.9c-1.1,0-2-0.9-2-2l0,0v-15.1c0-1.1,0.9-2,2-2h5c5.2,0,9.5,4.3,9.5,9.5c0,5.2-4.3,9.5-9.5,9.5
	L170.7,117.9z M172.8,113.8h3c3,0,5.6-2.5,5.6-5.5c0-1.5-0.5-2.9-1.6-4s-2.5-1.6-3.8-1.6h-3L172.8,113.8z"/>
<path class="mcads2" d="M198.2,113.8c0.4,0,1-0.2,1.3-0.5c0.3-0.3,0.5-0.7,0.5-1.3c0-0.4-0.2-1-0.5-1.3c-0.3-0.3-0.7-0.5-1.2-0.5h-5
	c-3.2,0-5.8-2.6-5.8-5.8c0-1.5,0.6-3,1.7-4.1c1.1-1.1,2.6-1.7,4.1-1.7h8.8c1.1,0,2,0.9,2,2c0,0.5-0.2,1.1-0.6,1.4
	c-0.4,0.4-0.9,0.5-1.4,0.5h-8.8c-1,0-1.7,0.7-1.7,1.7c0,0.4,0.2,1,0.5,1.3c0.3,0.3,0.7,0.5,1.3,0.5h5c3.2,0,5.8,2.6,5.8,5.8
	c0,1.5-0.6,3-1.7,4.1c-1.1,1.1-2.6,1.7-4.1,1.7h-8.8c-0.5,0-1.1-0.2-1.4-0.5c-0.7-0.7-0.7-2,0-2.9c0.4-0.4,0.9-0.6,1.4-0.6
	L198.2,113.8z"/>
</svg>
