<svg data-token-name="mobile_device" width="24" height="24" viewBox="0 0 32 33" xmlns="http://www.w3.org/2000/svg">
<path d="M14.6667 7.5C14.1144 7.5 13.6667 7.94772 13.6667 8.5C13.6667 9.05228 14.1144 9.5 14.6667 9.5V7.5ZM17.3333 9.5C17.8856 9.5 18.3333 9.05228 18.3333 8.5C18.3333 7.94772 17.8856 7.5 17.3333 7.5V9.5ZM17 24.3646C17 23.8123 16.5523 23.3646 16 23.3646C15.4477 23.3646 15 23.8123 15 24.3646H17ZM15 24.5C15 25.0523 15.4477 25.5 16 25.5C16.5523 25.5 17 25.0523 17 24.5H15ZM21.3333 27.5H10.6667V29.5H21.3333V27.5ZM10.6667 27.5C9.74562 27.5 9 26.7544 9 25.8333H7C7 27.859 8.64105 29.5 10.6667 29.5V27.5ZM9 25.8333V7.16667H7V25.8333H9ZM9 7.16667C9 6.24562 9.74562 5.5 10.6667 5.5V3.5C8.64105 3.5 7 5.14105 7 7.16667H9ZM10.6667 5.5H21.3333V3.5H10.6667V5.5ZM21.3333 5.5C22.2544 5.5 23 6.24562 23 7.16667H25C25 5.14105 23.359 3.5 21.3333 3.5V5.5ZM23 7.16667V25.8333H25V7.16667H23ZM23 25.8333C23 26.7544 22.2544 27.5 21.3333 27.5V29.5C23.359 29.5 25 27.859 25 25.8333H23ZM14.6667 9.5H17.3333V7.5H14.6667V9.5ZM15 24.3646V24.5H17V24.3646H15Z"/>
</svg>
