<svg data-token-name="money_input" width="24" height="24" viewBox="0 0 24 24" fill="none" xmlns="http://www.w3.org/2000/svg">
    <path d="M10.5858 16.4142C10.3061 16.1345 10.1156 15.7781 10.0384 15.3901C9.96126 15.0022 10.0009 14.6 10.1522 14.2346C10.3036 13.8691 10.56 13.5568 10.8889 13.337C11.2178 13.1172 11.6044 12.9999 12 12.9999C12.3956 12.9999 12.7823 13.1172 13.1112 13.337C13.4401 13.5568 13.6964 13.8691 13.8478 14.2346C13.9991 14.6 14.0387 15.0022 13.9616 15.3901C13.8844 15.7781 13.6939 16.1345 13.4142 16.4142C13.2285 16.5999 13.008 16.7472 12.7654 16.8477C12.5227 16.9483 12.2626 17 12 17C11.7374 17 11.4773 16.9483 11.2346 16.8477C10.992 16.7472 10.7715 16.5999 10.5858 16.4142Z" stroke="currentColor" fill="none"  stroke-width="1.5" stroke-linecap="round" stroke-linejoin="round"/>
    <path d="M17.5 17V13" stroke="currentColor" fill="none"  stroke-width="1.5" stroke-linecap="round" stroke-linejoin="round"/>
    <path d="M6.5 17V13" stroke="currentColor" fill="none"  stroke-width="1.5" stroke-linecap="round" stroke-linejoin="round"/>
    <path d="M12 3V8" stroke="currentColor" fill="none"  stroke-width="1.5" stroke-linecap="round" stroke-linejoin="round"/>
    <path d="M10 6L12 8L14 6" stroke="currentColor" fill="none"  stroke-width="1.5" stroke-linecap="round" stroke-linejoin="round"/>
    <path d="M16 9H19C19.2627 8.99993 19.5228 9.05161 19.7655 9.15209C20.0081 9.25258 20.2286 9.39989 20.4144 9.58563C20.6001 9.77136 20.7474 9.99186 20.8479 10.2345C20.9484 10.4772 21.0001 10.7373 21 11V19C21.0001 19.2627 20.9484 19.5228 20.8479 19.7655C20.7474 20.0081 20.6001 20.2286 20.4144 20.4144C20.2286 20.6001 20.0081 20.7474 19.7655 20.8479C19.5228 20.9484 19.2627 21.0001 19 21H5C4.73734 21.0001 4.47723 20.9484 4.23455 20.8479C3.99186 20.7474 3.77136 20.6001 3.58563 20.4144C3.39989 20.2286 3.25258 20.0081 3.15209 19.7655C3.05161 19.5228 2.99993 19.2627 3 19V11C2.99993 10.7373 3.05161 10.4772 3.15209 10.2345C3.25258 9.99186 3.39989 9.77136 3.58563 9.58563C3.77136 9.39989 3.99186 9.25258 4.23455 9.15209C4.47723 9.05161 4.73734 8.99993 5 9H8" stroke="currentColor" fill="none"  stroke-width="1.5" stroke-linecap="round" stroke-linejoin="round"/>
</svg>
