<svg data-token-name="money_clock" width="24" height="24" viewBox="0 0 24 24" fill="none" xmlns="http://www.w3.org/2000/svg">
<path d="M17 7H16" stroke="currentColor" fill="none"  stroke-width="1.5" stroke-linecap="round" stroke-linejoin="round"/>
<path d="M6 14H7" stroke="currentColor" fill="none"  stroke-width="1.5" stroke-linecap="round" stroke-linejoin="round"/>
<path d="M10 17H5.5C4.83696 17 4.20107 16.7366 3.73223 16.2678C3.26339 15.7989 3 15.163 3 14.5V6.5C3 5.83696 3.26339 5.20107 3.73223 4.73223C4.20107 4.26339 4.83696 4 5.5 4H17.5C18.163 4 18.7989 4.26339 19.2678 4.73223C19.7366 5.20107 20 5.83696 20 6.5V10" stroke="currentColor" fill="none"  stroke-width="1.5" stroke-linecap="round" stroke-linejoin="round"/>
<path d="M9.73223 12.2678C9.26339 11.7989 9 11.163 9 10.5C9 9.83695 9.26339 9.20107 9.73223 8.73223C10.2011 8.26339 10.837 7.99999 11.5 7.99999C12.163 7.99999 12.7989 8.26339 13.2678 8.73223" stroke="currentColor" fill="none"  stroke-width="1.5" stroke-linecap="round" stroke-linejoin="round"/>
<path d="M17.5 21C16.61 21 15.74 20.7361 14.9999 20.2416C14.2599 19.7471 13.6831 19.0443 13.3425 18.2221C13.0019 17.3998 12.9128 16.495 13.0865 15.6221C13.2601 14.7492 13.6887 13.9474 14.318 13.318C14.9474 12.6887 15.7492 12.2601 16.6221 12.0865C17.495 11.9128 18.3998 12.0019 19.2221 12.3425C20.0443 12.6831 20.7471 13.2599 21.2416 13.9999C21.7361 14.74 22 15.61 22 16.5C22 17.6935 21.5259 18.8381 20.682 19.682C19.8381 20.5259 18.6935 21 17.5 21Z" stroke="currentColor" fill="none"  stroke-width="1.5" stroke-linecap="round" stroke-linejoin="round"/>
<path d="M17.3926 14.9833V16.7368L18.7748 17.58" stroke="currentColor" fill="none"  stroke-width="1.5" stroke-linecap="round" stroke-linejoin="round"/>
</svg>
