<svg data-token-name="obs" width="24" height="24" viewBox="0 0 24 24" xmlns="http://www.w3.org/2000/svg">
    <path d="M12 0.959961C5.90842 0.959961 0.959961 5.90842 0.959961 12C0.959961 13.9668 1.47849 15.8127 2.38215 17.4131L2.37184 17.4187C2.41348 17.4925 2.46182 17.56 2.50684 17.6306C2.50883 17.6339 2.51046 17.6375 2.51246 17.6409L2.50402 17.6456C2.55213 17.7263 2.60771 17.7993 2.65871 17.8771C4.61482 20.977 8.0682 23.04 12 23.04C15.9101 23.04 19.3467 20.9992 21.3084 17.9278L21.3215 17.9362C21.3617 17.8734 21.3943 17.808 21.4312 17.744L21.4387 17.7487C21.5305 17.5987 21.6095 17.4445 21.6881 17.2903C21.6992 17.27 21.7099 17.2496 21.7209 17.2293C21.7393 17.1922 21.7604 17.1561 21.7781 17.1187C22.5821 15.5878 23.04 13.8473 23.04 12C23.04 5.90842 18.0915 0.959961 12 0.959961ZM12 1.91996C17.5727 1.91996 22.08 6.42725 22.08 12C22.08 12.0462 22.0768 12.0917 22.0762 12.1378C21.5926 10.6502 20.6059 9.31912 19.1821 8.44777C18.1015 7.78623 16.9038 7.47395 15.7246 7.46621L15.449 7.46434L15.3084 7.70246C14.6402 8.83696 13.4142 9.59996 12 9.59996C9.87324 9.59996 8.15996 7.88668 8.15996 5.75996C8.15996 3.63324 9.87324 1.91996 12 1.91996ZM6.91496 3.30371C5.89938 4.4797 5.27996 6.00655 5.27996 7.67996C5.27996 8.85892 5.58727 9.96872 6.1209 10.9321L6.26059 11.1853L6.54934 11.1796C7.91426 11.1541 9.24887 11.8562 9.96934 13.1325C11.0145 14.9845 10.3645 17.3185 8.51246 18.3637C6.77985 19.3415 4.55727 18.8611 3.42652 17.2865C2.47711 15.7488 1.91996 13.9423 1.91996 12C1.91996 8.28507 3.92863 5.05208 6.91496 3.30371ZM7.51121 4.07621C7.31336 4.60122 7.19996 5.16685 7.19996 5.75996C7.19996 8.4054 9.35452 10.56 12 10.56C13.6394 10.56 15.0639 9.71283 15.929 8.45527C16.8735 8.49521 17.8182 8.73831 18.6806 9.26621C19.9484 10.0422 20.8111 11.2437 21.2081 12.5784C20.8521 12.0587 20.3907 11.6014 19.8328 11.2443C19.2758 10.8879 18.6717 10.6616 18.0571 10.5571C16.2134 10.2439 14.2715 11.0285 13.2018 12.6993V12.7003L12.7293 13.4381H12.8681C12.3062 14.7727 12.3791 16.2414 13.0228 17.4834C12.5727 18.1201 12.0091 18.6867 11.2978 19.1109C9.98155 19.8958 8.46611 20.0992 7.06496 19.8009C7.7239 19.7354 8.37817 19.5409 8.98402 19.199C11.0601 18.0274 11.8379 15.5448 11.0381 13.3762H11.2096L10.8056 12.66C9.97066 11.181 8.45905 10.345 6.87652 10.259C6.4832 9.47991 6.23996 8.61309 6.23996 7.67996C6.23996 6.31229 6.7176 5.06128 7.51121 4.07621ZM17.1525 11.445C17.8913 11.427 18.6438 11.6227 19.3153 12.0525C20.9808 13.1184 21.5716 15.308 20.7196 17.0456C18.9768 20.0538 15.7313 22.08 12 22.08C10.1937 22.08 8.50297 21.6011 7.03777 20.7712C8.62085 21.0664 10.3141 20.816 11.79 19.9359C12.7046 19.3904 13.4374 18.6569 13.979 17.8218L14.144 17.5668L13.9846 17.3081C13.2328 16.0919 13.1864 14.5077 14.009 13.2196C14.0095 13.2189 14.0104 13.2185 14.0109 13.2178V13.2168C14.7276 12.0979 15.921 11.4749 17.1525 11.445Z"/>
</svg>
