<svg data-token-name="offers" width="24" height="24" viewBox="0 0 24 24" fill="none" xmlns="http://www.w3.org/2000/svg">
    <path d="M3 3.66639V20.3336C2.99993 20.5231 3.04895 20.7095 3.14239 20.875C3.23583 21.0405 3.37059 21.1797 3.53386 21.2792C3.69712 21.3788 3.88346 21.4354 4.07514 21.4438C4.26683 21.4521 4.45749 21.4119 4.629 21.3269L5.49637 20.8981C5.65246 20.8208 5.82465 20.7806 5.99925 20.7806C6.17385 20.7806 6.34604 20.8208 6.50212 20.8981L8.49675 21.8825C8.65284 21.9598 8.82503 22 8.99963 22C9.17422 22 9.34641 21.9598 9.5025 21.8825L11.4971 20.8981C11.6532 20.8208 11.8254 20.7806 12 20.7806C12.1746 20.7806 12.3468 20.8208 12.5029 20.8981L14.4975 21.8825C14.6538 21.9598 14.8262 22 15.0009 22C15.1757 22 15.3481 21.9598 15.5044 21.8825L17.4967 20.8981C17.653 20.8208 17.8254 20.7806 18.0002 20.7806C18.175 20.7806 18.3473 20.8208 18.5036 20.8981L19.3721 21.3269C19.5436 21.4117 19.7341 21.4518 19.9257 21.4433C20.1172 21.4349 20.3034 21.3782 20.4665 21.2787C20.6297 21.1791 20.7643 21.04 20.8577 20.8746C20.951 20.7092 21 20.523 21 20.3336V3.66639C21.0001 3.47688 20.9511 3.29051 20.8576 3.125C20.7642 2.95949 20.6294 2.82033 20.4661 2.72078C20.3029 2.62122 20.1165 2.56458 19.9249 2.55622C19.7332 2.54787 19.5425 2.58809 19.371 2.67306L18.5036 3.10195C18.3475 3.17921 18.1753 3.21944 18.0007 3.21944C17.8262 3.21944 17.654 3.17921 17.4979 3.10195L15.5033 2.1175C15.3472 2.04023 15.175 2 15.0004 2C14.8258 2 14.6536 2.04023 14.4975 2.1175L12.5029 3.10195C12.3468 3.17868 12.1749 3.21861 12.0006 3.21861C11.8262 3.21861 11.6543 3.17868 11.4982 3.10195L9.50363 2.1175C9.34734 2.04023 9.17496 2 9.00019 2C8.82541 2 8.65304 2.04023 8.49675 2.1175L6.50437 3.10195C6.34809 3.17921 6.17571 3.21945 6.00094 3.21945C5.82616 3.21945 5.65379 3.17921 5.4975 3.10195L4.62788 2.67306C4.45642 2.58828 4.26586 2.54822 4.07431 2.55667C3.88276 2.56512 3.69657 2.62181 3.53345 2.72135C3.37033 2.82088 3.23569 2.95996 3.14232 3.12537C3.04896 3.29077 2.99996 3.47701 3 3.66639Z" stroke="currentColor" fill="none" stroke-linecap="round" stroke-linejoin="round"/>
    <path d="M7 8H13" stroke="currentColor" fill="none" stroke-linecap="round" stroke-linejoin="round"/>
    <path d="M16.9004 8.60001C16.9993 8.60001 17.096 8.57068 17.1782 8.51574C17.2604 8.4608 17.3245 8.38271 17.3623 8.29135C17.4002 8.19998 17.4101 8.09945 17.3908 8.00246C17.3715 7.90547 17.3239 7.81638 17.2539 7.74645C17.184 7.67653 17.0949 7.62891 16.9979 7.60961C16.9009 7.59032 16.8004 7.60022 16.709 7.63807C16.6177 7.67591 16.5396 7.74 16.4847 7.82222C16.4297 7.90445 16.4004 8.00112 16.4004 8.10001C16.4004 8.23261 16.4531 8.35979 16.5468 8.45356C16.6406 8.54733 16.7678 8.60001 16.9004 8.60001Z" stroke="currentColor" fill="none" stroke-linecap="round" stroke-linejoin="round"/>

    <path d="M7 12H13" stroke="currentColor" fill="none" stroke-linecap="round" stroke-linejoin="round"/>
    <path d="M16.9004 12.6C16.9993 12.6 17.096 12.5707 17.1782 12.5157C17.2604 12.4608 17.3245 12.3827 17.3623 12.2913C17.4002 12.2 17.4101 12.0995 17.3908 12.0025C17.3715 11.9055 17.3239 11.8164 17.2539 11.7465C17.184 11.6765 17.0949 11.6289 16.9979 11.6096C16.9009 11.5903 16.8004 11.6002 16.709 11.6381C16.6177 11.6759 16.5396 11.74 16.4847 11.8222C16.4297 11.9044 16.4004 12.0011 16.4004 12.1C16.4004 12.2326 16.4531 12.3598 16.5468 12.4536C16.6406 12.5473 16.7678 12.6 16.9004 12.6Z" stroke="currentColor" fill="none" stroke-linecap="round" stroke-linejoin="round"/>

    <path d="M7 16H13" stroke="currentColor" fill="none" stroke-linecap="round" stroke-linejoin="round"/>
    <path d="M16.9004 16.6C16.9993 16.6 17.096 16.5707 17.1782 16.5157C17.2604 16.4608 17.3245 16.3827 17.3623 16.2913C17.4002 16.2 17.4101 16.0995 17.3908 16.0025C17.3715 15.9055 17.3239 15.8164 17.2539 15.7465C17.184 15.6765 17.0949 15.6289 16.9979 15.6096C16.9009 15.5903 16.8004 15.6002 16.709 15.6381C16.6177 15.6759 16.5396 15.74 16.4847 15.8222C16.4297 15.9044 16.4004 16.0011 16.4004 16.1C16.4004 16.2326 16.4531 16.3598 16.5468 16.4536C16.6406 16.5473 16.7678 16.6 16.9004 16.6Z" stroke="currentColor" fill="none" stroke-linecap="round" stroke-linejoin="round"/>
</svg>
