<svg data-token-name="offers" width="24" height="24" viewBox="0 0 24 24" fill="none" xmlns="http://www.w3.org/2000/svg">
<path d="M7 16H13" stroke="currentColor" fill="none" stroke-linecap="round" stroke-linejoin="round"/>
<path d="M17 17C17.1978 17 17.3911 16.9413 17.5556 16.8315C17.72 16.7216 17.8482 16.5654 17.9239 16.3827C17.9996 16.2 18.0194 15.9989 17.9808 15.8049C17.9422 15.6109 17.847 15.4327 17.7071 15.2929C17.5673 15.153 17.3891 15.0578 17.1951 15.0192C17.0011 14.9806 16.8 15.0004 16.6173 15.0761C16.4346 15.1518 16.2784 15.28 16.1685 15.4444C16.0587 15.6089 16 15.8022 16 16C16 16.2652 16.1054 16.5196 16.2929 16.7071C16.4804 16.8946 16.7348 17 17 17Z" fill="currentColor"/>
<path d="M7 12H13" stroke="currentColor" fill="none" stroke-linecap="round" stroke-linejoin="round"/>
<path d="M3 3.66639V20.3336C2.99993 20.5231 3.04895 20.7095 3.14239 20.875C3.23583 21.0405 3.37059 21.1797 3.53386 21.2792C3.69712 21.3788 3.88346 21.4354 4.07514 21.4438C4.26683 21.4521 4.45749 21.4119 4.629 21.3269L5.49637 20.8981C5.65246 20.8208 5.82465 20.7806 5.99925 20.7806C6.17385 20.7806 6.34604 20.8208 6.50212 20.8981L8.49675 21.8825C8.65284 21.9598 8.82503 22 8.99963 22C9.17422 22 9.34641 21.9598 9.5025 21.8825L11.4971 20.8981C11.6532 20.8208 11.8254 20.7806 12 20.7806C12.1746 20.7806 12.3468 20.8208 12.5029 20.8981L14.4975 21.8825C14.6538 21.9598 14.8262 22 15.0009 22C15.1757 22 15.3481 21.9598 15.5044 21.8825L17.4967 20.8981C17.653 20.8208 17.8254 20.7806 18.0002 20.7806C18.175 20.7806 18.3473 20.8208 18.5036 20.8981L19.3721 21.3269C19.5436 21.4117 19.7341 21.4518 19.9257 21.4433C20.1172 21.4349 20.3034 21.3782 20.4665 21.2787C20.6297 21.1791 20.7643 21.04 20.8577 20.8746C20.951 20.7092 21 20.523 21 20.3336V3.66639C21.0001 3.47688 20.9511 3.29051 20.8576 3.125C20.7642 2.95949 20.6294 2.82033 20.4661 2.72078C20.3029 2.62122 20.1165 2.56458 19.9249 2.55622C19.7332 2.54787 19.5425 2.58809 19.371 2.67306L18.5036 3.10195C18.3475 3.17921 18.1753 3.21944 18.0007 3.21944C17.8262 3.21944 17.654 3.17921 17.4979 3.10195L15.5033 2.1175C15.3472 2.04023 15.175 2 15.0004 2C14.8258 2 14.6536 2.04023 14.4975 2.1175L12.5029 3.10195C12.3468 3.17868 12.1749 3.21861 12.0006 3.21861C11.8262 3.21861 11.6543 3.17868 11.4982 3.10195L9.50363 2.1175C9.34734 2.04023 9.17496 2 9.00019 2C8.82541 2 8.65304 2.04023 8.49675 2.1175L6.50437 3.10195C6.34809 3.17921 6.17571 3.21945 6.00094 3.21945C5.82616 3.21945 5.65379 3.17921 5.4975 3.10195L4.62788 2.67306C4.45642 2.58828 4.26586 2.54822 4.07431 2.55667C3.88276 2.56512 3.69657 2.62181 3.53345 2.72135C3.37033 2.82088 3.23569 2.95996 3.14232 3.12537C3.04896 3.29077 2.99996 3.47701 3 3.66639Z" stroke="currentColor" fill="none" stroke-linecap="round" stroke-linejoin="round"/>
<path d="M17 13C17.1978 13 17.3911 12.9413 17.5556 12.8315C17.72 12.7216 17.8482 12.5654 17.9239 12.3827C17.9996 12.2 18.0194 11.9989 17.9808 11.8049C17.9422 11.6109 17.847 11.4327 17.7071 11.2929C17.5673 11.153 17.3891 11.0578 17.1951 11.0192C17.0011 10.9806 16.8 11.0004 16.6173 11.0761C16.4346 11.1518 16.2784 11.28 16.1685 11.4444C16.0587 11.6089 16 11.8022 16 12C16 12.2652 16.1054 12.5196 16.2929 12.7071C16.4804 12.8946 16.7348 13 17 13Z" fill="currentColor"/>
<path d="M7 8H13" stroke="currentColor" fill="none" stroke-linecap="round" stroke-linejoin="round"/>
<path d="M17 9C17.1978 9 17.3911 8.94135 17.5556 8.83147C17.72 8.72159 17.8482 8.56541 17.9239 8.38268C17.9996 8.19996 18.0194 7.99889 17.9808 7.80491C17.9422 7.61093 17.847 7.43275 17.7071 7.29289C17.5673 7.15304 17.3891 7.0578 17.1951 7.01921C17.0011 6.98063 16.8 7.00043 16.6173 7.07612C16.4346 7.15181 16.2784 7.27998 16.1685 7.44443C16.0587 7.60888 16 7.80222 16 8C16 8.26522 16.1054 8.51957 16.2929 8.70711C16.4804 8.89464 16.7348 9 17 9Z" fill="currentColor" />
</svg>
