<svg data-token-name="okru" width="24" height="24" version="1.1" id="Layer_1" xmlns="http://www.w3.org/2000/svg" xmlns:xlink="http://www.w3.org/1999/xlink" x="0px" y="0px"
	 viewBox="0 0 24 24" style="enable-background:new 0 0 24 24;" xml:space="preserve">
<path fill="none" d="M0,0h24v24H0V0z"/>
<g>
	<path d="M12,12.9c3.1,0,5.7-2.5,5.7-5.7S15.1,1.5,12,1.5S6.3,4.1,6.3,7.2C6.3,10.3,8.9,12.9,12,12.9z M12,4.7
		c1.4,0,2.5,1.1,2.5,2.5S13.4,9.7,12,9.7S9.5,8.6,9.5,7.2S10.6,4.7,12,4.7z"/>
	<path d="M17.6,15.5c0.6-0.4,1-1.1,1-1.8c0-0.6-0.3-1.2-0.9-1.4c-0.6-0.3-1.2-0.2-1.7,0.2c-2.3,1.7-5.5,1.7-7.8,0
		c-0.5-0.4-1.2-0.4-1.7-0.2c-0.5,0.3-0.9,0.8-0.9,1.4c0,0.7,0.4,1.4,1,1.8c0.8,0.5,1.7,0.9,2.6,1.2c0.2,0,0.3,0.1,0.5,0.1l-2.6,2.6
		c-0.7,0.7-0.7,1.8,0,2.5c0.7,0.7,1.8,0.7,2.5,0c0,0,0,0,0,0l2.7-2.8l2.7,2.8c0.7,0.7,1.8,0.7,2.5,0c0.7-0.7,0.7-1.8,0-2.5
		c0,0,0,0,0,0l-2.6-2.6c0.2,0,0.3-0.1,0.5-0.1C15.9,16.5,16.8,16.1,17.6,15.5z"/>
</g>
</svg>
