<svg data-token-name="okru_colored" width="24" height="24" viewBox="0 0 24 24" fill="none" xmlns="http://www.w3.org/2000/svg">
<path d="M0 12C0 5.37258 5.37258 0 12 0C18.6274 0 24 5.37258 24 12C24 18.6274 18.6274 24 12 24C5.37258 24 0 18.6274 0 12Z" fill="#EE8208"/>
<path d="M11.9999 6.42008C13.0172 6.42008 13.8448 7.18698 13.8448 8.12979C13.8448 9.07182 13.017 9.83871 11.9999 9.83871C10.9832 9.83871 10.1554 9.07182 10.1554 8.12979C10.1552 7.18678 10.9834 6.42008 11.9999 6.42008ZM11.9999 12.2576C14.4573 12.2576 16.4557 10.4062 16.4557 8.12979C16.4557 5.85222 14.4575 4 11.9999 4C9.54268 4 7.54403 5.85242 7.54403 8.12979C7.54403 10.4062 9.54268 12.2576 11.9999 12.2576ZM13.8025 15.6258C14.7192 15.4324 15.5939 15.0967 16.3898 14.633C16.6828 14.4622 16.8906 14.1905 16.9674 13.8777C17.0443 13.5648 16.9839 13.2366 16.7995 12.965C16.7084 12.8304 16.5895 12.7138 16.4496 12.6219C16.3098 12.5299 16.1517 12.4644 15.9846 12.429C15.8174 12.3937 15.6443 12.3893 15.4753 12.416C15.3062 12.4427 15.1446 12.5001 14.9995 12.5847C13.174 13.6483 10.8245 13.6475 9.00052 12.5847C8.85544 12.5 8.69376 12.4427 8.52474 12.416C8.35571 12.3892 8.18267 12.3937 8.01549 12.429C7.84832 12.4643 7.6903 12.5298 7.55048 12.6218C7.41066 12.7138 7.29178 12.8304 7.20065 12.965C7.01625 13.2365 6.95575 13.5647 7.03246 13.8775C7.10918 14.1903 7.31682 14.4621 7.60972 14.633C8.40556 15.0965 9.28015 15.4322 10.1966 15.6258L7.70569 17.9346C7.46091 18.1616 7.32342 18.4693 7.32348 18.7902C7.32354 19.1111 7.46114 19.4188 7.70601 19.6456C7.95089 19.8725 8.28297 19.9999 8.62921 19.9999C8.97545 19.9998 9.30749 19.8723 9.55227 19.6453L11.9995 17.3771L14.4481 19.6455C14.5692 19.7579 14.713 19.8471 14.8713 19.9079C15.0295 19.9687 15.1992 20 15.3706 20C15.5419 20 15.7116 19.9687 15.8699 19.9079C16.0281 19.8471 16.1719 19.7579 16.293 19.6455C16.4144 19.5334 16.5108 19.4001 16.5765 19.2533C16.6422 19.1065 16.6761 18.9492 16.6761 18.7903C16.6761 18.6314 16.6422 18.474 16.5765 18.3273C16.5108 18.1805 16.4144 18.0472 16.293 17.935L13.8025 15.6258Z" fill="white"/>
</svg>
