<svg data-token-name="partners" width="24" height="24" viewBox="0 0 24 24" fill="none" xmlns="http://www.w3.org/2000/svg">
<path d="M20 14.5973L15.7062 15.4141M20 14.5973C20.0117 14.8473 20.1234 15.0826 20.3108 15.2518C20.4982 15.4209 20.746 15.5102 21 15.5H22M20 14.5973V8.4017C20.0117 8.15178 20.1235 7.91659 20.3109 7.7476C20.4983 7.57861 20.7461 7.48958 21 7.5H22M15.7062 15.4141C15.4745 15.5552 15.2074 15.63 14.935 15.6302H14.446M15.7062 15.4141C15.9379 15.2731 16.1252 15.0713 16.247 14.8314C16.3689 14.5915 16.4205 14.323 16.3961 14.0559C16.3717 13.7887 16.2723 13.5336 16.109 13.3189L12.97 9.35969M14.416 8.88915L10.948 10.0173C10.6796 10.1042 10.3882 10.091 10.1291 9.98008C9.86997 9.86916 9.66138 9.66832 9.543 9.4158C9.4154 9.14625 9.39925 8.83844 9.49797 8.55739C9.59668 8.27635 9.80252 8.04408 10.072 7.90969L13.431 6.24706C13.7173 6.10493 14.0302 6.02216 14.3503 6.00387C14.6704 5.98559 14.9909 6.03217 15.292 6.14075L20.015 8.17744M4 14.3249H6L9.642 18.542C9.82085 18.746 10.0588 18.8913 10.3239 18.9584C10.5891 19.0255 10.8687 19.0112 11.1253 18.9173C11.382 18.8235 11.6033 18.6546 11.7596 18.4334C11.916 18.2122 11.9998 17.9492 12 17.6797V17.0743M12 17.0743L12.175 17.1432C12.4262 17.2421 12.6982 17.2789 12.9672 17.2504C13.2363 17.2219 13.4941 17.129 13.7182 16.9797C13.9422 16.8304 14.1258 16.6293 14.2526 16.3941C14.3795 16.1588 14.4459 15.8966 14.446 15.6302M12 17.0743L11 16M14.446 15.6302L13 14M10.583 7.65572L10.225 7.36532C9.86424 7.10383 9.428 6.96275 8.98 6.96271C8.71305 6.96262 8.44858 7.01308 8.201 7.11135L3.99994 9.04075M2.00006 7.5H3C3.25393 7.48958 3.50172 7.57861 3.68913 7.7476C3.87654 7.91659 3.98832 8.05989 4 8.30981L3.99994 14.5973C3.98825 14.8473 3.87651 15.0826 3.68913 15.2518C3.50175 15.4209 3.25397 15.5102 2.99994 15.5H2" stroke="black" stroke-width="1.5" stroke-linecap="round" stroke-linejoin="round"/>
</svg>
