<?xml version="1.0" encoding="utf-8"?>
<!-- Generator: Adobe Illustrator 23.1.0, SVG Export Plug-In . SVG Version: 6.00 Build 0)  -->
<svg version="1.1" id="Layer_1" xmlns="http://www.w3.org/2000/svg" xmlns:xlink="http://www.w3.org/1999/xlink" x="0px" y="0px"
	 viewBox="0 0 24 24" style="enable-background:new 0 0 24 24;" xml:space="preserve">
<style type="text/css">
	.st0{fill:none;}
	.st1{display:none;}
</style>
<path class="st0" d="M0,0h24v24H0V0z"/>
<path class="st1" d="M17.2,10.2v7L6.3,20.8l8.6-6V10l0,0V2c0,0-6.2,4.9-8.1,6.4c-2.3,1.7-2.4,2.5-2.4,3.6v8.6C4.4,21.3,5,22,5.9,22
	h13.8V10.2H17.2z M11,9.8c0.5-0.6,1.2-0.8,1.6-0.5c0.4,0.3,0.3,1.1-0.2,1.7s-1.2,0.8-1.6,0.5S10.5,10.4,11,9.8z"/>
<g id="layer1" transform="translate(-53.895874,-165.87389)">
	<g id="g3187" transform="translate(0.13229185,-0.13228321)">
		<g id="g2666" transform="matrix(0.35277777,0,0,-0.35277777,67.246115,167.62408)">
			<path id="path2668" d="M-27-10.1c0.2-3.9,3.5-19,3.5-19c1.3-3.1,2.3,0,2.3,0c4.1,12.4-4.3,19.5-4.3,19.5
				C-27.5-8.3-27-10.1-27-10.1 M21.9-7.9c0,0,4.1-2.9,0-3.4c0,0-15.4-1.8-26.8-12.5c0,0-17.2-15-23.6-31.5c0,0-2.1,0-1.4,3.3
				c0.7,3.3,5,17.4,24.2,34.7C-5.8-17.4,12.6-0.6,21.9-7.9"/>
		</g>
	</g>
</g>
</svg>
