<svg data-token-name="payoneer_colored" width="24" height="24" viewBox="0 0 24 24" fill="none" xmlns="http://www.w3.org/2000/svg">
<rect width="24" height="24" rx="12" fill="#EEF5FF"/>
<path d="M21 12C21 9.61306 20.0518 7.32386 18.364 5.63604C16.6761 3.94821 14.3869 3 12 3C9.61306 3 7.32386 3.94821 5.63604 5.63604C3.94821 7.32386 3 9.61306 3 12H5.2785C5.2785 10.2173 5.98665 8.50771 7.24719 7.24719C8.50771 5.98665 10.2173 5.2785 12 5.2785C13.7827 5.2785 15.4923 5.98665 16.7528 7.24719C18.0133 8.50771 18.7215 10.2173 18.7215 12H21Z" fill="url(#paint0_linear_9155_43603)"/>
<path d="M21 12C21 14.3869 20.0518 16.6761 18.364 18.364C16.6761 20.0518 14.3869 21 12 21C9.61306 21 7.32386 20.0518 5.63604 18.364C3.94821 16.6761 3 14.3869 3 12H5.2785C5.2785 13.7827 5.98665 15.4923 7.24719 16.7528C8.50771 18.0133 10.2173 18.7215 12 18.7215C13.7827 18.7215 15.4923 18.0133 16.7528 16.7528C18.0133 15.4923 18.7215 13.7827 18.7215 12H21Z" fill="url(#paint1_linear_9155_43603)"/>
<defs>
<linearGradient id="paint0_linear_9155_43603" x1="2.5" y1="13.5" x2="19.5" y2="15" gradientUnits="userSpaceOnUse">
<stop stop-color="#FE4700"/>
<stop offset="0.571856" stop-color="#DFCB04"/>
<stop offset="0.715722" stop-color="#DFCB04"/>
<stop offset="1" stop-color="#35D96F"/>
</linearGradient>
<linearGradient id="paint1_linear_9155_43603" x1="4.81452" y1="13.0161" x2="19.1855" y2="12.7984" gradientUnits="userSpaceOnUse">
<stop stop-color="#FB5401"/>
<stop offset="0.485039" stop-color="#CD56C5"/>
<stop offset="0.743886" stop-color="#1596E2"/>
<stop offset="1" stop-color="#3ED96A"/>
</linearGradient>
</defs>
</svg>
