<svg data-token-name="payoneer_cy" width="24" height="24" version="1.1" id="Layer_1" xmlns="http://www.w3.org/2000/svg" xmlns:xlink="http://www.w3.org/1999/xlink" x="0px" y="0px"
	 viewBox="0 0 24 24" style="enable-background:new 0 0 24 24;" xml:space="preserve">
<path fill="none" d="M0,0h24v24H0V0z"/>
<g id="layer1" transform="translate(-53.895874,-165.87389)">
	<g id="g3187" transform="translate(0.13229185,-0.13228321)">
		<g id="g2666" transform="matrix(0.35277777,0,0,-0.35277777,67.246115,167.62408)">
			<path id="path2668" d="M-27-10.1c0.2-3.9,3.5-19,3.5-19c1.3-3.1,2.3,0,2.3,0c4.1,12.4-4.3,19.5-4.3,19.5
				C-27.5-8.3-27-10.1-27-10.1 M21.9-7.9c0,0,4.1-2.9,0-3.4c0,0-15.4-1.8-26.8-12.5c0,0-17.2-15-23.6-31.5c0,0-2.1,0-1.4,3.3
				c0.7,3.3,5,17.4,24.2,34.7C-5.8-17.4,12.6-0.6,21.9-7.9"/>
		</g>
	</g>
</g>
</svg>
