<svg data-token-name="payoneer_colored" width="24" height="24" viewBox="0 0 24 24" fill="none" xmlns="http://www.w3.org/2000/svg">
<path d="M0 12C0 5.37258 5.37258 0 12 0C18.6274 0 24 5.37258 24 12C24 18.6274 18.6274 24 12 24C5.37258 24 0 18.6274 0 12Z" fill="#FA951F"/>
<path d="M6.76965 6.97383C6.81158 7.93305 7.63279 11.5935 7.63279 11.5935C7.93455 12.3349 8.19439 11.5935 8.19439 11.5935C9.1879 8.58633 7.15757 6.84364 7.15757 6.84364C6.63927 6.53793 6.76965 6.97383 6.76965 6.97383ZM18.5582 6.45121C18.5582 6.45121 19.5522 7.14842 18.5582 7.27908C18.5582 7.27908 14.8442 7.71475 12.0807 10.3304C12.0807 10.3304 7.93455 13.9901 6.38036 18C6.38036 18 5.86206 18 6.03551 17.2158C6.20805 16.4314 7.24395 12.9881 11.8642 8.76138C11.8642 8.76138 16.3134 4.66435 18.5582 6.45121Z" fill="white"/>
</svg>
