<svg viewBox="0 0 512.00017 512" xmlns="http://www.w3.org/2000/svg"><path d="m487.160156 115.148438c-1.921875-2.285157-3.972656-4.492188-6.128906-6.636719 1.910156 16.890625 1.324219 35.394531-1.773438 55.441406-5.882812 38.089844-17.339843 71.640625-34.042968 99.722656-13.707032 23.039063-32.953125 42.453125-53.253906 57.703125-.890626.667969-1.777344 1.324219-2.660157 1.96875-30.296875 22.164063-66.910156 34.019532-104.441406 34.488282l-61.753906.769531-17.960938 86.773437c-3.761719 20.902344-20.441406 36.074219-39.65625 36.074219h-101.386719c-.703124 0-1.402343-.027344-2.097656-.066406 1.394532 5.316406 3.890625 10.355469 7.4375 14.789062 7.597656 9.484375 18.921875 14.925781 31.074219 14.925781h99.800781c18.914063 0 35.332032-13.464843 39.035156-32.011718l17.683594-88.546875 93.421875-1.074219.769531-.085938c6.203126-.714843 38.9375-5.480468 73.988282-29.210937 19.984375-13.53125 36.960937-30.757813 50.449218-51.203125 16.445313-24.917969 27.71875-54.695312 33.511719-88.496094 7.484375-43.671875.078125-79.109375-22.015625-105.324218zm0 0"/><path d="m178.652344 418.488281 17.683594-88.550781 93.421874-1.070312.769532-.089844c6.207031-.710938 38.941406-5.476563 73.988281-29.207032 19.984375-13.535156 36.960937-30.761718 50.449219-51.203124 16.445312-24.921876 27.71875-54.695313 33.511718-88.5 7.484376-43.667969.078126-79.105469-22.011718-105.320313-28.609375-33.949219-82.910156-52.644531-152.910156-52.644531-20.957032 0-103.8125-.875-150.429688-1.8945315-18.910156-.3984375-35.574219 12.6679685-39.703125 31.0937495l-82.445313 370.882813c-2.660156 11.859375.171876 24.101563 7.769532 33.589844 7.59375 9.484375 18.921875 14.925781 31.070312 14.925781h99.800782c18.917968 0 35.332031-13.464844 39.035156-32.011719zm0 0"/></svg>