<svg data-token-name="paypal_colored" width="24" height="24" viewBox="0 0 24 24" fill="none" xmlns="http://www.w3.org/2000/svg">
<path d="M0 12C0 5.37258 5.37258 0 12 0C18.6274 0 24 5.37258 24 12C24 18.6274 18.6274 24 12 24C5.37258 24 0 18.6274 0 12Z" fill="#E1EDFF"/>
<path fill-rule="evenodd" clip-rule="evenodd" d="M11.3998 8.83984H14.8447C16.6943 8.83984 17.3906 9.76479 17.283 11.1237C17.1051 13.3671 15.7321 14.6082 13.911 14.6082H12.9915C12.7417 14.6082 12.5736 14.7716 12.506 15.2143L12.1156 17.788C12.0898 17.9549 12.0009 18.0515 11.8675 18.0647H9.70314C9.49951 18.0647 9.42748 17.911 9.48084 17.5781L10.8005 9.32735C10.852 8.99708 11.0352 8.83984 11.3998 8.83984Z" fill="#009EE3"/>
<path fill-rule="evenodd" clip-rule="evenodd" d="M9.24427 6H12.6927C13.6638 6 14.8162 6.03074 15.5863 6.70271C16.1011 7.15157 16.3715 7.8657 16.3092 8.63517C16.0976 11.2361 14.5228 12.6933 12.4099 12.6933H10.7097C10.4198 12.6933 10.2287 12.8831 10.1468 13.3961L9.67199 16.3826C9.64087 16.5758 9.55639 16.69 9.40522 16.7041H7.27729C7.04164 16.7041 6.95806 16.5284 7.01941 16.1402L8.54889 6.56744C8.61025 6.1827 8.82456 6 9.24427 6Z" fill="#113984"/>
<path fill-rule="evenodd" clip-rule="evenodd" d="M10.1963 13.093L10.7983 9.32735C10.8508 8.99707 11.0339 8.83896 11.3985 8.83896H14.8434C15.4134 8.83896 15.8749 8.9268 16.236 9.0893C15.89 11.4047 14.3739 12.6907 12.3891 12.6907H10.6916C10.4639 12.6916 10.2968 12.804 10.1963 13.093Z" fill="#172C70"/>
</svg>
