<svg data-token-name="percent_cut" width="24" height="24" viewBox="0 0 24 24" fill="none" xmlns="http://www.w3.org/2000/svg">
    <path d="M3 5.5V8.5H6M3.05 13L3.04 12.99C3.59 17.92 8.05 21.46 12.98 20.9C17.91 20.34 21.45 15.88 20.89 10.95C20.33 6.01 15.87 2.47 10.94 3.03C7.7 3.39 4.92 5.47 3.66 8.47M9.999 14L13.999 10M14.25 14.125C14.25 14.185 14.19 14.25 14.125 14.25C14.055 14.25 14 14.19 14 14.125C14 14.055 14.05 14 14.125 14V13.999C14.185 13.989 14.245 14.049 14.245 14.119M9.75 9.87C9.74 9.8 9.8 9.74 9.87 9.74C9.93 9.73 9.99 9.79 9.99 9.86C9.99 9.92 9.93 9.98 9.86 9.98C9.79 9.98 9.73 9.919 9.73 9.849C9.72 9.839 9.72 9.839 9.729 9.839" stroke="currentColor" fill="none" stroke-linecap="round" stroke-linejoin="round"/>
</svg>
