<svg width="24" height="24" data-token-name="percent_polygonal" viewBox="0 0 24 24" fill="none" xmlns="http://www.w3.org/2000/svg">
    <path fill-rule="evenodd" clip-rule="evenodd" d="M12.4255 2.94836L15.1475 2.06736C15.7915 1.85836 16.4915 2.14936 16.7995 2.75136L18.1005 5.29936C18.2325 5.55736 18.4425 5.76836 18.7015 5.90036L21.2175 7.18536C21.8385 7.50236 22.1375 8.22436 21.9225 8.88836L21.0525 11.5764C20.9635 11.8524 20.9635 12.1494 21.0525 12.4254L21.9335 15.1474C22.1425 15.7914 21.8515 16.4914 21.2495 16.7994L18.7015 18.1004C18.4435 18.2324 18.2325 18.4424 18.1005 18.7014L16.7985 21.2494C16.4905 21.8524 15.7905 22.1424 15.1465 21.9334L12.4245 21.0524C12.1485 20.9634 11.8515 20.9634 11.5755 21.0524L8.85347 21.9334C8.20947 22.1424 7.50947 21.8514 7.20147 21.2494L5.90047 18.7014C5.76847 18.4434 5.55847 18.2324 5.29947 18.1004L2.75147 16.7984C2.14847 16.4904 1.85847 15.7904 2.06747 15.1464L2.94847 12.4244C3.03747 12.1484 3.03747 11.8514 2.94847 11.5754L2.06747 8.85436C1.85947 8.21036 2.14947 7.50936 2.75247 7.20136L5.29947 5.90036C5.55847 5.76836 5.76847 5.55836 5.90047 5.29936L7.20247 2.75136C7.50947 2.14936 8.21047 1.85936 8.85447 2.06736L11.5765 2.94836C11.8515 3.03836 12.1495 3.03836 12.4255 2.94836Z" stroke="currentColor" fill="none" stroke-linecap="round" stroke-linejoin="round"/>
    <path d="M9 15L15 9" stroke="currentColor" fill="none" stroke-linecap="round" stroke-linejoin="round"/>
    <path d="M9.249 9C9.111 9 8.999 9.112 9 9.25C9 9.388 9.112 9.5 9.25 9.5C9.388 9.5 9.5 9.388 9.5 9.25C9.5 9.112 9.388 9 9.249 9" stroke="currentColor" fill="none" stroke-linecap="round" stroke-linejoin="round"/>
    <path d="M14.749 14.5C14.611 14.5 14.499 14.612 14.5 14.75C14.5 14.888 14.612 15 14.75 15C14.888 15 15 14.888 15 14.75C15 14.612 14.888 14.5 14.749 14.5" stroke="currentColor" fill="none" stroke-linecap="round" stroke-linejoin="round"/>
</svg>
