<svg data-token-name="mail_colored" width="24" height="24" viewBox="0 0 32 32" fill="none" xmlns="http://www.w3.org/2000/svg">
<path d="M0 16C0 7.16344 7.16344 0 16 0C24.8366 0 32 7.16344 32 16C32 24.8366 24.8366 32 16 32C7.16344 32 0 24.8366 0 16Z" fill="url(#paint0_linear_17277_40980)"/>
<path d="M6.67073 11.8402C6.6676 11.8932 6.66602 11.9465 6.66602 12.0002V20.0002C6.66602 21.4729 7.85992 22.6668 9.33268 22.6668H22.666C24.1388 22.6668 25.3327 21.4729 25.3327 20.0002V12.0002C25.3327 11.9459 25.3311 11.8921 25.3279 11.8386L17.7334 16.4339C16.6756 17.1903 15.2693 17.1886 14.2132 16.4306L6.67073 11.8402Z" fill="white"/>
<path d="M7.53865 10.0272L15.2886 14.7437C15.3148 14.7597 15.3403 14.7769 15.365 14.7952C15.7323 15.0681 16.2172 15.0685 16.5848 14.7964C16.6098 14.7779 16.6356 14.7606 16.6621 14.7446L24.4594 10.0265C23.9857 9.59595 23.3565 9.3335 22.666 9.3335H9.33268C8.64183 9.3335 8.01233 9.59621 7.53865 10.0272Z" fill="white"/>
<defs>
<linearGradient id="paint0_linear_17277_40980" x1="16" y1="0" x2="16" y2="32" gradientUnits="userSpaceOnUse">
<stop stop-color="#F26567"/>
<stop offset="1" stop-color="#F79440"/>
</linearGradient>
</defs>
</svg>
