<svg data-token-name="person_close" viewBox="0 0 81 80" fill="none" xmlns="http://www.w3.org/2000/svg">
<path d="M60.5 66.6667V63.3333C60.5 59.7971 59.0952 56.4057 56.5947 53.9052C54.0942 51.4048 50.7028 50 47.1666 50H20.5C16.9637 50 13.5724 51.4048 11.0719 53.9052C8.57138 56.4057 7.16663 59.7971 7.16663 63.3333V66.6667M68.5473 41.3807L59.1193 31.9526M59.1193 41.3807L68.5473 31.9526M47.1666 23.3333C47.1666 30.6971 41.1971 36.6667 33.8333 36.6667C26.4695 36.6667 20.5 30.6971 20.5 23.3333C20.5 15.9695 26.4695 10 33.8333 10C41.1971 10 47.1666 15.9695 47.1666 23.3333Z" stroke="currentColor" fill="none" stroke-linecap="round" stroke-linejoin="round"/>
</svg>
