<svg width="24" height="24" viewBox="0 0 24 24" fill="none" xmlns="http://www.w3.org/2000/svg">
<path d="M0 12C0 5.37258 5.37258 0 12 0C18.6274 0 24 5.37258 24 12C24 18.6274 18.6274 24 12 24C5.37258 24 0 18.6274 0 12Z" fill="#4DCB4D"/>
<path d="M9.18173 14.8144C11.8015 17.4352 15.1209 19.1056 17.0951 17.14L17.5739 16.6612C18.2111 16.024 18.1223 14.9692 17.3831 14.4544C16.9163 14.1292 16.4146 13.78 15.8602 13.39C15.2865 12.9868 14.4993 13.048 14.0013 13.5424L13.46 14.08C12.7892 13.6552 12.1255 13.1092 11.5087 12.4936L11.5063 12.4912C10.8906 11.8756 10.3446 11.2108 9.91978 10.54L10.4574 9.99876C10.9519 9.50075 11.0143 8.71235 10.6086 8.13875C10.2186 7.58555 9.86938 7.08514 9.54655 6.61954C9.03292 5.87794 7.97685 5.78794 7.3384 6.42634L6.85957 6.90514C4.89503 8.87915 6.56435 12.196 9.18413 14.818" fill="white"/>
</svg>
