<svg data-token-name="photo_add" width="24" height="24" viewBox="0 0 24 24" fill="none" xmlns="http://www.w3.org/2000/svg">
<path d="M20.0526 11.5263V16.2632C20.0526 17.5194 19.5536 18.7243 18.6652 19.6126C17.7769 20.5009 16.5721 21 15.3158 21H7.73684C6.48055 21 5.27572 20.5009 4.38739 19.6126C3.49906 18.7243 3 17.5194 3 16.2632V8.68421C3 7.42792 3.49906 6.22309 4.38739 5.33476C5.27572 4.44643 6.48055 3.94737 7.73684 3.94737H12.4737M16.2632 5.36842H21M18.6316 7.73684V3M13.9383 10.0617C14.4152 10.5387 14.7399 11.1464 14.8714 11.8079C15.0029 12.4695 14.9353 13.1552 14.6771 13.7783C14.419 14.4014 13.9818 14.934 13.421 15.3087C12.8602 15.6834 12.2008 15.8834 11.5263 15.8834C10.8518 15.8834 10.1925 15.6834 9.63165 15.3087C9.07081 14.934 8.63367 14.4014 8.37551 13.7783C8.11734 13.1552 8.04973 12.4695 8.18124 11.8079C8.31275 11.1464 8.63746 10.5387 9.11432 10.0617C9.43103 9.74487 9.80705 9.49355 10.2209 9.32209C10.6348 9.15062 11.0783 9.06237 11.5263 9.06237C11.9743 9.06237 12.4179 9.15062 12.8317 9.32209C13.2456 9.49355 13.6216 9.74487 13.9383 10.0617Z" stroke="currentColor" fill="none" stroke-linecap="round" stroke-linejoin="round"/>
</svg>
