<svg data-token-name="photo_add" width="24" height="24" viewBox="0 0 40 40" xmlns="http://www.w3.org/2000/svg">
    <path d="M34.4211 19.2105C34.4211 18.6582 33.9733 18.2105 33.4211 18.2105C32.8688 18.2105 32.4211 18.6582 32.4211 19.2105H34.4211ZM20.7895 7.57895C21.3418 7.57895 21.7895 7.13123 21.7895 6.57895C21.7895 6.02666 21.3418 5.57895 20.7895 5.57895V7.57895ZM23.2305 16.7695L22.5233 17.4765L23.2305 16.7695ZM15.1905 16.7695L15.8977 17.4765L15.1905 16.7695ZM19.2105 15.104V14.104V15.104ZM27.1053 7.94737C26.553 7.94737 26.1053 8.39508 26.1053 8.94737C26.1053 9.49965 26.553 9.94737 27.1053 9.94737V7.94737ZM35 9.94737C35.5523 9.94737 36 9.49965 36 8.94737C36 8.39508 35.5523 7.94737 35 7.94737V9.94737ZM30.0526 12.8947C30.0526 13.447 30.5003 13.8947 31.0526 13.8947C31.6049 13.8947 32.0526 13.447 32.0526 12.8947H30.0526ZM32.0526 5C32.0526 4.44772 31.6049 4 31.0526 4C30.5003 4 30.0526 4.44772 30.0526 5H32.0526ZM32.4211 19.2105V27.1053H34.4211V19.2105H32.4211ZM32.4211 27.1053C32.4211 28.9339 31.6946 30.6876 30.4016 31.9806L31.8158 33.3948C33.4839 31.7267 34.4211 29.4643 34.4211 27.1053H32.4211ZM30.4016 31.9806C29.1086 33.2736 27.3549 34 25.5263 34V36C27.8853 36 30.1478 35.0629 31.8158 33.3948L30.4016 31.9806ZM25.5263 34H12.8947V36H25.5263V34ZM12.8947 34C11.0661 34 9.31244 33.2736 8.01942 31.9806L6.60521 33.3948C8.27329 35.0629 10.5357 36 12.8947 36V34ZM8.01942 31.9806C6.72641 30.6876 6 28.9339 6 27.1053H4C4 29.4643 4.93712 31.7267 6.60521 33.3948L8.01942 31.9806ZM6 27.1053V14.4737H4V27.1053H6ZM6 14.4737C6 12.6451 6.72641 10.8914 8.01942 9.59837L6.60521 8.18416C4.93712 9.85224 4 12.1147 4 14.4737H6ZM8.01942 9.59837C9.31244 8.30536 11.0661 7.57895 12.8947 7.57895V5.57895C10.5357 5.57895 8.27329 6.51607 6.60521 8.18416L8.01942 9.59837ZM12.8947 7.57895H20.7895V5.57895H12.8947V7.57895ZM22.5233 17.4765C23.1782 18.1316 23.6242 18.9663 23.8048 19.8749L25.7665 19.4849C25.5087 18.1884 24.8723 16.9974 23.9377 16.0625L22.5233 17.4765ZM23.8048 19.8749C23.9855 20.7835 23.8926 21.7252 23.538 22.5811L25.3857 23.3466C25.8917 22.1254 26.0242 20.7815 25.7665 19.4849L23.8048 19.8749ZM23.538 22.5811C23.1834 23.4369 22.5831 24.1684 21.8128 24.683L22.9238 26.346C24.023 25.6117 24.8797 24.5679 25.3857 23.3466L23.538 22.5811ZM21.8128 24.683C21.0425 25.1977 20.1369 25.4724 19.2105 25.4724V27.4724C20.5324 27.4724 21.8247 27.0804 22.9238 26.346L21.8128 24.683ZM19.2105 25.4724C18.2841 25.4724 17.3786 25.1977 16.6083 24.683L15.4972 26.346C16.5964 27.0804 17.8886 27.4724 19.2105 27.4724V25.4724ZM16.6083 24.683C15.838 24.1684 15.2376 23.4369 14.883 22.5811L13.0353 23.3466C13.5413 24.5679 14.398 25.6117 15.4972 26.346L16.6083 24.683ZM14.883 22.5811C14.5284 21.7252 14.4356 20.7835 14.6162 19.8749L12.6546 19.4849C12.3969 20.7815 12.5294 22.1254 13.0353 23.3466L14.883 22.5811ZM14.6162 19.8749C14.7968 18.9663 15.2428 18.1316 15.8977 17.4765L14.4833 16.0625C13.5487 16.9974 12.9123 18.1884 12.6546 19.4849L14.6162 19.8749ZM15.8977 17.4765C16.3327 17.0413 16.8492 16.6962 17.4176 16.4607L16.6521 14.613C15.841 14.949 15.104 15.4416 14.4833 16.0625L15.8977 17.4765ZM17.4176 16.4607C17.986 16.2252 18.5953 16.104 19.2105 16.104V14.104C18.3326 14.104 17.4632 14.2769 16.6521 14.613L17.4176 16.4607ZM19.2105 16.104C19.8258 16.104 20.435 16.2252 21.0035 16.4607L21.769 14.613C20.9579 14.2769 20.0885 14.104 19.2105 14.104V16.104ZM21.0035 16.4607C21.5719 16.6962 22.0883 17.0413 22.5233 17.4765L23.9377 16.0625C23.317 15.4416 22.5801 14.949 21.769 14.613L21.0035 16.4607ZM27.1053 9.94737H35V7.94737H27.1053V9.94737ZM32.0526 12.8947V5H30.0526V12.8947H32.0526Z"/>
</svg>
