<svg data-token-name="picture" width="24" height="24" viewBox="0 0 24 24" fill="none" xmlns="http://www.w3.org/2000/svg">
<path d="M3 16L7.58579 11.4142C7.96086 11.0391 8.46957 10.8284 9 10.8284C9.53043 10.8284 10.0391 11.0391 10.4142 11.4142L12.5858 13.5858C12.9609 13.9609 13.4696 14.1716 14 14.1716C14.5304 14.1716 15.0391 13.9609 15.4142 13.5858L21 8M3 16C3 18.7614 5.23858 21 8 21H16C18.7614 21 21 18.7614 21 16V8M3 16V8C3 5.23858 5.23858 3 8 3H16C18.7614 3 21 5.23858 21 8M14 8V8.5" stroke="currentColor" fill="none"  stroke-linecap="round" stroke-linejoin="round"/>
</svg>
