<svg data-token-name="plane_simple" width="24" height="24" viewBox="0 0 24 24" fill="none" xmlns="http://www.w3.org/2000/svg">
<path d="M18.4511 5.54881C18.6892 5.78689 18.8588 6.08471 18.9419 6.41097C19.0251 6.73723 19.0188 7.07987 18.9237 7.40286L15.6106 18.6553C15.5014 19.0263 15.2801 19.3544 14.977 19.5947C14.6738 19.8349 14.3038 19.9755 13.9176 19.9971C13.5314 20.0187 13.148 19.9203 12.8199 19.7154C12.4919 19.5104 12.2353 19.2091 12.0854 18.8525L10.326 14.6692C10.1361 14.2177 9.77688 13.8586 9.32532 13.6689L5.14786 11.9131C4.79125 11.7632 4.48977 11.5067 4.28478 11.1787C4.07979 10.8507 3.98133 10.4673 4.00292 10.0812C4.02451 9.69501 4.16508 9.32498 4.40535 9.02187C4.64563 8.71876 4.97382 8.49742 5.3449 8.38822L16.5968 5.07625C16.9198 4.98118 17.2625 4.97489 17.5888 5.05805C17.9151 5.14121 18.213 5.31073 18.4511 5.54881ZM18.4511 5.54881L10.5004 13.4991" stroke="currentColor" fill="none" stroke-linecap="round" stroke-linejoin="round"/>
</svg>
