<svg data-token-name="plane_simple" viewBox="0 0 16 17" fill="none" xmlns="http://www.w3.org/2000/svg">
<path d="M12.3001 4.19913C12.4588 4.35784 12.5719 4.55639 12.6273 4.7739C12.6828 4.99141 12.6786 5.21983 12.6152 5.43516L10.4064 12.9368C10.3336 13.1841 10.1861 13.4029 9.98399 13.563C9.7819 13.7232 9.5352 13.8169 9.27774 13.8313C9.02027 13.8457 8.76466 13.7801 8.54596 13.6435C8.32727 13.5069 8.15621 13.306 8.05625 13.0683L6.88333 10.2794C6.75675 9.97841 6.51727 9.739 6.21623 9.61249L3.43125 8.44199C3.19352 8.34207 2.99253 8.17105 2.85587 7.95239C2.71921 7.73373 2.65357 7.47814 2.66796 7.2207C2.68235 6.96326 2.77607 6.71657 2.93625 6.5145C3.09643 6.31243 3.31523 6.16487 3.56262 6.09207L11.0639 3.88409C11.2792 3.82071 11.5077 3.81651 11.7252 3.87195C11.9428 3.92739 12.1414 4.04041 12.3001 4.19913ZM12.3001 4.19913L6.9996 9.49935" stroke="currentColor" fill="none" stroke-linecap="round" stroke-linejoin="round"/>
</svg>
