<svg data-token-name="plane" width="24" height="24" viewBox="0 0 24 24" fill="none" xmlns="http://www.w3.org/2000/svg">
<path d="M4.5139 12.3805L1.68555 15.2088M12.0562 19.9227L9.22782 22.7511M8.28533 16.1513L3.57142 20.8652M21.17 3.26664L14.8848 9.55186M9.80728 8.0471L13.7701 9.71287C14.1985 9.89292 14.5392 10.2336 14.7193 10.662L16.3883 14.6309C16.5305 14.9691 16.7739 15.2551 17.0851 15.4495C17.3963 15.6439 17.76 15.7373 18.1264 15.7168C18.4928 15.6963 18.8438 15.5629 19.1313 15.335C19.4189 15.1071 19.6289 14.7957 19.7325 14.4437L22.8753 3.768C22.9655 3.46156 22.9715 3.13648 22.8926 2.82694C22.8137 2.5174 22.6529 2.23484 22.427 2.00897C22.2011 1.78309 21.9186 1.62225 21.609 1.54336C21.2995 1.46446 20.9744 1.47043 20.668 1.56063L9.9942 4.70286C9.64218 4.80647 9.33085 5.01646 9.10293 5.30404C8.875 5.59161 8.74165 5.94268 8.72117 6.30905C8.70069 6.67543 8.79409 7.03916 8.98855 7.35034C9.18301 7.66153 9.469 7.90491 9.80728 8.0471Z" stroke="currentColor" fill="none" stroke-linecap="round" stroke-linejoin="round"/>
</svg>
