<svg data-token-name="plane_simple" width="17" height="17" viewBox="0 0 17 17" fill="none" xmlns="http://www.w3.org/2000/svg">
<path d="M15.4511 1.54881C15.6892 1.78689 15.8588 2.08471 15.9419 2.41097C16.0251 2.73723 16.0188 3.07987 15.9237 3.40286L12.6106 14.6553C12.5014 15.0263 12.2801 15.3544 11.977 15.5947C11.6738 15.8349 11.3038 15.9755 10.9176 15.9971C10.5314 16.0187 10.148 15.9203 9.81992 15.7154C9.49187 15.5104 9.23529 15.2091 9.08536 14.8525L7.32598 10.6692C7.13611 10.2177 6.77688 9.85863 6.32532 9.66885L2.14786 7.9131C1.79125 7.76323 1.48977 7.5067 1.28478 7.17871C1.07979 6.85072 0.981334 6.46733 1.00292 6.08117C1.02451 5.69501 1.16508 5.32498 1.40535 5.02187C1.64563 4.71876 1.97382 4.49742 2.3449 4.38822L13.5968 1.07625C13.9198 0.981181 14.2625 0.974893 14.5888 1.05805C14.9151 1.14121 15.213 1.31073 15.4511 1.54881ZM15.4511 1.54881L7.50038 9.49915" stroke="currentColor" fill="none" stroke-linecap="round" stroke-linejoin="round"/>
</svg>
