<svg data-token-name="plane" width="24" height="24" viewBox="0 0 24 24" fill="none" xmlns="http://www.w3.org/2000/svg">
<path d="M5.63591 13.0353L3.51465 15.1565M11.2926 18.692L9.17135 20.8132M8.46449 15.8634L4.92905 19.3988M19.0707 5.25666C19.2401 5.42606 19.3608 5.63798 19.4199 5.87014C19.4791 6.10229 19.4746 6.3461 19.407 6.57593L17.0498 14.5827C16.9721 14.8467 16.8147 15.0802 16.599 15.2512C16.3833 15.4221 16.1201 15.5221 15.8453 15.5375C15.5705 15.5529 15.2977 15.4829 15.0643 15.3371C14.8309 15.1912 14.6484 14.9768 14.5417 14.7231L13.29 11.7464C13.1549 11.4252 12.8993 11.1696 12.5781 11.0346L9.60595 9.78526C9.35224 9.67862 9.13774 9.49608 8.9919 9.26269C8.84606 9.0293 8.77601 8.7565 8.79137 8.48172C8.80673 8.20694 8.90674 7.94364 9.07768 7.72796C9.24863 7.51228 9.48213 7.35478 9.74614 7.27708L17.7515 4.9204C17.9813 4.85275 18.2251 4.84828 18.4572 4.90745C18.6894 4.96662 18.9013 5.08725 19.0707 5.25666ZM19.0707 5.25666L13.4141 10.9138" stroke="currentColor" fill="none" stroke-linecap="round" stroke-linejoin="round"/>
</svg>
