<svg data-token-name="plane" width="40" height="40" viewBox="0 0 40 40" fill="none" xmlns="http://www.w3.org/2000/svg">
    <path d="M9.39286 21.7256L5.85742 25.261M18.8207 31.1534L15.2853 34.6889M14.1072 26.4391L8.21476 32.3315M31.7842 8.76121C32.0666 9.04355 32.2676 9.39675 32.3662 9.78368C32.4649 10.1706 32.4574 10.577 32.3447 10.96L28.4161 24.3047C28.2866 24.7447 28.0241 25.1338 27.6647 25.4187C27.3052 25.7036 26.8664 25.8703 26.4085 25.896C25.9505 25.9216 25.4959 25.8049 25.1069 25.5619C24.7179 25.3189 24.4137 24.9614 24.2359 24.5386L22.1497 19.5775C21.9245 19.042 21.4986 18.6161 20.9631 18.3911L16.0096 16.3089C15.5867 16.1311 15.2292 15.8269 14.9862 15.4379C14.7431 15.0489 14.6264 14.5943 14.652 14.1363C14.6776 13.6783 14.8442 13.2395 15.1291 12.88C15.4141 12.5206 15.8032 12.2581 16.2432 12.1286L29.5854 8.20078C29.9685 8.08803 30.3748 8.08058 30.7618 8.17919C31.1487 8.27781 31.5019 8.47886 31.7842 8.76121ZM31.7842 8.76121L22.3565 18.1898" stroke="currentColor" stroke-linecap="round" fill="none" stroke-linejoin="round"/>
</svg>
