<svg data-token-name="qiwi_colored" width="24" height="24" viewBox="0 0 24 24" fill="none" xmlns="http://www.w3.org/2000/svg">
<path d="M0 12C0 5.37258 5.37258 0 12 0C18.6274 0 24 5.37258 24 12C24 18.6274 18.6274 24 12 24C5.37258 24 0 18.6274 0 12Z" fill="#FF8C00"/>
<path d="M16.1318 13.8144C16.3752 13.9049 16.4688 14.2576 16.4874 14.4115C16.5249 14.6922 16.4409 14.8008 16.3473 14.8008C16.2536 14.8008 16.1225 14.6922 15.9824 14.4751C15.8419 14.2576 15.7858 14.0135 15.8608 13.8866C15.9074 13.8051 16.01 13.7691 16.1318 13.8144ZM14.71 14.8371C14.8598 14.8371 15.0281 14.9004 15.1779 15.0269C15.4677 15.2624 15.5521 15.5338 15.4023 15.7329C15.318 15.8325 15.1779 15.8958 15.0188 15.8958C14.8598 15.8958 14.6914 15.8415 14.5792 15.7419C14.3172 15.5248 14.2425 15.1625 14.4106 14.9636C14.4763 14.8821 14.5792 14.8371 14.71 14.8371ZM11.4361 17.4524C7.88109 17.4524 5 14.6649 5 11.226C5 7.78717 7.88138 5 11.4358 5C14.9906 5 17.872 7.78745 17.872 11.226C17.872 12.3933 17.5353 13.4886 16.9648 14.4208C16.9459 14.4478 16.8991 14.4388 16.8898 14.4025C16.6654 12.8732 15.7018 12.0313 14.2986 11.7782C14.1768 11.7599 14.1582 11.6876 14.3172 11.6696C14.7475 11.6333 15.3555 11.6423 15.6736 11.6966C15.6922 11.5428 15.7018 11.3799 15.7018 11.217C15.7018 8.94546 13.7933 7.09916 11.4452 7.09916C9.09731 7.09916 7.1888 8.94546 7.1888 11.217C7.1888 13.4886 9.09731 15.3349 11.4454 15.3349H11.6417C11.575 14.9675 11.5468 14.5945 11.5574 14.2216C11.567 13.9682 11.6231 13.9319 11.7353 14.1311C12.3247 15.1175 13.1667 16.0044 14.813 16.3574C16.16 16.6471 17.5071 16.9818 18.9571 18.7645C19.0879 18.9184 18.8917 19.0812 18.7419 18.9547C17.264 17.6875 15.917 17.2712 14.6914 17.2712C13.3162 17.2805 12.3811 17.4524 11.4361 17.4524Z" fill="white"/>
</svg>
