<svg data-token-name="qiwi" width="24" height="24" version="1.1" id="Layer_1" xmlns="http://www.w3.org/2000/svg" xmlns:xlink="http://www.w3.org/1999/xlink" x="0px" y="0px"
	 viewBox="0 0 24 24" style="enable-background:new 0 0 24 24;" xml:space="preserve">
<path fill="none" d="M0,0h24v24H0V0z"/>
<path d="M18.9,16.1c0.1,0.4-0.1,0.6-0.2,0.6c-0.1,0-0.3-0.2-0.5-0.5c-0.2-0.3-0.3-0.7-0.2-0.9c0.1-0.1,0.2-0.2,0.4-0.1
	C18.7,15.3,18.8,15.8,18.9,16.1z M16.9,16.9c0.4,0.4,0.5,0.8,0.3,1.1c-0.1,0.2-0.3,0.2-0.6,0.2s-0.5-0.1-0.6-0.2
	c-0.4-0.3-0.5-0.9-0.2-1.2c0.1-0.1,0.3-0.2,0.4-0.2C16.5,16.7,16.7,16.8,16.9,16.9z M16.2,20.3c1.8,0,3.7,0.6,5.9,2.5
	c0.2,0.2,0.5,0,0.3-0.3c-2.1-2.7-4.1-3.2-6-3.6c-2.4-0.5-3.6-1.9-4.4-3.3c-0.2-0.3-0.2-0.2-0.3,0.1c0,0.5,0,1.1,0.1,1.7l0,0
	c-0.1,0-0.2,0-0.3,0c-3.4,0-6.1-2.8-6.1-6.1s2.8-6.1,6.1-6.1s6.1,2.8,6.1,6.1c0,0.2,0,0.5,0,0.7c-0.4-0.1-1.3-0.1-2,0
	c-0.2,0-0.2,0.1,0,0.2c2,0.4,3.4,1.6,3.7,3.9c0,0.1,0.1,0.1,0.1,0c0.8-1.4,1.3-3,1.3-4.8c0-5.1-4.2-9.3-9.3-9.3s-9.3,4.2-9.3,9.3
	s4.2,9.3,9.3,9.3C12.9,20.6,14.3,20.3,16.2,20.3z"/>
</svg>
