<svg data-token-name="radio--checked" width="24" height="24" viewBox="0 0 24 24" fill="none" xmlns="http://www.w3.org/2000/svg">
<path d="M7 12C7 9.23858 9.23858 7 12 7C14.7614 7 17 9.23858 17 12C17 14.7614 14.7614 17 12 17C9.23858 17 7 14.7614 7 12Z" fill="currentColor"/>
<path fill-rule="evenodd" clip-rule="evenodd" d="M12 3.11111C7.0908 3.11111 3.11111 7.0908 3.11111 12C3.11111 16.9092 7.0908 20.8889 12 20.8889C16.9092 20.8889 20.8889 16.9092 20.8889 12C20.8889 7.0908 16.9092 3.11111 12 3.11111ZM12 2C6.47715 2 2 6.47715 2 12C2 17.5228 6.47715 22 12 22C17.5228 22 22 17.5228 22 12C22 6.47715 17.5228 2 12 2Z" fill="currentColor"/>
</svg>
