<svg data-token-name="receipt_torn" width="24" height="24" viewBox="0 0 24 24" fill="none" xmlns="http://www.w3.org/2000/svg">
<path d="M3.5 3.66639V20.3336C3.49993 20.5231 3.54623 20.7095 3.63448 20.875C3.72273 21.0405 3.85 21.1797 4.0042 21.2792C4.15839 21.3788 4.33437 21.4354 4.51541 21.4438C4.69645 21.4521 4.87652 21.4119 5.0385 21.3269L5.85769 20.8981C6.0051 20.8208 6.16773 20.7806 6.33262 20.7806C6.49752 20.7806 6.66015 20.8208 6.80756 20.8981L8.69137 21.8825C8.83879 21.9598 9.00142 22 9.16631 22C9.33121 22 9.49383 21.9598 9.64125 21.8825L11.5251 20.8981C11.6725 20.8208 11.8351 20.7806 12 20.7806C12.1649 20.7806 12.3275 20.8208 12.4749 20.8981L14.3588 21.8825C14.5064 21.9598 14.6692 22 14.8342 22C14.9993 22 15.1621 21.9598 15.3097 21.8825L17.1914 20.8981C17.339 20.8208 17.5018 20.7806 17.6668 20.7806C17.8319 20.7806 17.9947 20.8208 18.1423 20.8981L18.9626 21.3269C19.1245 21.4117 19.3045 21.4518 19.4854 21.4433C19.6663 21.4349 19.8421 21.3782 19.9962 21.2787C20.1502 21.1791 20.2774 21.04 20.3656 20.8746C20.4538 20.7092 20.5 20.523 20.5 20.3336V3.66639C20.5001 3.47688 20.4538 3.29051 20.3655 3.125C20.2773 2.95949 20.15 2.82033 19.9958 2.72078C19.8416 2.62122 19.6656 2.56458 19.4846 2.55622C19.3035 2.54787 19.1235 2.58809 18.9615 2.67306L18.1423 3.10195C17.9949 3.17921 17.8323 3.21944 17.6674 3.21944C17.5025 3.21944 17.3399 3.17921 17.1924 3.10195L15.3086 2.1175C15.1612 2.04023 14.9986 2 14.8337 2C14.6688 2 14.5062 2.04023 14.3588 2.1175L12.4749 3.10195C12.3276 3.17868 12.1652 3.21861 12.0005 3.21861C11.8359 3.21861 11.6735 3.17868 11.5261 3.10195L9.64231 2.1175C9.49471 2.04023 9.33191 2 9.16684 2C9.00178 2 8.83898 2.04023 8.69137 2.1175L6.80969 3.10195C6.66208 3.17921 6.49929 3.21945 6.33422 3.21945C6.16915 3.21945 6.00636 3.17921 5.85875 3.10195L5.03744 2.67306C4.87551 2.58828 4.69553 2.54822 4.51462 2.55667C4.33371 2.56512 4.15788 2.62181 4.00382 2.72135C3.84976 2.82088 3.7226 2.95996 3.63442 3.12537C3.54624 3.29077 3.49996 3.47701 3.5 3.66639Z" stroke="currentColor" fill="none" stroke-linecap="round" stroke-linejoin="round"/>
<path d="M7 16H12" stroke="currentColor" fill="none" stroke-linecap="round" stroke-linejoin="round"/>
<path d="M7 12H15" stroke="currentColor" fill="none" stroke-linecap="round" stroke-linejoin="round"/>
<path d="M7 8H17" stroke="currentColor" fill="none" stroke-linecap="round" stroke-linejoin="round"/>
</svg>
