<svg data-token-name="recruiters" width="24" height="24" viewBox="0 0 24 24" fill="none" xmlns="http://www.w3.org/2000/svg">
<path d="M16 6H20M18 8V4M15 18C14.8695 17.5604 14.6659 17.1673 14.406 16.8462C13.9661 16.3031 13.3924 16 12.7928 16H8.20838C7.60875 16 7.03387 16.3031 6.594 16.8462C6.33412 17.1673 6.13162 17.5619 6 18M14.006 5.765C12.936 5.279 11.752 5 10.5 5C5.806 5 2 8.806 2 13.5C2 18.194 5.806 22 10.5 22C15.194 22 19 18.194 19 13.5C19 12.248 18.721 11.064 18.235 9.994M18 10C15.791 10 14 8.209 14 6C14 3.791 15.791 2 18 2C20.209 2 22 3.791 22 6C22 8.209 20.209 10 18 10ZM10.5 9C11.8805 9 13 10.1195 13 11.5C13 12.8805 11.8805 14 10.5 14C9.11949 14 8 12.8805 8 11.5C8 10.1195 9.11949 9 10.5 9Z" stroke="currentColor" fill="none"  stroke-linecap="round" stroke-linejoin="round"/>
</svg>
