<svg data-token-name="repair" width="24" height="24" viewBox="0 0 24 24" fill="none" xmlns="http://www.w3.org/2000/svg">
<path d="M7.5 11.6C7.52647 12.7759 8.0122 13.8948 8.85323 14.7171C9.69426 15.5394 10.8238 15.9998 12 15.9998C13.1762 15.9998 14.3057 15.5394 15.1468 14.7171C15.9878 13.8948 16.4735 12.7759 16.5 11.6V11.5625C16.5006 10.9297 16.3664 10.3041 16.1061 9.72731C15.8459 9.15054 15.4657 8.63587 14.9909 8.21763C14.8593 8.10713 14.6989 8.03658 14.5286 8.01431C14.3583 7.99204 14.1851 8.01898 14.0296 8.09194C13.8741 8.1649 13.7427 8.28085 13.651 8.42608C13.5592 8.57131 13.511 8.73976 13.5119 8.91154L13.5123 11.375C13.5123 11.4346 13.4885 11.4919 13.4464 11.5341C13.4042 11.5763 13.3469 11.6 13.2873 11.6H10.7127C10.6531 11.6 10.5958 11.5763 10.5536 11.5341C10.5114 11.4919 10.4877 11.4346 10.4877 11.375L10.4881 8.91154C10.489 8.73976 10.4408 8.57131 10.349 8.42608C10.2573 8.28085 10.1259 8.1649 9.97037 8.09194C9.81485 8.01898 9.6417 7.99204 9.47137 8.01431C9.30104 8.03658 9.14064 8.10713 9.00911 8.21763C8.53429 8.63587 8.15408 9.15054 7.89386 9.72732C7.63363 10.3041 7.49936 10.9297 7.5 11.5625" stroke="currentColor" stroke-width="1.5" stroke-linecap="round" stroke-linejoin="round"/>
<path d="M12 21C16.9706 21 21 16.9706 21 12C21 7.02944 16.9706 3 12 3C7.02944 3 3 7.02944 3 12C3 16.9706 7.02944 21 12 21Z" stroke="currentColor" stroke-width="1.5" stroke-linecap="round" stroke-linejoin="round"/>
<path d="M10 20.7769V15.5424" stroke="currentColor" stroke-width="1.5" stroke-linecap="round" stroke-linejoin="round"/>
<path d="M14 20.7769V15.5424" stroke="currentColor" stroke-width="1.5" stroke-linecap="round" stroke-linejoin="round"/>
</svg>
