<svg data-token-name="resize_video" width="20" height="20" viewBox="0 0 20 20" xmlns="http://www.w3.org/2000/svg">
    <path d="M19.25 11C19.6297 11 19.9435 11.2822 19.9932 11.6482L20 11.75V16.75C20 18.483 18.6436 19.8992 16.9345 19.9949L16.75 20L12.0822 20.0002C12.6185 19.6147 13.0555 19.0997 13.3474 18.5011L16.75 18.5C17.6682 18.5 18.4212 17.7929 18.4942 16.8935L18.5 16.75V11.75C18.5 11.3358 18.8358 11 19.25 11ZM9.75003 7C11.545 7 13 8.45507 13 10.25V16.75C13 18.5449 11.545 20 9.75003 20H3.25003C1.4551 20 2.87294e-05 18.5449 2.87294e-05 16.75V10.25C2.87294e-05 8.45507 1.4551 7 3.25003 7H9.75003ZM9.75003 8.5H3.25003C2.28353 8.5 1.50003 9.2835 1.50003 10.25V16.75C1.50003 17.7165 2.28353 18.5 3.25003 18.5H9.75003C10.7165 18.5 11.5 17.7165 11.5 16.75V10.25C11.5 9.2835 10.7165 8.5 9.75003 8.5ZM4.06108 11.1028C4.17862 10.8874 4.43165 10.7928 4.6567 10.8674L4.73945 10.9033L8.69529 13.0611C8.77957 13.107 8.84884 13.1763 8.89481 13.2606C9.01235 13.4761 8.95483 13.74 8.77034 13.8888L8.69529 13.9389L4.73945 16.0967C4.66601 16.1367 4.58369 16.1577 4.50003 16.1577C4.25457 16.1577 4.05042 15.9809 4.00808 15.7476L4.00003 15.6577V11.3423C4.00003 11.2586 4.02102 11.1763 4.06108 11.1028ZM16.75 0C18.4831 0 19.8993 1.35645 19.9949 3.06558L20 3.25V8.25C20 8.66421 19.6642 9 19.25 9C18.8703 9 18.5565 8.71785 18.5069 8.35177L18.5 8.25V3.25C18.5 2.33183 17.7929 1.57881 16.8936 1.5058L16.75 1.5H11.75C11.3358 1.5 11 1.16421 11 0.75C11 0.370304 11.2822 0.0565091 11.6483 0.00684667L11.75 0H16.75ZM8.25003 0C8.66424 0 9.00003 0.335786 9.00003 0.75C9.00003 1.1297 8.71787 1.44349 8.3518 1.49315L8.25003 1.5H3.25003C2.33186 1.5 1.57884 2.20711 1.50583 3.10647L1.50003 3.25L1.49999 6.65214C0.900896 6.94409 0.385589 7.38126 -0.00012207 7.91785L2.87294e-05 3.25C2.87294e-05 1.51697 1.35648 0.100754 3.0656 0.00514483L3.25003 0H8.25003Z"/>
</svg>