<svg data-token-name="return" width="20" height="20" viewBox="0 0 20 20" fill="none" xmlns="http://www.w3.org/2000/svg">
<path d="M6.99193 11.6533C7.25628 11.3344 7.21207 10.8616 6.89318 10.5972C6.57429 10.3329 6.10148 10.3771 5.83713 10.696L6.99193 11.6533ZM4 14.0873L3.4226 13.6087C3.19247 13.8863 3.19247 14.2884 3.4226 14.566L4 14.0873ZM5.83713 17.4787C6.10148 17.7975 6.57429 17.8418 6.89318 17.5774C7.21207 17.3131 7.25628 16.8402 6.99193 16.5213L5.83713 17.4787ZM6.13525 2.25C5.72103 2.25 5.38525 2.58579 5.38525 3C5.38525 3.41421 5.72103 3.75 6.13525 3.75V2.25ZM5.83713 10.696L3.4226 13.6087L4.5774 14.566L6.99193 11.6533L5.83713 10.696ZM3.4226 14.566L5.83713 17.4787L6.99193 16.5213L4.5774 13.6087L3.4226 14.566ZM4.39441 14.95H11.3578V13.45H4.39441V14.95ZM11.3578 2.25H6.13525V3.75H11.3578V2.25ZM16.75 8.6C16.75 5.23081 14.4613 2.25 11.3578 2.25V3.75C13.3819 3.75 15.25 5.78361 15.25 8.6H16.75ZM11.3578 14.95C14.4613 14.95 16.75 11.9692 16.75 8.6H15.25C15.25 11.4164 13.3819 13.45 11.3578 13.45V14.95Z" fill="currentColor" stroke="none"/>
</svg>
