<svg data-token-name="return" width="24" height="24" viewBox="0 0 24 24" fill="none" xmlns="http://www.w3.org/2000/svg">
<path d="M8.27464 13.8882C8.53899 13.5693 8.49478 13.0965 8.17589 12.8322C7.857 12.5678 7.38419 12.612 7.11984 12.9309L7.69724 13.4096L8.27464 13.8882ZM4.7998 16.9048L4.2224 16.4261C3.99227 16.7037 3.99227 17.1058 4.2224 17.3834L4.7998 16.9048ZM7.11984 20.8787C7.38419 21.1975 7.857 21.2418 8.17589 20.9774C8.49478 20.7131 8.53899 20.2402 8.27464 19.9214L7.69724 20.4L7.11984 20.8787ZM7.3621 2.85001C6.94789 2.85001 6.6121 3.18579 6.6121 3.60001C6.6121 4.01422 6.94789 4.35001 7.3621 4.35001V3.60001V2.85001ZM7.69724 13.4096L7.11984 12.9309L4.2224 16.4261L4.7998 16.9048L5.37721 17.3834L8.27464 13.8882L7.69724 13.4096ZM4.7998 16.9048L4.2224 17.3834L7.11984 20.8787L7.69724 20.4L8.27464 19.9214L5.37721 16.4261L4.7998 16.9048ZM5.2731 17.04V17.79H13.6291V17.04V16.29H5.2731V17.04ZM13.6291 3.60001V2.85001H7.3621V3.60001V4.35001H13.6291V3.60001ZM19.1998 10.32H19.9498C19.9498 6.33225 17.2455 2.85001 13.6291 2.85001V3.60001V4.35001C16.166 4.35001 18.4498 6.88505 18.4498 10.32H19.1998ZM13.6291 17.04V17.79C17.2455 17.79 19.9498 14.3078 19.9498 10.32H19.1998H18.4498C18.4498 13.755 16.166 16.29 13.6291 16.29V17.04Z" fill="currentColor"/>
</svg>
