<svg data-token-name="ripple_colored" width="24" height="24" viewBox="0 0 24 24" fill="none" xmlns="http://www.w3.org/2000/svg">
<path d="M0 12C0 5.37258 5.37258 0 12 0C18.6274 0 24 5.37258 24 12C24 18.6274 18.6274 24 12 24C5.37258 24 0 18.6274 0 12Z" fill="#23292F" stroke="none"/>
<path d="M9.89041 9.66187L9.89119 9.66267C10.449 10.2381 11.2057 10.5649 11.9989 10.5649C12.7922 10.5649 13.5489 10.2381 14.1067 9.66267L14.1073 9.662L17.1616 6.5H17.7954L14.4022 10.0161C13.0739 11.3917 10.9278 11.392 9.59817 10.0161C9.59812 10.0161 9.59807 10.016 9.59802 10.016L6.20359 6.5H6.83864L9.89041 9.66187Z" fill="white" stroke="white"/>
<path d="M7.0248 18.1334H5L9.23828 13.7431C10.7632 12.1638 13.2357 12.1638 14.7617 13.7431L19 18.1334H16.9766L13.75 14.7919C13.2839 14.3111 12.6557 14.0416 12.0012 14.0416C11.3468 14.0416 10.7186 14.3111 10.2525 14.7919L7.0248 18.1334Z" fill="white" stroke="none"/>
</svg>
