<svg data-token-name="ripple_colored" width="24" height="24" viewBox="0 0 24 24" fill="none" xmlns="http://www.w3.org/2000/svg">
<path d="M0 12C0 5.37258 5.37258 0 12 0C18.6274 0 24 5.37258 24 12C24 18.6274 18.6274 24 12 24C5.37258 24 0 18.6274 0 12Z" fill="#67A9E2"/>
<path d="M7.99361 9.07386C8.8332 9.08261 9.62766 9.42834 10.2145 10.1767C10.3499 10.3474 10.4672 10.5312 10.5936 10.7062C10.8193 11.0213 11.1263 11.2139 11.5235 11.2314C12.336 11.2664 12.9048 10.5574 12.6836 9.78282C12.643 9.6384 12.5708 9.49836 12.503 9.36269C12.2638 8.87255 12.0968 8.36928 12.1103 7.81787C12.1464 6.42184 13.2478 5.21399 14.6652 5.02581C16.0239 4.84638 17.3239 5.61661 17.8114 6.89448C18.3441 8.29051 17.7076 9.90098 16.3625 10.5399C15.9201 10.75 15.4507 10.82 14.9631 10.8375C14.5253 10.855 14.1687 11.0213 13.9294 11.3845C13.4194 12.1723 13.9565 13.1175 14.9315 13.1569C15.3829 13.1744 15.8343 13.2226 16.2496 13.4107C17.184 13.8352 17.7392 14.5573 17.9423 15.5289C18.1996 16.7542 17.5767 18.0452 16.4527 18.6491C14.7645 19.5506 12.661 18.636 12.1961 16.8067C12.002 16.0365 12.1419 15.3188 12.5076 14.6273C12.6385 14.3779 12.7333 14.1197 12.7197 13.8352C12.6926 13.2313 12.1374 12.7193 11.519 12.7499C11.0992 12.7674 10.8058 13.0037 10.5711 13.3276C10.3815 13.5902 10.2009 13.8659 9.97523 14.0934C8.88737 15.2006 7.05922 15.205 5.91268 14.1241C4.45919 12.7456 4.7887 10.3649 6.5672 9.41959C6.97345 9.20077 7.41131 9.09137 7.99361 9.07386Z" fill="white"/>
</svg>
