<svg data-token-name="rocket" viewBox="0 0 24 24" fill="none" xmlns="http://www.w3.org/2000/svg">
<path d="M17.0955 12.1235L11.6988 16.4409C11.3009 16.7592 10.7273 16.7274 10.367 16.3671L7.63274 13.6329C7.27244 13.2726 7.24067 12.699 7.55898 12.3011L11.8764 6.90437C13.8506 4.43659 16.8396 3.00003 19.9999 3.00003C20.5521 3.00003 20.9999 3.44775 20.9999 4.00003C20.9999 7.16033 19.5633 10.1493 17.0955 12.1235Z" stroke="currentColor" fill="none" stroke-linecap="round" stroke-linejoin="round"/>
<path d="M16 13V17.382C16 17.7608 15.786 18.107 15.4472 18.2764L13.0313 19.4844C12.5373 19.7314 11.9366 19.5312 11.6896 19.0372C11.6685 18.9949 11.6504 18.9511 11.6354 18.9062L11 17" stroke="currentColor" fill="none" stroke-linecap="round" stroke-linejoin="round"/>
<path d="M7.00036 13L5.0942 12.3646C4.57025 12.19 4.2871 11.6236 4.46175 11.0997C4.47671 11.0548 4.49484 11.011 4.516 10.9687L5.724 8.55279C5.89338 8.21403 6.23961 8.00003 6.61836 8H11.0004" stroke="currentColor" fill="none" stroke-linecap="round" stroke-linejoin="round"/>
<path d="M5.7501 20.5869L3 21.0001L3.41315 18.25C3.54717 17.3578 4.2475 16.6575 5.13964 16.5235C6.26172 16.3549 7.30803 17.1278 7.47664 18.2499C7.50705 18.4523 7.50705 18.6581 7.47664 18.8605C7.34259 19.7526 6.64224 20.4529 5.7501 20.5869Z" stroke="currentColor" fill="none" stroke-linecap="round" stroke-linejoin="round"/>
</svg>
