<svg data-token-name="rocket_simple" width="24" height="24" viewBox="0 0 24 24" fill="none" xmlns="http://www.w3.org/2000/svg">
<path d="M14.4792 14.0415V18.0035C14.4792 18.3459 14.2857 18.659 13.9794 18.8121L11.7951 19.9044C11.3485 20.1277 10.8054 19.9466 10.582 19.5C10.5629 19.4617 10.5465 19.4222 10.533 19.3816L9.9585 17.6581M6.34192 14.0415L4.61847 13.467C4.14475 13.3091 3.88874 12.797 4.04664 12.3233C4.06017 12.2827 4.07656 12.2432 4.0957 12.2049L5.1879 10.0205C5.34105 9.71423 5.65409 9.52075 5.99654 9.52072H9.9585M15.4699 13.249L10.5905 17.1526C10.2307 17.4404 9.71208 17.4116 9.38632 17.0859L6.91418 14.6137C6.58841 14.288 6.55969 13.7693 6.84749 13.4096L10.7511 8.53011C12.536 6.29886 15.2385 5 18.0959 5C18.5952 5 19 5.4048 19 5.90415C19 8.76153 17.7011 11.464 15.4699 13.249Z" stroke="currentColor" fill="none" stroke-linecap="round" stroke-linejoin="round"/>
</svg>
