<svg data-token-name="rocket_colored"  viewBox="0 0 24 24" fill="none" xmlns="http://www.w3.org/2000/svg">
<path d="M16 13V17.6545C16 18.0568 15.786 18.4246 15.4472 18.6045L13.0313 19.8876C12.5373 20.15 11.9366 19.9373 11.6896 19.4126C11.6685 19.3676 11.6504 19.3212 11.6354 19.2735L11 17" fill="#FF1FDB"/>
<path d="M7 13L4.72658 12.3646C4.17005 12.19 3.86929 11.6236 4.0548 11.0997C4.07069 11.0548 4.08995 11.011 4.11242 10.9687L5.39554 8.55279C5.57545 8.21403 5.94321 8.00003 6.34551 8H11" fill="#FF1FDB"/>
<path d="M16.9985 12.3505L11.4674 16.7754C11.0596 17.1016 10.4717 17.0691 10.1025 16.6998L7.30019 13.8975C6.93092 13.5283 6.89836 12.9404 7.22459 12.5326L11.6495 7.00152C13.6728 4.47231 16.7362 3 19.9751 3C20.5411 3 21 3.45886 21 4.02489C21 7.26385 19.5277 10.3272 16.9985 12.3505Z" fill="#80A3FF"/>
<path d="M5.7501 20.5869L3 21L3.41315 18.2499C3.54717 17.3578 4.2475 16.6575 5.13964 16.5235C6.26172 16.3548 7.30803 17.1278 7.47664 18.2499C7.50705 18.4523 7.50705 18.6581 7.47664 18.8605C7.34259 19.7526 6.64224 20.4529 5.7501 20.5869Z" fill="#FF8A00"/>
</svg>
