<svg data-token-name="rocket" viewBox="0 0 87 84" fill="none" xmlns="http://www.w3.org/2000/svg">
<path d="M61.9719 40.9476L42.4087 56.5982C40.9663 57.752 38.887 57.6369 37.5809 56.3308L27.6694 46.4192C26.3633 45.1131 26.2481 43.0338 27.402 41.5914L43.0526 22.0282C50.2091 13.0825 61.0441 7.875 72.5001 7.875C74.5022 7.875 76.1251 9.49797 76.1251 11.5C76.1251 22.9561 70.9176 33.791 61.9719 40.9476Z" stroke="currentColor" fill="none" stroke-linecap="round" stroke-linejoin="round"/>
<path d="M58 44.125V60.0097C58 61.3828 57.2243 62.638 55.9962 63.252L47.2384 67.631C45.4477 68.5263 43.2703 67.8005 42.375 66.0098C42.2983 65.8564 42.2326 65.6977 42.1783 65.535L39.875 58.625" stroke="currentColor" fill="none" stroke-linecap="round" stroke-linejoin="round"/>
<path d="M25.375 44.125L18.4652 41.8217C16.5659 41.1886 15.5394 39.1357 16.1725 37.2364C16.2268 37.0737 16.2925 36.915 16.3692 36.7616L20.7482 28.0039C21.3622 26.7758 22.6173 26.0001 23.9903 26H39.875" stroke="currentColor" fill="none" stroke-linecap="round" stroke-linejoin="round"/>
<path d="M20.8441 71.6276L10.875 73.1253L12.3727 63.1562C12.8585 59.9222 15.3972 57.3835 18.6312 56.8977C22.6987 56.2865 26.4916 59.0884 27.1028 63.1559C27.2131 63.8896 27.2131 64.6356 27.1028 65.3693C26.6169 68.6032 24.0781 71.1419 20.8441 71.6276Z" stroke="currentColor" fill="none" stroke-linecap="round" stroke-linejoin="round"/>
<path d="M36 47L49 34.5" stroke="currentColor" fill="none" stroke-linecap="round"/>
</svg>
