<svg data-token-name="rocket_simple" width="17" height="17" viewBox="0 0 17 17" fill="none" xmlns="http://www.w3.org/2000/svg">
<path d="M11.4792 10.0415V14.0035C11.4792 14.3459 11.2857 14.659 10.9794 14.8121L8.79509 15.9044C8.34846 16.1277 7.80536 15.9466 7.58205 15.5C7.56291 15.4617 7.54652 15.4222 7.53299 15.3816L6.9585 13.6581M3.34192 10.0415L1.61847 9.46698C1.14475 9.30907 0.888736 8.79703 1.04664 8.32331C1.06017 8.28273 1.07656 8.24315 1.0957 8.20489L2.1879 6.02053C2.34105 5.71423 2.65409 5.52075 2.99654 5.52072H6.9585M12.4699 9.24898L7.59046 13.1526C7.23071 13.4404 6.71208 13.4116 6.38632 13.0859L3.91418 10.6137C3.58841 10.288 3.55969 9.76933 3.84749 9.40958L7.75105 4.53011C9.53603 2.29886 12.2385 1 15.0959 1C15.5952 1 16 1.4048 16 1.90415C16 4.76153 14.7011 7.46399 12.4699 9.24898Z" stroke="currentColor" fill="none" stroke-linecap="round" stroke-linejoin="round"/>
</svg>
