<svg data-token-name="rocket_simple" viewBox="0 0 16 17" fill="none" xmlns="http://www.w3.org/2000/svg">
<path d="M9.65217 9.8609V12.5022C9.65217 12.7305 9.52318 12.9392 9.31897 13.0413L7.86274 13.7695C7.56499 13.9184 7.20292 13.7977 7.05405 13.4999C7.04129 13.4744 7.03036 13.448 7.02135 13.421L6.63835 12.272M4.2273 9.8609L3.07833 9.47791C2.76252 9.37263 2.59184 9.03127 2.69711 8.71546C2.70613 8.6884 2.71706 8.66202 2.72981 8.63651L3.45795 7.18027C3.56005 6.97607 3.76874 6.84708 3.99704 6.84707H6.63835M10.3126 9.33257L7.05965 11.935C6.81982 12.1268 6.47407 12.1077 6.25689 11.8905L4.6088 10.2424C4.39162 10.0252 4.37248 9.67947 4.56434 9.43964L7.16672 6.18666C8.35671 4.69916 10.1583 3.83325 12.0633 3.83325C12.3961 3.83325 12.666 4.10312 12.666 4.43602C12.666 6.34094 11.8001 8.14258 10.3126 9.33257Z" stroke="currentColor" fill="none" stroke-linecap="round" stroke-linejoin="round"/>
</svg>
