<svg data-token-name="rocket" width="24" height="24" viewBox="0 0 24 24" fill="none" xmlns="http://www.w3.org/2000/svg">
<path d="M16 13V17.382C16 17.7608 15.786 18.107 15.4472 18.2764L13.0313 19.4844C12.5373 19.7314 11.9366 19.5312 11.6896 19.0372C11.6685 18.9949 11.6504 18.9511 11.6354 18.9062L11 17M7 13L5.09384 12.3646C4.5699 12.19 4.28674 11.6236 4.46139 11.0997C4.47635 11.0548 4.49448 11.011 4.51564 10.9687L5.72364 8.55279C5.89302 8.21403 6.23925 8.00003 6.618 8H11M17.0957 12.1235L11.6989 16.4409C11.3011 16.7592 10.7275 16.7274 10.3672 16.3671L7.63293 13.6329C7.27263 13.2726 7.24086 12.699 7.55917 12.3011L11.8766 6.90437C13.8508 4.43659 16.8397 3.00003 20 3.00003C20.5523 3.00003 21 3.44775 21 4.00003C21 7.16033 19.5635 10.1493 17.0957 12.1235ZM5.7501 20.5869L3 21L3.41315 18.25C3.54717 17.3578 4.2475 16.6575 5.13964 16.5235C6.26172 16.3549 7.30803 17.1278 7.47664 18.2499C7.50705 18.4523 7.50705 18.6581 7.47664 18.8605C7.34259 19.7526 6.64224 20.4529 5.7501 20.5869Z" stroke="currentColor" fill="none" stroke-linecap="round" stroke-linejoin="round"/>
<path d="M9.93066 13.7931L13.5169 10.3448" stroke="currentColor" fill="none" stroke-linecap="round"/>
</svg>
