<svg data-token-name="role" width="24" height="24" viewBox="0 0 24 24" fill="none" xmlns="http://www.w3.org/2000/svg">
<path d="M18 15.434C17.869 15.105 17.666 14.809 17.406 14.568C16.967 14.16 16.392 13.934 15.792 13.934C14.792 13.934 12.208 13.934 11.208 13.934C10.608 13.934 10.034 14.161 9.594 14.568C9.334 14.809 9.131 15.105 9 15.434M18 18V19.333C18 20.254 17.254 21 16.333 21H4.667C3.746 21 3 20.254 3 19.333V7.667C3 6.746 3.746 6 4.667 6H6M19.333 18H7.667C6.746 18 6 17.254 6 16.333V4.667C6 3.746 6.746 3 7.667 3H19.334C20.254 3 21 3.746 21 4.667V16.334C21 17.254 20.254 18 19.333 18ZM15.2684 7.166C16.2444 8.142 16.2444 9.725 15.2684 10.702C14.2924 11.678 12.7094 11.678 11.7324 10.702C10.7554 9.726 10.7564 8.143 11.7324 7.166C12.7084 6.189 14.2914 6.19 15.2684 7.166Z" stroke="currentColor" fill="none"  stroke-width="1.5" stroke-linecap="round" stroke-linejoin="round"/>
</svg>
