<svg data-token-name="safety" width="24" height="24" viewBox="0 0 24 24" fill="none" xmlns="http://www.w3.org/2000/svg">
<path d="M14 11V9.59339C14 8.71374 13.1041 8 12 8C10.8959 8 10 8.71374 10 9.59339V11M13.9091 11H10.0909C9.48873 11 9 11.5432 9 12.2124V14.7876C9 15.4568 9.48873 16 10.0909 16H13.9091C14.5113 16 15 15.4568 15 14.7876V12.2124C15 11.5432 14.5113 11 13.9091 11ZM21 11.1576C21 16.011 17.4484 20.56 12.585 21.92C12.2048 22.0267 11.7952 22.0267 11.415 21.92C6.55162 20.5611 3 16.011 3 11.1576V6.68201C3 5.77978 3.55238 4.96643 4.39838 4.62531L9.87038 2.41417C11.2361 1.86194 12.7661 1.86194 14.1307 2.41417L19.6027 4.62531C20.4476 4.96643 21 5.77978 21 6.68201V11.1576Z" stroke="currentColor" fill="none" stroke-linecap="round" stroke-linejoin="round"/>
</svg>
