<svg data-token-name="sand_clock" width="24" height="24" viewBox="0 0 24 24" fill="none" xmlns="http://www.w3.org/2000/svg">
<path d="M17 4.5C15.5 3.5 13.7 3 12 3C7 3 3 7 3 12M7 19.5C8.5 20.5 10.3 21 12 21C17 21 21 17 21 12M20.3 7.7C20.4 7.8 20.4 8.1 20.3 8.2C20.2 8.3 19.9 8.3 19.8 8.2C19.7 8.1 19.7 7.8 19.8 7.7C19.9 7.6 20.1 7.6 20.3 7.7ZM4.3 15.7C4.4 15.8 4.4 16.1 4.3 16.2C4.2 16.3 3.9 16.3 3.8 16.2C3.7 16.1 3.7 15.8 3.8 15.7C3.9 15.6 4.1 15.6 4.3 15.7Z" stroke="currentColor" fill="none"  stroke-width="1.5" stroke-linecap="round" stroke-linejoin="round"/>
<path d="M9.2 13.7L10.4 12L9.2 10.3C9.1 10.1 9 9.9 9 9.7V8.5C9 8.2 9.2 8 9.5 8H14.5C14.8 8 15 8.2 15 8.5V9.7C15 9.9 15 10.1 14.8 10.3L13.5 12L14.9 13.7C15 13.9 15.1 14.1 15.1 14.3V15.5C15.1 15.8 14.9 16 14.6 16H9.5C9.2 16 9 15.8 9 15.5V14.3C9 14.1 9 13.9 9.2 13.7Z" stroke="currentColor" fill="none"  stroke-width="1.5" stroke-linecap="round" stroke-linejoin="round"/>
</svg>
