<svg data-token-name="send_solid" width="24" height="24" viewBox="0 0 24 24" xmlns="http://www.w3.org/2000/svg">
<path fill-rule="evenodd" clip-rule="evenodd" d="M2 12C2 17.5233 6.47667 22 12 22C17.5233 22 22 17.5233 22 12C22 6.47667 17.5233 2 12 2C6.47667 2 2 6.47667 2 12ZM12.5303 6.46967C12.3897 6.32902 12.1989 6.25 12 6.25C11.8011 6.25 11.6103 6.32902 11.4697 6.46967L7.46967 10.4697C7.17678 10.7626 7.17678 11.2374 7.46967 11.5303C7.76256 11.8232 8.23744 11.8232 8.53033 11.5303L11.2555 8.80517L11.25 16.9995C11.2497 17.4137 11.5853 17.7497 11.9995 17.75C12.4137 17.7503 12.7497 17.4147 12.75 17.0005L12.7555 8.81614L15.4697 11.5303C15.7626 11.8232 16.2374 11.8232 16.5303 11.5303C16.8232 11.2374 16.8232 10.7626 16.5303 10.4697L12.5303 6.46967Z" />
</svg>
