<svg data-token-name="settings_solid" width="24" height="24" viewBox="0 0 24 24" xmlns="http://www.w3.org/2000/svg">
<path fill-rule="evenodd" clip-rule="evenodd" d="M5.31336 12.882C5.27736 12.594 5.25036 12.297 5.25036 12C5.25036 11.703 5.27736 11.406 5.31336 11.118L3.72536 9.876C3.37336 9.601 3.27736 9.107 3.50136 8.72L4.91336 6.277C5.13636 5.89 5.61036 5.727 6.02536 5.893L7.44636 6.464C7.72736 6.577 8.04036 6.532 8.29336 6.366C8.51336 6.221 8.74136 6.086 8.97736 5.966C9.24636 5.829 9.44336 5.583 9.48636 5.284L9.70436 3.77C9.76736 3.328 10.1464 3 10.5924 3H13.4094C13.8554 3 14.2344 3.328 14.2974 3.77L14.5134 5.282C14.5564 5.582 14.7544 5.829 15.0254 5.965C15.2604 6.083 15.4874 6.216 15.7064 6.361C15.9604 6.529 16.2744 6.576 16.5564 6.463L17.9754 5.893C18.3904 5.727 18.8644 5.89 19.0874 6.277L20.4994 8.72C20.7234 9.107 20.6274 9.6 20.2754 9.876L18.6874 11.118C18.7234 11.406 18.7504 11.703 18.7504 12C18.7504 12.297 18.7234 12.594 18.6874 12.882L20.2754 14.124C20.6274 14.399 20.7234 14.893 20.4994 15.28L19.0874 17.723C18.8634 18.11 18.3894 18.273 17.9754 18.107L16.5564 17.537C16.2744 17.423 15.9604 17.471 15.7064 17.639C15.4874 17.784 15.2604 17.917 15.0254 18.035C14.7544 18.171 14.5564 18.418 14.5134 18.718L14.2964 20.23C14.2334 20.672 13.8544 21 13.4084 21H10.5914C10.1454 21 9.76636 20.672 9.70336 20.23L9.48636 18.717C9.44336 18.417 9.24736 18.172 8.97736 18.035C8.74136 17.915 8.51336 17.781 8.29336 17.635C8.04136 17.468 7.72836 17.423 7.44736 17.536L6.02536 18.107C5.61036 18.273 5.13636 18.11 4.91336 17.723L3.50136 15.28C3.27736 14.893 3.37336 14.4 3.72536 14.124L5.31336 12.882ZM13.909 13.9092C14.9634 12.8548 14.9634 11.1452 13.909 10.0908C12.8546 9.03638 11.145 9.03638 10.0906 10.0908C9.0362 11.1452 9.0362 12.8548 10.0906 13.9092C11.145 14.9636 12.8546 14.9636 13.909 13.9092Z" />
</svg>
