<svg data-token-name="shield_usd" width="24" height="24" viewBox="0 0 24 24" fill="none" xmlns="http://www.w3.org/2000/svg">
<path d="M12 8.49987V7.49985M12 8.49987L11.404 8.49889C10.629 8.49889 10 9.1269 10 9.90291C10 10.5469 10.439 11.1079 11.062 11.2639L12.937 11.7349C13.561 11.8929 14 12.4539 14 13.098C14 13.873 13.372 14.502 12.596 14.502H11.5C10.965 14.502 10.523 14.209 10.264 13.785M12 8.49987L12.5 8.49889C13.033 8.49889 13.475 8.79089 13.733 9.2139M12 14.4998V15.4999M20 11.1819C20 15.7229 16.587 19.969 12 21C7.413 19.969 4 15.7229 4 11.1819V7.24281C4 6.4308 4.491 5.69879 5.243 5.39178L10.243 3.34575C11.369 2.88475 12.631 2.88475 13.757 3.34575L18.757 5.39178C19.509 5.69979 20 6.4308 20 7.24281V11.1819Z" stroke="currentColor" fill="none" stroke-linecap="round" stroke-linejoin="round"/>
</svg>
