<svg data-token-name="shop" width="24" height="24" viewBox="0 0 24 24" fill="none" xmlns="http://www.w3.org/2000/svg">
<path d="M21.6969 2C17.0303 0 11.6969 0 11.6969 0C11.6969 0 6.3636 0 1.69694 2C-0.303061 12 1.69694 20.6667 11.6969 24C21.6969 20.6667 23.6969 12 21.6969 2Z" fill="#C7CCD1"/>
<path d="M11.6966 22.5893C3.97128 19.8193 1.00395 13.2207 2.86995 2.96268C7.07195 1.35268 11.6486 1.33334 11.6966 1.33334C11.7439 1.33334 16.3353 1.36001 20.5233 2.96268C22.3893 13.2207 19.4219 19.8193 11.6966 22.5893Z" fill="#92BBFA"/>
<path d="M20.5239 2.96268C16.3359 1.36001 11.7446 1.33334 11.6973 1.33334V22.5893C19.4226 19.8193 22.3899 13.2207 20.5239 2.96268Z" fill="#0B84DA"/>
</svg>
