<svg data-token-name="shield_blue" width="24" height="24" viewBox="0 0 24 24" fill="none" xmlns="http://www.w3.org/2000/svg">
<path d="M12 22C17.5229 22 22 17.5228 22 12C22 6.47715 17.5229 2 12 2C6.47715 2 2 6.47715 2 12C2 17.5228 6.47715 22 12 22Z" fill="currentColor"/>
<path d="M7 12.5032V9.38217C7.00195 9.20092 7.0687 9.02635 7.18818 8.89004C7.30765 8.75373 7.47197 8.66468 7.6514 8.63899C8.97837 8.52184 10.2458 8.03462 11.3096 7.23273C11.5081 7.08173 11.7506 6.99997 12 6.99997C12.2494 6.99997 12.4919 7.08173 12.6904 7.23273C13.7542 8.03462 15.0216 8.52184 16.3486 8.63899C16.528 8.66468 16.6923 8.75372 16.8118 8.89002C16.9313 9.02632 16.998 9.20088 17 9.38212V12.5031C17 14.8847 14.0417 16.648 12.6737 17.3383C12.4655 17.4444 12.2351 17.4998 12.0014 17.5001C11.7677 17.5003 11.5373 17.4453 11.3289 17.3396C9.962 16.6502 7 14.8824 7 12.5032Z" fill="white"/>
<path d="M13.25 11.5L11.6883 13L10.75 12.1" stroke="currentColor" stroke-linecap="round" stroke-linejoin="round"/>
</svg>
