<svg data-token-name="shield_usd" viewBox="0 0 32 32" fill="none" xmlns="http://www.w3.org/2000/svg">
<path d="M15.9997 11.3332V9.9998M15.9997 11.3332L15.205 11.3319C14.1717 11.3319 13.333 12.1692 13.333 13.2039C13.333 14.0626 13.9183 14.8106 14.749 15.0186L17.249 15.6466C18.081 15.8572 18.6663 16.6053 18.6663 17.4639C18.6663 18.4973 17.829 19.336 16.7943 19.336H15.333C14.6197 19.336 14.0303 18.9453 13.685 18.3799M15.9997 11.3332L16.6663 11.3319C17.377 11.3319 17.9663 11.7212 18.3103 12.2852M15.9997 19.3331V20.6665M26.6663 14.9092C26.6663 20.9639 22.1157 26.6253 15.9997 28C9.88367 26.6253 5.33301 20.9639 5.33301 14.9092V9.65708C5.33301 8.5744 5.98767 7.59838 6.99034 7.18904L13.657 4.46101C15.1583 3.84633 16.841 3.84633 18.3423 4.46101L25.009 7.18904C26.0117 7.59972 26.6663 8.5744 26.6663 9.65708V14.9092Z" fill="none" stroke="currentColor" stroke-linecap="round" stroke-linejoin="round"/>
</svg>
