<svg data-token-name="sign_out" version="1.1" xmlns="http://www.w3.org/2000/svg" xmlns:xlink="http://www.w3.org/1999/xlink" x="0px" y="0px"
	 viewBox="0 0 24 24" style="enable-background:new 0 0 24 24;" xml:space="preserve" fill="none">
<path fill="currentColor" d="M8.5,11.5c0.6,0,1,0.4,1,1c0,0.6-0.4,1-1,1c-0.6,0-1-0.4-1-1C7.5,11.9,7.9,11.5,8.5,11.5z M12,4.4v6.1l0,0.5l7.4,0l-1.7-1.7
	c-0.3-0.3-0.3-0.7-0.1-1l0.1-0.1c0.3-0.3,0.7-0.3,1-0.1l0.1,0.1l3,3c0.3,0.3,0.3,0.7,0.1,1l-0.1,0.1l-3,3c-0.3,0.3-0.8,0.3-1.1,0
	c-0.3-0.3-0.3-0.7-0.1-1l0.1-0.1l1.7-1.7l-7.4,0l0,6.7c0,0.5-0.4,0.8-0.9,0.7l-8.5-1.5C2.3,18.4,2,18.1,2,17.7v-12
	C2,5.4,2.3,5.1,2.6,5l8.5-1.4C11.6,3.5,12,3.9,12,4.4z M10.5,5.2l-7,1.1v10.7l7,1.2V5.2z M13,18.5l0.8,0l0.1,0
	c0.4,0,0.6-0.4,0.6-0.7l0-4.3H13V18.5z M13,10l0-1.3V5l0.7,0c0.4,0,0.7,0.3,0.7,0.6l0,0.1l0,4.3H13z"/>
</svg>
