<svg data-token-name="skype_colored" width="24" height="24" viewBox="0 0 24 24" fill="none" xmlns="http://www.w3.org/2000/svg">
<path d="M0 12C0 5.37258 5.37258 0 12 0C18.6274 0 24 5.37258 24 12C24 18.6274 18.6274 24 12 24C5.37258 24 0 18.6274 0 12Z" fill="#00AFF0"/>
<path d="M18.9691 13.2492C18.9643 13.2755 18.961 13.3021 18.956 13.3285L18.9304 13.1774C18.9444 13.2009 18.956 13.2254 18.9691 13.2492C19.0465 12.8278 19.0871 12.3964 19.0871 11.9652C19.0871 11.0091 18.9 10.0815 18.5301 9.20822C18.1733 8.36469 17.6628 7.60715 17.0119 6.95674C16.362 6.30633 15.604 5.79584 14.7609 5.43904C13.8879 5.06965 12.9603 4.88247 12.0042 4.88247C11.5535 4.88247 11.1022 4.92475 10.663 5.00908C10.662 5.00932 10.6608 5.00932 10.6596 5.00955C10.6843 5.02262 10.7093 5.03426 10.7335 5.0478L10.5846 5.02452C10.6095 5.01977 10.6347 5.01454 10.6596 5.00955C10.057 4.6891 9.37925 4.51807 8.69321 4.51807C7.57316 4.51807 6.52011 4.95421 5.72813 5.74643C4.93638 6.53842 4.5 7.59147 4.5 8.71151C4.5 9.42439 4.68339 10.1252 5.0276 10.7445C5.03211 10.7188 5.0352 10.6929 5.04019 10.6672L5.06584 10.8157C5.05254 10.7924 5.0409 10.7682 5.0276 10.7445C4.95776 11.1457 4.92094 11.5557 4.92094 11.9652C4.92094 12.9216 5.10812 13.849 5.47799 14.7224C5.83431 15.5662 6.34504 16.3233 6.99521 16.9737C7.64609 17.6241 8.40316 18.1353 9.24717 18.4911C10.1202 18.8612 11.048 19.0487 12.0042 19.0487C12.4203 19.0487 12.8375 19.0107 13.2446 18.9384C13.2209 18.9251 13.1967 18.913 13.1724 18.899L13.3237 18.9256C13.2976 18.9306 13.2712 18.9337 13.2446 18.9384C13.872 19.2933 14.5823 19.482 15.3075 19.482C16.4273 19.482 17.4799 19.0465 18.2719 18.2541C19.0641 17.4626 19.5 16.4093 19.5 15.2892C19.5 14.574 19.3157 13.8708 18.9691 13.2492ZM12.0324 16.3031C9.51607 16.3031 8.39033 15.0659 8.39033 14.1388C8.39033 13.6632 8.74143 13.3299 9.22531 13.3299C10.3021 13.3299 10.0232 14.8761 12.0324 14.8761C13.061 14.8761 13.629 14.3177 13.629 13.7461C13.629 13.4024 13.4594 13.0214 12.7821 12.8544L10.5439 12.2956C8.74143 11.8436 8.41432 10.8692 8.41432 9.95318C8.41432 8.05136 10.205 7.33729 11.8866 7.33729C13.4356 7.33729 15.2617 8.19342 15.2617 9.33436C15.2617 9.82324 14.8383 10.1076 14.3547 10.1076C13.4356 10.1076 13.6048 8.83551 11.7535 8.83551C10.8349 8.83551 10.3261 9.25146 10.3261 9.84675C10.3261 10.4409 11.0516 10.6307 11.6816 10.7741L13.3382 11.1419C15.1529 11.5462 15.613 12.6056 15.613 13.6036C15.613 15.1491 14.4267 16.3031 12.0324 16.3031ZM13.1724 18.899C13.1967 18.913 13.2209 18.9251 13.2446 18.9384C13.2712 18.9337 13.2976 18.9306 13.3237 18.9256L13.1724 18.899ZM18.956 13.3285C18.961 13.3021 18.9643 13.2755 18.9691 13.2492C18.956 13.2254 18.9444 13.2009 18.9304 13.1774L18.956 13.3285ZM5.04019 10.6672C5.0352 10.6929 5.03211 10.7188 5.0276 10.7445C5.0409 10.7682 5.05254 10.7924 5.06584 10.8157L5.04019 10.6672ZM10.7335 5.0478C10.7093 5.03426 10.6843 5.02262 10.6596 5.00955C10.6347 5.01454 10.6095 5.01977 10.5846 5.02452L10.7335 5.0478Z" fill="white"/>
</svg>
