<svg data-token-name="slack" width="24" height="24" viewBox="0 0 24 24" fill="none" xmlns="http://www.w3.org/2000/svg">
<path fill-rule="evenodd" clip-rule="evenodd" d="M9.33289 2C8.22732 2.00082 7.33257 2.89623 7.33339 3.99959C7.33257 5.10296 8.22814 5.99837 9.33371 5.99918H11.334V4.00041C11.3349 2.89704 10.4393 2.00163 9.33289 2C9.33371 2 9.33371 2 9.33289 2V2ZM9.33289 7.33333H4.00033C2.89476 7.33415 1.99919 8.22956 2 9.33293C1.99837 10.4363 2.89394 11.3317 3.99951 11.3333H9.33289C10.4385 11.3325 11.334 10.4371 11.3332 9.33374C11.334 8.22956 10.4385 7.33415 9.33289 7.33333Z" fill="#36C5F0"/>
<path fill-rule="evenodd" clip-rule="evenodd" d="M22.0002 9.33293C22.0011 8.22956 21.1055 7.33415 19.9999 7.33333C18.8943 7.33415 17.9988 8.22956 17.9996 9.33293V11.3333H19.9999C21.1055 11.3325 22.0011 10.4371 22.0002 9.33293ZM16.6668 9.33293V3.99959C16.6677 2.89704 15.7729 2.00163 14.6673 2C13.5618 2.00082 12.6662 2.89623 12.667 3.99959V9.33293C12.6654 10.4363 13.5609 11.3317 14.6665 11.3333C15.7721 11.3325 16.6677 10.4371 16.6668 9.33293Z" fill="#2EB67D"/>
<path fill-rule="evenodd" clip-rule="evenodd" d="M14.6663 22C15.7719 21.9992 16.6675 21.1038 16.6667 20.0005C16.6675 18.8971 15.7719 18.0017 14.6663 18.0009H12.666V20.0005C12.6652 21.103 13.5608 21.9984 14.6663 22ZM14.6663 16.6659H19.9997C21.1053 16.6651 22.0009 15.7697 22.0001 14.6663C22.0017 13.5629 21.1061 12.6675 20.0006 12.6659H14.6672C13.5616 12.6667 12.666 13.5621 12.6668 14.6655C12.666 15.7697 13.5608 16.6651 14.6663 16.6659Z" fill="#ECB22E"/>
<path fill-rule="evenodd" clip-rule="evenodd" d="M2 14.6662C1.99918 15.7696 2.89476 16.665 4.00033 16.6658C5.1059 16.665 6.00148 15.7696 6.00066 14.6662V12.6666H4.00033C2.89476 12.6674 1.99918 13.5629 2 14.6662ZM7.3334 14.6662V19.9996C7.33176 21.1029 8.22733 21.9984 9.33291 22C10.4385 21.9992 11.3341 21.1038 11.3332 20.0004V14.6679C11.3349 13.5645 10.4393 12.6691 9.33372 12.6674C8.22733 12.6674 7.33258 13.5629 7.3334 14.6662C7.3334 14.6662 7.3334 14.667 7.3334 14.6662Z" fill="#E01E5A"/>
</svg>
