<svg data-token-name="smile_star_eye" width="24" height="24" viewBox="0 0 24 24" fill="none" xmlns="http://www.w3.org/2000/svg">
<path d="M24 12C24 18.6273 18.6273 24 12 24C5.37267 24 0 18.6273 0 12C0 5.37267 5.37267 0 12 0C18.6273 0 24 5.37267 24 12Z" fill="#FFCC4D"/>
<path d="M12.0003 14C9.58499 14 7.98233 13.7187 6.00033 13.3333C5.54766 13.246 4.66699 13.3333 4.66699 14.6667C4.66699 17.3333 7.73033 20.6667 12.0003 20.6667C16.2697 20.6667 19.3337 17.3333 19.3337 14.6667C19.3337 13.3333 18.453 13.2453 18.0003 13.3333C16.0183 13.7187 14.4157 14 12.0003 14Z" fill="#9C5E00"/>
<path d="M6 14.6667C6 14.6667 8 15.3333 12 15.3333C16 15.3333 18 14.6667 18 14.6667C18 14.6667 16.6667 17.3333 12 17.3333C7.33333 17.3333 6 14.6667 6 14.6667Z" fill="white"/>
<path d="M10.4545 2.942L7.42652 3.476L5.86652 0.640667C5.69452 0.328001 5.34118 0.160667 4.99185 0.222001C4.64052 0.284001 4.36718 0.562667 4.31252 0.914667L3.81585 4.11267L0.787849 4.64667C0.431183 4.70933 0.155849 4.99667 0.107183 5.356C0.058516 5.71533 0.247849 6.06467 0.575849 6.22067L3.28918 7.50867L2.79052 10.7167C2.73518 11.074 2.91652 11.426 3.23918 11.5893C3.35852 11.6493 3.48652 11.678 3.61385 11.678C3.83185 11.678 4.04718 11.5927 4.20785 11.43L6.54918 9.056L9.56118 10.486C9.88785 10.6407 10.2772 10.568 10.5252 10.3047C10.7732 10.0413 10.8225 9.64867 10.6485 9.332L9.08318 6.48667L11.1932 4.348C11.4478 4.09 11.5058 3.69667 11.3378 3.37533C11.1685 3.054 10.8092 2.88 10.4545 2.942ZM13.5452 2.942L16.5732 3.476L18.1332 0.640667C18.3052 0.328001 18.6585 0.160667 19.0078 0.222001C19.3585 0.284001 19.6318 0.562667 19.6865 0.914667L20.1832 4.11267L23.2112 4.64667C23.5685 4.70933 23.8438 4.996 23.8918 5.35533C23.9398 5.71467 23.7512 6.064 23.4232 6.22L20.7098 7.508L21.2085 10.716C21.2638 11.0733 21.0825 11.4253 20.7598 11.5887C20.6405 11.6487 20.5125 11.6773 20.3852 11.6773C20.1672 11.6773 19.9518 11.592 19.7912 11.4293L17.4498 9.05533L14.4378 10.4853C14.1112 10.64 13.7218 10.5673 13.4738 10.304C13.2258 10.0407 13.1765 9.648 13.3505 9.33133L14.9158 6.48667L12.8058 4.348C12.5512 4.09 12.4932 3.69667 12.6612 3.37533C12.8312 3.054 13.1905 2.88 13.5452 2.942Z" fill="#E95F28"/>
</svg>
