<svg width="24" height="24" viewBox="0 0 24 24" fill="none" xmlns="http://www.w3.org/2000/svg">
<path d="M22.0002 24V23.3333C22.0002 21.1246 20.2088 19.3333 18.0001 19.3333H6.00004C3.79135 19.3333 2 21.1246 2 23.3333V24H22.0002ZM17.8335 13.6232C18.6255 13.7619 19.5795 13.7092 19.4442 14.2346C19.1248 15.4706 17.7081 15.0126 17.4581 15.0266C17.2081 15.0399 17.8335 13.6232 17.8335 13.6232Z" fill="#8F99A3"/>
<path d="M18.0427 13.7633C19.2928 13.9299 19.7368 14.0406 18.8201 14.4019C18.3054 14.6053 17.3247 17.604 16.5994 17.1473C15.8747 16.6906 18.0427 13.7633 18.0427 13.7633Z" fill="#202427"/>
<path d="M6.17146 13.6232C5.37945 13.7619 4.42544 13.7092 4.56078 14.2346C4.88012 15.4706 6.29679 15.0126 6.5468 15.0266C6.7968 15.0399 6.17146 13.6232 6.17146 13.6232Z" fill="#8F99A3"/>
<path d="M5.96249 13.7633C4.71248 13.9299 4.26847 14.0406 5.18515 14.4019C5.69982 14.6053 6.6805 17.604 7.40584 17.1473C8.13118 16.6906 5.96249 13.7633 5.96249 13.7633Z" fill="#202427"/>
<path d="M14.514 2.6778C13.2086 2.25513 10.1366 2.37046 9.3686 3.36914C7.37192 3.40781 5.0299 5.21182 4.72256 7.59251C4.41856 9.94853 5.0959 11.0425 5.33723 12.8146C5.6099 14.8219 6.73858 15.4639 7.64125 15.7326C8.93927 17.4473 10.3193 17.3739 12.636 17.3739C17.1607 17.3739 19.3154 14.3466 19.506 9.20519C19.6207 6.09517 17.796 3.73981 14.514 2.6778Z" fill="#202427"/>
<path d="M17.1021 9.42452C16.6641 8.81851 16.1041 8.33051 14.8754 8.15717C15.3361 8.36851 15.7775 9.09785 15.8355 9.50119C15.8928 9.90452 15.9508 10.2305 15.5861 9.82786C14.1248 8.21251 12.5334 8.84851 10.9567 7.86184C9.8554 7.1725 9.52006 6.41049 9.52006 6.41049C9.52006 6.41049 9.3854 7.42783 7.71538 8.46451C7.23137 8.76518 6.65337 9.43452 6.33337 10.4225C6.1027 11.1332 6.1747 11.7665 6.1747 12.8492C6.1747 16.0092 8.77872 18.6666 11.9921 18.6666C15.2055 18.6666 17.8095 15.9866 17.8095 12.8492C17.8068 10.8839 17.6015 10.1159 17.1021 9.42452Z" fill="#FFCC4D"/>
<path d="M12.6235 14.3766H11.3422C11.1655 14.3766 11.0215 14.2333 11.0215 14.0559V13.9399C11.0215 13.7633 11.1648 13.6186 11.3422 13.6186H12.6235C12.8002 13.6186 12.9448 13.7626 12.9448 13.9399V14.0559C12.9448 14.2333 12.8008 14.3766 12.6235 14.3766Z" fill="#5C6670"/>
<path fill-rule="evenodd" clip-rule="evenodd" d="M5.10614 9.85853C5.20481 9.95654 5.69815 10.2525 5.79682 10.5479C5.89548 10.8432 6.09349 12.5172 6.68549 13.0099C7.29616 13.5179 9.59885 13.3286 10.0402 13.1092C11.0269 12.6172 11.1482 11.2439 11.3229 10.5479C11.4215 10.1539 12.0135 10.1539 12.0135 10.1539C12.0135 10.1539 12.6055 10.1539 12.7042 10.5479C12.8789 11.2439 13.0002 12.6172 13.9869 13.1086C14.4282 13.3286 16.7309 13.5179 17.3429 13.0106C17.9343 12.5179 18.1316 10.8439 18.2303 10.5479C18.3276 10.2525 18.8223 9.9572 18.9203 9.85853C19.0189 9.75987 19.0189 9.36586 18.9203 9.2672C18.7229 9.07053 16.3949 8.89453 13.8882 9.16853C13.3882 9.2232 13.1982 9.3652 12.0135 9.3652C10.8295 9.3652 10.6389 9.22253 10.1389 9.16853C7.63283 8.89453 5.30415 9.06986 5.10681 9.2672C5.00748 9.36586 5.00748 9.76053 5.10614 9.85853Z" fill="#202427"/>
<path d="M5.23938 5.59651C5.23938 5.59651 6.14539 -0.337551 9.19408 0.0151193C11.5354 0.285789 12.4541 0.565124 14.4161 0.0797866C15.7141 -0.24155 17.1262 0.837127 17.9775 2.99915C18.5215 4.37783 18.7935 5.69317 18.7935 5.69317C18.7935 5.69317 21.4189 5.4365 21.5702 6.84785C21.7222 8.2592 18.6675 9.99188 10.9774 9.99188C6.66739 9.99121 2.22069 8.41986 2.00935 7.10452C1.79801 5.78917 5.23938 5.59651 5.23938 5.59651Z" fill="#8F99A3"/>
<path d="M5.418 4.76648C5.418 4.76648 5.23799 5.50249 5.14733 6.01382C5.05666 6.52583 5.29799 6.87783 6.95068 7.22984C9.14203 7.69651 14.0701 7.69117 16.9894 6.9745C18.1621 6.6865 18.9135 6.4945 18.8235 5.91916C18.7121 5.20715 18.6928 5.20848 18.4628 4.44714C18.4628 4.44714 17.4781 4.78181 16.1781 5.08715C14.4047 5.50315 9.53537 5.69449 7.19068 5.18315C5.94133 4.90981 5.418 4.76648 5.418 4.76648ZM5.32733 14.0686C5.09133 14.1652 7.27468 14.9872 10.314 15.0406C13.4947 15.0966 14.4701 15.3006 13.7447 16.0133C12.9807 16.7633 13.1767 17.9426 13.2307 18.2919C13.2847 18.6413 14.5954 19.5693 14.7027 19.9986C14.8101 20.4286 13.8834 23.9727 13.8834 23.9727L8.06402 23.8047C6.354 17.9086 6.142 18.1373 5.32733 14.7352C5.16666 14.0632 5.32733 14.0686 5.32733 14.0686Z" fill="#202427"/>
<path d="M4.66047 14.0959C4.42447 14.1932 6.60782 15.0146 9.64719 15.0679C12.8279 15.1239 13.8032 15.3279 13.0779 16.0406C12.3139 16.7906 12.6352 17.9699 12.6892 18.3193C12.7432 18.6686 13.9286 19.5966 14.0366 20.0266C14.1432 20.4559 13.2159 24 13.2159 24L7.3965 23.832C5.68648 17.9359 5.47448 18.1646 4.65981 14.7626C4.49981 14.0906 4.66047 14.0959 4.66047 14.0959Z" fill="#8F99A3"/>
<path d="M18.7027 14.0686C18.9387 14.1652 16.7554 14.9872 13.7167 15.0406C10.536 15.0966 9.56066 15.3006 10.286 16.0132C11.05 16.7633 12.27 17.9413 12.2167 18.2906C12.1627 18.6399 9.43532 19.5693 9.32799 19.9986C9.22065 20.4286 10.1473 23.9727 10.1473 23.9727L15.9667 23.8047C17.6767 17.9086 17.8887 18.1373 18.7027 14.7352C18.8634 14.0632 18.7027 14.0686 18.7027 14.0686Z" fill="#202427"/>
<path d="M19.3063 14.0686C19.5423 14.1652 17.3589 14.9872 14.3202 15.0406C11.1395 15.0966 10.1642 15.3006 10.8895 16.0132C11.6535 16.7633 12.8742 17.9413 12.8202 18.2906C12.7662 18.6399 10.0388 19.5693 9.9315 19.9986C9.82417 20.4286 10.7508 23.9727 10.7508 23.9727L16.5222 23.9793C18.2322 18.0833 18.4923 18.1373 19.3069 14.7352C19.4669 14.0632 19.3063 14.0686 19.3063 14.0686Z" fill="#8F99A3"/>
</svg>
