<svg data-token-name="staff" version="1.1" id="Слой_1" xmlns="http://www.w3.org/2000/svg" xmlns:xlink="http://www.w3.org/1999/xlink" x="0px" y="0px"
	 viewBox="0 0 24 24" style="enable-background:new 0 0 24 24;" xml:space="preserve">
<path fill="currentColor" d="M4,14h9c1.1,0,1.9,0.8,2,1.9V16v1.5C15,21,11.3,22,8.5,22c-2.7,0-6.3-1-6.5-4.3v-0.2V16C2,14.9,2.8,14.1,4,14L4,14z
	 M15.2,14H20c1.1,0,1.9,0.8,2,1.9V16v1c0,3.1-2.9,4-5,4c-0.7,0-1.4-0.1-2.1-0.3c0.3-0.4,0.6-0.8,0.8-1.3c0.5,0.1,1.1,0.1,1.3,0.1
	h0.3c1,0,3.1-0.4,3.2-2.3V17v-1c0-0.2-0.2-0.4-0.4-0.5H20h-4.1c-0.1-0.5-0.3-1-0.6-1.3L15.2,14H20H15.2z M4,15.5L4,15.5
	c-0.2,0-0.3,0.1-0.4,0.1c0,0-0.1,0.1-0.1,0.3V16v1.5c0,1,0.5,1.7,1.4,2.2c0.8,0.4,2,0.7,3.3,0.8h0.3h0.3c1.3,0,2.4-0.3,3.3-0.8
	s1.4-1.1,1.4-2.1v-0.2V16c0-0.2-0.2-0.4-0.4-0.5H13H4z M8.5,3C11,3,13,5,13,7.5S11,12,8.5,12S4,10,4,7.5S6,3,8.5,3z M17.5,5
	C19.4,5,21,6.6,21,8.5S19.4,12,17.5,12S14,10.4,14,8.5S15.6,5,17.5,5z M8.5,4.5c-1.7,0-3,1.3-3,3s1.3,3,3,3s3-1.3,3-3
	S10.2,4.5,8.5,4.5z M17.5,6.5c-1.1,0-2,0.9-2,2s0.9,2,2,2s2-0.9,2-2S18.6,6.5,17.5,6.5z"/>
</svg>
