<svg data-token-name="star_round_solid" width="24" height="24" viewBox="0 0 24 24" fill="none" xmlns="http://www.w3.org/2000/svg">
<path d="M7.50832 21.3193C7.24679 21.4561 6.95224 21.5168 6.65806 21.4944C6.36389 21.472 6.08186 21.3674 5.84395 21.1925C5.60604 21.0176 5.42176 20.7794 5.31201 20.5048C5.20226 20.2303 5.17143 19.9304 5.22301 19.6392L6.07461 14.7457L2.48927 11.3012C2.2745 11.0959 2.1218 10.834 2.04868 10.5457C1.97556 10.2573 1.98497 9.95415 2.07585 9.67092C2.16673 9.38769 2.33538 9.13587 2.56248 8.94433C2.78957 8.7528 3.06591 8.6293 3.35981 8.588L8.33782 7.87461L10.5852 3.38004C10.7159 3.11579 10.9175 2.89338 11.1675 2.73789C11.4175 2.58239 11.7058 2.5 12 2.5C12.2942 2.5 12.5825 2.58239 12.8325 2.73789C13.0825 2.89338 13.2841 3.11579 13.4148 3.38004L15.6622 7.87461L20.6402 8.588C20.9341 8.6293 21.2104 8.7528 21.4375 8.94433C21.6646 9.13587 21.8333 9.38769 21.9241 9.67092C22.015 9.95415 22.0244 10.2573 21.9513 10.5457C21.8782 10.834 21.7255 11.0959 21.5107 11.3012L17.9254 14.7457L18.777 19.6403C18.8286 19.9315 18.7977 20.2314 18.688 20.5059C18.5782 20.7804 18.394 21.0187 18.1561 21.1936C17.9181 21.3685 17.6361 21.473 17.3419 21.4955C17.0478 21.5179 16.7532 21.4572 16.4917 21.3203L12 18.9934L7.50832 21.3193Z" fill="currentColor"/>
</svg>
