<svg data-token-name="stars" width="24" height="24" viewBox="0 0 24 24" fill="none" xmlns="http://www.w3.org/2000/svg">
<path d="M4.69 15.0288L3.495 13.4648C2.835 12.5998 2.835 11.3998 3.495 10.5358L4.69 8.97275L4.951 7.02075C5.095 5.94075 5.945 5.09175 7.025 4.94875L8.973 4.68975H8.971L10.535 3.49575C11.4 2.83475 12.599 2.83475 13.464 3.49575L15.027 4.68975L16.98 4.94975C18.06 5.09375 18.909 5.94375 19.052 7.02375L19.31 8.97075L20.503 10.5358C21.163 11.4008 21.164 12.5998 20.503 13.4648L19.308 15.0278L19.048 16.9797C18.904 18.0597 18.054 18.9088 16.974 19.0518L15.026 19.3097H15.028L13.464 20.5047C12.599 21.1657 11.4 21.1657 10.535 20.5047L8.972 19.3108L7.02 19.0497C5.94 18.9057 5.091 18.0557 4.948 16.9757L4.69 15.0288Z" stroke="currentColor" fill="none"  stroke-linecap="round" stroke-linejoin="round"/>
<path d="M11.6311 14.975L10.8011 15.411C10.5341 15.551 10.2101 15.527 9.96615 15.351L9.65615 15.126C9.41215 14.949 9.28915 14.649 9.34015 14.351L9.49915 13.427C9.54315 13.17 9.45815 12.907 9.27115 12.725L8.60015 12.071C8.38315 11.86 8.30615 11.545 8.39915 11.258L8.51715 10.894C8.61015 10.607 8.85815 10.398 9.15715 10.354L10.0851 10.219C10.3431 10.182 10.5661 10.019 10.6821 9.78495L11.0971 8.94395C11.2301 8.67295 11.5061 8.50195 11.8081 8.50195H12.1911C12.4931 8.50195 12.7691 8.67295 12.9031 8.94295L13.3181 9.78395C13.4341 10.018 13.6571 10.181 13.9151 10.218L14.8431 10.353C15.1421 10.397 15.3901 10.606 15.4831 10.893L15.6011 11.257C15.6941 11.544 15.6161 11.859 15.4001 12.07L14.7291 12.724C14.5421 12.906 14.4571 13.169 14.5011 13.426L14.6601 14.35C14.7101 14.647 14.5881 14.948 14.3441 15.125L14.0341 15.35C13.7901 15.528 13.4671 15.552 13.1991 15.411L12.3691 14.975C12.1381 14.854 11.8621 14.854 11.6311 14.975Z" stroke="currentColor" fill="none"  stroke-linecap="round" stroke-linejoin="round"/>
</svg>
