<svg data-token-name="stars_fill" width="32" height="32" viewBox="0 0 32 32" fill="none" xmlns="http://www.w3.org/2000/svg">
<path d="M6.25333 20.0383L4.66 17.953C3.78 16.7997 3.78 15.1997 4.66 14.0477L6.25333 11.9637L6.60133 9.361C6.79333 7.921 7.92667 6.789 9.36667 6.59833L11.964 6.253H11.9613L14.0467 4.661C15.2 3.77967 16.7987 3.77967 17.952 4.661L20.036 6.253L22.64 6.59967C24.08 6.79167 25.212 7.925 25.4027 9.365L25.7467 11.961L27.3373 14.0477C28.2173 15.201 28.2187 16.7997 27.3373 17.953L25.744 20.037L25.3973 22.6397C25.2053 24.0797 24.072 25.2117 22.632 25.4023L20.0347 25.7463H20.0373L17.952 27.3397C16.7987 28.221 15.2 28.221 14.0467 27.3397L11.9627 25.7477L9.36 25.3997C7.92 25.2077 6.788 24.0743 6.59733 22.6343L6.25333 20.0383Z" fill="currentColor"/>
<path d="M15.5082 19.9666L14.4015 20.5479C14.0455 20.7346 13.6135 20.7026 13.2882 20.4679L12.8749 20.1679C12.5495 19.9319 12.3855 19.5319 12.4535 19.1346L12.6655 17.9026C12.7242 17.5599 12.6109 17.2093 12.3615 16.9666L11.4669 16.0946C11.1775 15.8133 11.0749 15.3933 11.1989 15.0106L11.3562 14.5253C11.4802 14.1426 11.8109 13.8639 12.2095 13.8053L13.4469 13.6253C13.7909 13.5759 14.0882 13.3586 14.2429 13.0466L14.7962 11.9253C14.9735 11.5639 15.3415 11.3359 15.7442 11.3359H16.2549C16.6575 11.3359 17.0255 11.5639 17.2042 11.9239L17.7575 13.0453C17.9122 13.3573 18.2095 13.5746 18.5535 13.6239L19.7909 13.8039C20.1895 13.8626 20.5202 14.1413 20.6442 14.5239L20.8015 15.0093C20.9255 15.3919 20.8215 15.8119 20.5335 16.0933L19.6389 16.9653C19.3895 17.2079 19.2762 17.5586 19.3349 17.9013L19.5469 19.1333C19.6135 19.5293 19.4509 19.9306 19.1255 20.1666L18.7122 20.4666C18.3869 20.7039 17.9562 20.7359 17.5989 20.5479L16.4922 19.9666C16.1842 19.8053 15.8162 19.8053 15.5082 19.9666Z" stroke="white" stroke-width="1.5" stroke-linecap="round" stroke-linejoin="round"/>
</svg>
