<svg data-token-name="stats_icon" width="24" height="24" version="1.1" id="Layer_1" xmlns="http://www.w3.org/2000/svg" xmlns:xlink="http://www.w3.org/1999/xlink" x="0px" y="0px"
	 viewBox="0 0 24 24" style="enable-background:new 0 0 24 24;" xml:space="preserve">
<path d="M13.6,2h-3.2C5.8,2,2,5.7,2,10.4c0,0,0,0,0,0v10.3C2,21.4,2.6,22,3.3,22h10.3c4.6,0,8.4-3.8,8.4-8.4v-3.2
	C22,5.8,18.2,2,13.6,2z M17.3,12.2C17.3,12.3,17.3,12.3,17.3,12.2c-0.1,0.1-0.1,0.1-0.2,0l-1.2-1.2l-3.6,3.5c0,0,0,0,0,0
	c-0.1,0.1-0.3,0.1-0.4,0l-2-2c0,0,0,0,0,0c-0.1-0.1-0.2-0.1-0.3,0l-3.3,3.3c-0.1,0.1-0.2,0.1-0.2,0l-0.6-0.6c0,0,0,0,0,0
	c-0.1-0.1-0.1-0.2,0-0.3l4-4c0,0,0,0,0,0c0.1-0.1,0.3-0.1,0.4,0l2.1,2.1c0,0,0,0,0,0c0,0,0.1,0,0.1,0l2.8-2.8l-1.3-1.3c0,0,0,0,0,0
	c0,0,0-0.1,0-0.1L18,8.1c0,0,0,0,0,0c0.1,0,0.1,0.1,0.1,0.2L17.3,12.2z"/>
</svg>
