<svg data-token-name="steam_colored" width="24" height="24" viewBox="0 0 24 24" fill="none" xmlns="http://www.w3.org/2000/svg">
<path d="M0 12C0 5.37258 5.37258 0 12 0C18.6274 0 24 5.37258 24 12C24 18.6274 18.6274 24 12 24C5.37258 24 0 18.6274 0 12Z" fill="#132E62"/>
<path d="M11.9026 8.69631C11.9026 8.71708 11.9026 8.73785 11.9036 8.75735L8.97306 13.1453C8.49834 13.1231 8.02197 13.2089 7.57027 13.4007C7.37115 13.4844 7.18457 13.5872 7.00951 13.7058L0 11C0 11 0.000560999 13 0.00059548 15L5.59531 17.3169C5.82372 18.3691 6.52399 19.292 7.55711 19.736C9.24743 20.4639 11.1964 19.6343 11.8995 17.8912C12.0825 17.4356 12.1678 16.9577 12.1555 16.4809L16.3487 13.3922C16.3826 13.3933 16.4175 13.3943 16.4515 13.3943C18.9608 13.3943 21.0003 11.2857 21.0003 8.69631C21.0003 6.10668 18.9608 4 16.4515 4C13.9432 4 11.9026 6.10668 11.9026 8.69631ZM11.1995 17.5882C10.6553 18.9349 9.15378 19.5739 7.84865 19.0133C7.24656 18.7548 6.79198 18.2812 6.52975 17.7164L8.01056 18.349C8.97306 18.7622 10.0773 18.2917 10.4774 17.3C10.8787 16.3071 10.4234 15.167 9.46146 14.7538L7.93068 14.1C8.52136 13.869 9.19285 13.8605 9.82023 14.1297C10.4527 14.4009 10.9435 14.9117 11.2036 15.5644C11.4637 16.2171 11.4626 16.9376 11.1995 17.5882ZM16.4515 11.8261C14.781 11.8261 13.421 10.4222 13.421 8.69631C13.421 6.97183 14.781 5.56745 16.4515 5.56745C18.123 5.56745 19.483 6.97183 19.483 8.69631C19.483 10.4222 18.123 11.8261 16.4515 11.8261ZM14.1806 8.69155C14.1806 7.39323 15.2004 6.34021 16.4566 6.34021C17.7138 6.34021 18.7336 7.39323 18.7336 8.69155C18.7336 9.98997 17.7138 11.042 16.4566 11.042C15.2004 11.042 14.1806 9.98997 14.1806 8.69155Z" fill="white"/>
<defs>
<linearGradient id="paint0_linear" x1="12" y1="0" x2="12" y2="24" gradientUnits="userSpaceOnUse">
<stop stop-color="#111D2E"/>
<stop offset="0.21248" stop-color="#051839"/>
<stop offset="0.40695" stop-color="#0A1B48"/>
<stop offset="0.5811" stop-color="#132E62"/>
<stop offset="0.7376" stop-color="#144B7E"/>
<stop offset="0.87279" stop-color="#136497"/>
<stop offset="1" stop-color="#1387B8"/>
</linearGradient>
</defs>
</svg>
