<?xml version="1.0" encoding="utf-8"?>
<!-- Generator: Adobe Illustrator 23.1.0, SVG Export Plug-In . SVG Version: 6.00 Build 0)  -->
<svg version="1.1" id="Layer_1" xmlns="http://www.w3.org/2000/svg" xmlns:xlink="http://www.w3.org/1999/xlink" x="0px" y="0px"
	 viewBox="0 0 24 24" style="enable-background:new 0 0 24 24;" xml:space="preserve">
<style type="text/css">
	.st0{fill:none;}
</style>
<path class="st0" d="M0,0h24v24H0V0z"/>
<g>
	<path d="M15.8,7.5c0,1,0.8,1.9,1.9,1.9s1.9-0.8,1.9-1.9s-0.8-1.9-1.9-1.9S15.8,6.5,15.8,7.5z M20.8,4.4c-1.7-1.7-4.5-1.7-6.2,0
		c-0.7,0.7-1.1,1.6-1.2,2.5l0,0l-4,6.1c-0.5,0-1.1,0.2-1.6,0.4L4.6,11c-0.7-0.6-1.8-0.4-2.3,0.3S1.9,13,2.6,13.6l3.1,2.4
		c-0.3,1.3,0,2.8,1,3.8c1.6,1.6,4.1,1.6,5.6,0c1-1,1.3-2.3,1.1-3.5l4.9-4.4l0,0c0.9-0.1,1.8-0.5,2.5-1.2C22.5,8.9,22.5,6.1,20.8,4.4
		z M9.5,19.6c-1.5,0-2.6-1.2-2.6-2.6c0,0,0,0,0,0l1.3,1c0.3,0.2,0.7,0.3,1,0.3c0.5,0,1-0.2,1.3-0.6c0.6-0.7,0.4-1.8-0.3-2.3l-1.2-1
		c0.2,0,0.4-0.1,0.5-0.1c1.5,0,2.6,1.2,2.6,2.6C12.1,18.4,10.9,19.6,9.5,19.6z M17.7,10.6c-1.7,0-3.1-1.4-3.1-3.1s1.4-3.1,3.1-3.1
		s3.1,1.4,3.1,3.1S19.4,10.6,17.7,10.6z"/>
</g>
</svg>
