<svg data-token-name="suitcase_close" width="24" height="24" viewBox="0 0 24 24" fill="none" xmlns="http://www.w3.org/2000/svg">
<path d="M12.15 21H6C5.20435 21 4.44129 20.6839 3.87868 20.1213C3.31607 19.5587 3 18.7956 3 18V9.5C3 8.83696 3.26339 8.20107 3.73223 7.73223C4.20107 7.26339 4.83696 7 5.5 7H18.5C19.163 7 19.7989 7.26339 20.2678 7.73223C20.7366 8.20107 21 8.83696 21 9.5V13.0504M21.9 21.6L15.9 15.6M15.9 21.6L21.9 15.6M15.5 7V5C15.5 4.46957 15.2893 3.96086 14.9142 3.58579C14.5391 3.21071 14.0304 3 13.5 3H10.5C9.96957 3 9.46086 3.21071 9.08579 3.58579C8.71071 3.96086 8.5 4.46957 8.5 5V7M12 13H3" stroke="currentColor" fill="none" stroke-linecap="round" stroke-linejoin="round"/>
</svg>
