<svg data-token-name="suitcase_close" viewBox="0 0 80 80" fill="none" xmlns="http://www.w3.org/2000/svg">
<path d="M40.5 70H20C17.3478 70 14.8043 68.9464 12.9289 67.0711C11.0536 65.1957 10 62.6522 10 60V31.6667C10 29.4565 10.878 27.3369 12.4408 25.7741C14.0036 24.2113 16.1232 23.3333 18.3333 23.3333H61.6667C63.8768 23.3333 65.9964 24.2113 67.5592 25.7741C69.122 27.3369 70 29.4565 70 31.6667V43.5013M73 72L53 52M53 72L73 52M51.6667 23.3333V16.6667C51.6667 14.8986 50.9643 13.2029 49.714 11.9526C48.4638 10.7024 46.7681 10 45 10H35C33.2319 10 31.5362 10.7024 30.286 11.9526C29.0357 13.2029 28.3333 14.8986 28.3333 16.6667V23.3333M40 43.3333H10" stroke="currentColor" stroke-linecap="round" fill="none" stroke-linejoin="round"/>
</svg>
