<svg width="40" height="40" viewBox="0 0 40 40" fill="none" data-token-name="swap_cubes_colored" xmlns="http://www.w3.org/2000/svg">
<rect width="40" height="40" rx="20" fill="#E986FF"/>
<path d="M17.5 25.8335L19.1667 28.3335L17.5 30.8335" stroke="white" stroke-width="1.5" fill="none" stroke-linecap="round" stroke-linejoin="round"/>
<path d="M10 21.7857V25.7143C10 27.1613 11.0848 28.3333 12.4242 28.3333H18.4848M23.3333 15.2381L20.9091 12.619L23.3333 10" stroke="white" stroke-width="1.5" fill="none" stroke-linecap="round" stroke-linejoin="round"/>
<path d="M30.37 18.7039V14.815C30.37 13.3826 29.2099 12.2224 27.7775 12.2224H21.296M14.8145 17.4076H10.9256C9.49319 17.4076 8.33301 16.2474 8.33301 14.815V10.9261C8.33301 9.49368 9.49319 8.3335 10.9256 8.3335H14.8145C16.2469 8.3335 17.4071 9.49368 17.4071 10.9261V14.815C17.4071 16.2474 16.2469 17.4076 14.8145 17.4076ZM29.0737 31.6668H25.1849C23.7525 31.6668 22.5923 30.5066 22.5923 29.0742V25.1853C22.5923 23.7529 23.7525 22.5928 25.1849 22.5928H29.0737C30.5062 22.5928 31.6663 23.7529 31.6663 25.1853V29.0742C31.6663 30.5066 30.5062 31.6668 29.0737 31.6668Z" fill="none" stroke="white" stroke-width="1.5" stroke-linecap="round" stroke-linejoin="round"/>
</svg>
