<svg xmlns="http://www.w3.org/2000/svg" data-token-name="swap_cubes_colored" width="40" height="40" fill="none"><rect width="40" height="40" fill="#E986FF" rx="20"/><path stroke="#fff" stroke-linecap="round" stroke-linejoin="round" fill="none" stroke-width="1.5" d="m17.333 23.556 1.778 1.777-1.778 1.778"/><path stroke="#fff" stroke-linecap="round" stroke-linejoin="round" fill="none" stroke-width="1.5" d="M12.889 20.889v2.666c0 .983.796 1.778 1.778 1.778h4.444m3.556-8.889-1.778-1.778 1.778-1.777"/><path stroke="#fff" stroke-linecap="round" stroke-linejoin="round" fill="none" stroke-width="1.5" d="M27.111 19.111v-2.667c0-.982-.795-1.777-1.778-1.777H20.89m-4.445 3.555h-2.666A1.777 1.777 0 0 1 12 16.444v-2.666c0-.982.796-1.778 1.778-1.778h2.666c.983 0 1.778.796 1.778 1.778v2.666c0 .983-.795 1.778-1.778 1.778ZM26.222 28h-2.666a1.777 1.777 0 0 1-1.778-1.778v-2.666c0-.983.795-1.778 1.778-1.778h2.666c.982 0 1.778.795 1.778 1.778v2.666c0 .982-.796 1.778-1.778 1.778Z"/></svg>