<svg data-token-name="swap_cubes" width="24" height="24" viewBox="0 0 24 24" fill="none" xmlns="http://www.w3.org/2000/svg">
<path d="M9.33325 15.5556L11.111 17.3333L9.33325 19.1111" stroke="currentColor" stroke-width="1.5" stroke-linecap="round" stroke-linejoin="round"/>
<path d="M4.88892 12.8889V15.5556C4.88892 16.5378 5.68447 17.3333 6.66669 17.3333H11.1111M14.6667 8.44444L12.8889 6.66667L14.6667 4.88889" stroke="currentColor" stroke-width="1.5" stroke-linecap="round" stroke-linejoin="round"/>
<path d="M19.1111 11.1111V8.44444C19.1111 7.46222 18.3156 6.66667 17.3333 6.66667H12.8889M8.44444 10.2222H5.77778C4.79556 10.2222 4 9.42667 4 8.44444V5.77778C4 4.79556 4.79556 4 5.77778 4H8.44444C9.42667 4 10.2222 4.79556 10.2222 5.77778V8.44444C10.2222 9.42667 9.42667 10.2222 8.44444 10.2222ZM18.2222 20H15.5556C14.5733 20 13.7778 19.2044 13.7778 18.2222V15.5556C13.7778 14.5733 14.5733 13.7778 15.5556 13.7778H18.2222C19.2044 13.7778 20 14.5733 20 15.5556V18.2222C20 19.2044 19.2044 20 18.2222 20Z" stroke="currentColor" stroke-width="1.5" stroke-linecap="round" stroke-linejoin="round"/>
</svg>
