<svg data-token-name="switches" width="24" height="24" viewBox="0 0 20 20" xmlns="http://www.w3.org/2000/svg">
<path d="M11.6668 14.5833H12.2668L12.2668 14.579L11.6668 14.5833ZM5.41674 3.1H14.5834V1.9H5.41674V3.1ZM14.5834 7.73333H5.41674V8.93333H14.5834V7.73333ZM5.41674 7.73333C4.13728 7.73333 3.10008 6.69613 3.10008 5.41667H1.90008C1.90008 7.35887 3.47454 8.93333 5.41674 8.93333V7.73333ZM16.9001 5.41667C16.9001 6.69613 15.8629 7.73333 14.5834 7.73333V8.93333C16.5256 8.93333 18.1001 7.35887 18.1001 5.41667H16.9001ZM14.5834 3.1C15.8629 3.1 16.9001 4.13721 16.9001 5.41667H18.1001C18.1001 3.47447 16.5256 1.9 14.5834 1.9V3.1ZM5.41674 1.9C3.47454 1.9 1.90008 3.47447 1.90008 5.41667H3.10008C3.10008 4.13721 4.13728 3.1 5.41674 3.1V1.9ZM5.41674 12.2667H14.5834V11.0667H5.41674V12.2667ZM14.5834 16.9H5.41674V18.1H14.5834V16.9ZM5.41674 16.9C4.13728 16.9 3.10008 15.8628 3.10008 14.5833H1.90008C1.90008 16.5255 3.47454 18.1 5.41674 18.1V16.9ZM16.9001 14.5833C16.9001 15.8628 15.8629 16.9 14.5834 16.9V18.1C16.5256 18.1 18.1001 16.5255 18.1001 14.5833H16.9001ZM14.5834 12.2667C15.8629 12.2667 16.9001 13.3039 16.9001 14.5833H18.1001C18.1001 12.6411 16.5256 11.0667 14.5834 11.0667V12.2667ZM5.41674 11.0667C3.47454 11.0667 1.90008 12.6411 1.90008 14.5833H3.10008C3.10008 13.3039 4.13728 12.2667 5.41674 12.2667V11.0667ZM14.5834 11.0667C12.646 11.0667 11.0527 12.639 11.0668 14.5877L12.2668 14.579C12.2576 13.3077 13.3008 12.2667 14.5834 12.2667V11.0667ZM11.0668 14.5833C11.0668 16.5247 12.642 18.1 14.5834 18.1V16.9C13.3048 16.9 12.2668 15.862 12.2668 14.5833H11.0668ZM14.5834 18.1C16.5248 18.1 18.1001 16.5247 18.1001 14.5833H16.9001C16.9001 15.862 15.862 16.9 14.5834 16.9V18.1ZM18.1001 14.5833C18.1001 12.6435 16.538 11.0667 14.5834 11.0667V12.2667C15.8721 12.2667 16.9001 13.3031 16.9001 14.5833H18.1001ZM5.41674 1.9C3.47939 1.9 1.88597 3.47228 1.90009 5.42101L3.10006 5.41232C3.09085 4.14105 4.13414 3.1 5.41674 3.1V1.9ZM1.90008 5.41667C1.90008 7.35804 3.4754 8.93333 5.41674 8.93333V7.73333C4.13813 7.73333 3.10008 6.69529 3.10008 5.41667H1.90008ZM5.41674 8.93333C7.35809 8.93333 8.93341 7.35804 8.93341 5.41667H7.73341C7.73341 6.69529 6.69535 7.73333 5.41674 7.73333V8.93333ZM8.93341 5.41667C8.93341 3.47686 7.37132 1.9 5.41674 1.9V3.1C6.70546 3.1 7.73341 4.13647 7.73341 5.41667H8.93341Z"/>
</svg>
