<svg data-token-name="switches" width="24" height="24" viewBox="0 0 24 24" fill="none" xmlns="http://www.w3.org/2000/svg">
<path d="M14.0002 17.5H14.7502L14.7502 17.4946L14.0002 17.5ZM6.50009 3.75H17.5001V2.25H6.50009V3.75ZM17.5001 9.25H6.50009V10.75H17.5001V9.25ZM6.50009 9.25C4.98131 9.25 3.75009 8.01878 3.75009 6.5H2.25009C2.25009 8.84721 4.15288 10.75 6.50009 10.75V9.25ZM20.2501 6.5C20.2501 8.01878 19.0189 9.25 17.5001 9.25V10.75C19.8473 10.75 21.7501 8.84721 21.7501 6.5H20.2501ZM17.5001 3.75C19.0189 3.75 20.2501 4.98122 20.2501 6.5H21.7501C21.7501 4.15279 19.8473 2.25 17.5001 2.25V3.75ZM6.50009 2.25C4.15288 2.25 2.25009 4.15279 2.25009 6.5H3.75009C3.75009 4.98122 4.98131 3.75 6.50009 3.75V2.25ZM6.50009 14.75H17.5001V13.25H6.50009V14.75ZM17.5001 20.25H6.50009V21.75H17.5001V20.25ZM6.50009 20.25C4.98131 20.25 3.75009 19.0188 3.75009 17.5H2.25009C2.25009 19.8472 4.15288 21.75 6.50009 21.75V20.25ZM20.2501 17.5C20.2501 19.0188 19.0189 20.25 17.5001 20.25V21.75C19.8473 21.75 21.7501 19.8472 21.7501 17.5H20.2501ZM17.5001 14.75C19.0189 14.75 20.2501 15.9812 20.2501 17.5H21.7501C21.7501 15.1528 19.8473 13.25 17.5001 13.25V14.75ZM6.50009 13.25C4.15288 13.25 2.25009 15.1528 2.25009 17.5H3.75009C3.75009 15.9812 4.98131 14.75 6.50009 14.75V13.25ZM17.5001 13.25C15.1589 13.25 13.2331 15.15 13.2502 17.5054L14.7502 17.4946C14.7392 15.986 15.9774 14.75 17.5001 14.75V13.25ZM13.2502 17.5C13.2502 19.8462 15.1539 21.75 17.5001 21.75V20.25C15.9824 20.25 14.7502 19.0178 14.7502 17.5H13.2502ZM17.5001 21.75C19.8463 21.75 21.7501 19.8462 21.7501 17.5H20.2501C20.2501 19.0178 19.0179 20.25 17.5001 20.25V21.75ZM21.7501 17.5C21.7501 15.1557 19.8622 13.25 17.5001 13.25V14.75C19.0299 14.75 20.2501 15.9803 20.2501 17.5H21.7501ZM6.50009 2.25C4.1589 2.25 2.23304 4.15002 2.25011 6.50543L3.75007 6.49457C3.73914 4.98598 4.97733 3.75 6.50009 3.75V2.25ZM2.25009 6.5C2.25009 8.84622 4.15391 10.75 6.50009 10.75V9.25C4.98233 9.25 3.75009 8.01778 3.75009 6.5H2.25009ZM6.50009 10.75C8.84628 10.75 10.7501 8.84622 10.7501 6.5H9.25009C9.25009 8.01778 8.01786 9.25 6.50009 9.25V10.75ZM10.7501 6.5C10.7501 4.15574 8.86223 2.25 6.50009 2.25V3.75C8.0299 3.75 9.25009 4.98026 9.25009 6.5H10.7501Z" fill="currentColor"/>
</svg>
