<svg data-token-name="telegram_colored" width="24" height="24" viewBox="0 0 24 24" fill="none" xmlns="http://www.w3.org/2000/svg">
<path d="M0 12C0 5.37258 5.37258 0 12 0C18.6274 0 24 5.37258 24 12C24 18.6274 18.6274 24 12 24C5.37258 24 0 18.6274 0 12Z" fill="#229ED9"/>
<path d="M7.41211 12.2672L8.94935 16.3196C8.94935 16.3196 9.1415 16.6981 9.34683 16.6981C9.55217 16.6981 12.6135 13.6654 12.6135 13.6654L16.0174 7.40333L7.46591 11.2204L7.41211 12.2672Z" fill="#C8DAEA"/>
<path d="M9.45186 13.3057L9.15649 16.2924C9.15649 16.2924 9.03351 17.2074 9.99318 16.2924C10.9529 15.3773 11.873 14.6714 11.873 14.6714" fill="#A9C6D8"/>
<path d="M7.44128 12.4115L4.28006 11.4306C4.28006 11.4306 3.90234 11.2842 4.02422 10.9537C4.04948 10.8857 4.09999 10.8272 4.25042 10.7268C4.95096 10.2614 17.2181 6.06265 17.2181 6.06265C17.2181 6.06265 17.5651 5.9518 17.7693 6.025C17.8627 6.05847 17.9231 6.09716 17.9725 6.23625C17.9911 6.28644 18.001 6.3952 17.9999 6.50187C17.9988 6.57926 17.9889 6.65037 17.9813 6.76331C17.9066 7.91157 15.671 16.4806 15.671 16.4806C15.671 16.4806 15.537 16.9815 15.0583 16.9993C14.8837 17.0056 14.6718 16.9721 14.4182 16.764C13.4771 15.9933 10.227 13.9122 9.50887 13.4552C9.46824 13.4291 9.45726 13.3956 9.44958 13.3632C9.43969 13.3151 9.4946 13.2555 9.4946 13.2555C9.4946 13.2555 15.1549 8.46374 15.3054 7.96072C15.3174 7.92203 15.2735 7.90216 15.2142 7.91889C14.8387 8.05066 8.3208 11.9702 7.6016 12.4032C7.55877 12.4272 7.44128 12.4115 7.44128 12.4115Z" fill="white"/>
<defs>
<linearGradient id="paint0_linear" x1="12" y1="0" x2="12" y2="23.822" gradientUnits="userSpaceOnUse">
<stop stop-color="#2AABEE"/>
<stop offset="1" stop-color="#229ED9"/>
</linearGradient>
</defs>
</svg>
