<svg data-token-name="tether_colored" width="24" height="24" viewBox="0 0 24 24" fill="none" xmlns="http://www.w3.org/2000/svg">
<path d="M0 12C0 5.37258 5.37258 0 12 0C18.6274 0 24 5.37258 24 12C24 18.6274 18.6274 24 12 24C5.37258 24 0 18.6274 0 12Z" fill="#50AF95"/>
<path fill-rule="evenodd" clip-rule="evenodd" d="M13.012 12.8656C12.9554 12.8698 12.6631 12.8874 12.0112 12.8874C11.4927 12.8874 11.1245 12.8717 10.9953 12.8656C8.99144 12.7769 7.49571 12.426 7.49571 12.006C7.49571 11.5859 8.99144 11.2355 10.9953 11.1454V12.5161C11.1264 12.5256 11.5016 12.5479 12.0201 12.5479C12.6424 12.5479 12.954 12.5218 13.0101 12.5166V11.1463C15.0097 11.2359 16.5021 11.5868 16.5021 12.006C16.5021 12.4251 15.0102 12.776 13.0101 12.8651L13.012 12.8656ZM13.012 11.0046V9.77796H15.8026V7.90747H8.20468V9.77796H10.9949V11.0041C8.72698 11.1089 7.02148 11.5607 7.02148 12.1022C7.02148 12.6437 8.72698 13.0951 10.9949 13.2003V17.131H13.0115V13.1989C15.2742 13.0941 16.9768 12.6427 16.9768 12.1017C16.9768 11.5607 15.2756 11.1094 13.0115 11.0041L13.012 11.0046Z" fill="white"/>
</svg>
