<svg data-token-name="tiktok" width="24" height="24" viewBox="0 0 24 24" fill="none" xmlns="http://www.w3.org/2000/svg">
<rect width="24" height="24" rx="12" fill="black"/>
<path d="M10.6785 10.0457V9.43879C10.4599 9.409 10.2397 9.39359 10.0192 9.39264C7.32239 9.39264 5.12793 11.5081 5.12793 14.1083C5.12793 15.7031 5.95496 17.1153 7.21613 17.9689C6.37165 17.0982 5.90184 15.9506 5.90263 14.7585C5.90263 12.1954 8.03445 10.1053 10.6785 10.0457Z" fill="#00F2EA"/>
<path d="M10.8087 16.7437C11.9489 16.7437 12.8787 15.8154 12.9211 14.658L12.925 4.32898H14.7686C14.7292 4.1134 14.7091 3.89452 14.7088 3.67514L12.1912 3.67514L12.1868 14.0046C12.1448 15.1612 11.2143 16.0894 10.0744 16.0894C9.73246 16.0895 9.3956 16.004 9.09277 15.8403C9.28901 16.12 9.54687 16.3477 9.84517 16.5048C10.1435 16.6618 10.4737 16.7437 10.8087 16.7437ZM18.2116 7.83502V7.26082C17.5348 7.2616 16.8723 7.06 16.3045 6.6805C16.8029 7.26714 17.4715 7.67212 18.2116 7.83502Z" fill="#00F2EA"/>
<path d="M16.2292 6.82713C15.6756 6.1829 15.3698 5.35232 15.3696 4.49194H14.6968C14.7849 4.96798 14.9661 5.42055 15.2296 5.82204C15.4931 6.22353 15.8332 6.56551 16.2292 6.82713ZM10.0145 11.8695C8.8489 11.8712 7.90451 12.8338 7.90332 14.0218C7.90454 14.4156 8.0107 14.8015 8.21023 15.1375C8.40975 15.4734 8.69499 15.7465 9.03484 15.9269C8.77552 15.563 8.63553 15.1234 8.6352 14.6719C8.63639 13.4835 9.58078 12.5205 10.7464 12.5193C10.9645 12.5193 11.1726 12.5561 11.3697 12.6189V10.0052C11.1632 9.97533 10.9549 9.95978 10.7464 9.95868C10.7099 9.95868 10.6738 9.96113 10.6378 9.96154V11.9692C10.4361 11.9038 10.226 11.8702 10.0145 11.8695Z" fill="#FF004F"/>
<path d="M17.8757 8.16748V10.1621C16.6233 10.164 15.4016 9.76261 14.3816 9.01408V14.228C14.3816 16.8323 12.3081 18.9511 9.75956 18.9511C8.77433 18.9511 7.86087 18.6333 7.11035 18.0947C7.54362 18.5711 8.0673 18.9508 8.64891 19.2102C9.23052 19.4696 9.85766 19.6031 10.4914 19.6025C13.0403 19.6025 15.1139 17.4837 15.1139 14.8798V9.66546C16.1339 10.4138 17.3556 10.8151 18.608 10.813V8.24712C18.3618 8.24704 18.1164 8.22035 17.8757 8.16748Z" fill="#FF004F"/>
<path d="M14.6349 14.0565V8.83397C15.6846 9.5856 16.933 9.98704 18.2114 9.984V7.98696C17.4597 7.8267 16.7774 7.42319 16.264 6.8353C15.4425 6.30153 14.8756 5.45493 14.6956 4.49194H12.8135L12.8095 14.7895C12.7659 15.9428 11.8164 16.8683 10.6528 16.8683C9.95735 16.8674 9.30556 16.5326 8.90036 15.9682C8.1891 15.5953 7.74307 14.859 7.74267 14.0561C7.74386 12.8636 8.71006 11.8977 9.90343 11.8961C10.1255 11.8961 10.3388 11.9328 10.541 11.9961V9.98155C7.98333 10.0416 5.9209 12.1379 5.9209 14.7083C5.9209 15.9518 6.40419 17.0835 7.19158 17.9285C7.99114 18.4889 8.93632 18.7877 9.90343 18.7857C12.5122 18.7857 14.6349 16.6641 14.6349 14.0565Z" fill="white"/>
</svg>
