<svg data-token-name="tipalti" width="24" height="24" version="1.1" xmlns="http://www.w3.org/2000/svg" xmlns:xlink="http://www.w3.org/1999/xlink" x="0px" y="0px"
	 viewBox="0 0 652 652" style="enable-background:new 0 0 652 652;" xml:space="preserve">
<g>
	<g>
		<path d="M273.6,344.7c-0.1-1.7,0-3.4-0.3-5.1c-1.6-12.1-8.8-19.7-19.8-20.9c-7.1-0.8-13.9,0.4-20.3,3.5
			c-21.4,10.5-25.2,39.1-17.1,55.8c3.1,6.5,18.6,14.9,34.2,8.8C268.6,379.8,273.6,363.3,273.6,344.7 M205.1,393.7
			c-4,24.6-7.8,48.4-11.7,72.3h-23.2c1.8-11.2,3.5-22,5.3-32.9c5.7-35.6,11.5-71.2,17.2-106.8c0-0.2,0.1-0.3,0.1-0.5
			c1-8.7-0.7-10.9-9.6-12.3c0.8-5,1.5-10,2.5-14.9c0.1-0.7,1.4-1.6,2.3-1.6c4.6-0.4,9.3-1.1,13.9-0.6c9.9,1.2,14.6,7.4,13.8,17.4
			c-0.1,0.9-0.1,1.7-0.3,3.8c7.1-11,16.4-17,27.9-20.1c17.9-4.9,36.2,0.2,46.4,12.9c5.8,7.2,8.7,15.6,9.5,24.4
			c2.2,24.6-3.9,46.2-22.1,62.7c-14.2,12.9-31.5,16.6-50.9,11.7C217.4,407.1,210.9,401.6,205.1,393.7"/>
		<path d="M402.7,320.9c-3.7-1.3-6.3-2.3-9-3c-20.6-5.2-39.6,0.8-49.2,16c-6.9,10.8-9.3,22.9-7.6,35.8
			c1.7,12.7,9.6,19.5,22.2,19c17.2-0.7,28.8-10.2,34.1-25.5C397.8,349.8,399.6,335.3,402.7,320.9 M426.4,392.7
			c-0.7,4.7-1.3,9.3-2.3,13.8c-0.3,1.3-1.8,3.1-3,3.2c-4.8,0.4-9.7,0.7-14.4,0c-7-1.1-11-5.8-11.9-12.9c-0.4-2.6-0.3-5.3-0.4-7
			c-5.2,4.5-10.4,10.1-16.6,14.2c-10.9,7.1-23.4,8.9-36.5,5.9c-15.6-3.5-26.5-15.7-29.4-33.6c-4.7-29.1,8.2-62.5,39.1-74.6
			c24.7-9.7,49.6-7.1,74.6,3.1c3,1.2,2.6,3.2,2.2,5.3c-3.6,22-7.3,44.1-10.9,66.1c-0.4,2.4-0.8,4.9-0.9,7.3
			c-0.5,6.4,1.5,8.5,7.9,8.9C424.8,392.5,425.5,392.6,426.4,392.7"/>
		<path d="M62.2,271.4H15.3c1.3-8.1,2.5-15.7,3.8-23.5h120.1c-1.1,6.6-2.4,13.1-3.1,19.6c-0.4,3.1-1.6,4-4.7,4
			c-12.6-0.2-25.2-0.1-37.9-0.1h-5c-7.5,46-15,91.7-22.5,137.6H39.7C47.2,363.3,54.6,317.7,62.2,271.4"/>
		<path d="M527,316c-7.4-0.6-14.4-1.1-22.2-1.7c0.9-5.5,1.7-10.7,2.6-16.3h22.6c2.3-9.9,4-14.7,6-24.3
			c0.8-3.9,2.2-5.7,6.6-5.4c5.4,0.4,10.9,0.1,16.9,0.1c-1.8,11.6-2.9,17.9-4.8,29.4h38.4c-0.8,5.6-1.4,10.8-2.5,15.8
			c-0.2,1-2.6,2.1-4.1,2.1c-10.3,0.2-20.6,0.2-30.9,0c-3,0-4.3,0.7-4.7,3.9c-2.5,17.1-5.7,34-7.8,51.2c-1.7,13.9,5.5,20.8,19.4,19.8
			c6-0.4,11.8-2,18.1-3.1c-0.1,5.4-0.1,11-0.3,16.5c0,0.8-1,1.9-1.8,2.1c-11.8,3.2-23.7,5.7-36.2,3.3c-16.4-3.1-25.8-14.9-24.1-32.1
			c1.7-17.5,4.9-34.8,7.5-52.2C526.1,322.3,526.6,319.3,527,316"/>
		<path d="M494,388.5c-0.8,6.3-1.4,12-2.3,17.6c-0.2,1-1.6,2.3-2.5,2.3c-8,0.3-16.2,1.3-24.1,0.2
			c-10.8-1.4-16.8-8.5-17.7-19.8c-0.5-6.9-0.2-14,0.9-20.8c6.7-42.3,12.4-75.7,19.4-117.9c0-0.3,0.3-0.5,0.5-1h24.6
			c-1.6,9.7-3.1,19.2-4.7,28.7c-5.5,33.4-9.6,58-15.1,91.5c-0.3,2-0.4,4-0.4,6c0.2,11.2,5.1,15.4,16.1,13.9
			C490.1,389,491.7,388.8,494,388.5"/>
		<path d="M124,409.2c1.6-9.8,3.1-19,4.6-28.3c4.3-26.4,8.6-52.8,12.8-79.3c0.5-2.8,1.4-3.9,4.3-3.8
			c7,0.2,13.9,0.1,21.5,0.1c-1.9,11.5-3.6,22.4-5.4,33.3c-4,24.8-8.1,49.5-12,74.3c-0.5,2.9-1.4,3.9-4.3,3.8
			C138.4,409.1,131.5,409.2,124,409.2"/>
	</g>
	<g>
		<path d="M637.6,297.9c-2.4,14.6-4.6,28.4-6.8,42.2c-3.5,21.9-7.2,43.7-10.6,65.6c-0.4,2.7-1.4,3.6-4.1,3.5
			c-7-0.2-14-0.1-21.6-0.1c1.3-8.5,2.6-16.5,3.9-24.5c4.5-27.6,9.1-55.3,13.4-82.9c0.5-3.1,1.6-4.1,4.7-4
			C623.3,298.1,630.1,297.9,637.6,297.9"/>
		<path fill="#F04E37" d="M632,234.1c-0.1-0.1-1.4-1.4-4.2-3.5c-1.5-1.2-3-2.3-5.5-3.9c-1.9-1.2-4.2-2.5-6.6-3.8l-2.5-1.4
			c-2.3-1.2-4.6-2.3-7.1-3.5c-1.2-0.6-2.5-1.2-3.8-1.8c-2.7-1.2-5.5-2.3-8.5-3.5c-1.5-0.6-2.9-1.2-4.5-1.8
			c-10.6-3.8-21.1-7.1-31.3-9.6c-23-6.1-50.2-10.2-78.8-11.9c-10.4-0.5-20.7-0.8-30.4-0.8c-4.6,0-9.3,0.1-14,0.2l-11.3,0.5
			l-16.3,1.2c-5.7,0.5-11.5,1-17.5,1.7c-7.6,0.8-15.1,1.7-22.5,2.9c-6.7,0.9-13.8,2.1-22.2,3.7c-13.8,2.4-27,5.5-42.6,9.4
			c-11.1,3-25.5,7.1-38.9,11.8c-11.3,3.9-22.8,8.2-34,12.8c-21.2,8.8-38,17.4-49,23c-4.7,2.4-8.6,4.5-11.5,6l-6.6,3.5
			c-2,1.1-2.8,3.5-1.8,5.6c1,2,3.5,3,5.7,1.9l6.6-3.2c3-1.4,6.9-3.4,11.7-5.6c5.9-2.8,13.4-6,21.2-9.3c10-4.1,19.2-7.6,28.1-10.7
			c10.1-3.5,21.6-7.4,33.9-10.4c13.3-3.6,27.6-6.5,38.5-8.6c15.5-2.7,29.2-4.6,41.8-5.8c8.2-0.9,15.1-1.4,21.6-1.8
			c7.6-0.6,15.2-0.9,21.7-1.1c5.6-0.3,11.5-0.3,17.2-0.4L419,216l15.9,0.2c14.5,0.5,28.4,1.6,41.3,3.4c10.8,1.7,24.9,4,37.7,7.4
			c10.3,2.8,22.2,6.2,32.3,10.4c9.9,3.8,18.3,8.2,25.2,11.9c7.8,4.5,13.9,8.5,17.5,11.1l10.5,7.8c2.9,2.1,4.6,3,4.7,3.1
			c3.4,1.9,7.3,2.8,11.3,2.8c6.3,0,12.3-2.5,16.7-6.9c4.4-4.4,6.9-10.3,6.9-16.6C638.9,244.4,636.5,238.5,632,234.1"/>
	</g>
</g>
</svg>
