<svg data-token-name="tron_colored" width="32" height="32" viewBox="0 0 32 32" fill="none" xmlns="http://www.w3.org/2000/svg">
<path d="M0 16C0 7.16344 7.16344 0 16 0C24.8366 0 32 7.16344 32 16C32 24.8366 24.8366 32 16 32C7.16344 32 0 24.8366 0 16Z" fill="#EC0927"/>
<path d="M27.3804 13.4687L27.3858 13.4735L27.3914 13.4781C27.4355 13.5146 27.4662 13.559 27.4834 13.6055C27.4925 13.6299 27.4979 13.6551 27.4997 13.6803C27.4282 13.794 27.3476 13.9027 27.2586 14.0055L27.2585 14.0054L27.2507 14.0148C26.7419 14.6321 23.952 17.8633 21.2809 20.9497C19.9472 22.4908 18.6455 23.993 17.6773 25.1099L16.5128 26.453L16.1887 26.8266L16.1036 26.9248L16.0818 26.9499L16.0763 26.9562L16.0749 26.9578L16.0745 26.9582C16.0744 26.9583 16.0744 26.9584 16.4521 27.286L16.0744 26.9584L16.0675 26.9663L16.061 26.9745L16.061 26.9745L16.061 26.9745L16.0608 26.9747L16.0599 26.9758L16.0557 26.981L16.0388 27.002C16.024 27.0203 16.0024 27.0468 15.976 27.0787C15.9229 27.1428 15.8519 27.2271 15.7778 27.3103C15.7706 27.3184 15.7633 27.3265 15.7562 27.3345C15.7425 27.2974 15.7291 27.2585 15.7156 27.2187L15.7125 27.2097L15.7091 27.2009C15.171 25.7928 13.6363 22.3012 11.9948 18.5665C11.8429 18.2211 11.6902 17.8736 11.5372 17.5254C9.74887 13.455 7.92994 9.29526 7.16699 7.29458V7.21185C7.17394 7.1986 7.18238 7.18564 7.19236 7.17322C7.21223 7.17579 7.23577 7.17897 7.26319 7.18282C7.371 7.19797 7.52504 7.22149 7.72121 7.25272C8.11282 7.31505 8.66291 7.40655 9.32662 7.5191C10.6536 7.74413 12.429 8.05237 14.2865 8.37754C17.6104 8.9594 21.1944 9.59498 22.9358 9.9038C23.1221 9.93684 23.2874 9.96615 23.429 9.99124C23.507 10.021 23.5793 10.0613 23.6436 10.1104L23.6565 10.1202L23.67 10.1292L23.7163 10.16C24.2942 10.6486 24.9389 11.2368 25.5748 11.8227C25.6822 11.9216 25.7894 12.0206 25.896 12.1189C26.4246 12.6067 26.9376 13.0802 27.3804 13.4687ZM18.7484 14.0635L19.1432 14.9489L26.0208 13.7589L27.0531 13.5803L26.2649 12.8901L23.7222 10.6634L23.4096 10.3897L23.0833 10.6469L18.7484 14.0635ZM17.0672 14.6273L17.3789 14.8701L17.6872 14.623L22.2991 10.9264L23.1621 10.2347L22.0728 10.0438L9.99748 7.92712L9.6039 8.81407L17.0672 14.6273ZM17.9721 15.2619L17.5982 15.3192L17.5516 15.6947L16.4574 24.5246L16.2567 26.1442L17.3302 24.915L26.0631 14.9151L26.9628 13.8849L25.6108 14.092L17.9721 15.2619ZM9.21146 8.61041L8.43835 9.19739L15.1546 24.7905L15.8852 26.4866L16.1101 24.6536L17.2465 15.3938L17.2803 15.118L17.0641 14.9437L9.21146 8.61041Z" fill="white" stroke="white"/>
</svg>
