<svg data-token-name="tron_colored" width="24" height="24" viewBox="0 0 24 24" fill="none" xmlns="http://www.w3.org/2000/svg">
<path d="M0 12C0 5.37258 5.37258 0 12 0C18.6274 0 24 5.37258 24 12C24 18.6274 18.6274 24 12 24C5.37258 24 0 18.6274 0 12Z" fill="#EC0927"/>
<path d="M20.7824 9.82015C19.9933 9.12766 18.9016 8.07017 18.0126 7.32018L17.96 7.28518C17.8724 7.21838 17.7737 7.16599 17.668 7.13018C15.5242 6.75019 5.54712 4.97771 5.35247 5.00021C5.29793 5.00747 5.2458 5.02627 5.19991 5.05521L5.14993 5.09271C5.08839 5.15211 5.04165 5.22387 5.01315 5.30271L5 5.33521V5.51271V5.54021C6.12318 8.51267 10.558 18.25 11.4313 20.535C11.4839 20.69 11.5839 20.985 11.7706 21H11.8127C11.9127 21 12.3388 20.465 12.3388 20.465C12.3388 20.465 19.9564 11.6851 20.7271 10.7501C20.8269 10.635 20.915 10.5111 20.9902 10.3801C21.0094 10.2777 21.0003 10.1723 20.9639 10.0741C20.9275 9.97599 20.865 9.88849 20.7824 9.82015ZM14.2932 10.8426L17.5444 8.28017L19.4514 9.95015L14.2932 10.8426ZM13.0306 10.6751L7.43312 6.31519L16.4896 7.90267L13.0306 10.6751ZM13.5356 11.8176L19.2646 10.9401L12.715 18.44L13.5356 11.8176ZM6.67293 6.75019L12.5624 11.5001L11.7101 18.445L6.67293 6.75019Z" fill="white"/>
</svg>
