<svg data-token-name="twitter_colored" width="24" height="24" viewBox="0 0 24 24" fill="none" xmlns="http://www.w3.org/2000/svg">
<path d="M0 12C0 5.37258 5.37258 0 12 0C18.6274 0 24 5.37258 24 12C24 18.6274 18.6274 24 12 24C5.37258 24 0 18.6274 0 12Z" fill="#1DA1F2"/>
<path d="M9.52601 18C15.5636 18 18.8673 13.3819 18.8673 9.38386C18.8673 9.25394 18.8673 9.12402 18.8609 8.99409C19.5012 8.5689 20.0582 8.0315 20.5 7.42323C19.911 7.66535 19.2771 7.8248 18.6112 7.90157C19.2899 7.52953 19.8085 6.93307 20.0582 6.22441C19.4244 6.57283 18.7201 6.82087 17.971 6.95669C17.3691 6.36614 16.5176 6 15.5764 6C13.7645 6 12.2919 7.35827 12.2919 9.02953C12.2919 9.26575 12.3239 9.49606 12.3752 9.72047C9.64766 9.59646 7.22749 8.38583 5.60764 6.55512C5.32593 7.00394 5.16587 7.52362 5.16587 8.07874C5.16587 9.12992 5.7485 10.0571 6.62565 10.6004C6.08784 10.5827 5.58203 10.4468 5.14026 10.2224C5.14026 10.2343 5.14026 10.2461 5.14026 10.2638C5.14026 11.7283 6.27351 12.9567 7.77171 13.2343C7.4964 13.3051 7.20828 13.3406 6.90736 13.3406C6.69608 13.3406 6.4912 13.3228 6.29272 13.2874C6.70888 14.4921 7.92537 15.3661 9.35954 15.3898C8.23269 16.2047 6.81773 16.689 5.28111 16.689C5.01861 16.689 4.7561 16.6772 4.5 16.6476C5.94698 17.498 7.67567 18 9.52601 18Z" fill="white"/>
</svg>
