<svg data-token-name="universal_method_colored" width="24" height="24" viewBox="0 0 24 24" fill="none" xmlns="http://www.w3.org/2000/svg">
<rect width="24" height="24" rx="12" fill="#F3B521"/>
<path d="M9.06706 15.8211L10.5337 17.2106M10.5337 17.2106L9.06706 18.6M10.5337 17.2106H6.13372M5.40039 11.6525H8.45986C9.60532 11.6525 10.5337 10.773 10.5337 9.6878C10.5337 9.16675 10.3152 8.66654 9.92652 8.29833L8.12619 6.59275M5.40039 11.6525C5.40039 8.19134 8.34692 5.40002 12.0004 5.40002C15.6539 5.40002 18.6004 8.19148 18.6004 11.6527C18.6004 14.6359 16.4099 17.1161 13.4671 17.7462M5.40039 11.6525C5.40039 12.6529 5.65266 13.5944 6.09119 14.4316M16.6145 16.1254L15.3114 14.2739C15.0753 13.9383 14.6785 13.7369 14.2532 13.7369C13.7714 13.7369 13.3314 13.4791 13.1158 13.0706L13.0183 12.8858C12.8393 12.5468 12.8393 12.1473 13.0183 11.8083L13.8491 10.234C14.064 9.82619 14.5047 9.56845 14.9865 9.56845H18.2191" stroke="white" fill="none" stroke-linecap="round" stroke-linejoin="round"/>
</svg>
