<svg data-token-name="usd_coin_colored" width="24" height="24" viewBox="0 0 24 24" fill="none" xmlns="http://www.w3.org/2000/svg">
<rect width="24" height="24" rx="12" fill="#2775CA"/>
<path d="M15.2996 13.8999C15.2996 12.15 14.2496 11.55 12.1496 11.3C10.6496 11.1 10.3496 10.7 10.3496 9.99995C10.3496 9.29987 10.8496 8.84999 11.8496 8.84999C12.7496 8.84999 13.2496 9.14999 13.4996 9.89999C13.5496 10.05 13.6996 10.1499 13.8496 10.1499H14.6495C14.8496 10.1499 14.9996 9.99995 14.9996 9.80002V9.74999C14.7995 8.64995 13.8995 7.79999 12.7496 7.70003V6.50003C12.7496 6.29999 12.5996 6.14999 12.3496 6.09995H11.5996C11.3996 6.09995 11.2496 6.24995 11.1995 6.50003V7.64999C9.69953 7.85003 8.74961 8.84999 8.74961 10.1C8.74961 11.75 9.74957 12.3999 11.8496 12.65C13.2496 12.9 13.6996 13.2 13.6996 14C13.6996 14.8001 12.9995 15.35 12.0496 15.35C10.7495 15.35 10.2995 14.7999 10.1495 14.0499C10.0996 13.85 9.94961 13.7499 9.79961 13.7499H8.94953C8.74961 13.7499 8.59961 13.8999 8.59961 14.1V14.15C8.79953 15.3999 9.59957 16.2999 11.2496 16.55V17.75C11.2496 17.9499 11.3996 18.0999 11.6495 18.15H12.3995C12.5996 18.15 12.7496 18 12.7996 17.75V16.55C14.2996 16.2999 15.2996 15.2499 15.2996 13.8999Z" fill="white"/>
<path d="M9.45 19.15C5.55 17.75 3.54996 13.4 5.00004 9.54995C5.75004 7.44995 7.40004 5.84999 9.45 5.09999C9.65004 5.00003 9.75 4.85003 9.75 4.59995V3.89999C9.75 3.69995 9.65004 3.54995 9.45 3.50003C9.39996 3.50003 9.3 3.50003 9.24996 3.54995C4.5 5.04995 1.89996 10.1 3.39996 14.85C4.29996 17.65 6.45 19.8 9.24996 20.7C9.45 20.7999 9.65004 20.7 9.69996 20.5C9.75 20.45 9.75 20.4 9.75 20.3V19.5999C9.75 19.4499 9.6 19.25 9.45 19.15ZM14.75 3.54995C14.55 3.44999 14.35 3.54995 14.3 3.74999C14.25 3.80003 14.25 3.84995 14.25 3.95003V4.64999C14.25 4.85003 14.4 5.04995 14.55 5.15003C18.45 6.54995 20.45 10.9 19 14.75C18.25 16.85 16.6 18.45 14.55 19.2C14.35 19.3 14.25 19.45 14.25 19.7V20.4C14.25 20.6 14.35 20.75 14.55 20.7999C14.6 20.7999 14.7 20.8 14.75 20.75C19.5 19.25 22.1 14.2 20.6 9.44999C19.7 6.59999 17.5 4.44995 14.75 3.54995Z" fill="white"/>
</svg>
