<svg data-token-name="user_copy" width="24" height="24" viewBox="0 0 24 24" fill="none" xmlns="http://www.w3.org/2000/svg">
<path d="M5.96235 4C3.69711 4.4902 2 6.5058 2 8.91778V16.9684C2 19.7473 4.2527 22 7.03155 22H15.082C17.4944 22 19.5102 20.3023 20 18.0365M18.6664 15.8143C18.5209 15.4488 18.2953 15.1199 18.0065 14.8522C17.5187 14.3988 16.8799 14.1478 16.2132 14.1478C15.1022 14.1478 12.2312 14.1478 11.1202 14.1478C10.4536 14.1478 9.81582 14.4 9.32696 14.8522C9.03808 15.1199 8.81254 15.4488 8.66699 15.8143M15.631 6.6286C16.7154 7.71298 16.7154 9.47177 15.631 10.5573C14.5467 11.6417 12.7879 11.6417 11.7024 10.5573C10.6169 9.47288 10.618 7.71409 11.7024 6.6286C12.7868 5.54311 14.5455 5.54422 15.631 6.6286ZM9.72222 2H17.2778C19.8858 2 22 4.11421 22 6.72222V14.2778C22 16.8858 19.8858 19 17.2778 19H9.72222C7.11421 19 5 16.8858 5 14.2778V6.72222C5 4.11421 7.11421 2 9.72222 2Z" stroke="currentColor" fill="none" stroke-linecap="round" stroke-linejoin="round"/>
</svg>
