<svg data-token-name="user-request" width="20" height="20" viewBox="0 0 20 20" fill="none" xmlns="http://www.w3.org/2000/svg">
<path d="M17.5 14.1667V15.8333C17.5 16.2754 17.3244 16.6993 17.0118 17.0118C16.6993 17.3244 16.2754 17.5 15.8333 17.5H14.1667M2.5 7.5V4.16667C2.5 3.72464 2.67559 3.30072 2.98816 2.98816C3.30072 2.67559 3.72464 2.5 4.16667 2.5H5.83333M8.33333 6.66667V4.16667C8.33333 3.72464 8.50893 3.30072 8.82149 2.98816C9.13405 2.67559 9.55797 2.5 10 2.5H15.8333C16.2754 2.5 16.6993 2.67559 17.0118 2.98816C17.3244 3.30072 17.5 3.72464 17.5 4.16667V10C17.5 10.442 17.3244 10.866 17.0118 11.1785C16.6993 11.4911 16.2754 11.6667 15.8333 11.6667H11.6667M10.8333 5.83334H15M11.6667 8.33334H15M10.8333 17.5C10.8333 16.9475 10.6138 16.4176 10.2231 16.0269C9.83244 15.6362 9.30253 15.4167 8.75 15.4167H4.58333C4.0308 15.4167 3.50089 15.6362 3.11019 16.0269C2.71949 16.4176 2.5 16.9475 2.5 17.5M8.75 11.25C8.75 12.4006 7.81726 13.3333 6.66667 13.3333C5.51607 13.3333 4.58333 12.4006 4.58333 11.25C4.58333 10.0994 5.51607 9.16667 6.66667 9.16667C7.81726 9.16667 8.75 10.0994 8.75 11.25Z" stroke="currentColor" stroke-linecap="round" stroke-linejoin="round"/>
</svg>
