<svg data-token-name="user" width="24" height="24" viewBox="0 0 24 24" fill="none" xmlns="http://www.w3.org/2000/svg">
<path d="M19.245 19.804C18.8609 18.8384 17.8867 17.4783 17.0266 16.895C16.1666 16.3116 15.1512 15.9999 14.112 16H9.888C8.56875 15.9998 7.29898 16.5022 6.337 17.405C5.6023 18.0941 5.19719 18.9492 4.82356 19.8616M12 6.75C13.6569 6.75 15 8.09315 15 9.75V10.25C15 11.9069 13.6569 13.25 12 13.25C10.3431 13.25 9 11.9069 9 10.25V9.75C9 8.09315 10.3431 6.75 12 6.75ZM8 3H16C18.7614 3 21 5.23858 21 8V16C21 18.7614 18.7614 21 16 21H8C5.23858 21 3 18.7614 3 16V8C3 5.23858 5.23858 3 8 3Z" stroke="#202427" stroke-width="1.5" stroke-linecap="round" stroke-linejoin="round"/>
</svg>
