<svg data-token-name="user_edit" width="24" height="24" viewBox="0 0 24 24" fill="none" xmlns="http://www.w3.org/2000/svg">
<path d="M10 15H7C5.93913 15 4.92172 15.4214 4.17157 16.1716C3.42143 16.9217 3 17.9391 3 19V20M20 21H14M14.2929 15.3344L17.3344 12.2929C17.4273 12.2 17.5375 12.1264 17.6588 12.0761C17.7802 12.0259 17.9102 12 18.0415 12C18.1728 12 18.3029 12.0259 18.4242 12.0761C18.5455 12.1264 18.6558 12.2 18.7486 12.2929L19.7071 13.2514C19.8947 13.4389 20 13.6933 20 13.9585C20 14.2237 19.8947 14.4781 19.7071 14.6656L16.6656 17.7071C16.5727 17.8 16.4625 17.8736 16.3412 17.9239C16.2198 17.9741 16.0898 18 15.9585 18H14.5C14.3674 18 14.2402 17.9473 14.1464 17.8536C14.0527 17.7598 14 17.6326 14 17.5V16.0415C14 15.7763 14.1054 15.5219 14.2929 15.3344ZM15 7C15 9.20914 13.2091 11 11 11C8.79086 11 7 9.20914 7 7C7 4.79086 8.79086 3 11 3C13.2091 3 15 4.79086 15 7Z" stroke="#202427" stroke-width="1.5" stroke-linecap="round" stroke-linejoin="round"/>
</svg>
