<svg data-token-name="user_square_close" width="24" height="24" viewBox="0 0 24 24" fill="none" xmlns="http://www.w3.org/2000/svg">
<path d="M23 7.5L17 1.5M7.5 16C7.69423 15.5544 8.01424 15.1751 8.42081 14.9087C8.82738 14.6423 9.30285 14.5002 9.78894 14.5H14.2111C14.6972 14.5002 15.1726 14.6423 15.5792 14.9087C15.9858 15.1751 16.3058 15.5544 16.5 16M23 1.5L17 7.5M21 11V15C21 16.5913 20.3679 18.1174 19.2426 19.2426C18.1174 20.3679 16.5913 21 15 21H9C7.4087 21 5.88258 20.3679 4.75736 19.2426C3.63214 18.1174 3 16.5913 3 15V9C3 7.4087 3.63214 5.88258 4.75736 4.75736C5.88258 3.63214 7.4087 3 9 3H13M14.5 9.5C14.5 10.8807 13.3807 12 12 12C10.6193 12 9.5 10.8807 9.5 9.5C9.5 8.11929 10.6193 7 12 7C13.3807 7 14.5 8.11929 14.5 9.5Z" stroke="currentColor" fill="none" stroke-linecap="round" stroke-linejoin="round"/>
</svg>
