<svg data-token-name="user_copy" viewBox="0 0 20 20" fill="none" xmlns="http://www.w3.org/2000/svg">
<path d="M15 12.8617C14.8908 12.5875 14.7217 12.3408 14.505 12.14C14.1392 11.8 13.66 11.6117 13.16 11.6117C12.3267 11.6117 10.1733 11.6117 9.34 11.6117C8.84 11.6117 8.36167 11.8008 7.995 12.14C7.77833 12.3408 7.60917 12.5875 7.5 12.8617M15 15V16.1108C15 16.8783 14.3783 17.5 13.6108 17.5H3.88917C3.12167 17.5 2.5 16.8783 2.5 16.1108V6.38917C2.5 5.62167 3.12167 5 3.88917 5H5M16.1108 15H6.38917C5.62167 15 5 14.3783 5 13.6108V3.88917C5 3.12167 5.62167 2.5 6.38917 2.5H16.1117C16.8783 2.5 17.5 3.12167 17.5 3.88917V13.6117C17.5 14.3783 16.8783 15 16.1108 15ZM12.7236 5.97167C13.537 6.785 13.537 8.10417 12.7236 8.91833C11.9103 9.73167 10.5911 9.73167 9.77698 8.91833C8.96281 8.105 8.96365 6.78583 9.77698 5.97167C10.5903 5.1575 11.9095 5.15833 12.7236 5.97167Z" stroke="currentColor" fill="none" stroke-linecap="round" stroke-linejoin="round"/>
</svg>
