<svg data-token-name="user_request" width="24" height="24" viewBox="0 0 24 24" fill="none" xmlns="http://www.w3.org/2000/svg">
<path d="M21 17V19C21 19.5304 20.7893 20.0391 20.4142 20.4142C20.0391 20.7893 19.5304 21 19 21H17M3 9V5C3 4.46957 3.21071 3.96086 3.58579 3.58579C3.96086 3.21071 4.46957 3 5 3H7M10 8V5C10 4.46957 10.2107 3.96086 10.5858 3.58579C10.9609 3.21071 11.4696 3 12 3H19C19.5304 3 20.0391 3.21071 20.4142 3.58579C20.7893 3.96086 21 4.46957 21 5V12C21 12.5304 20.7893 13.0391 20.4142 13.4142C20.0391 13.7893 19.5304 14 19 14H14M13 7.00001H18M14 10H18M13 21C13 20.337 12.7366 19.7011 12.2678 19.2322C11.7989 18.7634 11.163 18.5 10.5 18.5H5.5C4.83696 18.5 4.20107 18.7634 3.73223 19.2322C3.26339 19.7011 3 20.337 3 21M10.5 13.5C10.5 14.8807 9.38071 16 8 16C6.61929 16 5.5 14.8807 5.5 13.5C5.5 12.1193 6.61929 11 8 11C9.38071 11 10.5 12.1193 10.5 13.5Z" stroke="currentColor" fill="none" stroke-linecap="round" stroke-linejoin="round"/>
</svg>
