<svg data-token-name="viber_colored" width="24" height="24" viewBox="0 0 24 24" fill="none" xmlns="http://www.w3.org/2000/svg">
<path d="M0 12C0 5.37258 5.37258 0 12 0C18.6274 0 24 5.37258 24 12C24 18.6274 18.6274 24 12 24C5.37258 24 0 18.6274 0 12Z" fill="#7360F2"/>
<path d="M17.4191 6.46346C17.053 6.12133 15.5711 5.02593 12.2677 5.01093C12.2677 5.01093 8.37382 4.77084 6.47561 6.54149C5.41875 7.61588 5.04678 9.18545 5.00841 11.1362C4.97003 13.0839 4.91984 16.7362 8.38268 17.7266H8.38563L8.38268 19.2361C8.38268 19.2361 8.36201 19.8484 8.75759 19.9714C9.23584 20.1215 9.51924 19.6563 9.97682 19.1551C10.2277 18.879 10.5731 18.4769 10.8359 18.1677C13.2035 18.3688 15.0249 17.9066 15.2316 17.8376C15.7098 17.6786 18.4169 17.3274 18.8568 13.6751C19.3114 9.91772 18.6354 7.53785 17.4191 6.46346ZM17.8206 13.411C17.4486 16.4601 15.2552 16.6522 14.8508 16.7842C14.6795 16.8413 13.0795 17.2464 11.0661 17.1114C11.0661 17.1114 9.56647 18.951 9.10004 19.4282C9.02624 19.5032 8.94062 19.5332 8.88453 19.5182C8.80483 19.4972 8.78121 19.4012 8.78416 19.2601C8.78416 19.0561 8.79597 16.7482 8.79597 16.7482C8.79302 16.7482 8.79302 16.7482 8.79597 16.7482C5.86452 15.9229 6.03574 12.8138 6.06822 11.1872C6.10069 9.56059 6.40181 8.2251 7.2963 7.32777C8.8993 5.85123 12.2086 6.07031 12.2086 6.07031C15.0013 6.08232 16.3386 6.93763 16.6486 7.22274C17.6789 8.12306 18.2044 10.2688 17.8206 13.411Z" fill="white"/>
<path d="M13.6284 11.2442C13.5309 11.2442 13.4483 11.1662 13.4424 11.0641C13.4099 10.4189 13.1117 10.1038 12.5036 10.0708C12.4003 10.0648 12.3206 9.97475 12.3265 9.86971C12.3324 9.76467 12.4209 9.68364 12.5243 9.68964C13.3272 9.73466 13.776 10.2028 13.8173 11.0431C13.8232 11.1482 13.7435 11.2382 13.6402 11.2412C13.6343 11.2442 13.6313 11.2442 13.6284 11.2442Z" fill="white"/>
<path d="M14.5854 11.5684H14.5825C14.4792 11.5654 14.3965 11.4784 14.3995 11.3733C14.4142 10.7251 14.2312 10.1999 13.8415 9.76774C13.4548 9.33558 12.9204 9.1015 12.2149 9.05048C12.1116 9.04148 12.0348 8.95144 12.0437 8.8464C12.0525 8.74137 12.1411 8.66334 12.2444 8.67234C13.0415 8.73236 13.6703 9.01446 14.119 9.51265C14.5707 10.0138 14.7891 10.6411 14.7744 11.3823C14.7714 11.4874 14.6858 11.5684 14.5854 11.5684Z" fill="white"/>
<path d="M15.5654 11.9584C15.4621 11.9584 15.3794 11.8744 15.3794 11.7694C15.3706 10.608 15.0429 9.72263 14.3757 9.05939C13.7174 8.40515 12.8819 8.07203 11.8989 8.06302C11.7955 8.06302 11.7129 7.97599 11.7129 7.87095C11.7129 7.76592 11.7985 7.68188 11.8989 7.68188C12.9823 7.69089 13.9034 8.06002 14.6325 8.78629C15.3647 9.51255 15.7396 10.5149 15.7514 11.7634C15.7543 11.8714 15.6717 11.9584 15.5654 11.9584C15.5684 11.9584 15.5684 11.9584 15.5654 11.9584Z" fill="white"/>
<path d="M12.5476 13.594C12.5476 13.594 12.8103 13.618 12.952 13.441L13.2266 13.0898C13.3594 12.9158 13.6812 12.8047 13.9941 12.9818C14.1683 13.0808 14.4842 13.2789 14.679 13.426C14.8886 13.582 15.3137 13.9422 15.3167 13.9452C15.5204 14.1192 15.5676 14.3743 15.4289 14.6474C15.4289 14.6474 15.4289 14.6504 15.4289 14.6534C15.2872 14.9085 15.0953 15.1486 14.8562 15.3707C14.8532 15.3707 14.8532 15.3737 14.8503 15.3737C14.6525 15.5417 14.4576 15.6378 14.2687 15.6588C14.2451 15.6648 14.2185 15.6648 14.1831 15.6648C14.1004 15.6648 14.0178 15.6528 13.9351 15.6258L13.9292 15.6168C13.634 15.5327 13.1439 15.3227 12.3291 14.8635C11.7978 14.5664 11.3579 14.2633 10.983 13.9602C10.7852 13.8011 10.5844 13.624 10.3778 13.414C10.3719 13.408 10.363 13.399 10.3571 13.393C10.3512 13.387 10.3424 13.3779 10.3365 13.3719C10.3306 13.3659 10.3217 13.3569 10.3158 13.3509C10.3099 13.3449 10.301 13.3359 10.2951 13.3299C10.0914 13.1199 9.91432 12.9158 9.75786 12.7147C9.45969 12.3366 9.16153 11.8864 8.86927 11.3462C8.4176 10.5149 8.21095 10.0167 8.12829 9.71961L8.11943 9.71361C8.09286 9.62958 8.08105 9.54555 8.08105 9.46152C8.08105 9.4255 8.08105 9.3985 8.08696 9.37449C8.11058 9.17941 8.20504 8.98434 8.36741 8.78327C8.36741 8.78027 8.37036 8.78027 8.37036 8.77727C8.58882 8.53118 8.82499 8.33911 9.07592 8.19505C9.07592 8.19505 9.07887 8.19505 9.08182 8.19505C9.34751 8.054 9.59844 8.10202 9.77262 8.3091C9.77262 8.3091 10.1298 8.74426 10.2833 8.95733C10.428 9.15841 10.6228 9.47652 10.7202 9.65359C10.8944 9.9717 10.7852 10.2988 10.614 10.4339L10.2686 10.713C10.0944 10.857 10.118 11.1241 10.118 11.1241C10.118 11.1241 10.6287 13.0988 12.5476 13.594Z" fill="white"/>
</svg>
