<?xml version="1.0" encoding="utf-8"?>
<!-- Generator: Adobe Illustrator 23.1.0, SVG Export Plug-In . SVG Version: 6.00 Build 0)  -->
<svg version="1.1" id="Layer_1" xmlns="http://www.w3.org/2000/svg" xmlns:xlink="http://www.w3.org/1999/xlink" x="0px" y="0px"
	 viewBox="0 0 24 24" style="enable-background:new 0 0 24 24;" xml:space="preserve">
<style type="text/css">
	.st0{fill:none;}
</style>
<path class="st0" d="M0,0h24v24H0V0z"/>
<g>
	<g>
		<path d="M17.2,1.6H6.8c-2.9,0-5.2,2.3-5.2,5.2v10.4c0,2.9,2.3,5.2,5.2,5.2h10.4c2.9,0,5.2-2.3,5.2-5.2V6.8
			C22.4,3.9,20.1,1.6,17.2,1.6z M11.4,5.9c0-0.5,0.5-0.3,0.8-0.4c3.1,0.1,5.8,2.9,5.7,5.9c0,0.3,0.1,0.7-0.3,0.7
			c-0.4,0-0.3-0.4-0.4-0.7c-0.4-3.2-1.9-4.7-5.1-5.2C11.8,6.2,11.4,6.2,11.4,5.9z M16.1,11.5c-0.5,0.1-0.4-0.4-0.4-0.6
			c-0.3-1.9-1-2.7-3-3.1c-0.3-0.1-0.8,0-0.7-0.5c0.1-0.4,0.5-0.3,0.8-0.2c2,0.2,3.6,1.9,3.6,3.8C16.3,11.1,16.4,11.5,16.1,11.5z
			 M14.8,10.5c0,0.3,0,0.5-0.3,0.5c-0.2,0-0.3-0.1-0.4-0.4c-0.1-0.8-0.5-1.3-1.3-1.4c-0.2,0-0.5-0.1-0.4-0.4
			c0.1-0.2,0.3-0.2,0.5-0.2C13.8,8.6,14.8,9.6,14.8,10.5z M18,16.6c-0.3,0.9-1.5,1.9-2.5,1.9c-0.1,0-0.4-0.1-0.7-0.2
			c-4.4-1.9-7.6-4.9-9.5-9.3c-0.6-1.5,0-2.7,1.6-3.2c0.3-0.1,0.5-0.1,0.8,0C8.4,6,10,8.3,10.1,8.9c0,0.5-0.3,0.8-0.7,1
			c-0.7,0.4-0.7,1-0.4,1.7c0.6,1.4,1.7,2.4,3.2,3c0.5,0.2,1,0.2,1.4-0.3c0.6-0.9,1.4-0.9,2.2-0.3c0.4,0.3,0.9,0.6,1.3,0.9
			C17.6,15.3,18.3,15.7,18,16.6z"/>
	</g>
</g>
</svg>
