<svg version="1.1" xmlns="http://www.w3.org/2000/svg" viewBox="0 0 612 234.396">
	<g>
		<path fill="#939799" d="M1.859,75.268c-2.016-3.736,0.574-7.767,4.892-7.767h32.212c2.016,0,4.313,1.443,5.178,3.172l16.97,39.108 c0.287,0,0.574,0,0.864,0l18.118-39.108c1.729-3.458,3.739-3.172,7.766-3.172h29.051c4.318,0,6.907,4.032,4.89,7.767L67.154,182.559 c-0.865,1.433-3.167,2.873-4.892,2.873h-1.437c-1.729,0-4.026-1.44-4.892-2.873L1.859,75.268z" />
		<path fill="#939799" d="M138.769,72.964c0-3.161,2.589-5.463,5.463-5.463h31.64c2.875,0,5.463,2.304,5.463,5.463v104.129 c0,2.872-2.589,5.463-5.463,5.463h-31.64c-2.876,0-5.463-2.589-5.463-5.463V72.964z" />
		<path fill="#939799" d="M180.617,21.25L140.073,2.324c-0.784-0.353-1.566,0.123-1.566,1.032v38.318c0,0.896,0.784,1.383,1.566,1.02 l40.544-18.793c0.356-0.188,0.66-0.552,0.66-1.031V22.27C181.276,21.782,180.973,21.429,180.617,21.25z" />
		<path fill="#939799" d="M261.296,64.624c9.778,0,20.424,3.451,23.873,5.463V7.67c0-2.885,2.589-5.463,5.464-5.463h31.93 c2.876,0,5.463,2.58,5.463,5.463v169.423c0,2.872-2.589,5.463-5.463,5.463h-13.521c-2.874,0-4.887-2.591-6.037-5.752l-3.454-9.496 c0,0-13.232,18.121-38.541,18.121c-32.503,0-56.956-27.33-56.956-60.407C204.054,84.468,230.52,64.624,261.296,64.624z M266.76,148.328c13.23,0,23.012-10.356,23.012-23.586c0-12.942-9.781-23.005-23.012-23.005c-13.231,0-23.299,10.062-23.299,23.005 C243.461,137.973,253.529,148.328,266.76,148.328z" />
		<path fill="#939799" d="M357.647,7.67c0-2.885,2.589-5.463,5.463-5.463h34.518c2.876,0,5.464,2.58,5.464,5.463v169.423 c0,2.872-2.589,5.463-5.464,5.463H363.11c-2.872,0-5.463-2.591-5.463-5.463V7.67z" />
		<path fill="#939799" d="M563.075,174.506c28.403-17.294,47.762-47.759,47.762-81.314C610.837,41.563,569.531,0,517.902,0 s-92.668,41.563-92.668,93.191c0,51.629,41.039,92.671,92.668,92.671c1.348,0,3.406,0,5.647-0.104l27.417,46.047 c0.781,1.301,2.072,2.591,4.134,2.591h37.148c4.134,0,6.191-4.13,4.134-7.747L563.075,174.506z M469.193,93.181 c0-26.928,22.031-49.208,48.718-49.208c26.93,0,48.964,22.279,48.964,49.208c0,26.683-22.034,48.722-48.964,48.722 C491.225,141.899,469.193,119.863,469.193,93.181z" />
	</g>
</svg>
