<svg data-token-name="vidiq_circle" width="24" height="24" viewBox="0 0 24 24" fill="none" xmlns="http://www.w3.org/2000/svg">
<path d="M0 12C0 5.37258 5.37258 0 12 0C18.6274 0 24 5.37258 24 12C24 18.6274 18.6274 24 12 24C5.37258 24 0 18.6274 0 12Z" fill="#549DD2"/>
<path fill-rule="evenodd" clip-rule="evenodd" d="M1.52398 10.7116C1.45447 10.5777 1.54377 10.4332 1.69268 10.4332H2.8036C2.87316 10.4332 2.95241 10.4849 2.98219 10.5469L3.56751 11.9485H3.59729L4.22213 10.5469C4.28175 10.423 4.3511 10.4332 4.48996 10.4332H5.49191C5.64082 10.4332 5.73012 10.5777 5.66055 10.7116L3.77588 14.5565C3.74604 14.6079 3.66664 14.6595 3.60719 14.6595H3.55762C3.49795 14.6595 3.41871 14.6079 3.38893 14.5565L1.52398 10.7116ZM6.24571 10.629C6.24571 10.5157 6.33495 10.4332 6.43419 10.4332H7.52533C7.62446 10.4332 7.71381 10.5157 7.71381 10.629V14.3608C7.71381 14.4637 7.62446 14.5565 7.52533 14.5565H6.43419C6.33495 14.5565 6.24571 14.4637 6.24571 14.3608V10.629ZM10.6599 13.3299C10.2036 13.3299 9.85632 12.9587 9.85632 12.4846C9.85632 12.0207 10.2036 11.6602 10.6599 11.6602C11.1162 11.6602 11.4535 12.0207 11.4535 12.4846C11.4535 12.9587 11.1162 13.3299 10.6599 13.3299ZM10.4714 10.3301C10.8087 10.3301 11.1758 10.4538 11.2947 10.5259V8.28911C11.2947 8.18572 11.384 8.09326 11.4832 8.09326H12.5844C12.6835 8.09326 12.7729 8.18572 12.7729 8.28911V14.3607C12.7729 14.4637 12.6835 14.5565 12.5844 14.5565H12.1181C12.0189 14.5565 11.9496 14.4637 11.9099 14.3504L11.7908 14.0101C11.7908 14.0101 11.3344 14.6595 10.4615 14.6595C9.34056 14.6595 8.49725 13.6801 8.49725 12.4948C8.49725 11.0413 9.41002 10.3301 10.4714 10.3301Z" fill="white"/>
<path fill-rule="evenodd" clip-rule="evenodd" d="M7.66327 8.76145C7.67554 8.76788 7.68602 8.78052 7.68602 8.79806V8.8196C7.68602 8.8367 7.67554 8.84973 7.66327 8.85649L6.265 9.52996C6.23797 9.54304 6.21094 9.52551 6.21094 9.49341V8.12019C6.21094 8.08759 6.23797 8.07055 6.265 8.08319L7.66327 8.76145ZM17.6156 11.3392C17.6156 10.3742 18.3754 9.57577 19.2958 9.57577C20.2245 9.57577 20.9844 10.3742 20.9844 11.3392C20.9844 12.2955 20.2245 13.0852 19.2958 13.0852C18.3754 13.0852 17.6156 12.2955 17.6156 11.3392ZM20.8535 14.2537L22.0021 16.1224C22.0731 16.2519 22.0021 16.4 21.8595 16.4H20.5784C20.5072 16.4 20.4626 16.3537 20.4358 16.3073L19.4903 14.6569C19.413 14.6607 19.342 14.6607 19.2955 14.6607C17.515 14.6607 16.0996 13.1899 16.0996 11.3397C16.0996 9.48953 17.515 8 19.2955 8C21.0761 8 22.5006 9.48953 22.5006 11.3397C22.5006 12.5423 21.833 13.6339 20.8535 14.2537ZM13.7687 8.27484C13.7687 8.17145 13.8579 8.07899 13.9571 8.07899H15.1475C15.2466 8.07899 15.3359 8.17145 15.3359 8.27484V14.3465C15.3359 14.4494 15.2466 14.5424 15.1475 14.5424H13.9571C13.8579 14.5424 13.7687 14.4494 13.7687 14.3465V8.27484Z" fill="white"/>
</svg>
