<svg data-token-name="visibility" width="24" height="24" viewBox="0 0 24 24" fill="none" xmlns="http://www.w3.org/2000/svg">
<path d="M11.9987 6.00107C8.41551 5.94063 4.70969 8.44466 2.37988 11.0091C2.13533 11.2806 2 11.6331 2 11.9985C2 12.3639 2.13533 12.7163 2.37988 12.9878C4.65902 15.4981 8.35418 18.0599 11.9987 17.9986C15.6432 18.0599 19.3392 15.4981 21.6201 12.9878C21.8647 12.7163 22 12.3639 22 11.9985C22 11.6331 21.8647 11.2806 21.6201 11.0091C19.2876 8.44466 15.5818 5.94063 11.9987 6.00107Z" stroke="black" stroke-width="1.33335" stroke-linecap="round" stroke-linejoin="round"/>
<path d="M15 12.0008C14.9998 12.5941 14.8238 13.174 14.494 13.6673C14.1643 14.1605 13.6957 14.5449 13.1475 14.7719C12.5993 14.9988 11.9961 15.0581 11.4142 14.9423C10.8323 14.8264 10.2979 14.5406 9.8784 14.121C9.45892 13.7014 9.17328 13.1669 9.05759 12.585C8.9419 12.0031 9.00135 11.3999 9.22844 10.8518C9.45553 10.3036 9.84004 9.83514 10.3334 9.50554C10.8267 9.17593 11.4067 9 12 9C12.3941 8.99989 12.7843 9.07745 13.1484 9.22822C13.5124 9.379 13.8432 9.60005 14.1218 9.87873C14.4004 10.1574 14.6214 10.4883 14.7721 10.8524C14.9228 11.2165 15.0002 11.6067 15 12.0008Z" stroke="black" stroke-width="1.4" stroke-linecap="round" stroke-linejoin="round"/>
</svg>
