<svg data-token-name="visibility" width="24" height="24" viewBox="0 0 24 24" fill="none" xmlns="http://www.w3.org/2000/svg">
<path d="M2.37988 11.0091C4.70969 8.44466 8.41551 5.94063 11.9987 6.00107C15.5818 5.94063 19.2876 8.44466 21.6201 11.0091C21.8647 11.2806 22 11.6331 22 11.9985C22 12.3639 21.8647 12.7163 21.6201 12.9878C19.3392 15.4981 15.6432 18.0599 11.9987 17.9986C8.35418 18.0599 4.65902 15.4981 2.37988 12.9878C2.13533 12.7163 2 12.3639 2 11.9985C2 11.6331 2.13533 11.2806 2.37988 11.0091Z" stroke="currentColor" fill="none" stroke-linecap="round" stroke-linejoin="round"/>
<path d="M14.494 13.6673C14.8238 13.174 14.9998 12.5941 15 12.0008C15.0002 11.6067 14.9228 11.2165 14.7721 10.8524C14.6214 10.4883 14.4004 10.1574 14.1218 9.87873C13.8432 9.60005 13.5124 9.379 13.1484 9.22822C12.7843 9.07745 12.3941 8.99989 12 9C11.4067 9 10.8267 9.17593 10.3334 9.50554C9.84004 9.83514 9.45553 10.3036 9.22844 10.8518C9.00135 11.3999 8.9419 12.0031 9.05759 12.585C9.17328 13.1669 9.45892 13.7014 9.8784 14.121C10.2979 14.5406 10.8323 14.8264 11.4142 14.9423C11.9961 15.0581 12.5993 14.9988 13.1475 14.7719C13.6957 14.5449 14.1643 14.1605 14.494 13.6673Z" stroke="currentColor" fill="none" stroke-linecap="round" stroke-linejoin="round"/>
</svg>
