<svg data-token-name="visibility_off" width="24" height="24" viewBox="0 0 24 24" fill="none" xmlns="http://www.w3.org/2000/svg">
<path d="M5 19L19 5" stroke="currentColor" fill="none"  stroke-width="1.5" stroke-linecap="round" stroke-linejoin="round"/>
<path d="M9.2998 17.6019C10.1734 17.8732 11.0837 18.0079 11.9985 18.001C15.6429 18.0624 19.3389 15.5006 21.6198 12.9904C21.8644 12.7189 21.9997 12.3664 21.9997 12.001C21.9997 11.6356 21.8644 11.2832 21.6198 11.0117C20.7935 10.1052 19.8781 9.2842 18.8874 8.56104" stroke="currentColor" fill="none"  stroke-width="1.5" stroke-linecap="round" stroke-linejoin="round"/>
<path d="M14.1434 6.25171C13.4421 6.07717 12.7213 5.99294 11.9985 6.00104C8.41543 5.94149 4.70966 8.44726 2.37988 11.0099C2.13533 11.2814 2 11.6339 2 11.9993C2 12.3647 2.13533 12.7171 2.37988 12.9886C3.08826 13.7641 3.86142 14.4778 4.69099 15.1219" stroke="currentColor" fill="none"  stroke-width="1.5" stroke-linecap="round" stroke-linejoin="round"/>
<path d="M9 12C8.99989 11.606 9.07742 11.2158 9.22815 10.8518C9.37887 10.4878 9.59985 10.157 9.87845 9.87845C10.157 9.59985 10.4878 9.37887 10.8518 9.22815C11.2158 9.07742 11.606 8.99989 12 9" stroke="currentColor" fill="none"  stroke-width="1.5" stroke-linecap="round" stroke-linejoin="round"/>
<path d="M15 12C15.0001 12.3939 14.9226 12.784 14.7719 13.148C14.6212 13.512 14.4002 13.8427 14.1216 14.1213C13.843 14.3999 13.5123 14.6208 13.1482 14.7716C12.7842 14.9224 12.394 15 12 15" stroke="currentColor" fill="none"  stroke-width="1.5" stroke-linecap="round" stroke-linejoin="round"/>
</svg>
