<svg data-token-name="vkontakte" xmlns="http://www.w3.org/2000/svg" width="28" height="28" viewBox="0 0 28 28"><defs><clipPath id="a"><rect width="28" height="28" transform="translate(4.116 4.116)"/></clipPath></defs><g transform="translate(-4.116 -4.116)"><g transform="translate(4 10.06)"><path d="M26.1,20.392c-.033-.067-.062-.124-.091-.172A13.612,13.612,0,0,0,23.4,17.2l-.029-.029-.014-.014-.014-.014h-.014a15.033,15.033,0,0,1-1.105-1.12,1.053,1.053,0,0,1-.191-1.105,10.428,10.428,0,0,1,1.23-1.789q.56-.725.89-1.163Q26.516,8.822,26.2,7.952l-.081-.134a.787.787,0,0,0-.421-.225,2.142,2.142,0,0,0-.876-.033l-3.933.029a.525.525,0,0,0-.273,0l-.177.043-.067.033-.053.043a.585.585,0,0,0-.148.144.887.887,0,0,0-.134.239,22.225,22.225,0,0,1-1.464,3.072c-.335.565-.646,1.053-.928,1.469a6.933,6.933,0,0,1-.708.914,4.28,4.28,0,0,1-.522.469c-.153.12-.273.167-.354.148s-.158-.038-.234-.053a.864.864,0,0,1-.306-.335,1.58,1.58,0,0,1-.158-.531,5.441,5.441,0,0,1-.048-.555c0-.153,0-.373,0-.656s.014-.474.014-.574c0-.344,0-.722.019-1.129s.024-.727.033-.962.014-.488.014-.751A3.058,3.058,0,0,0,15.356,8a2.321,2.321,0,0,0-.144-.435.759.759,0,0,0-.282-.33,1.7,1.7,0,0,0-.459-.187,9.047,9.047,0,0,0-1.842-.177,8.858,8.858,0,0,0-3.263.33,1.752,1.752,0,0,0-.517.411c-.163.2-.187.311-.067.33a1.678,1.678,0,0,1,1.163.589l.081.163a2.676,2.676,0,0,1,.191.627,6.645,6.645,0,0,1,.124,1,11.23,11.23,0,0,1,0,1.708q-.072.711-.129,1.105a2.135,2.135,0,0,1-.187.641c-.081.163-.139.263-.163.3a.214.214,0,0,1-.067.067,1.069,1.069,0,0,1-.368.067.847.847,0,0,1-.464-.191,3.125,3.125,0,0,1-.565-.526,7.323,7.323,0,0,1-.665-.938c-.244-.4-.5-.876-.766-1.421l-.22-.4c-.139-.254-.325-.627-.56-1.115S5.744,8.66,5.562,8.2a.879.879,0,0,0-.33-.435l-.067-.043a.76.76,0,0,0-.22-.115,1.409,1.409,0,0,0-.316-.091L.887,7.545a.959.959,0,0,0-.78.258l-.053.081a.435.435,0,0,0-.043.22,1.122,1.122,0,0,0,.081.368Q.911,10.4,1.878,12.191c.646,1.2,1.2,2.153,1.675,2.88S4.509,16.488,5,17.133s.818,1.062.976,1.244.287.321.378.411l.34.33a8.389,8.389,0,0,0,.962.785q.639.459,1.407.9a7.675,7.675,0,0,0,1.794.722,6.169,6.169,0,0,0,2,.225h1.569a1.086,1.086,0,0,0,.722-.3l.053-.067a.769.769,0,0,0,.1-.254,1.34,1.34,0,0,0,.048-.378,4.271,4.271,0,0,1,.091-1.057,2.526,2.526,0,0,1,.234-.708,1.891,1.891,0,0,1,.292-.4.981.981,0,0,1,.234-.2.638.638,0,0,1,.11-.048.876.876,0,0,1,.77.211,4.468,4.468,0,0,1,.833.794c.258.316.569.665.938,1.057a6.382,6.382,0,0,0,.957.876l.273.163a3.286,3.286,0,0,0,.713.3,1.507,1.507,0,0,0,.766.067l3.5-.053a1.556,1.556,0,0,0,.8-.172.66.66,0,0,0,.34-.378,1.007,1.007,0,0,0,0-.464A2.38,2.38,0,0,0,26.1,20.392Z" transform="translate(0.99 -6.296)"/></g></g></svg>