<svg width="24" height="24" viewBox="0 0 24 24" fill="none" xmlns="http://www.w3.org/2000/svg">
<path d="M0 12C0 5.37258 5.37258 0 12 0C18.6274 0 24 5.37258 24 12C24 18.6274 18.6274 24 12 24C5.37258 24 0 18.6274 0 12Z" fill="#5181B8"/>
<path fill-rule="evenodd" clip-rule="evenodd" d="M19.6329 8.2673C19.7442 7.89647 19.6329 7.6239 19.1035 7.6239H17.3531C16.908 7.6239 16.703 7.85933 16.5917 8.11902C16.5917 8.11902 15.7015 10.2886 14.4404 11.698C14.0325 12.1059 13.847 12.2356 13.6245 12.2356C13.5132 12.2356 13.3522 12.1059 13.3522 11.7351V8.2673C13.3522 7.8222 13.223 7.6239 12.8521 7.6239H10.1014C9.82336 7.6239 9.65607 7.83045 9.65607 8.02625C9.65607 8.44822 10.2865 8.54549 10.3515 9.73227V12.31C10.3515 12.8751 10.2495 12.9777 10.0269 12.9777C9.43352 12.9777 7.99018 10.7981 7.13398 8.30444C6.96619 7.8197 6.7979 7.6239 6.35055 7.6239H4.60014C4.10002 7.6239 4 7.85933 4 8.11902C4 8.58263 4.59351 10.8822 6.76314 13.9234C8.20973 16.0001 10.2475 17.1261 12.1019 17.1261C13.2147 17.1261 13.3522 16.8761 13.3522 16.4453V14.8756C13.3522 14.3755 13.4576 14.2757 13.8098 14.2757C14.0696 14.2757 14.5146 14.4055 15.5532 15.4068C16.74 16.5935 16.9355 17.1261 17.6032 17.1261H19.3536C19.8537 17.1261 20.1038 16.8761 19.9595 16.3826C19.8017 15.8907 19.2351 15.1773 18.4831 14.3313C18.0752 13.8491 17.4631 13.3299 17.2779 13.0703C17.0182 12.7365 17.0923 12.5882 17.2779 12.2916C17.2779 12.2916 19.4103 9.28742 19.6329 8.26743V8.2673Z" fill="white"/>
</svg>
