<svg data-token-name="wallet" width="24" height="24" viewBox="0 0 24 24" fill="none" xmlns="http://www.w3.org/2000/svg">
<path d="M6 20H18C19.657 20 21 18.657 21 17V6C21 4.895 20.105 4 19 4H5C3.895 4 3 4.895 3 6V17C3 18.657 4.343 20 6 20Z" stroke="currentColor" stroke-width="1.5" stroke-linecap="round" stroke-linejoin="round"/>
<path d="M21 11.5H17.5C16.97 11.5 16.461 11.711 16.086 12.086L15.258 12.914C14.883 13.289 14.374 13.5 13.844 13.5H10.743C10.213 13.5 9.704 13.289 9.329 12.914L8.5 12.086C8.125 11.711 7.616 11.5 7.086 11.5H3" stroke="currentColor" stroke-width="1.5" stroke-linecap="round" stroke-linejoin="round"/>
<path d="M21 8H3" stroke="currentColor" stroke-width="1.5" stroke-linecap="round" stroke-linejoin="round"/>
</svg>
