<svg data-token-name="warning" width="24" height="24" viewBox="0 0 24 24" fill="none" xmlns="http://www.w3.org/2000/svg">
<path d="M12 15V8M12 18.5V18M13.4409 2.89758C13.3086 2.62825 13.1035 2.4014 12.8488 2.24275C12.5941 2.0841 12.3001 2 12 2C11.6999 2 11.4059 2.0841 11.1512 2.24275C10.8965 2.4014 10.6914 2.62825 10.5591 2.89758L2.13868 20.0515C2.03732 20.2577 1.99017 20.4864 2.0017 20.7158C2.01323 20.9453 2.08305 21.168 2.20457 21.363C2.32608 21.558 2.49529 21.7189 2.69621 21.8303C2.89713 21.9417 3.12314 22.0002 3.3529 22H20.6471C20.8769 22.0002 21.1029 21.9417 21.3038 21.8303C21.5047 21.7189 21.6739 21.558 21.7954 21.363C21.9169 21.168 21.9868 20.9453 21.9983 20.7158C22.0098 20.4864 21.9627 20.2577 21.8613 20.0515L13.4409 2.89758Z" stroke="currentColor" fill="none"  stroke-width="1.5" stroke-linecap="round" stroke-linejoin="round"/>
</svg>
