<svg data-token-name="webmoney_colored" width="24" height="24" viewBox="0 0 24 24" fill="none" xmlns="http://www.w3.org/2000/svg">
<path d="M0 12C0 5.37258 5.37258 0 12 0C18.6274 0 24 5.37258 24 12C24 18.6274 18.6274 24 12 24C5.37258 24 0 18.6274 0 12Z" fill="#006CB4"/>
<path d="M11.9665 5.00086C13.059 5.00086 14.0983 5.25481 15.0307 5.70909C15.1769 5.77584 15.324 5.85621 15.4698 5.93666L14.8308 6.51217L13.872 5.50877L12.2205 6.97964L11.2478 5.92349L8.21047 8.66497L10.1553 10.8177L9.39599 11.4855L11.3145 13.6383L10.5551 14.3069L13.3 17.3691L14.9242 15.871L16.3369 17.4764C16.057 17.6903 15.7506 17.9047 15.4179 18.0914C14.4055 18.667 13.2329 19 11.9803 19C8.13043 19 5.00004 15.8587 5.00004 11.9943C4.98696 8.15663 8.11744 5 11.9669 5L11.9665 5.00086ZM10.6875 11.5659L12.3533 10.0678L13.8452 11.7399L12.1794 13.2372L10.6875 11.5655V11.5659ZM11.873 14.4546L13.5259 12.9433L15.0307 14.6149L13.3649 16.1131L11.873 14.4546ZM9.50287 8.71767L11.1673 7.2204L12.6601 8.89164L10.9943 10.3898L9.50287 8.71767ZM12.5532 7.9159L13.7915 6.7925L14.9108 8.03585L13.6712 9.17242L12.5523 7.9159H12.5532ZM14.7641 13.0636L16.0025 11.9407L17.1218 13.1972L15.8826 14.321L14.7641 13.0636ZM15.8562 15.5911L17.0954 14.4677L18.2139 15.7111L16.9751 16.8477L15.8562 15.5911ZM16.3624 9.81386L17.1889 9.06565L17.9344 9.89468L17.1088 10.6433L16.3624 9.81386ZM15.2968 7.34034L16.1232 6.57856L16.8695 7.42117L16.0431 8.17024L15.2972 7.3408L15.2968 7.34034ZM17.4156 12.2886L18.2411 11.5396L19 12.3686L18.1606 13.1172L17.4156 12.2886ZM13.6989 10.4293L14.9377 9.30641L16.0565 10.5498L14.8182 11.6732L13.6989 10.4293Z" fill="white"/>
</svg>
