<?xml version="1.0" encoding="utf-8"?>
<!-- Generator: Adobe Illustrator 23.1.0, SVG Export Plug-In . SVG Version: 6.00 Build 0)  -->
<svg version="1.1" id="Layer_1" xmlns="http://www.w3.org/2000/svg" xmlns:xlink="http://www.w3.org/1999/xlink" x="0px" y="0px"
	 viewBox="0 0 24 24" style="enable-background:new 0 0 24 24;" xml:space="preserve">
<style type="text/css">
	.st0{fill:none;}
</style>
<path class="st0" d="M0,0h24v24H0V0z"/>
<path id="Combined-Shape" d="M12,1.7c1.6,0,3.2,0.4,4.6,1C16.7,2.9,17,3,17.2,3.1l-1,0.8l-1.4-1.5l-2.5,2.2l-1.5-1.6l-4.5,4l2.9,3.2
	l-1.1,1l2.9,3.2l-1.1,1l4.1,4.5l2.4-2.2l2.1,2.4c-0.4,0.3-0.9,0.6-1.4,0.9c-1.5,0.8-3.3,1.3-5.1,1.3C6.2,22.3,1.6,17.7,1.6,12
	C1.5,6.4,6.2,1.7,12,1.7z M10,11.4l2.5-2.2l2.2,2.5l-2.5,2.2L10,11.4z M11.8,15.6l2.5-2.2l2.2,2.5L14,18L11.8,15.6z M8.3,7.2L10.8,5
	L13,7.4l-2.5,2.2L8.3,7.2z M12.8,6l1.8-1.6l1.7,1.8l-1.8,1.7L12.8,6z M16.1,13.6l1.8-1.6l1.7,1.8l-1.8,1.7L16.1,13.6z M17.8,17.3
	l1.8-1.6l1.7,1.8l-1.8,1.7L17.8,17.3z M18.5,8.8l1.2-1.1l1.1,1.2L19.6,10L18.5,8.8z M16.9,5.2L18.1,4l1.1,1.2L18,6.4L16.9,5.2z
	 M20.1,12.4l1.2-1.1l1.1,1.2l-1.3,1.1L20.1,12.4z M14.5,9.7L16.4,8L18,9.9l-1.8,1.6L14.5,9.7z"/>
</svg>
