<svg data-token-name="website_colored" width="24" height="24" viewBox="0 0 24 24" fill="none" xmlns="http://www.w3.org/2000/svg">
<path d="M0 12C0 5.37258 5.37258 0 12 0C18.6274 0 24 5.37258 24 12C24 18.6274 18.6274 24 12 24C5.37258 24 0 18.6274 0 12Z" fill="#485A6C"/>
<path d="M14.6294 12L16.8168 14.1876C17.0611 14.4318 17.0611 14.8272 16.8168 15.0709L15.071 16.8168C14.8267 17.0611 14.4314 17.0611 14.1878 16.8168L12.0003 14.6292L10.6911 15.9385C10.3625 16.2671 9.80346 16.1347 9.65667 15.6943L7.03322 7.82281C6.87019 7.33494 7.33492 6.87018 7.82338 7.03322L15.6944 9.65684C16.1347 9.80364 16.2672 10.3627 15.9386 10.6913L14.6294 12" stroke="white" fill="none"  stroke-width="1.5" stroke-linecap="round" stroke-linejoin="round"/>
</svg>
