<svg width="24" height="24" viewBox="0 0 24 24" fill="none" xmlns="http://www.w3.org/2000/svg">
<path d="M0 12C0 5.37258 5.37258 0 12 0C18.6274 0 24 5.37258 24 12C24 18.6274 18.6274 24 12 24C5.37258 24 0 18.6274 0 12Z" fill="#0DC143"/>
<path d="M17.3752 6.60574C16.0887 5.28142 14.3104 4.5625 12.4941 4.5625C8.63468 4.5625 5.53198 7.70304 5.56982 11.5247C5.56982 12.7355 5.91036 13.9084 6.47792 14.9679L5.49414 18.5625L9.16441 17.6166C10.186 18.1841 11.3212 18.449 12.4563 18.449C16.2779 18.449 19.3806 15.3084 19.3806 11.4868C19.3806 9.63277 18.6617 7.89223 17.3752 6.60574ZM12.4941 17.276C11.4725 17.276 10.4509 17.0111 9.58063 16.4814L9.3536 16.3679L7.15901 16.9355L7.72657 14.7787L7.57522 14.5517C5.91036 11.8652 6.70495 8.30845 9.42928 6.64358C12.1536 4.97872 15.6725 5.77331 17.3374 8.49764C19.0022 11.222 18.2077 14.7409 15.4833 16.4057C14.6131 16.9733 13.5536 17.276 12.4941 17.276ZM15.8239 13.076L15.4077 12.8868C15.4077 12.8868 14.8022 12.622 14.4239 12.4328C14.386 12.4328 14.3482 12.3949 14.3104 12.3949C14.1968 12.3949 14.1212 12.4328 14.0455 12.4706C14.0455 12.4706 14.0077 12.5084 13.4779 13.1139C13.4401 13.1895 13.3644 13.2274 13.2887 13.2274H13.2509C13.2131 13.2274 13.1374 13.1895 13.0995 13.1517L12.9104 13.076C12.4941 12.8868 12.1158 12.6598 11.8131 12.3571C11.7374 12.2814 11.6239 12.2057 11.5482 12.1301C11.2833 11.8652 11.0185 11.5625 10.8293 11.222L10.7914 11.1463C10.7536 11.1084 10.7536 11.0706 10.7158 10.9949C10.7158 10.9193 10.7158 10.8436 10.7536 10.8057C10.7536 10.8057 10.905 10.6166 11.0185 10.503C11.0941 10.4274 11.132 10.3139 11.2077 10.2382C11.2833 10.1247 11.3212 9.97331 11.2833 9.8598C11.2455 9.67061 10.7914 8.64899 10.6779 8.42196C10.6022 8.30845 10.5266 8.27061 10.4131 8.23277H10.2995C10.2239 8.23277 10.1104 8.23277 9.99684 8.23277C9.92117 8.23277 9.84549 8.27061 9.76982 8.27061L9.73198 8.30845C9.6563 8.34628 9.58063 8.42196 9.50495 8.4598C9.42928 8.53547 9.39144 8.61115 9.31576 8.68682C9.0509 9.02736 8.89955 9.44358 8.89955 9.8598C8.89955 10.1625 8.97522 10.4652 9.08874 10.7301L9.12657 10.8436C9.46711 11.5625 9.92117 12.2057 10.5266 12.7733L10.6779 12.9247C10.7914 13.0382 10.905 13.1139 10.9806 13.2274C11.7752 13.9084 12.6833 14.4003 13.705 14.6652C13.8185 14.703 13.9698 14.703 14.0833 14.7409C14.1968 14.7409 14.3482 14.7409 14.4617 14.7409C14.6509 14.7409 14.8779 14.6652 15.0293 14.5895C15.1428 14.5139 15.2185 14.5139 15.2941 14.4382L15.3698 14.3625C15.4455 14.2868 15.5212 14.249 15.5968 14.1733C15.6725 14.0976 15.7482 14.022 15.786 13.9463C15.8617 13.7949 15.8995 13.6057 15.9374 13.4166C15.9374 13.3409 15.9374 13.2274 15.9374 13.1517C15.9374 13.1517 15.8995 13.1139 15.8239 13.076Z" fill="white"/>
</svg>
