<?xml version="1.0" encoding="utf-8"?>
<!-- Generator: Adobe Illustrator 23.1.0, SVG Export Plug-In . SVG Version: 6.00 Build 0)  -->
<svg version="1.1" id="Layer_1" xmlns="http://www.w3.org/2000/svg" xmlns:xlink="http://www.w3.org/1999/xlink" x="0px" y="0px"
	 viewBox="0 0 24 24" style="enable-background:new 0 0 24 24;" xml:space="preserve">
<style type="text/css">
	.st0{fill:none;}
</style>
<path class="st0" d="M0,0h24v24H0V0z"/>
<g>
	<g>
		<path d="M19,5c-1.8-1.8-4.1-2.7-6.6-2.7S7.6,3.2,5.8,5s-2.7,4.1-2.7,6.6c0,1.6,0.4,3.1,1.2,4.5l-2,5.6l5.6-2
			c1.4,0.8,2.9,1.2,4.5,1.2c2.5,0,4.8-1,6.6-2.7s2.7-4.1,2.7-6.6S20.8,6.8,19,5z M17,15.1L16,16.1c-0.9,0.9-3.4-0.2-5.7-2.4
			C8.1,11.5,7,8.9,7.9,8.1L8.9,7c0.2-0.2,0.6-0.2,0.8,0l1.3,1.3c0.2,0.2,0.2,0.6,0,0.8l-0.8,0.8c0.8,1.7,2.1,3,3.8,3.8l0.8-0.8
			c0.2-0.2,0.6-0.2,0.8,0l1.3,1.3C17.3,14.5,17.3,14.8,17,15.1z"/>
	</g>
</g>
</svg>
