<svg xmlns="http://www.w3.org/2000/svg" width="28" height="28" viewBox="0 0 28 28"><defs><clipPath id="a"><rect width="28" height="28" rx="4" transform="translate(166 310)"/></clipPath></defs><g transform="translate(-166 -310)"><path d="M49.647,27.436v9.857L34.383,42.327,46.455,34V27.265h.01V15.958s-8.639,6.877-11.337,8.89c-3.262,2.437-3.393,3.433-3.393,5V41.9a2.063,2.063,0,0,0,2.054,2.054H53.04V27.436Zm-8.709-.524c.7-.856,1.742-1.148,2.306-.675s.453,1.561-.252,2.416-1.742,1.148-2.306.675C40.122,28.836,40.233,27.758,40.938,26.913Z" transform="translate(137.612 294.042)"/></g></svg>