<svg data-token-name="yoomoney_colored" width="24" height="24" viewBox="0 0 24 24" fill="none" xmlns="http://www.w3.org/2000/svg">
<path d="M0 12C0 5.37258 5.37258 0 12 0C18.6274 0 24 5.37258 24 12C24 18.6274 18.6274 24 12 24C5.37258 24 0 18.6274 0 12Z" fill="#8B3FFD"/>
<path d="M14.309 6C11.1341 6 8.61892 8.47093 8.61892 11.5C8.61892 14.5291 11.1756 17 14.309 17C17.4428 17 19.9995 14.5291 19.9995 11.5C20.0414 8.47093 17.4432 6 14.3094 6H14.309ZM14.309 13.533C13.1548 13.533 12.165 12.6163 12.165 11.5C12.165 10.3837 13.1137 9.46704 14.3094 9.46704C15.5051 9.46704 16.4538 10.3837 16.4538 11.5C16.4123 12.6163 15.5051 13.533 14.3094 13.533H14.309ZM8.6185 7.6337V15.6446H6.5978L4 7.6337H8.6185Z" fill="white"/>
</svg>
