<svg data-token-name="youtube_outlined" width="24" height="24" viewBox="0 0 24 24" fill="none" xmlns="http://www.w3.org/2000/svg">
<path d="M20.8394 7.34203C20.6294 6.42172 20.008 5.69573 19.2178 5.44641C17.7888 5 12.0551 5 12.0551 5C12.0551 5 6.32426 5 4.89246 5.44641C4.10506 5.69207 3.48358 6.41805 3.27091 7.34203C2.88867 9.01216 2.88867 12.5 2.88867 12.5C2.88867 12.5 2.88867 15.9878 3.27091 17.658C3.48083 18.5783 4.10231 19.3043 4.89246 19.5536C6.32426 20 12.0551 20 12.0551 20C12.0551 20 17.7888 20 19.2178 19.5536C20.0052 19.3079 20.6267 18.582 20.8394 17.658C21.2216 15.9878 21.2216 12.5 21.2216 12.5C21.2216 12.5 21.2216 9.01216 20.8394 7.34203Z" stroke="currentColor" stroke-width="1.5" stroke-linecap="round" stroke-linejoin="round"/>
<path d="M10.2227 15.2499L14.9856 12.5L10.2227 9.75006V15.2499Z" stroke="currentColor" stroke-width="1.5" stroke-linecap="round" stroke-linejoin="round"/>
</svg>
