<svg data-token-name="youtube_circled" width="24" height="24" viewBox="0 0 24 24" fill="none" xmlns="http://www.w3.org/2000/svg">
<path d="M0 12C0 5.37258 5.37258 0 12 0V0C18.6274 0 24 5.37258 24 12V12C24 18.6274 18.6274 24 12 24V24C5.37258 24 0 18.6274 0 12V12Z" fill="currentColor"/>
<path d="M12.3546 17.9846L9.07201 17.9195C8.00914 17.8969 6.94366 17.9422 5.90168 17.7072C4.31652 17.3561 4.20422 15.6346 4.08671 14.1906C3.9248 12.1605 3.98747 10.0936 4.29301 8.08047C4.46537 6.95075 5.14435 6.27689 6.19417 6.20327C9.73794 5.93712 13.3052 5.96827 16.8412 6.09285C17.2146 6.10417 17.5906 6.16646 17.9589 6.23725C19.7765 6.58268 19.8208 8.53349 19.9384 10.1757C20.0559 11.8349 20.0063 13.5026 19.7817 15.1504C19.6015 16.5151 19.2568 17.659 17.8022 17.7694C15.9794 17.9138 14.1983 18.0299 12.3703 17.9931C12.3703 17.9846 12.3599 17.9846 12.3546 17.9846ZM10.4248 14.5303C11.7984 13.6753 13.1459 12.8344 14.5117 11.9849C13.1355 11.1299 11.7906 10.2889 10.4248 9.43953V14.5303Z" fill="white"/>
</svg>
