<svg  data-token-name="youtube_circled_second" width="24" height="24" viewBox="0 0 56 56" fill="none" xmlns="http://www.w3.org/2000/svg">
<rect width="56" height="56" rx="28" fill="currentColor"/>
<path fill-rule="evenodd" clip-rule="evenodd" d="M38.4187 17.7402C39.568 18.1028 40.472 19.1588 40.7773 20.4975C41.3333 22.9268 41.3333 28.0002 41.3333 28.0002C41.3333 28.0002 41.3333 33.0735 40.7773 35.5028C40.468 36.8468 39.564 37.9028 38.4187 38.2602C36.34 38.9095 28 38.9095 28 38.9095C28 38.9095 19.664 38.9095 17.5813 38.2602C16.432 37.8975 15.528 36.8415 15.2227 35.5028C14.6667 33.0735 14.6667 28.0002 14.6667 28.0002C14.6667 28.0002 14.6667 22.9268 15.2227 20.4975C15.532 19.1535 16.436 18.0975 17.5813 17.7402C19.664 17.0908 28 17.0908 28 17.0908C28 17.0908 36.34 17.0908 38.4187 17.7402ZM32.2639 28.0002L25.3359 32.0002V24.0002L32.2639 28.0002Z" fill="white"/>
</svg>
