<svg data-token-name="youtube_circled_second" width="24" height="24" viewBox="0 0 24 24" fill="none" xmlns="http://www.w3.org/2000/svg">
    <path d="M0 12C0 5.37258 5.37258 0 12 0C18.6274 0 24 5.37258 24 12C24 18.6274 18.6274 24 12 24C5.37258 24 0 18.6274 0 12Z" fill="currentColor"/>
    <path d="M12.3103 16.9872L9.43801 16.9329C8.508 16.914 7.5757 16.9518 6.66397 16.756C5.27695 16.4634 5.1787 15.0288 5.07587 13.8255C4.9342 12.1337 4.98904 10.4113 5.25639 8.73373C5.4072 7.7923 6.00131 7.23074 6.9199 7.16939C10.0207 6.9476 13.1421 6.97356 16.236 7.07737C16.5628 7.08681 16.8918 7.13872 17.214 7.19771C18.8044 7.48556 18.8432 9.11124 18.9461 10.4797C19.0489 11.8624 19.0055 13.2521 18.809 14.6253C18.6513 15.7626 18.3497 16.7158 17.0769 16.8079C15.4819 16.9282 13.9235 17.0249 12.324 16.9943C12.324 16.9872 12.3149 16.9872 12.3103 16.9872ZM10.6217 14.1086C11.8236 13.3961 13.0027 12.6953 14.1978 11.9874C12.9935 11.2749 11.8167 10.5741 10.6217 9.86628V14.1086Z" fill="white"/>
</svg>
