<svg data-token-name="zcash_colored" width="24" height="24" viewBox="0 0 24 24" fill="none" xmlns="http://www.w3.org/2000/svg">
<path d="M0 12C0 5.37258 5.37258 0 12 0C18.6274 0 24 5.37258 24 12C24 18.6274 18.6274 24 12 24C5.37258 24 0 18.6274 0 12Z" fill="#FFC634"/>
<path d="M12.6357 9.30904C11.158 9.30904 9.71207 9.30904 8.2571 9.30904C8.2571 8.52518 8.2571 7.75008 8.2571 6.96184C8.30711 6.96184 8.34803 6.96184 8.3935 6.96184C9.15736 6.96184 9.92577 6.96184 10.6896 6.96184C10.8533 6.96184 10.8533 6.96184 10.8533 6.79981C10.8533 6.24367 10.8533 5.6919 10.8533 5.13575C10.8533 5.09196 10.8533 5.04817 10.8533 5C11.6172 5 12.3719 5 13.1358 5C13.1358 5.04817 13.1358 5.09196 13.1358 5.13575C13.1358 5.68314 13.1404 6.23053 13.1313 6.77792C13.1313 6.88302 13.1585 6.91367 13.2677 6.91367C14.1179 6.90929 14.9636 6.91367 15.8139 6.91367C15.8593 6.91367 15.9048 6.91367 15.9457 6.91367C15.9594 7.06256 15.973 7.19393 15.9776 7.32531C15.9867 7.64498 16.0094 7.96465 15.9957 8.28433C15.9821 8.604 15.9548 8.92806 15.9003 9.24335C15.873 9.38348 15.7775 9.52799 15.6775 9.64185C15.1591 10.2593 14.6363 10.8636 14.1134 11.4767C13.2631 12.4708 12.4129 13.4648 11.5626 14.4589C11.499 14.5333 11.4353 14.599 11.3535 14.691C12.8903 14.691 14.3998 14.691 15.9185 14.691C15.9185 15.4792 15.9185 16.2543 15.9185 17.0425C14.9818 17.0425 14.0543 17.0425 13.1085 17.0425C13.1449 17.6994 13.1813 18.3475 13.2131 19C12.422 19 11.6445 19 10.8488 19C10.8488 18.3607 10.8488 17.7169 10.8488 17.0688C9.90304 17.0688 8.97095 17.0688 8.03885 17.0688C8.02976 17.0469 8.02067 17.0338 8.02067 17.0206C8.01157 16.4689 7.99338 15.9127 8.00248 15.361C8.01157 14.9274 8.13888 14.5421 8.44352 14.1917C9.2483 13.2721 10.0213 12.3262 10.8169 11.3935C11.3807 10.7322 11.9582 10.0798 12.5311 9.4229C12.5629 9.39662 12.5902 9.36597 12.6357 9.30904Z" fill="white"/>
</svg>
